<?xml version="1.0" encoding="UTF-8" standalone="no"?>
<!-- Created with Inkscape (http://www.inkscape.org/) -->

<svg
   xmlns:dc="http://purl.org/dc/elements/1.1/"
   xmlns:cc="http://creativecommons.org/ns#"
   xmlns:rdf="http://www.w3.org/1999/02/22-rdf-syntax-ns#"
   xmlns:svg="http://www.w3.org/2000/svg"
   xmlns="http://www.w3.org/2000/svg"
   xmlns:sodipodi="http://sodipodi.sourceforge.net/DTD/sodipodi-0.dtd"
   xmlns:inkscape="http://www.inkscape.org/namespaces/inkscape"
   width="68mm"
   height="68mm"
   viewBox="0 0 68 68"
   version="1.1"
   id="svg8"
   inkscape:version="0.92.5 (2060ec1f9f, 2020-04-08)"
   sodipodi:docname="square-light.svg"
   inkscape:export-filename="/home/ben/git/design/nengo-edge/logo.png"
   inkscape:export-xdpi="56.029999"
   inkscape:export-ydpi="56.029999">
  <defs
     id="defs2">
    <clipPath
       id="p594bf549dd">
      <rect
         id="rect409"
         y="79.199997"
         x="54"
         width="334.79999"
         height="613.79999" />
    </clipPath>
    <clipPath
       id="clipPath6004">
      <rect
         id="rect6002"
         y="79.199997"
         x="54"
         width="334.79999"
         height="613.79999" />
    </clipPath>
    <clipPath
       id="clipPath6008">
      <rect
         id="rect6006"
         y="79.199997"
         x="54"
         width="334.79999"
         height="613.79999" />
    </clipPath>
    <clipPath
       id="clipPath6012">
      <rect
         id="rect6010"
         y="79.199997"
         x="54"
         width="334.79999"
         height="613.79999" />
    </clipPath>
    <clipPath
       id="p594bf549dd-7">
      <rect
         height="613.79999"
         width="334.79999"
         x="54"
         y="79.199997"
         id="rect409-5" />
    </clipPath>
    <clipPath
       id="clipPath6004-35">
      <rect
         height="613.79999"
         width="334.79999"
         x="54"
         y="79.199997"
         id="rect6002-62" />
    </clipPath>
    <clipPath
       id="clipPath6008-9">
      <rect
         height="613.79999"
         width="334.79999"
         x="54"
         y="79.199997"
         id="rect6006-1" />
    </clipPath>
    <clipPath
       id="clipPath6012-27">
      <rect
         height="613.79999"
         width="334.79999"
         x="54"
         y="79.199997"
         id="rect6010-0" />
    </clipPath>
    <clipPath
       id="p594bf549dd-3">
      <rect
         id="rect409-6"
         y="79.199997"
         x="54"
         width="334.79999"
         height="613.79999" />
    </clipPath>
    <clipPath
       id="clipPath6004-7">
      <rect
         id="rect6002-5"
         y="79.199997"
         x="54"
         width="334.79999"
         height="613.79999" />
    </clipPath>
    <clipPath
       id="clipPath6008-3">
      <rect
         id="rect6006-5"
         y="79.199997"
         x="54"
         width="334.79999"
         height="613.79999" />
    </clipPath>
    <clipPath
       id="clipPath6012-6">
      <rect
         id="rect6010-2"
         y="79.199997"
         x="54"
         width="334.79999"
         height="613.79999" />
    </clipPath>
    <clipPath
       id="p594bf549dd-0">
      <rect
         height="613.79999"
         width="334.79999"
         x="54"
         y="79.199997"
         id="rect409-9" />
    </clipPath>
    <clipPath
       id="clipPath6004-3">
      <rect
         height="613.79999"
         width="334.79999"
         x="54"
         y="79.199997"
         id="rect6002-6" />
    </clipPath>
    <clipPath
       id="clipPath6008-0">
      <rect
         height="613.79999"
         width="334.79999"
         x="54"
         y="79.199997"
         id="rect6006-6" />
    </clipPath>
    <clipPath
       id="clipPath6012-2">
      <rect
         height="613.79999"
         width="334.79999"
         x="54"
         y="79.199997"
         id="rect6010-6" />
    </clipPath>
    <clipPath
       id="p594bf549dd-75">
      <rect
         height="613.79999"
         width="334.79999"
         x="54"
         y="79.199997"
         id="rect409-3" />
    </clipPath>
    <clipPath
       id="clipPath6004-5">
      <rect
         height="613.79999"
         width="334.79999"
         x="54"
         y="79.199997"
         id="rect6002-629" />
    </clipPath>
    <clipPath
       id="clipPath6008-1">
      <rect
         height="613.79999"
         width="334.79999"
         x="54"
         y="79.199997"
         id="rect6006-2" />
    </clipPath>
    <clipPath
       id="clipPath6012-7">
      <rect
         height="613.79999"
         width="334.79999"
         x="54"
         y="79.199997"
         id="rect6010-09" />
    </clipPath>
  </defs>
  <sodipodi:namedview
     id="base"
     pagecolor="#ffffff"
     bordercolor="#666666"
     borderopacity="1.0"
     inkscape:pageopacity="0.0"
     inkscape:pageshadow="2"
     inkscape:zoom="1.0623336"
     inkscape:cx="-7.7282021"
     inkscape:cy="113.63402"
     inkscape:document-units="mm"
     inkscape:current-layer="g874"
     showgrid="false"
     width="400mm"
     inkscape:window-width="1865"
     inkscape:window-height="1056"
     inkscape:window-x="1975"
     inkscape:window-y="24"
     inkscape:window-maximized="1" />
  <metadata
     id="metadata5">
    <rdf:RDF>
      <cc:Work
         rdf:about="">
        <dc:format>image/svg+xml</dc:format>
        <dc:type
           rdf:resource="http://purl.org/dc/dcmitype/StillImage" />
        <dc:title />
      </cc:Work>
    </rdf:RDF>
  </metadata>
  <g
     inkscape:label="Layer 1"
     inkscape:groupmode="layer"
     id="layer1"
     transform="translate(0,-229)">
    <g
       id="g874">
      <path
         inkscape:connector-curvature="0"
         id="path4566"
         d="m 35.243097,278.57301 -0.684712,-0.25787 c -0.004,-10e-4 -0.0081,-0.003 -0.01188,-0.004 l -0.760161,-0.28371 c -0.003,-10e-4 -0.0068,-0.003 -0.0098,-0.004 l -0.760161,-0.28009 c -0.003,-10e-4 -0.0073,-0.003 -0.01035,-0.004 l -0.760162,-0.27646 c -0.003,-10e-4 -0.0048,-0.003 -0.0078,-0.004 l -0.760158,-0.2744 c -0.003,-0.001 -0.0073,-0.003 -0.01035,-0.004 l -0.760158,-0.27232 c -0.003,-8e-4 -0.0048,-0.001 -0.0078,-0.002 l -0.760162,-0.27026 c -0.003,-10e-4 -0.0053,-0.003 -0.0083,-0.004 l -0.760158,-0.26665 c -0.0021,-10e-4 -0.0042,-0.003 -0.0062,-0.004 l -0.760161,-0.26458 c -0.003,-8e-4 -0.0048,-0.001 -0.0078,-0.002 l -0.760158,-0.26458 c -0.0021,-8e-4 -0.0042,-10e-4 -0.0062,-0.002 l -0.760162,-0.26251 c -0.003,-7.9e-4 -0.0053,-0.001 -0.0083,-0.002 l -0.760159,-0.25839 c -0.002,-7.9e-4 -0.0037,-10e-4 -0.0057,-0.002 L 25.33598,275.0448 c -0.002,-7.9e-4 -0.004,-0.001 -0.006,-0.002 l -0.76016,-0.25684 -0.004,-0.002 -0.76016,-0.25477 c -0.002,-7.9e-4 -0.004,-0.001 -0.006,-0.002 l -0.76067,-0.25269 c -0.002,-8e-4 -0.004,-10e-4 -0.006,-0.002 l -0.76016,-0.25063 -0.004,-0.002 -0.76016,-0.24856 c -0.002,-7.9e-4 -0.004,-0.001 -0.006,-0.002 l -0.76017,-0.24908 -0.004,-0.002 -0.76016,-0.24702 -0.004,-0.002 -0.76016,-0.24495 c -0.002,-7.9e-4 -0.004,-0.001 -0.006,-0.002 l -0.76016,-0.24493 -0.004,-0.002 -0.76016,-0.24288 -0.004,-0.002 -0.76016,-0.24081 -0.004,-0.002 -0.13126,-0.0413 v 6.50963 l 0.52659,0.17053 0.75396,0.24288 0.75654,0.2465 0.75448,0.24701 0.75602,0.24908 0.75448,0.24855 0.75447,0.25063 0.75396,0.25322 0.75448,0.25425 0.75447,0.25683 0.75448,0.25682 0.751892,0.25838 0.754476,0.26252 0.752409,0.26251 0.752409,0.26459 0.752408,0.26872 0.750343,0.26819 0.752409,0.27233 0.750342,0.2744 0.750343,0.27647 0.748789,0.28009 0.750342,0.28214 0.746207,0.28577 0.748792,0.28836 0.74621,0.29197 0.744657,0.29765 0.744656,0.29972 0.74259,0.3054 0.740524,0.30955 0.738458,0.31574 0.736904,0.32142 0.732771,0.32711 0.730705,0.33486 0.727089,0.34313 0.720886,0.35244 0.7152,0.36276 0.709002,0.37207 0.697632,0.38809 0.683678,0.40151 0.662493,0.4191 0.634587,0.4408 0.58601,0.45682 0.49971,0.46404 0.07648,0.0925 1.984891,4.34958 -2.041736,-5.80943 -0.380339,-0.69349 -0.601514,-0.85265 -0.646472,-0.7953 -0.671793,-0.75447 -0.691947,-0.71881 -0.705384,-0.69143 -0.713134,-0.67024 -0.71882,-0.65267 -0.725019,-0.63457 -0.729155,-0.62116 -0.734322,-0.60925 -0.734838,-0.5979 -0.738973,-0.58962 -0.738457,-0.57774 -0.742591,-0.57206 -0.74259,-0.56429 -0.744656,-0.55863 -0.744141,-0.55035 z"
         style="color:#000000;font-style:normal;font-variant:normal;font-weight:normal;font-stretch:normal;font-size:medium;line-height:normal;font-family:sans-serif;text-indent:0;text-align:start;text-decoration:none;text-decoration-line:none;text-decoration-style:solid;text-decoration-color:#000000;letter-spacing:normal;word-spacing:normal;text-transform:none;writing-mode:lr-tb;direction:ltr;baseline-shift:baseline;text-anchor:start;white-space:normal;clip-rule:nonzero;display:inline;overflow:visible;visibility:visible;opacity:1;isolation:auto;mix-blend-mode:normal;color-interpolation:sRGB;color-interpolation-filters:linearRGB;solid-color:#000000;solid-opacity:1;fill:#99bedc;fill-opacity:1;fill-rule:nonzero;stroke:none;stroke-width:6.19988155;stroke-linecap:butt;stroke-linejoin:round;stroke-miterlimit:100;stroke-dasharray:none;stroke-dashoffset:0;stroke-opacity:1;color-rendering:auto;image-rendering:auto;shape-rendering:auto;text-rendering:auto;enable-background:accumulate" />
      <path
         inkscape:connector-curvature="0"
         id="path4571"
         d="m 32.267569,268.91474 -0.108002,-0.0729 c -0.003,-0.002 -0.0048,-0.004 -0.0078,-0.006 l -0.760161,-0.51107 c -0.003,-0.002 -0.0073,-0.004 -0.01035,-0.006 l -0.760161,-0.50746 c -0.003,-0.002 -0.0047,-0.004 -0.0078,-0.006 l -0.760161,-0.50126 c -0.003,-0.002 -0.0073,-0.004 -0.01035,-0.006 l -0.760161,-0.4997 c -0.003,-0.002 -0.0048,-0.004 -0.0078,-0.006 l -0.760159,-0.49557 c -0.003,-0.001 -0.0053,-0.003 -0.0083,-0.004 l -0.760161,-0.49402 c -0.003,-0.001 -0.0053,-0.003 -0.0083,-0.004 l -0.758092,-0.48989 c -0.003,-0.002 -0.0048,-0.004 -0.0078,-0.006 l -0.760161,-0.48575 c -0.003,-0.001 -0.0053,-0.003 -0.0083,-0.004 l -0.76016,-0.48368 c -0.003,-0.001 -0.005,-0.003 -0.008,-0.004 l -0.75861,-0.48214 c -0.003,-10e-4 -0.005,-0.003 -0.008,-0.004 l -0.76016,-0.47801 c -0.003,-10e-4 -0.005,-0.003 -0.008,-0.004 l -0.75809,-0.47438 c -0.003,-0.001 -0.005,-0.003 -0.008,-0.004 l -0.76016,-0.47181 c -0.002,-10e-4 -0.004,-0.003 -0.006,-0.004 l -0.76016,-0.47026 c -0.002,-10e-4 -0.004,-0.003 -0.006,-0.004 l -0.76016,-0.4661 c -0.003,-10e-4 -0.005,-0.003 -0.008,-0.004 l -0.76016,-0.46457 c -0.002,-10e-4 -0.004,-0.003 -0.006,-0.004 l -0.75655,-0.45889 c -0.002,-0.001 -0.004,-0.003 -0.006,-0.004 l -0.76016,-0.45836 c -0.002,-10e-4 -0.004,-0.003 -0.006,-0.004 l -0.76016,-0.45837 c -0.002,-7.9e-4 -0.004,-0.001 -0.006,-0.002 l -0.76016,-0.45475 c -0.002,-0.001 -0.004,-0.003 -0.006,-0.004 l -0.0227,-0.0135 v 7.23983 l 0.61857,0.37723 0.75448,0.4625 0.7524,0.46612 0.75396,0.46818 0.75241,0.47026 0.75448,0.47231 0.75241,0.47594 0.75241,0.48008 0.7524,0.48006 0.75241,0.48576 0.75241,0.48783 0.752411,0.48988 0.751892,0.49403 0.750857,0.49763 0.752409,0.50126 0.750342,0.50384 0.750343,0.50746 0.750339,0.51108 0.750343,0.51728 0.748276,0.51934 0.748792,0.52503 0.748273,0.52917 0.748274,0.53484 0.746725,0.53898 0.746726,0.54466 0.744141,0.55036 0.744656,0.55862 0.74259,0.56429 0.74259,0.57206 0.738458,0.57774 0.738973,0.58962 0.734838,0.5979 0.734322,0.60926 0.729154,0.62115 0.72502,0.63457 0.71882,0.65268 0.713134,0.67023 0.705384,0.69143 0.691946,0.71881 0.671793,0.75448 0.646473,0.79529 0.601514,0.85266 0.380339,0.69349 2.037085,5.79702 -2.064991,-6.9308 -0.527098,-1.25624 -0.662492,-1.26555 -0.689364,-1.16787 -0.707451,-1.09916 -0.715201,-1.05006 -0.725022,-1.01078 -0.728636,-0.98185 -0.732771,-0.956 -0.736907,-0.93482 -0.738457,-0.91467 -0.740521,-0.89968 -0.742593,-0.88314 -0.74259,-0.8723 -0.746723,-0.85627 -0.744657,-0.84645 -0.74621,-0.83612 -0.746723,-0.82682 -0.748276,-0.81545 -0.748273,-0.80924 -0.748792,-0.79943 -0.748276,-0.79116 z"
         style="color:#000000;font-style:normal;font-variant:normal;font-weight:normal;font-stretch:normal;font-size:medium;line-height:normal;font-family:sans-serif;text-indent:0;text-align:start;text-decoration:none;text-decoration-line:none;text-decoration-style:solid;text-decoration-color:#000000;letter-spacing:normal;word-spacing:normal;text-transform:none;writing-mode:lr-tb;direction:ltr;baseline-shift:baseline;text-anchor:start;white-space:normal;clip-rule:nonzero;display:inline;overflow:visible;visibility:visible;opacity:1;isolation:auto;mix-blend-mode:normal;color-interpolation:sRGB;color-interpolation-filters:linearRGB;solid-color:#000000;solid-opacity:1;fill:#76a8d0;fill-opacity:1;fill-rule:nonzero;stroke:none;stroke-width:6.19988155;stroke-linecap:butt;stroke-linejoin:round;stroke-miterlimit:100;stroke-dasharray:none;stroke-dashoffset:0;stroke-opacity:1;color-rendering:auto;image-rendering:auto;shape-rendering:auto;text-rendering:auto;enable-background:accumulate" />
      <path
         inkscape:connector-curvature="0"
         id="path4533"
         d="m 16.78428,254.0708 0.17931,0.15865 0.75241,0.67023 0.75035,0.67593 0.7524,0.67953 0.75241,0.6842 0.75241,0.68935 0.75189,0.6935 0.75086,0.69969 0.75241,0.70538 0.75189,0.70899 0.75086,0.7152 0.75241,0.71933 0.750342,0.72657 0.750342,0.73121 0.752409,0.73846 0.750342,0.74258 0.750342,0.75034 0.75034,0.75446 0.750343,0.76378 0.750342,0.76842 0.748792,0.77566 0.75034,0.78393 0.748276,0.79115 0.748792,0.79944 0.748273,0.80924 0.748276,0.81545 0.746723,0.82682 0.74621,0.83612 0.744657,0.84645 0.746723,0.85627 0.74259,0.8723 0.742593,0.88314 0.740521,0.89967 0.738457,0.91468 0.736907,0.93481 0.732771,0.95601 0.728636,0.98185 0.725022,1.01078 0.715201,1.05006 0.707451,1.09916 0.689364,1.16787 0.662492,1.26555 0.527098,1.25624 2.069126,6.94371 -2.086694,-8.15086 -0.621152,-1.90633 -0.703315,-1.78697 -0.721405,-1.6438 -0.728636,-1.54977 -0.734838,-1.48517 -0.738458,-1.43194 -0.74259,-1.38957 -0.74259,-1.35546 -0.744659,-1.32446 -0.746723,-1.29914 -0.746207,-1.27382 -0.748276,-1.25366 -0.748792,-1.23041 -0.748274,-1.2149 -0.750342,-1.19526 -0.748792,-1.17925 -0.75034,-1.16374 -0.748276,-1.14826 -0.750342,-1.13428 -0.75034,-1.12085 -0.01447,-0.0227 -0.546737,-0.54519 c -0.003,-0.003 -0.0053,-0.007 -0.0083,-0.01 l -0.760159,-0.7524 -0.0098,-0.0104 -0.760161,-0.74621 c -0.003,-0.003 -0.0073,-0.005 -0.01035,-0.008 l -0.758095,-0.74051 -0.0098,-0.01 -0.760159,-0.73277 c -0.003,-0.003 -0.0053,-0.007 -0.0083,-0.0104 l -0.760161,-0.72863 c -0.003,-0.003 -0.0068,-0.005 -0.0098,-0.008 l -0.760161,-0.72294 -0.0083,-0.008 -0.760158,-0.71726 -0.0083,-0.008 -0.760162,-0.71313 -0.0078,-0.008 -0.76016,-0.70745 c -0.003,-0.003 -0.0073,-0.005 -0.01033,-0.008 l -0.758089,-0.70124 c -0.003,-0.003 -0.007,-0.005 -0.0103,-0.008 l -0.76016,-0.69556 -0.008,-0.008 -0.76016,-0.69142 -0.008,-0.008 -0.76016,-0.68781 c -0.003,-0.002 -0.005,-0.004 -0.008,-0.006 l -0.76016,-0.68212 -0.009,-0.008 -0.76016,-0.678 c -0.003,-0.002 -0.005,-0.004 -0.008,-0.006 l -0.76016,-0.67386 -0.008,-0.008 -0.75861,-0.66765 c -0.003,-0.002 -0.005,-0.004 -0.008,-0.006 l -0.76016,-0.66405 c -0.003,-0.002 -0.005,-0.004 -0.008,-0.006 l -0.76017,-0.66041 -0.008,-0.008 -0.76016,-0.65474 c -0.003,-0.002 -0.005,-0.004 -0.008,-0.006 l -0.44803,-0.38446 z"
         style="color:#000000;font-style:normal;font-variant:normal;font-weight:normal;font-stretch:normal;font-size:medium;line-height:normal;font-family:sans-serif;text-indent:0;text-align:start;text-decoration:none;text-decoration-line:none;text-decoration-style:solid;text-decoration-color:#000000;letter-spacing:normal;word-spacing:normal;text-transform:none;writing-mode:lr-tb;direction:ltr;baseline-shift:baseline;text-anchor:start;white-space:normal;clip-rule:nonzero;display:inline;overflow:visible;visibility:visible;opacity:1;isolation:auto;mix-blend-mode:normal;color-interpolation:sRGB;color-interpolation-filters:linearRGB;solid-color:#000000;solid-opacity:1;fill:#5593c5;fill-opacity:1;fill-rule:nonzero;stroke:none;stroke-width:6.19988155;stroke-linecap:butt;stroke-linejoin:round;stroke-miterlimit:100;stroke-dasharray:none;stroke-dashoffset:0;stroke-opacity:1;color-rendering:auto;image-rendering:auto;shape-rendering:auto;text-rendering:auto;enable-background:accumulate" />
      <path
         sodipodi:nodetypes="ssssccssssssssccccccccccccccccccccccccccccccccccccccccccccccccsscsssssssscccccccccccccccccccccccccccccccccccccccccccccccccccccccccccccccccccccccccccccccccccccccccccs"
         inkscape:connector-curvature="0"
         id="path4546"
         d="m 1.70273,229.77803 c -0.80203,0 -1.20273,0.3704 -1.20273,1.11072 v 4.71941 c 0,0.74032 0.4007,1.11021 1.20273,1.11021 h 7.03343 v 52.56322 H 1.70273 C 0.9007,289.28159 0.5,289.652 0.5,290.39231 v 4.71942 c 0,0.74031 0.4007,1.1102 1.20273,1.1102 h 22.20998 c 0.80202,0 1.20325,-0.36989 1.20325,-1.1102 v -4.71942 c 0,-0.74031 -0.40123,-1.11072 -1.20325,-1.11072 h -7.12543 v -45.52985 -4.48837 l 0.61868,0.73652 0.75048,0.90553 0.75048,0.91328 0.75255,0.92105 0.75048,0.92878 0.75255,0.93862 0.75048,0.94843 0.751,0.95617 0.75203,0.966 0.75099,0.97635 0.75048,0.98357 0.752551,0.99547 0.750479,1.00529 0.750481,1.0151 0.752547,1.02493 0.750481,1.03682 0.750481,1.04818 0.750479,1.058 0.75048,1.0704 0.752548,1.08334 0.75048,1.09367 0.750998,1.10917 0.75048,1.12106 0.750478,1.1345 0.748414,1.14846 0.750482,1.16395 0.748927,1.17947 0.75048,1.19548 0.748414,1.21513 0.74893,1.23063 0.748413,1.25389 0.746344,1.27407 0.746863,1.29937 0.744794,1.3247 0.742727,1.35571 0.742727,1.38983 0.738594,1.43221 0.734973,1.48545 0.728773,1.55004 0.721535,1.64412 0.703446,1.78728 0.621267,1.90669 2.087079,8.15237 h 1.229091 1.850875 4.996998 c 0.802026,0 1.203251,-0.37041 1.203251,-1.11072 v -58.39284 h 7.125426 c 0.74033,0 1.11073,-0.37041 1.11073,-1.11073 v -4.71941 c 0,-0.74032 -0.3704,-1.11072 -1.11073,-1.11072 H 44.08729 c -0.740329,0 -1.110733,0.3704 -1.110733,1.11072 v 4.71941 c 0,0.74032 0.370404,1.11073 1.110733,1.11073 h 7.125426 v 42.84374 l -0.492567,-1.04767 c -0.009,-0.0191 -0.01804,-0.0379 -0.02739,-0.0568 l -0.760302,-1.53455 c -0.008,-0.015 -0.01534,-0.0301 -0.02326,-0.045 l -0.760302,-1.47563 c -0.006,-0.0124 -0.01302,-0.0249 -0.01963,-0.0372 l -0.760298,-1.42446 c -0.006,-0.0111 -0.01217,-0.0226 -0.0181,-0.0336 l -0.760301,-1.38517 c -0.005,-0.01 -0.01027,-0.0198 -0.0155,-0.0295 l -0.760302,-1.35209 c -0.005,-0.008 -0.0092,-0.0173 -0.01394,-0.0258 l -0.760302,-1.32263 c -0.005,-0.007 -0.0087,-0.0145 -0.01344,-0.0217 l -0.760293,-1.29731 c -0.004,-0.007 -0.0081,-0.014 -0.01188,-0.0212 l -0.760302,-1.27405 c -0.004,-0.007 -0.0081,-0.0131 -0.01188,-0.0196 l -0.760301,-1.25184 c -0.004,-0.006 -0.0081,-0.0122 -0.01188,-0.0181 l -0.760301,-1.2327 c -0.004,-0.006 -0.0081,-0.0116 -0.01188,-0.0176 l -0.760301,-1.21306 c -0.003,-0.006 -0.0068,-0.0116 -0.0098,-0.0176 l -0.760301,-1.19548 c -0.003,-0.006 -0.0073,-0.0117 -0.01035,-0.0176 l -0.760301,-1.17946 c -0.003,-0.005 -0.0068,-0.0107 -0.0098,-0.016 l -0.760301,-1.16396 c -0.003,-0.005 -0.0073,-0.0102 -0.01035,-0.0155 l -0.760301,-1.15053 c -0.003,-0.005 -0.0068,-0.009 -0.0098,-0.0134 l -0.760299,-1.13658 c -0.003,-0.005 -0.0073,-0.009 -0.01035,-0.0139 L 37.55581,256.3843 c -0.003,-0.005 -0.0068,-0.009 -0.0098,-0.0134 l -0.760301,-1.10917 c -0.003,-0.005 -0.0073,-0.009 -0.01035,-0.0139 l -0.760301,-1.09728 c -0.003,-0.004 -0.0068,-0.008 -0.0098,-0.0119 l -0.758233,-1.08539 c -0.003,-0.004 -0.0073,-0.008 -0.01035,-0.0119 l -0.760301,-1.07197 c -0.003,-0.005 -0.0068,-0.009 -0.0098,-0.0134 l -0.760301,-1.06008 c -0.003,-0.004 -0.0053,-0.008 -0.0083,-0.0119 l -0.760299,-1.05025 c -0.003,-0.004 -0.0068,-0.008 -0.0098,-0.0119 l -0.760298,-1.03837 c -0.003,-0.004 -0.0073,-0.008 -0.01035,-0.0119 l -0.760301,-1.02907 c -0.003,-0.004 -0.0048,-0.008 -0.0078,-0.0114 l -0.760817,-1.01717 c -0.003,-0.004 -0.0068,-0.008 -0.0098,-0.0119 l -0.760298,-1.00684 c -0.003,-0.004 -0.0053,-0.008 -0.0083,-0.0119 l -0.760302,-0.99547 c -0.003,-0.004 -0.0068,-0.008 -0.0098,-0.0119 l -0.760303,-0.98771 c -0.003,-0.004 -0.0053,-0.008 -0.0083,-0.0114 l -0.760298,-0.97789 c -0.003,-0.004 -0.0068,-0.008 -0.0098,-0.0119 l -0.760301,-0.96807 c -0.003,-0.003 -0.0053,-0.007 -0.0083,-0.01 l -0.7603,-0.96033 -0.0098,-0.01 -0.760296,-0.95049 c -0.003,-0.004 -0.005,-0.008 -0.008,-0.0119 l -0.7603,-0.94068 -0.01,-0.01 -0.7603,-0.93293 c -0.003,-0.004 -0.005,-0.008 -0.008,-0.0119 l -0.76031,-0.9231 -0.01,-0.01 -0.7603,-0.91535 c -0.003,-0.004 -0.005,-0.008 -0.008,-0.0114 l -0.7603,-0.9076 -0.01,-0.01 -0.75875,-0.89933 -0.01,-0.0103 -0.7603,-0.88951 c -0.003,-0.004 -0.005,-0.008 -0.008,-0.0119 l -0.7603,-0.88176 -0.01,-0.01 -0.7603,-0.87606 c -0.003,-0.003 -0.005,-0.007 -0.008,-0.0103 l -0.76034,-0.86781 -0.01,-0.0103 c -0.25109,-0.28612 -0.50303,-0.57256 -0.75306,-0.85902 z"
         style="color:#000000;font-style:normal;font-variant:normal;font-weight:normal;font-stretch:normal;font-size:medium;line-height:normal;font-family:sans-serif;text-indent:0;text-align:start;text-decoration:none;text-decoration-line:none;text-decoration-style:solid;text-decoration-color:#000000;letter-spacing:normal;word-spacing:normal;text-transform:none;writing-mode:lr-tb;direction:ltr;baseline-shift:baseline;text-anchor:start;white-space:normal;clip-rule:nonzero;display:inline;overflow:visible;visibility:visible;opacity:1;isolation:auto;mix-blend-mode:normal;color-interpolation:sRGB;color-interpolation-filters:linearRGB;solid-color:#000000;solid-opacity:1;fill:#212121;fill-opacity:1;fill-rule:nonzero;stroke:none;stroke-width:6.19988155;stroke-linecap:butt;stroke-linejoin:round;stroke-miterlimit:100;stroke-dasharray:none;stroke-dashoffset:0;stroke-opacity:1;color-rendering:auto;image-rendering:auto;shape-rendering:auto;text-rendering:auto;enable-background:accumulate" />
    </g>
  </g>
</svg>
