<?xml version="1.0" encoding="UTF-8" standalone="no"?>
<!-- Created with Inkscape (http://www.inkscape.org/) -->

<svg
   xmlns:dc="http://purl.org/dc/elements/1.1/"
   xmlns:cc="http://creativecommons.org/ns#"
   xmlns:rdf="http://www.w3.org/1999/02/22-rdf-syntax-ns#"
   xmlns:svg="http://www.w3.org/2000/svg"
   xmlns="http://www.w3.org/2000/svg"
   xmlns:sodipodi="http://sodipodi.sourceforge.net/DTD/sodipodi-0.dtd"
   xmlns:inkscape="http://www.inkscape.org/namespaces/inkscape"
   width="446.33804mm"
   height="89.945633mm"
   viewBox="0 0 446.33805 89.945633"
   version="1.1"
   id="svg8"
   inkscape:version="0.92.3 (2405546, 2018-03-11)"
   sodipodi:docname="full-dark.svg">
  <defs
     id="defs2">
    <clipPath
       id="p594bf549dd">
      <rect
         id="rect409"
         y="79.199997"
         x="54"
         width="334.79999"
         height="613.79999" />
    </clipPath>
    <clipPath
       id="clipPath6004">
      <rect
         id="rect6002"
         y="79.199997"
         x="54"
         width="334.79999"
         height="613.79999" />
    </clipPath>
    <clipPath
       id="clipPath6008">
      <rect
         id="rect6006"
         y="79.199997"
         x="54"
         width="334.79999"
         height="613.79999" />
    </clipPath>
    <clipPath
       id="clipPath6012">
      <rect
         id="rect6010"
         y="79.199997"
         x="54"
         width="334.79999"
         height="613.79999" />
    </clipPath>
    <clipPath
       id="p594bf549dd-7">
      <rect
         height="613.79999"
         width="334.79999"
         x="54"
         y="79.199997"
         id="rect409-5" />
    </clipPath>
    <clipPath
       id="clipPath6004-35">
      <rect
         height="613.79999"
         width="334.79999"
         x="54"
         y="79.199997"
         id="rect6002-62" />
    </clipPath>
    <clipPath
       id="clipPath6008-9">
      <rect
         height="613.79999"
         width="334.79999"
         x="54"
         y="79.199997"
         id="rect6006-1" />
    </clipPath>
    <clipPath
       id="clipPath6012-27">
      <rect
         height="613.79999"
         width="334.79999"
         x="54"
         y="79.199997"
         id="rect6010-0" />
    </clipPath>
    <clipPath
       id="p594bf549dd-3">
      <rect
         id="rect409-6"
         y="79.199997"
         x="54"
         width="334.79999"
         height="613.79999" />
    </clipPath>
    <clipPath
       id="clipPath6004-7">
      <rect
         id="rect6002-5"
         y="79.199997"
         x="54"
         width="334.79999"
         height="613.79999" />
    </clipPath>
    <clipPath
       id="clipPath6008-3">
      <rect
         id="rect6006-5"
         y="79.199997"
         x="54"
         width="334.79999"
         height="613.79999" />
    </clipPath>
    <clipPath
       id="clipPath6012-6">
      <rect
         id="rect6010-2"
         y="79.199997"
         x="54"
         width="334.79999"
         height="613.79999" />
    </clipPath>
    <clipPath
       id="p594bf549dd-0">
      <rect
         height="613.79999"
         width="334.79999"
         x="54"
         y="79.199997"
         id="rect409-9" />
    </clipPath>
    <clipPath
       id="clipPath6004-3">
      <rect
         height="613.79999"
         width="334.79999"
         x="54"
         y="79.199997"
         id="rect6002-6" />
    </clipPath>
    <clipPath
       id="clipPath6008-0">
      <rect
         height="613.79999"
         width="334.79999"
         x="54"
         y="79.199997"
         id="rect6006-6" />
    </clipPath>
    <clipPath
       id="clipPath6012-2">
      <rect
         height="613.79999"
         width="334.79999"
         x="54"
         y="79.199997"
         id="rect6010-6" />
    </clipPath>
    <clipPath
       id="p594bf549dd-753">
      <rect
         height="613.79999"
         width="334.79999"
         x="54"
         y="79.199997"
         id="rect409-56" />
    </clipPath>
    <clipPath
       id="clipPath6004-29">
      <rect
         height="613.79999"
         width="334.79999"
         x="54"
         y="79.199997"
         id="rect6002-1" />
    </clipPath>
    <clipPath
       id="clipPath6008-27">
      <rect
         height="613.79999"
         width="334.79999"
         x="54"
         y="79.199997"
         id="rect6006-0" />
    </clipPath>
    <clipPath
       id="clipPath6012-93">
      <rect
         height="613.79999"
         width="334.79999"
         x="54"
         y="79.199997"
         id="rect6010-60" />
    </clipPath>
    <clipPath
       id="p594bf549dd-3-62">
      <rect
         id="rect409-6-6"
         y="79.199997"
         x="54"
         width="334.79999"
         height="613.79999" />
    </clipPath>
    <clipPath
       id="clipPath6004-7-18">
      <rect
         id="rect6002-5-7"
         y="79.199997"
         x="54"
         width="334.79999"
         height="613.79999" />
    </clipPath>
    <clipPath
       id="clipPath6008-3-9">
      <rect
         id="rect6006-5-2"
         y="79.199997"
         x="54"
         width="334.79999"
         height="613.79999" />
    </clipPath>
    <clipPath
       id="clipPath6012-6-02">
      <rect
         id="rect6010-2-3"
         y="79.199997"
         x="54"
         width="334.79999"
         height="613.79999" />
    </clipPath>
    <clipPath
       id="p594bf549dd-7-7">
      <rect
         id="rect409-5-5"
         y="79.199997"
         x="54"
         width="334.79999"
         height="613.79999" />
    </clipPath>
    <clipPath
       id="clipPath6004-3-9">
      <rect
         id="rect6002-56"
         y="79.199997"
         x="54"
         width="334.79999"
         height="613.79999" />
    </clipPath>
    <clipPath
       id="clipPath6008-2">
      <rect
         id="rect6006-9"
         y="79.199997"
         x="54"
         width="334.79999"
         height="613.79999" />
    </clipPath>
    <clipPath
       id="clipPath6012-1">
      <rect
         id="rect6010-27"
         y="79.199997"
         x="54"
         width="334.79999"
         height="613.79999" />
    </clipPath>
    <clipPath
       id="p594bf549dd-0-2">
      <rect
         id="rect409-2"
         y="79.199997"
         x="54"
         width="334.79999"
         height="613.79999" />
    </clipPath>
    <clipPath
       id="clipPath6004-37">
      <rect
         id="rect6002-59"
         y="79.199997"
         x="54"
         width="334.79999"
         height="613.79999" />
    </clipPath>
    <clipPath
       id="clipPath6008-22">
      <rect
         id="rect6006-8"
         y="79.199997"
         x="54"
         width="334.79999"
         height="613.79999" />
    </clipPath>
    <clipPath
       id="clipPath6012-97">
      <rect
         id="rect6010-36"
         y="79.199997"
         x="54"
         width="334.79999"
         height="613.79999" />
    </clipPath>
    <clipPath
       id="p594bf549dd-3-1">
      <rect
         height="613.79999"
         width="334.79999"
         x="54"
         y="79.199997"
         id="rect409-6-2" />
    </clipPath>
    <clipPath
       id="clipPath6004-7-9">
      <rect
         height="613.79999"
         width="334.79999"
         x="54"
         y="79.199997"
         id="rect6002-5-3" />
    </clipPath>
    <clipPath
       id="clipPath6008-3-1">
      <rect
         height="613.79999"
         width="334.79999"
         x="54"
         y="79.199997"
         id="rect6006-5-9" />
    </clipPath>
    <clipPath
       id="clipPath6012-6-4">
      <rect
         height="613.79999"
         width="334.79999"
         x="54"
         y="79.199997"
         id="rect6010-2-7" />
    </clipPath>
    <clipPath
       id="p594bf549dd-8">
      <rect
         height="613.79999"
         width="334.79999"
         x="54"
         y="79.199997"
         id="rect409-9-2" />
    </clipPath>
    <clipPath
       id="clipPath6004-73">
      <rect
         height="613.79999"
         width="334.79999"
         x="54"
         y="79.199997"
         id="rect6002-6-8" />
    </clipPath>
    <clipPath
       id="clipPath6008-1">
      <rect
         height="613.79999"
         width="334.79999"
         x="54"
         y="79.199997"
         id="rect6006-2" />
    </clipPath>
    <clipPath
       id="clipPath6012-9">
      <rect
         height="613.79999"
         width="334.79999"
         x="54"
         y="79.199997"
         id="rect6010-3" />
    </clipPath>
    <clipPath
       id="p594bf549dd-6">
      <rect
         height="613.79999"
         width="334.79999"
         x="54"
         y="79.199997"
         id="rect409-3" />
    </clipPath>
    <clipPath
       id="clipPath6004-2">
      <rect
         height="613.79999"
         width="334.79999"
         x="54"
         y="79.199997"
         id="rect6002-0" />
    </clipPath>
    <clipPath
       id="clipPath6008-6">
      <rect
         height="613.79999"
         width="334.79999"
         x="54"
         y="79.199997"
         id="rect6006-1-9" />
    </clipPath>
    <clipPath
       id="clipPath6012-5">
      <rect
         height="613.79999"
         width="334.79999"
         x="54"
         y="79.199997"
         id="rect6010-5" />
    </clipPath>
    <clipPath
       id="p594bf549dd-75">
      <rect
         id="rect409-35"
         y="79.199997"
         x="54"
         width="334.79999"
         height="613.79999" />
    </clipPath>
    <clipPath
       id="clipPath6004-6">
      <rect
         id="rect6002-2"
         y="79.199997"
         x="54"
         width="334.79999"
         height="613.79999" />
    </clipPath>
    <clipPath
       id="clipPath6008-91">
      <rect
         id="rect6006-27"
         y="79.199997"
         x="54"
         width="334.79999"
         height="613.79999" />
    </clipPath>
    <clipPath
       id="clipPath6012-0">
      <rect
         id="rect6010-9"
         y="79.199997"
         x="54"
         width="334.79999"
         height="613.79999" />
    </clipPath>
    <clipPath
       id="p594bf549dd-7-3">
      <rect
         height="613.79999"
         width="334.79999"
         x="54"
         y="79.199997"
         id="rect409-5-6" />
    </clipPath>
    <clipPath
       id="clipPath6004-35-7">
      <rect
         height="613.79999"
         width="334.79999"
         x="54"
         y="79.199997"
         id="rect6002-62-3" />
    </clipPath>
    <clipPath
       id="clipPath6008-9-6">
      <rect
         height="613.79999"
         width="334.79999"
         x="54"
         y="79.199997"
         id="rect6006-1-0" />
    </clipPath>
    <clipPath
       id="clipPath6012-27-1">
      <rect
         height="613.79999"
         width="334.79999"
         x="54"
         y="79.199997"
         id="rect6010-0-2" />
    </clipPath>
    <clipPath
       id="p594bf549dd-3-6">
      <rect
         id="rect409-6-26"
         y="79.199997"
         x="54"
         width="334.79999"
         height="613.79999" />
    </clipPath>
    <clipPath
       id="clipPath6004-7-1">
      <rect
         id="rect6002-5-8"
         y="79.199997"
         x="54"
         width="334.79999"
         height="613.79999" />
    </clipPath>
    <clipPath
       id="clipPath6008-3-7">
      <rect
         id="rect6006-5-92"
         y="79.199997"
         x="54"
         width="334.79999"
         height="613.79999" />
    </clipPath>
    <clipPath
       id="clipPath6012-6-0">
      <rect
         id="rect6010-2-2"
         y="79.199997"
         x="54"
         width="334.79999"
         height="613.79999" />
    </clipPath>
    <clipPath
       id="p594bf549dd-0-3">
      <rect
         height="613.79999"
         width="334.79999"
         x="54"
         y="79.199997"
         id="rect409-9-7" />
    </clipPath>
    <clipPath
       id="clipPath6004-3-5">
      <rect
         height="613.79999"
         width="334.79999"
         x="54"
         y="79.199997"
         id="rect6002-6-9" />
    </clipPath>
    <clipPath
       id="clipPath6008-0-9">
      <rect
         height="613.79999"
         width="334.79999"
         x="54"
         y="79.199997"
         id="rect6006-6-3" />
    </clipPath>
    <clipPath
       id="clipPath6012-2-1">
      <rect
         height="613.79999"
         width="334.79999"
         x="54"
         y="79.199997"
         id="rect6010-6-9" />
    </clipPath>
    <clipPath
       id="p594bf549dd-7535">
      <rect
         height="613.79999"
         width="334.79999"
         x="54"
         y="79.199997"
         id="rect409-62" />
    </clipPath>
    <clipPath
       id="clipPath6004-9">
      <rect
         height="613.79999"
         width="334.79999"
         x="54"
         y="79.199997"
         id="rect6002-12" />
    </clipPath>
    <clipPath
       id="clipPath6008-7">
      <rect
         height="613.79999"
         width="334.79999"
         x="54"
         y="79.199997"
         id="rect6006-09" />
    </clipPath>
    <clipPath
       id="clipPath6012-3">
      <rect
         height="613.79999"
         width="334.79999"
         x="54"
         y="79.199997"
         id="rect6010-606" />
    </clipPath>
    <clipPath
       id="p594bf549dd-753-2">
      <rect
         id="rect409-56-6"
         y="79.199997"
         x="54"
         width="334.79999"
         height="613.79999" />
    </clipPath>
    <clipPath
       id="clipPath6004-2-1">
      <rect
         id="rect6002-9"
         y="79.199997"
         x="54"
         width="334.79999"
         height="613.79999" />
    </clipPath>
    <clipPath
       id="clipPath6008-1-8">
      <rect
         id="rect6006-2-7"
         y="79.199997"
         x="54"
         width="334.79999"
         height="613.79999" />
    </clipPath>
    <clipPath
       id="clipPath6012-7">
      <rect
         id="rect6010-0-9"
         y="79.199997"
         x="54"
         width="334.79999"
         height="613.79999" />
    </clipPath>
    <clipPath
       id="p594bf549dd-75-2">
      <rect
         height="613.79999"
         width="334.79999"
         x="54"
         y="79.199997"
         id="rect409-3-0" />
    </clipPath>
    <clipPath
       id="clipPath6004-5">
      <rect
         height="613.79999"
         width="334.79999"
         x="54"
         y="79.199997"
         id="rect6002-6-2" />
    </clipPath>
    <clipPath
       id="clipPath6008-2-3">
      <rect
         height="613.79999"
         width="334.79999"
         x="54"
         y="79.199997"
         id="rect6006-91" />
    </clipPath>
    <clipPath
       id="clipPath6012-2-7">
      <rect
         height="613.79999"
         width="334.79999"
         x="54"
         y="79.199997"
         id="rect6010-70" />
    </clipPath>
    <clipPath
       id="p594bf549dd-7-5">
      <rect
         id="rect409-5-9"
         y="79.199997"
         x="54"
         width="334.79999"
         height="613.79999" />
    </clipPath>
    <clipPath
       id="clipPath6004-3-2">
      <rect
         id="rect6002-5-2"
         y="79.199997"
         x="54"
         width="334.79999"
         height="613.79999" />
    </clipPath>
    <clipPath
       id="clipPath6008-62">
      <rect
         id="rect6006-9-8"
         y="79.199997"
         x="54"
         width="334.79999"
         height="613.79999" />
    </clipPath>
    <clipPath
       id="clipPath6012-1-9">
      <rect
         id="rect6010-2-73"
         y="79.199997"
         x="54"
         width="334.79999"
         height="613.79999" />
    </clipPath>
    <clipPath
       id="p594bf549dd-6-6">
      <rect
         height="613.79999"
         width="334.79999"
         x="54"
         y="79.199997"
         id="rect409-0" />
    </clipPath>
    <clipPath
       id="clipPath6004-6-1">
      <rect
         height="613.79999"
         width="334.79999"
         x="54"
         y="79.199997"
         id="rect6002-2-2" />
    </clipPath>
    <clipPath
       id="clipPath6008-6-9">
      <rect
         height="613.79999"
         width="334.79999"
         x="54"
         y="79.199997"
         id="rect6006-1-3" />
    </clipPath>
    <clipPath
       id="clipPath6012-8">
      <rect
         height="613.79999"
         width="334.79999"
         x="54"
         y="79.199997"
         id="rect6010-7" />
    </clipPath>
    <clipPath
       id="p594bf549dd-75356">
      <rect
         height="613.79999"
         width="334.79999"
         x="54"
         y="79.199997"
         id="rect409-29" />
    </clipPath>
    <clipPath
       id="clipPath6004-1">
      <rect
         height="613.79999"
         width="334.79999"
         x="54"
         y="79.199997"
         id="rect6002-27" />
    </clipPath>
    <clipPath
       id="clipPath6008-09">
      <rect
         height="613.79999"
         width="334.79999"
         x="54"
         y="79.199997"
         id="rect6006-3" />
    </clipPath>
    <clipPath
       id="clipPath6012-60">
      <rect
         height="613.79999"
         width="334.79999"
         x="54"
         y="79.199997"
         id="rect6010-62" />
    </clipPath>
    <clipPath
       id="p594bf549dd-3-61">
      <rect
         id="rect409-6-8"
         y="79.199997"
         x="54"
         width="334.79999"
         height="613.79999" />
    </clipPath>
    <clipPath
       id="clipPath6004-7-7">
      <rect
         id="rect6002-5-9"
         y="79.199997"
         x="54"
         width="334.79999"
         height="613.79999" />
    </clipPath>
    <clipPath
       id="clipPath6008-3-2">
      <rect
         id="rect6006-5-0"
         y="79.199997"
         x="54"
         width="334.79999"
         height="613.79999" />
    </clipPath>
    <clipPath
       id="clipPath6012-6-2">
      <rect
         id="rect6010-2-37"
         y="79.199997"
         x="54"
         width="334.79999"
         height="613.79999" />
    </clipPath>
    <clipPath
       id="p594bf549dd-0-5">
      <rect
         height="613.79999"
         width="334.79999"
         x="54"
         y="79.199997"
         id="rect409-9-9" />
    </clipPath>
    <clipPath
       id="clipPath6004-3-22">
      <rect
         height="613.79999"
         width="334.79999"
         x="54"
         y="79.199997"
         id="rect6002-6-89" />
    </clipPath>
    <clipPath
       id="clipPath6008-0-7">
      <rect
         height="613.79999"
         width="334.79999"
         x="54"
         y="79.199997"
         id="rect6006-6-36" />
    </clipPath>
    <clipPath
       id="clipPath6012-2-12">
      <rect
         height="613.79999"
         width="334.79999"
         x="54"
         y="79.199997"
         id="rect6010-6-93" />
    </clipPath>
    <clipPath
       id="p594bf549dd-7-1">
      <rect
         id="rect409-5-94"
         y="79.199997"
         x="54"
         width="334.79999"
         height="613.79999" />
    </clipPath>
    <clipPath
       id="clipPath6004-35-78">
      <rect
         id="rect6002-62-4"
         y="79.199997"
         x="54"
         width="334.79999"
         height="613.79999" />
    </clipPath>
    <clipPath
       id="clipPath6008-9-5">
      <rect
         id="rect6006-1-03"
         y="79.199997"
         x="54"
         width="334.79999"
         height="613.79999" />
    </clipPath>
    <clipPath
       id="clipPath6012-27-6">
      <rect
         id="rect6010-0-1"
         y="79.199997"
         x="54"
         width="334.79999"
         height="613.79999" />
    </clipPath>
  </defs>
  <sodipodi:namedview
     id="base"
     pagecolor="#ffffff"
     bordercolor="#666666"
     borderopacity="1.0"
     inkscape:pageopacity="0"
     inkscape:pageshadow="2"
     inkscape:zoom="0.63345641"
     inkscape:cx="539.92027"
     inkscape:cy="249.83187"
     inkscape:document-units="mm"
     inkscape:current-layer="text4567"
     showgrid="false"
     width="400mm"
     inkscape:window-width="1863"
     inkscape:window-height="1028"
     inkscape:window-x="1977"
     inkscape:window-y="22"
     inkscape:window-maximized="0"
     fit-margin-top="1"
     fit-margin-left="1"
     fit-margin-right="1"
     fit-margin-bottom="1" />
  <metadata
     id="metadata5">
    <rdf:RDF>
      <cc:Work
         rdf:about="">
        <dc:format>image/svg+xml</dc:format>
        <dc:type
           rdf:resource="http://purl.org/dc/dcmitype/StillImage" />
        <dc:title></dc:title>
      </cc:Work>
    </rdf:RDF>
  </metadata>
  <g
     inkscape:label="Layer 1"
     inkscape:groupmode="layer"
     id="layer1"
     transform="translate(0.34250167,-207.55437)">
    <g
       id="g1067">
      <g
         id="g1053" />
      <g
         id="g1039">
        <path
           inkscape:connector-curvature="0"
           id="path4528"
           style="font-style:normal;font-variant:normal;font-weight:normal;font-stretch:normal;font-size:98.77777863px;line-height:6.61458302px;font-family:Sanchez;-inkscape-font-specification:Sanchez;letter-spacing:-5.54831266px;word-spacing:0px;fill:#ffffff;fill-opacity:1;stroke:none;stroke-width:0.24438794px;stroke-linecap:butt;stroke-linejoin:miter;stroke-opacity:1"
           d="M 107.17558,253.73073 H 74.243306 q 0.365915,7.55288 4.756885,11.6478 4.482447,4.09493 10.062636,4.09493 5.580191,0 9.513769,-2.36596 4.025054,-2.36596 5.397234,-4.64091 0.73183,-0.90999 1.64661,-0.273 l 2.46992,2.45696 q 0.54887,0.54598 0.54887,1.00099 0,0.36398 -0.45739,1.00097 -0.36591,0.63699 -1.64661,2.00197 -1.2807,1.36498 -3.65914,3.09394 -2.28697,1.72898 -6.037586,2.91196 -3.659142,1.18297 -7.867155,1.18297 -9.605245,0 -16.10022,-6.27889 -6.403497,-6.27888 -6.403497,-16.83472 0,-10.64681 6.403497,-16.74371 6.403496,-6.18789 15.642828,-6.18789 9.33081,0 14.636563,6.0059 5.30576,5.91489 5.30576,16.01572 0,0.364 0,0.72799 0,1.18298 -1.2807,1.18298 z m -6.31202,-5.5509 q -0.27444,-5.64191 -3.567664,-9.00885 -3.293228,-3.36694 -8.781939,-3.36694 -5.488712,0 -9.422289,3.09395 -3.933576,3.09395 -4.665404,9.28184 z" />
        <path
           inkscape:connector-curvature="0"
           id="path4530"
           style="font-style:normal;font-variant:normal;font-weight:normal;font-stretch:normal;font-size:98.77777863px;line-height:6.61458302px;font-family:Sanchez;-inkscape-font-specification:Sanchez;letter-spacing:-5.54831266px;word-spacing:0px;fill:#ffffff;fill-opacity:1;stroke:none;stroke-width:0.24438794px;stroke-linecap:butt;stroke-linejoin:miter;stroke-opacity:1"
           d="m 159.12987,275.20636 h -8.69046 q -3.93358,0 -3.93358,-3.82193 v -23.9326 q 0,-5.2779 -2.5614,-8.18985 -2.5614,-2.91195 -7.50124,-2.91195 -7.04385,0 -10.97742,5.7329 -0.45739,0.54599 -1.18922,2.00197 v 25.02457 h 4.84836 q 1.18922,0 1.18922,1.09198 v 3.91293 q 0,1.09198 -1.18922,1.09198 h -17.4724 q -1.18922,0 -1.18922,-1.09198 v -3.91293 q 0,-1.09198 1.18922,-1.09198 h 5.03132 v -32.57744 h -5.03132 q -1.18922,0 -1.18922,-1.09198 v -3.91295 q 0,-1.09197 1.18922,-1.09197 h 10.70299 q 1.18922,0 1.18922,1.09197 l -0.18296,6.18791 h 0.27444 q 4.75688,-7.91687 14.72804,-7.91687 7.31828,0 11.43482,4.27693 4.11653,4.27693 4.20801,11.55681 v 23.47759 h 5.1228 q 1.18922,0 1.18922,1.09198 v 3.91293 q 0,1.09198 -1.18922,1.09198 z" />
        <path
           inkscape:connector-curvature="0"
           id="path4532"
           style="font-style:normal;font-variant:normal;font-weight:normal;font-stretch:normal;font-size:98.77777863px;line-height:6.61458302px;font-family:Sanchez;-inkscape-font-specification:Sanchez;letter-spacing:-5.54831266px;word-spacing:0px;fill:#ffffff;fill-opacity:1;stroke:none;stroke-width:0.24438794px;stroke-linecap:butt;stroke-linejoin:miter;stroke-opacity:1"
           d="m 181.39509,296.5 q -4.57393,0 -6.95237,-0.63699 -2.28696,-0.63699 -3.75062,-1.18297 -1.37218,-0.455 -2.37844,-1.00099 -1.00627,-0.455 -1.92105,-1.00098 -4.02506,-2.63896 -3.01879,-3.82195 l 2.37844,-3.36694 q 0.54887,-0.81898 1.55513,-0.091 0.0915,0 0.54888,0.364 0.54887,0.45499 1.00626,0.81898 0.54887,0.364 1.37218,0.81899 0.91478,0.54599 2.01253,0.90999 1.09774,0.45498 2.37844,0.81898 3.01879,0.81899 6.67793,0.81899 6.58645,0 10.52003,-3.18495 4.02505,-3.09394 4.02505,-9.82783 v -10.37381 q -1.64661,3.82192 -5.48871,6.55187 -3.75062,2.72995 -9.42228,2.72995 -9.33082,0 -15.00248,-6.46088 -5.58019,-6.46089 -5.58019,-16.74371 0,-10.28283 5.67166,-16.56173 5.76315,-6.27889 14.91101,-6.27889 5.67166,0 9.51376,2.63896 3.93358,2.54796 5.67167,6.2789 h 0.18296 l -0.0915,-7.18889 q 0,-1.09198 1.09774,-1.09198 h 10.79446 q 1.09775,0 1.09775,1.09198 v 3.91294 q 0,1.09198 -1.09775,1.09198 h -4.93984 v 40.40331 q 0,9.73684 -6.03758,14.65076 -5.94611,4.9139 -15.73431,4.9139 z m -13.53882,-43.67926 q 0,7.46189 4.02505,12.10281 4.02506,4.54991 10.06264,4.54991 6.03758,0 9.97116,-4.54991 4.02505,-4.54993 4.02505,-12.19381 0,-7.64386 -4.02505,-12.10278 -3.93358,-4.45893 -9.97116,-4.45893 -6.03758,0 -10.06264,4.54992 -4.02505,4.54994 -4.02505,12.10279 z" />
        <path
           inkscape:connector-curvature="0"
           id="path4534"
           style="font-style:normal;font-variant:normal;font-weight:normal;font-stretch:normal;font-size:98.77777863px;line-height:6.61458302px;font-family:Sanchez;-inkscape-font-specification:Sanchez;letter-spacing:-5.54831266px;word-spacing:0px;fill:#ffffff;fill-opacity:1;stroke:none;stroke-width:0.24438794px;stroke-linecap:butt;stroke-linejoin:miter;stroke-opacity:1"
           d="m 248.32755,269.47346 q -6.40349,6.36989 -16.37465,6.36989 -9.97116,0 -16.37466,-6.27889 -6.4035,-6.36989 -6.4035,-16.83472 0,-10.55581 6.49498,-16.74371 6.49498,-6.18789 16.28318,-6.18789 9.87968,0 16.28316,6.27889 6.495,6.18791 6.495,16.65271 0,10.37383 -6.40351,16.74372 z m -31.4686,-16.74372 q 0,7.46188 4.39096,12.1028 4.39097,4.64092 10.70299,4.64092 6.4035,0 10.79447,-4.64092 4.39096,-4.64092 4.39096,-12.1028 0,-7.46185 -4.48244,-12.01179 -4.39096,-4.54992 -10.61152,-4.54992 -6.22054,0 -10.70298,4.54992 -4.48244,4.54994 -4.48244,12.01179 z" />
        <path
           inkscape:connector-curvature="0"
           id="path4566"
           d="m 35.507608,257.80439 -0.686821,-0.2573 c -0.004,-0.001 -0.0081,-0.003 -0.01192,-0.004 L 34.046365,257.26 c -0.003,-10e-4 -0.0068,-0.003 -0.0098,-0.004 l -0.762502,-0.27947 c -0.003,-0.001 -0.0073,-0.003 -0.01038,-0.004 l -0.762503,-0.27585 c -0.003,-0.001 -0.0048,-0.003 -0.0078,-0.004 l -0.7625,-0.2738 c -0.003,-10e-4 -0.0073,-0.003 -0.01038,-0.004 l -0.7625,-0.27174 c -0.003,-8e-4 -0.0048,-0.001 -0.0078,-0.002 l -0.762503,-0.26967 c -0.003,-9.9e-4 -0.0053,-0.003 -0.0083,-0.004 l -0.762499,-0.26606 c -0.0021,-10e-4 -0.0042,-0.003 -0.0062,-0.004 l -0.762503,-0.264 c -0.003,-8e-4 -0.0048,-10e-4 -0.0078,-0.002 l -0.762499,-0.26401 c -0.0021,-7.9e-4 -0.0042,-9.9e-4 -0.0062,-0.002 l -0.762503,-0.26195 c -0.003,-7.9e-4 -0.0053,-0.001 -0.0083,-0.002 l -0.7625,-0.25783 c -0.002,-7.9e-4 -0.0037,-0.001 -0.0057,-0.002 l -0.762502,-0.25783 c -0.002,-7.9e-4 -0.0042,-0.001 -0.0062,-0.002 l -0.762502,-0.25627 -0.0041,-0.002 -0.762503,-0.25421 c -0.002,-7.9e-4 -0.0037,-10e-4 -0.0057,-0.002 l -0.76302,-0.25215 c -0.002,-8e-4 -0.0037,-0.001 -0.0057,-0.002 l -0.762502,-0.25009 -0.0041,-0.002 -0.762501,-0.24802 c -0.002,-7.9e-4 -0.0042,-0.001 -0.0062,-0.002 l -0.762503,-0.24854 -0.0041,-0.002 -0.762502,-0.24648 -0.0036,-0.002 -0.762502,-0.24442 c -0.002,-7.8e-4 -0.0042,-9.9e-4 -0.0062,-0.002 l -0.762503,-0.24441 -0.0041,-0.002 -0.762502,-0.24235 -0.0041,-0.002 -0.762502,-0.24028 -0.0041,-0.002 -0.131663,-0.0412 v 6.49546 l 0.528205,0.17016 0.756282,0.24235 0.758873,0.24596 0.7568,0.24647 0.758354,0.24854 0.7568,0.24802 0.7568,0.25008 0.756281,0.25267 0.7568,0.25369 0.7568,0.25627 0.7568,0.25627 0.754208,0.25781 0.7568,0.26195 0.754726,0.26194 0.754727,0.26401 0.754725,0.26813 0.752654,0.26762 0.754727,0.27173 0.752653,0.2738 0.752654,0.27587 0.751095,0.27948 0.752654,0.28153 0.748505,0.28515 0.751098,0.28773 0.748509,0.29133 0.74695,0.297 0.74695,0.29907 0.744877,0.30474 0.742805,0.30887 0.740733,0.31505 0.739173,0.32073 0.735028,0.3264 0.732956,0.33412 0.729328,0.34238 0.723107,0.35168 0.717403,0.36197 0.711186,0.37126 0.69978,0.38724 0.685784,0.40065 0.664534,0.41818 0.636541,0.43984 0.587815,0.45582 0.501249,0.46304 0.07672,0.0923 1.991005,4.34011 -2.048025,-5.79678 -0.381511,-0.69198 -0.603366,-0.85079 -0.648464,-0.79357 -0.673862,-0.75283 -0.694078,-0.71725 -0.707557,-0.68992 -0.71533,-0.66878 -0.721034,-0.65125 -0.727252,-0.63319 -0.731401,-0.6198 -0.736584,-0.60793 -0.737101,-0.5966 -0.741249,-0.58833 -0.740732,-0.57649 -0.744878,-0.57081 -0.744877,-0.56307 -0.74695,-0.5574 -0.746433,-0.54915 z"
           style="color:#000000;font-style:normal;font-variant:normal;font-weight:normal;font-stretch:normal;font-size:medium;line-height:normal;font-family:sans-serif;text-indent:0;text-align:start;text-decoration:none;text-decoration-line:none;text-decoration-style:solid;text-decoration-color:#000000;letter-spacing:normal;word-spacing:normal;text-transform:none;writing-mode:lr-tb;direction:ltr;baseline-shift:baseline;text-anchor:start;white-space:normal;clip-rule:nonzero;display:inline;overflow:visible;visibility:visible;opacity:1;isolation:auto;mix-blend-mode:normal;color-interpolation:sRGB;color-interpolation-filters:linearRGB;solid-color:#000000;solid-opacity:1;fill:#726c0f;fill-opacity:1;fill-rule:nonzero;stroke:none;stroke-width:6.20263767;stroke-linecap:butt;stroke-linejoin:round;stroke-miterlimit:100;stroke-dasharray:none;stroke-dashoffset:0;stroke-opacity:1;color-rendering:auto;image-rendering:auto;shape-rendering:auto;text-rendering:auto;enable-background:accumulate" />
        <path
           inkscape:connector-curvature="0"
           id="path4571"
           d="m 32.522915,248.16716 -0.108335,-0.0727 c -0.003,-0.002 -0.0048,-0.004 -0.0078,-0.006 l -0.762502,-0.50996 c -0.003,-0.002 -0.0073,-0.004 -0.01038,-0.006 l -0.762503,-0.50635 c -0.003,-0.002 -0.0047,-0.004 -0.0078,-0.006 l -0.762502,-0.50016 c -0.003,-0.002 -0.0073,-0.004 -0.01038,-0.006 l -0.762502,-0.49862 c -0.003,-0.002 -0.0048,-0.004 -0.0078,-0.006 l -0.762501,-0.49448 c -0.003,-0.001 -0.0053,-0.003 -0.0083,-0.004 l -0.762503,-0.49296 c -0.003,-9.9e-4 -0.0053,-0.003 -0.0083,-0.004 l -0.760427,-0.48882 c -0.003,-0.002 -0.0048,-0.004 -0.0078,-0.006 l -0.762503,-0.48469 c -0.003,-0.001 -0.0053,-0.003 -0.0083,-0.004 L 25.4771,243.58784 c -0.003,-0.001 -0.0048,-0.003 -0.0078,-0.004 l -0.760946,-0.48109 c -0.003,-9.9e-4 -0.0048,-0.003 -0.0078,-0.004 l -0.762502,-0.47696 c -0.003,-0.001 -0.0053,-0.003 -0.0083,-0.004 l -0.760429,-0.47336 c -0.003,-0.001 -0.0053,-0.003 -0.0083,-0.004 l -0.762501,-0.47078 c -0.002,-10e-4 -0.0037,-0.003 -0.0057,-0.004 l -0.762501,-0.46923 c -0.002,-10e-4 -0.0042,-0.003 -0.0062,-0.004 l -0.762501,-0.4651 c -0.003,-9.9e-4 -0.0053,-0.003 -0.0083,-0.004 l -0.762502,-0.46355 c -0.002,-0.001 -0.0037,-0.003 -0.0057,-0.004 l -0.758873,-0.45789 c -0.002,-0.001 -0.0042,-0.003 -0.0062,-0.004 l -0.762502,-0.45737 c -0.002,-0.001 -0.0042,-0.003 -0.0062,-0.004 l -0.762501,-0.45737 c -0.002,-7.9e-4 -0.0037,-10e-4 -0.0057,-0.002 l -0.762501,-0.45375 c -0.002,-0.001 -0.0042,-0.003 -0.0062,-0.004 l -0.02281,-0.0135 v 7.22407 l 0.620472,0.37641 0.7568,0.46149 0.754726,0.46511 0.756282,0.46716 0.754726,0.46923 0.7568,0.47129 0.754727,0.4749 0.754726,0.47903 0.754726,0.47902 0.754726,0.4847 0.754727,0.48676 0.754726,0.48882 0.754208,0.49296 0.75317,0.49655 0.754726,0.50016 0.752653,0.50274 0.752654,0.50637 0.752651,0.50996 0.752654,0.51615 0.75058,0.51821 0.751099,0.52389 0.750578,0.52801 0.750578,0.53368 0.749025,0.53781 0.749026,0.54348 0.746433,0.54916 0.74695,0.5574 0.744877,0.56306 0.744877,0.57081 0.740733,0.57649 0.741249,0.58833 0.737101,0.5966 0.736584,0.60794 0.7314,0.61979 0.727253,0.63319 0.721034,0.65126 0.715331,0.66877 0.707556,0.68992 0.694078,0.71725 0.673862,0.75284 0.648464,0.79356 0.603367,0.8508 0.38151,0.69198 2.04336,5.7844 -2.071352,-6.91571 -0.528721,-1.25351 -0.664533,-1.26279 -0.691487,-1.16533 -0.70963,-1.09676 -0.717404,-1.04778 -0.727255,-1.00858 -0.73088,-0.97971 -0.735028,-0.95392 -0.739177,-0.93279 -0.740732,-0.91267 -0.742802,-0.89772 -0.74488,-0.88122 -0.744877,-0.8704 -0.749023,-0.85441 -0.746951,-0.84461 -0.748508,-0.83429 -0.749023,-0.82503 -0.750581,-0.81367 -0.750578,-0.80748 -0.751098,-0.79768 -0.750581,-0.78945 z"
           style="color:#000000;font-style:normal;font-variant:normal;font-weight:normal;font-stretch:normal;font-size:medium;line-height:normal;font-family:sans-serif;text-indent:0;text-align:start;text-decoration:none;text-decoration-line:none;text-decoration-style:solid;text-decoration-color:#000000;letter-spacing:normal;word-spacing:normal;text-transform:none;writing-mode:lr-tb;direction:ltr;baseline-shift:baseline;text-anchor:start;white-space:normal;clip-rule:nonzero;display:inline;overflow:visible;visibility:visible;opacity:1;isolation:auto;mix-blend-mode:normal;color-interpolation:sRGB;color-interpolation-filters:linearRGB;solid-color:#000000;solid-opacity:1;fill:#989014;fill-opacity:1;fill-rule:nonzero;stroke:none;stroke-width:6.20263767;stroke-linecap:butt;stroke-linejoin:round;stroke-miterlimit:100;stroke-dasharray:none;stroke-dashoffset:0;stroke-opacity:1;color-rendering:auto;image-rendering:auto;shape-rendering:auto;text-rendering:auto;enable-background:accumulate" />
        <path
           inkscape:connector-curvature="0"
           id="path4533"
           d="m 16.991933,233.35553 0.179869,0.1583 0.754726,0.66878 0.752653,0.67445 0.754727,0.67806 0.754726,0.68271 0.754726,0.68785 0.754209,0.69198 0.753171,0.69818 0.754726,0.70384 0.754208,0.70745 0.753172,0.71364 0.754725,0.71776 0.752653,0.72499 0.752653,0.72962 0.754727,0.73685 0.752653,0.74097 0.752653,0.7487 0.752651,0.75282 0.752654,0.76211 0.752654,0.76675 0.751098,0.77397 0.752651,0.78223 0.750581,0.78943 0.751098,0.79769 0.750578,0.80748 0.750581,0.81367 0.749023,0.82503 0.748508,0.83429 0.746951,0.84461 0.749023,0.85441 0.744877,0.8704 0.74488,0.88122 0.742802,0.89771 0.740732,0.91269 0.739176,0.93277 0.735028,0.95394 0.730881,0.9797 0.727255,1.00858 0.717404,1.04778 0.70963,1.09676 0.691487,1.16533 0.664533,1.26279 0.528721,1.25351 2.075499,6.92859 -2.093121,-8.13311 -0.623065,-1.90218 -0.705482,-1.78308 -0.723627,-1.64023 -0.73088,-1.54639 -0.737101,-1.48194 -0.740733,-1.42882 -0.744877,-1.38655 -0.744877,-1.3525 -0.746953,-1.32158 -0.749023,-1.29631 -0.748505,-1.27104 -0.750581,-1.25093 -0.751098,-1.22774 -0.750579,-1.21225 -0.752653,-1.19266 -0.751099,-1.17669 -0.752651,-1.1612 -0.75058,-1.14576 -0.752654,-1.13181 -0.752651,-1.11841 -0.01451,-0.0226 -0.548421,-0.544 c -0.003,-0.003 -0.0053,-0.007 -0.0083,-0.01 l -0.7625,-0.75077 -0.0098,-0.0104 -0.762503,-0.74458 c -0.003,-0.003 -0.0073,-0.005 -0.01038,-0.008 l -0.76043,-0.7389 -0.0098,-0.01 -0.7625,-0.73117 c -0.003,-0.003 -0.0053,-0.007 -0.0083,-0.0104 l -0.762502,-0.72705 c -0.003,-0.003 -0.0068,-0.005 -0.0098,-0.008 l -0.762503,-0.72138 -0.0083,-0.008 -0.7625,-0.71569 -0.0083,-0.008 -0.762504,-0.71159 -0.0078,-0.008 -0.762501,-0.7059 c -0.003,-0.003 -0.0073,-0.005 -0.01036,-0.008 l -0.760428,-0.69971 c -0.003,-0.003 -0.0073,-0.005 -0.01036,-0.008 l -0.762501,-0.69404 -0.0078,-0.008 -0.762501,-0.68992 -0.0083,-0.008 -0.762501,-0.68631 c -0.003,-0.002 -0.0047,-0.004 -0.0078,-0.006 l -0.762502,-0.68064 -0.0088,-0.008 -0.762502,-0.67652 c -0.003,-0.002 -0.0053,-0.004 -0.0083,-0.006 l -0.762501,-0.67238 -0.0078,-0.008 -0.760947,-0.6662 c -0.003,-0.002 -0.0047,-0.004 -0.0078,-0.006 l -0.762501,-0.6626 c -0.003,-0.002 -0.0053,-0.004 -0.0083,-0.006 l -0.762502,-0.65898 -0.0078,-0.008 -0.762501,-0.65331 c -0.003,-0.002 -0.0053,-0.004 -0.0083,-0.006 L 16.9919,225.15007 Z"
           style="color:#000000;font-style:normal;font-variant:normal;font-weight:normal;font-stretch:normal;font-size:medium;line-height:normal;font-family:sans-serif;text-indent:0;text-align:start;text-decoration:none;text-decoration-line:none;text-decoration-style:solid;text-decoration-color:#000000;letter-spacing:normal;word-spacing:normal;text-transform:none;writing-mode:lr-tb;direction:ltr;baseline-shift:baseline;text-anchor:start;white-space:normal;clip-rule:nonzero;display:inline;overflow:visible;visibility:visible;opacity:1;isolation:auto;mix-blend-mode:normal;color-interpolation:sRGB;color-interpolation-filters:linearRGB;solid-color:#000000;solid-opacity:1;fill:#beb419;fill-opacity:1;fill-rule:nonzero;stroke:none;stroke-width:6.20263767;stroke-linecap:butt;stroke-linejoin:round;stroke-miterlimit:100;stroke-dasharray:none;stroke-dashoffset:0;stroke-opacity:1;color-rendering:auto;image-rendering:auto;shape-rendering:auto;text-rendering:auto;enable-background:accumulate" />
        <path
           sodipodi:nodetypes="ssssccssssssssccccccccccccccccccccccccccccccccccccccccccccccccsscsssssssscccccccccccccccccccccccccccccccccccccccccccccccccccccccccccccccccccccccccccccccccccccccccccs"
           inkscape:connector-curvature="0"
           id="path4546"
           d="m 1.8637122,209.12787 c -0.8043499,0 -1.20621387,0.36953 -1.20621387,1.1081 v 4.70827 c 0,0.73858 0.40186397,1.10759 1.20621387,1.10759 h 7.0537896 v 52.43911 H 1.8637122 c -0.8043499,0 -1.20621387,0.36953 -1.20621387,1.10811 v 4.70826 c 0,0.73857 0.40186397,1.10759 1.20621387,1.10759 H 24.137989 c 0.804345,0 1.206732,-0.36902 1.206732,-1.10759 v -4.70826 c 0,-0.73858 -0.402387,-1.10811 -1.206732,-1.10811 h -7.146056 v -45.42234 -4.47778 l 0.620472,0.73478 0.752653,0.90339 0.752653,0.91113 0.754726,0.91887 0.752653,0.92659 0.754726,0.9364 0.752653,0.94619 0.753172,0.95392 0.754208,0.96372 0.753171,0.97404 0.752653,0.98125 0.754726,0.99312 0.752652,1.00291 0.752654,1.01271 0.754726,1.02251 0.752653,1.03436 0.752654,1.04571 0.752651,1.0555 0.752654,1.06789 0.754726,1.08077 0.752653,1.09108 0.753172,1.10656 0.752653,1.11841 0.752651,1.13182 0.750581,1.14575 0.752654,1.1612 0.751095,1.17669 0.752653,1.19266 0.750581,1.21226 0.751099,1.22773 0.750578,1.25093 0.748506,1.27105 0.749025,1.2963 0.74695,1.32158 0.744878,1.35251 0.744877,1.38654 0.740732,1.42883 0.737101,1.48194 0.730883,1.54638 0.723624,1.64024 0.705482,1.78307 0.623066,1.90218 2.093121,8.13313 h 1.23265 1.856233 5.011465 c 0.804348,0 1.206734,-0.36954 1.206734,-1.10811 v -58.25497 h 7.146055 c 0.742473,0 1.113946,-0.36952 1.113946,-1.1081 v -4.70827 c 0,-0.73857 -0.371473,-1.1081 -1.113946,-1.1081 H 44.370979 c -0.742473,0 -1.113949,0.36953 -1.113949,1.1081 v 4.70827 c 0,0.73858 0.371476,1.1081 1.113949,1.1081 h 7.146055 v 42.74259 l -0.493993,-1.0452 c -0.009,-0.019 -0.0181,-0.0378 -0.02747,-0.0567 l -0.762504,-1.53093 c -0.008,-0.015 -0.01539,-0.03 -0.02333,-0.0449 l -0.762504,-1.47215 c -0.006,-0.0124 -0.01306,-0.0249 -0.01969,-0.0371 l -0.7625,-1.4211 c -0.006,-0.0111 -0.01221,-0.0225 -0.01816,-0.0335 l -0.762503,-1.3819 c -0.005,-0.01 -0.0103,-0.0198 -0.01555,-0.0294 l -0.762503,-1.34889 c -0.005,-0.008 -0.0092,-0.0173 -0.01398,-0.0258 l -0.762502,-1.31951 c -0.005,-0.007 -0.0087,-0.0145 -0.01348,-0.0216 L 45.553871,247.732 c -0.004,-0.007 -0.0081,-0.014 -0.01192,-0.0212 l -0.762502,-1.27104 c -0.004,-0.007 -0.0081,-0.0131 -0.01192,-0.0196 l -0.762502,-1.24887 c -0.004,-0.006 -0.0081,-0.0122 -0.01192,-0.0181 l -0.762502,-1.22979 c -0.004,-0.006 -0.0081,-0.0116 -0.01192,-0.0176 l -0.762503,-1.21019 c -0.003,-0.006 -0.0068,-0.0116 -0.0098,-0.0176 l -0.762502,-1.19266 c -0.003,-0.006 -0.0073,-0.0117 -0.01038,-0.0176 l -0.762503,-1.17668 c -0.003,-0.005 -0.0068,-0.0107 -0.0098,-0.016 l -0.762502,-1.16121 c -0.003,-0.005 -0.0073,-0.0102 -0.01038,-0.0155 l -0.762502,-1.14781 c -0.003,-0.005 -0.0068,-0.009 -0.0098,-0.0134 l -0.7625,-1.13389 c -0.003,-0.005 -0.0073,-0.009 -0.01038,-0.0139 l -0.762502,-1.11841 c -0.003,-0.005 -0.0068,-0.009 -0.0098,-0.0134 l -0.762503,-1.10656 c -0.003,-0.005 -0.0073,-0.009 -0.01038,-0.0139 l -0.762502,-1.09469 c -0.003,-0.004 -0.0068,-0.008 -0.0098,-0.0119 l -0.760428,-1.08283 c -0.003,-0.004 -0.0073,-0.008 -0.01038,-0.0119 l -0.762502,-1.06943 c -0.003,-0.005 -0.0068,-0.009 -0.0098,-0.0134 l -0.762502,-1.05757 c -0.003,-0.004 -0.0053,-0.008 -0.0083,-0.0119 l -0.7625,-1.04777 c -0.003,-0.004 -0.0068,-0.008 -0.0098,-0.0119 l -0.7625,-1.03592 c -0.003,-0.004 -0.0073,-0.008 -0.01038,-0.0119 l -0.762503,-1.02664 c -0.003,-0.004 -0.0048,-0.008 -0.0078,-0.0114 l -0.76302,-1.01477 c -0.003,-0.004 -0.0068,-0.008 -0.0098,-0.0119 l -0.762499,-1.00447 c -0.003,-0.004 -0.0053,-0.008 -0.0083,-0.0119 l -0.762502,-0.99312 c -0.003,-0.004 -0.0068,-0.008 -0.0098,-0.0119 l -0.762504,-0.98538 c -0.003,-0.004 -0.0053,-0.008 -0.0083,-0.0114 l -0.7625,-0.97558 c -0.003,-0.004 -0.0068,-0.008 -0.0098,-0.0119 l -0.762502,-0.96578 c -0.003,-0.003 -0.0053,-0.007 -0.0083,-0.01 l -0.762501,-0.95805 -0.0098,-0.01 -0.762502,-0.94826 c -0.003,-0.004 -0.0053,-0.008 -0.0083,-0.0119 l -0.762502,-0.93846 -0.0098,-0.01 -0.762501,-0.93072 c -0.003,-0.004 -0.0053,-0.008 -0.0083,-0.0119 l -0.762502,-0.92093 -0.0098,-0.01 -0.762503,-0.91319 c -0.003,-0.004 -0.0053,-0.008 -0.0083,-0.0113 l -0.762502,-0.90546 -0.0098,-0.01 -0.760946,-0.8972 -0.0098,-0.0103 -0.762501,-0.88741 c -0.003,-0.004 -0.0053,-0.008 -0.0083,-0.0118 l -0.762502,-0.87968 -0.0098,-0.01 -0.762503,-0.874 c -0.003,-0.003 -0.0053,-0.007 -0.0083,-0.0103 l -0.762538,-0.86575 -0.0098,-0.0103 c -0.251816,-0.28545 -0.504494,-0.57121 -0.755245,-0.85698 z"
           style="color:#000000;font-style:normal;font-variant:normal;font-weight:normal;font-stretch:normal;font-size:medium;line-height:normal;font-family:sans-serif;text-indent:0;text-align:start;text-decoration:none;text-decoration-line:none;text-decoration-style:solid;text-decoration-color:#000000;letter-spacing:normal;word-spacing:normal;text-transform:none;writing-mode:lr-tb;direction:ltr;baseline-shift:baseline;text-anchor:start;white-space:normal;clip-rule:nonzero;display:inline;overflow:visible;visibility:visible;opacity:1;isolation:auto;mix-blend-mode:normal;color-interpolation:sRGB;color-interpolation-filters:linearRGB;solid-color:#000000;solid-opacity:1;fill:#ffffff;fill-opacity:1;fill-rule:nonzero;stroke:none;stroke-width:6.20263767;stroke-linecap:butt;stroke-linejoin:round;stroke-miterlimit:100;stroke-dasharray:none;stroke-dashoffset:0;stroke-opacity:1;color-rendering:auto;image-rendering:auto;shape-rendering:auto;text-rendering:auto;enable-background:accumulate" />
        <g
           aria-label="OCL"
           style="font-style:normal;font-variant:normal;font-weight:normal;font-stretch:normal;font-size:85.72499847px;line-height:125%;font-family:Sanchez;-inkscape-font-specification:Sanchez;letter-spacing:0px;word-spacing:0px;fill:#beb419;fill-opacity:1;stroke:none;stroke-width:0.26458332px;stroke-linecap:butt;stroke-linejoin:miter;stroke-opacity:1"
           id="text4567">
          <path
             d="m 326.10073,241.65565 q 0,14.99616 -9.05256,24.41448 -8.96112,9.32688 -22.67712,9.32688 -13.62456,0 -22.76856,-9.41832 -9.144,-9.50976 -9.144,-24.41448 0,-14.99616 9.41832,-23.95728 9.41832,-9.05256 22.49424,-9.05256 13.07592,0 22.4028,9.05256 9.32688,8.96112 9.32688,24.04872 z m -48.09744,19.38528 q 7.04088,6.94944 16.36776,6.94944 9.32688,0 16.27632,-6.94944 6.94944,-7.04088 6.94944,-19.2024 0,-12.25296 -7.13232,-19.11096 -7.04088,-6.94944 -16.09344,-6.94944 -9.05256,0 -16.18488,6.94944 -7.13232,6.858 -7.13232,19.11096 0,12.16152 6.94944,19.2024 z"
             style="font-size:91.44000244px;letter-spacing:-4.66989565px;fill:#beb419;fill-opacity:1;stroke-width:0.26458332px"
             id="path1864" />
          <path
             d="m 389.82081,258.20629 q 0.4572,0.36576 0.4572,0.9144 0,0.4572 -0.4572,1.3716 -0.36576,0.82296 -1.3716,2.286 -0.9144,1.3716 -3.38328,3.84048 -2.46888,2.46888 -5.39496,4.29768 -2.92608,1.73736 -7.7724,3.10896 -4.75488,1.3716 -10.24128,1.3716 -13.35024,0 -22.31136,-9.32688 -8.86968,-9.32688 -8.86968,-24.41448 0,-15.17904 8.96112,-24.14016 9.05256,-8.96112 21.76272,-8.96112 14.1732,0 20.574,9.78408 l -0.0914,-8.13816 q -0.18288,-1.09728 1.09728,-1.09728 h 5.12064 q 1.18872,0 1.18872,1.09728 v 19.93392 q 0,1.18872 -1.18872,1.18872 h -5.76072 q -1.09728,0 -1.09728,-1.18872 v -0.82296 q 0,-4.20624 -5.76072,-8.6868 -5.66928,-4.572 -14.1732,-4.572 -8.50392,0 -15.36192,6.76656 -6.76656,6.67512 -6.76656,19.01952 0,12.25296 6.858,19.11096 6.858,6.76656 16.09344,6.76656 9.96696,0 15.72768,-4.48056 4.48056,-3.47472 6.58368,-7.04088 0.73152,-1.3716 1.73736,-0.54864 z"
             style="font-size:91.44000244px;letter-spacing:-4.66989565px;fill:#beb419;fill-opacity:1;stroke-width:0.26458332px"
             id="path1866" />
          <path
             d="m 443.80683,274.75693 h -50.01769 q -1.18872,0 -1.18872,-1.09728 v -4.66344 q 0,-1.09728 1.18872,-1.09728 h 6.94944 v -51.93792 h -6.94944 q -1.18872,0 -1.18872,-1.09728 v -4.66344 q 0,-1.09728 1.18872,-1.09728 h 21.85416 q 1.18872,0 1.18872,1.18872 v 4.48056 q 0,1.18872 -1.18872,1.18872 h -6.94944 v 51.93792 h 29.07793 v -8.96112 q 0,-1.09728 1.18872,-1.09728 h 4.93776 q 1.09728,0 1.09728,1.09728 v 14.6304 q 0,1.18872 -1.18872,1.18872 z"
             style="font-size:91.44000244px;letter-spacing:-4.66989565px;fill:#beb419;fill-opacity:1;stroke-width:0.26458332px"
             id="path1868" />
        </g>
      </g>
    </g>
  </g>
</svg>
