<?xml version="1.0" encoding="UTF-8" standalone="no"?>
<!-- Created with Inkscape (http://www.inkscape.org/) -->

<svg
   xmlns:dc="http://purl.org/dc/elements/1.1/"
   xmlns:cc="http://creativecommons.org/ns#"
   xmlns:rdf="http://www.w3.org/1999/02/22-rdf-syntax-ns#"
   xmlns:svg="http://www.w3.org/2000/svg"
   xmlns="http://www.w3.org/2000/svg"
   xmlns:sodipodi="http://sodipodi.sourceforge.net/DTD/sodipodi-0.dtd"
   xmlns:inkscape="http://www.inkscape.org/namespaces/inkscape"
   width="653.36108mm"
   height="90mm"
   viewBox="0 0 653.36108 90"
   version="1.1"
   id="svg8"
   inkscape:version="0.92.3 (2405546, 2018-03-11)"
   sodipodi:docname="full-dark.svg">
  <defs
     id="defs2">
    <clipPath
       id="p594bf549dd">
      <rect
         id="rect409"
         y="79.199997"
         x="54"
         width="334.79999"
         height="613.79999" />
    </clipPath>
    <clipPath
       id="clipPath6004">
      <rect
         id="rect6002"
         y="79.199997"
         x="54"
         width="334.79999"
         height="613.79999" />
    </clipPath>
    <clipPath
       id="clipPath6008">
      <rect
         id="rect6006"
         y="79.199997"
         x="54"
         width="334.79999"
         height="613.79999" />
    </clipPath>
    <clipPath
       id="clipPath6012">
      <rect
         id="rect6010"
         y="79.199997"
         x="54"
         width="334.79999"
         height="613.79999" />
    </clipPath>
    <clipPath
       id="p594bf549dd-7">
      <rect
         height="613.79999"
         width="334.79999"
         x="54"
         y="79.199997"
         id="rect409-5" />
    </clipPath>
    <clipPath
       id="clipPath6004-35">
      <rect
         height="613.79999"
         width="334.79999"
         x="54"
         y="79.199997"
         id="rect6002-62" />
    </clipPath>
    <clipPath
       id="clipPath6008-9">
      <rect
         height="613.79999"
         width="334.79999"
         x="54"
         y="79.199997"
         id="rect6006-1" />
    </clipPath>
    <clipPath
       id="clipPath6012-27">
      <rect
         height="613.79999"
         width="334.79999"
         x="54"
         y="79.199997"
         id="rect6010-0" />
    </clipPath>
    <clipPath
       id="p594bf549dd-3">
      <rect
         id="rect409-6"
         y="79.199997"
         x="54"
         width="334.79999"
         height="613.79999" />
    </clipPath>
    <clipPath
       id="clipPath6004-7">
      <rect
         id="rect6002-5"
         y="79.199997"
         x="54"
         width="334.79999"
         height="613.79999" />
    </clipPath>
    <clipPath
       id="clipPath6008-3">
      <rect
         id="rect6006-5"
         y="79.199997"
         x="54"
         width="334.79999"
         height="613.79999" />
    </clipPath>
    <clipPath
       id="clipPath6012-6">
      <rect
         id="rect6010-2"
         y="79.199997"
         x="54"
         width="334.79999"
         height="613.79999" />
    </clipPath>
    <clipPath
       id="p594bf549dd-0">
      <rect
         height="613.79999"
         width="334.79999"
         x="54"
         y="79.199997"
         id="rect409-9" />
    </clipPath>
    <clipPath
       id="clipPath6004-3">
      <rect
         height="613.79999"
         width="334.79999"
         x="54"
         y="79.199997"
         id="rect6002-6" />
    </clipPath>
    <clipPath
       id="clipPath6008-0">
      <rect
         height="613.79999"
         width="334.79999"
         x="54"
         y="79.199997"
         id="rect6006-6" />
    </clipPath>
    <clipPath
       id="clipPath6012-2">
      <rect
         height="613.79999"
         width="334.79999"
         x="54"
         y="79.199997"
         id="rect6010-6" />
    </clipPath>
    <clipPath
       id="p594bf549dd-753">
      <rect
         height="613.79999"
         width="334.79999"
         x="54"
         y="79.199997"
         id="rect409-56" />
    </clipPath>
    <clipPath
       id="clipPath6004-29">
      <rect
         height="613.79999"
         width="334.79999"
         x="54"
         y="79.199997"
         id="rect6002-1" />
    </clipPath>
    <clipPath
       id="clipPath6008-27">
      <rect
         height="613.79999"
         width="334.79999"
         x="54"
         y="79.199997"
         id="rect6006-0" />
    </clipPath>
    <clipPath
       id="clipPath6012-93">
      <rect
         height="613.79999"
         width="334.79999"
         x="54"
         y="79.199997"
         id="rect6010-60" />
    </clipPath>
    <clipPath
       id="p594bf549dd-3-62">
      <rect
         id="rect409-6-6"
         y="79.199997"
         x="54"
         width="334.79999"
         height="613.79999" />
    </clipPath>
    <clipPath
       id="clipPath6004-7-18">
      <rect
         id="rect6002-5-7"
         y="79.199997"
         x="54"
         width="334.79999"
         height="613.79999" />
    </clipPath>
    <clipPath
       id="clipPath6008-3-9">
      <rect
         id="rect6006-5-2"
         y="79.199997"
         x="54"
         width="334.79999"
         height="613.79999" />
    </clipPath>
    <clipPath
       id="clipPath6012-6-02">
      <rect
         id="rect6010-2-3"
         y="79.199997"
         x="54"
         width="334.79999"
         height="613.79999" />
    </clipPath>
    <clipPath
       id="p594bf549dd-7-7">
      <rect
         id="rect409-5-5"
         y="79.199997"
         x="54"
         width="334.79999"
         height="613.79999" />
    </clipPath>
    <clipPath
       id="clipPath6004-3-9">
      <rect
         id="rect6002-56"
         y="79.199997"
         x="54"
         width="334.79999"
         height="613.79999" />
    </clipPath>
    <clipPath
       id="clipPath6008-2">
      <rect
         id="rect6006-9"
         y="79.199997"
         x="54"
         width="334.79999"
         height="613.79999" />
    </clipPath>
    <clipPath
       id="clipPath6012-1">
      <rect
         id="rect6010-27"
         y="79.199997"
         x="54"
         width="334.79999"
         height="613.79999" />
    </clipPath>
    <clipPath
       id="p594bf549dd-0-2">
      <rect
         id="rect409-2"
         y="79.199997"
         x="54"
         width="334.79999"
         height="613.79999" />
    </clipPath>
    <clipPath
       id="clipPath6004-37">
      <rect
         id="rect6002-59"
         y="79.199997"
         x="54"
         width="334.79999"
         height="613.79999" />
    </clipPath>
    <clipPath
       id="clipPath6008-22">
      <rect
         id="rect6006-8"
         y="79.199997"
         x="54"
         width="334.79999"
         height="613.79999" />
    </clipPath>
    <clipPath
       id="clipPath6012-97">
      <rect
         id="rect6010-36"
         y="79.199997"
         x="54"
         width="334.79999"
         height="613.79999" />
    </clipPath>
    <clipPath
       id="p594bf549dd-3-1">
      <rect
         height="613.79999"
         width="334.79999"
         x="54"
         y="79.199997"
         id="rect409-6-2" />
    </clipPath>
    <clipPath
       id="clipPath6004-7-9">
      <rect
         height="613.79999"
         width="334.79999"
         x="54"
         y="79.199997"
         id="rect6002-5-3" />
    </clipPath>
    <clipPath
       id="clipPath6008-3-1">
      <rect
         height="613.79999"
         width="334.79999"
         x="54"
         y="79.199997"
         id="rect6006-5-9" />
    </clipPath>
    <clipPath
       id="clipPath6012-6-4">
      <rect
         height="613.79999"
         width="334.79999"
         x="54"
         y="79.199997"
         id="rect6010-2-7" />
    </clipPath>
    <clipPath
       id="p594bf549dd-8">
      <rect
         height="613.79999"
         width="334.79999"
         x="54"
         y="79.199997"
         id="rect409-9-2" />
    </clipPath>
    <clipPath
       id="clipPath6004-73">
      <rect
         height="613.79999"
         width="334.79999"
         x="54"
         y="79.199997"
         id="rect6002-6-8" />
    </clipPath>
    <clipPath
       id="clipPath6008-1">
      <rect
         height="613.79999"
         width="334.79999"
         x="54"
         y="79.199997"
         id="rect6006-2" />
    </clipPath>
    <clipPath
       id="clipPath6012-9">
      <rect
         height="613.79999"
         width="334.79999"
         x="54"
         y="79.199997"
         id="rect6010-3" />
    </clipPath>
    <clipPath
       id="p594bf549dd-6">
      <rect
         height="613.79999"
         width="334.79999"
         x="54"
         y="79.199997"
         id="rect409-3" />
    </clipPath>
    <clipPath
       id="clipPath6004-2">
      <rect
         height="613.79999"
         width="334.79999"
         x="54"
         y="79.199997"
         id="rect6002-0" />
    </clipPath>
    <clipPath
       id="clipPath6008-6">
      <rect
         height="613.79999"
         width="334.79999"
         x="54"
         y="79.199997"
         id="rect6006-1-9" />
    </clipPath>
    <clipPath
       id="clipPath6012-5">
      <rect
         height="613.79999"
         width="334.79999"
         x="54"
         y="79.199997"
         id="rect6010-5" />
    </clipPath>
    <clipPath
       id="p594bf549dd-75">
      <rect
         id="rect409-35"
         y="79.199997"
         x="54"
         width="334.79999"
         height="613.79999" />
    </clipPath>
    <clipPath
       id="clipPath6004-6">
      <rect
         id="rect6002-2"
         y="79.199997"
         x="54"
         width="334.79999"
         height="613.79999" />
    </clipPath>
    <clipPath
       id="clipPath6008-91">
      <rect
         id="rect6006-27"
         y="79.199997"
         x="54"
         width="334.79999"
         height="613.79999" />
    </clipPath>
    <clipPath
       id="clipPath6012-0">
      <rect
         id="rect6010-9"
         y="79.199997"
         x="54"
         width="334.79999"
         height="613.79999" />
    </clipPath>
    <clipPath
       id="p594bf549dd-7-3">
      <rect
         height="613.79999"
         width="334.79999"
         x="54"
         y="79.199997"
         id="rect409-5-6" />
    </clipPath>
    <clipPath
       id="clipPath6004-35-7">
      <rect
         height="613.79999"
         width="334.79999"
         x="54"
         y="79.199997"
         id="rect6002-62-3" />
    </clipPath>
    <clipPath
       id="clipPath6008-9-6">
      <rect
         height="613.79999"
         width="334.79999"
         x="54"
         y="79.199997"
         id="rect6006-1-0" />
    </clipPath>
    <clipPath
       id="clipPath6012-27-1">
      <rect
         height="613.79999"
         width="334.79999"
         x="54"
         y="79.199997"
         id="rect6010-0-2" />
    </clipPath>
    <clipPath
       id="p594bf549dd-3-6">
      <rect
         id="rect409-6-26"
         y="79.199997"
         x="54"
         width="334.79999"
         height="613.79999" />
    </clipPath>
    <clipPath
       id="clipPath6004-7-1">
      <rect
         id="rect6002-5-8"
         y="79.199997"
         x="54"
         width="334.79999"
         height="613.79999" />
    </clipPath>
    <clipPath
       id="clipPath6008-3-7">
      <rect
         id="rect6006-5-92"
         y="79.199997"
         x="54"
         width="334.79999"
         height="613.79999" />
    </clipPath>
    <clipPath
       id="clipPath6012-6-0">
      <rect
         id="rect6010-2-2"
         y="79.199997"
         x="54"
         width="334.79999"
         height="613.79999" />
    </clipPath>
    <clipPath
       id="p594bf549dd-0-3">
      <rect
         height="613.79999"
         width="334.79999"
         x="54"
         y="79.199997"
         id="rect409-9-7" />
    </clipPath>
    <clipPath
       id="clipPath6004-3-5">
      <rect
         height="613.79999"
         width="334.79999"
         x="54"
         y="79.199997"
         id="rect6002-6-9" />
    </clipPath>
    <clipPath
       id="clipPath6008-0-9">
      <rect
         height="613.79999"
         width="334.79999"
         x="54"
         y="79.199997"
         id="rect6006-6-3" />
    </clipPath>
    <clipPath
       id="clipPath6012-2-1">
      <rect
         height="613.79999"
         width="334.79999"
         x="54"
         y="79.199997"
         id="rect6010-6-9" />
    </clipPath>
    <clipPath
       id="p594bf549dd-7535">
      <rect
         height="613.79999"
         width="334.79999"
         x="54"
         y="79.199997"
         id="rect409-62" />
    </clipPath>
    <clipPath
       id="clipPath6004-9">
      <rect
         height="613.79999"
         width="334.79999"
         x="54"
         y="79.199997"
         id="rect6002-12" />
    </clipPath>
    <clipPath
       id="clipPath6008-7">
      <rect
         height="613.79999"
         width="334.79999"
         x="54"
         y="79.199997"
         id="rect6006-09" />
    </clipPath>
    <clipPath
       id="clipPath6012-3">
      <rect
         height="613.79999"
         width="334.79999"
         x="54"
         y="79.199997"
         id="rect6010-606" />
    </clipPath>
    <clipPath
       id="p594bf549dd-3-2">
      <rect
         id="rect409-6-61"
         y="79.199997"
         x="54"
         width="334.79999"
         height="613.79999" />
    </clipPath>
    <clipPath
       id="clipPath6004-7-8">
      <rect
         id="rect6002-5-79"
         y="79.199997"
         x="54"
         width="334.79999"
         height="613.79999" />
    </clipPath>
    <clipPath
       id="clipPath6008-3-2">
      <rect
         id="rect6006-5-0"
         y="79.199997"
         x="54"
         width="334.79999"
         height="613.79999" />
    </clipPath>
    <clipPath
       id="clipPath6012-6-2">
      <rect
         id="rect6010-2-37"
         y="79.199997"
         x="54"
         width="334.79999"
         height="613.79999" />
    </clipPath>
    <clipPath
       id="p594bf549dd-0-5">
      <rect
         height="613.79999"
         width="334.79999"
         x="54"
         y="79.199997"
         id="rect409-9-9" />
    </clipPath>
    <clipPath
       id="clipPath6004-3-2">
      <rect
         height="613.79999"
         width="334.79999"
         x="54"
         y="79.199997"
         id="rect6002-6-2" />
    </clipPath>
    <clipPath
       id="clipPath6008-0-8">
      <rect
         height="613.79999"
         width="334.79999"
         x="54"
         y="79.199997"
         id="rect6006-6-9" />
    </clipPath>
    <clipPath
       id="clipPath6012-2-7">
      <rect
         height="613.79999"
         width="334.79999"
         x="54"
         y="79.199997"
         id="rect6010-6-3" />
    </clipPath>
  </defs>
  <sodipodi:namedview
     id="base"
     pagecolor="#ffffff"
     bordercolor="#666666"
     borderopacity="1.0"
     inkscape:pageopacity="0"
     inkscape:pageshadow="2"
     inkscape:zoom="1.3121498"
     inkscape:cx="331.84165"
     inkscape:cy="303.08309"
     inkscape:document-units="mm"
     inkscape:current-layer="layer1"
     showgrid="false"
     width="400mm"
     inkscape:window-width="1916"
     inkscape:window-height="1033"
     inkscape:window-x="1920"
     inkscape:window-y="22"
     inkscape:window-maximized="0"
     fit-margin-top="1"
     fit-margin-left="1"
     fit-margin-right="1"
     fit-margin-bottom="1" />
  <metadata
     id="metadata5">
    <rdf:RDF>
      <cc:Work
         rdf:about="">
        <dc:format>image/svg+xml</dc:format>
        <dc:type
           rdf:resource="http://purl.org/dc/dcmitype/StillImage" />
        <dc:title></dc:title>
      </cc:Work>
    </rdf:RDF>
  </metadata>
  <g
     inkscape:label="Layer 1"
     inkscape:groupmode="layer"
     id="layer1"
     transform="translate(0.49999996,-207.50001)">
    <g
       id="g1041">
      <path
         d="M 107.40747,253.10568 H 74.354811 q 0.367252,7.55332 4.774274,11.64849 4.498833,4.09517 10.099422,4.09517 5.60059,0 9.548548,-2.3661 4.039765,-2.3661 5.416965,-4.64119 0.7345,-0.91004 1.65263,-0.27302 l 2.47895,2.45711 q 0.55088,0.54602 0.55088,1.00105 0,0.364 -0.45907,1.00103 -0.36725,0.63703 -1.65263,2.00209 -1.28538,1.36505 -3.67252,3.09412 -2.29532,1.72908 -6.059651,2.91213 -3.672519,1.18304 -7.895915,1.18304 -9.640358,0 -16.159077,-6.27926 -6.426905,-6.27925 -6.426905,-16.83571 0,-10.64744 6.426905,-16.74469 6.426906,-6.18826 15.700013,-6.18826 9.36492,0 14.69007,6.00625 5.32515,5.91524 5.32515,16.01667 0,0.36401 0,0.72803 0,1.18305 -1.28538,1.18305 z m -6.33509,-5.55123 q -0.27544,-5.64224 -3.580707,-9.00938 -3.305267,-3.36714 -8.814043,-3.36714 -5.508776,0 -9.456734,3.09413 -3.947955,3.09413 -4.682458,9.28239 z"
         style="font-style:normal;font-variant:normal;font-weight:normal;font-stretch:normal;font-size:98.77777863px;line-height:6.61458302px;font-family:Sanchez;-inkscape-font-specification:Sanchez;letter-spacing:-5.54831266px;word-spacing:0px;fill:#ffffff;fill-opacity:1;stroke:none;stroke-width:0.24484144px;stroke-linecap:butt;stroke-linejoin:miter;stroke-opacity:1"
         id="path4528"
         inkscape:connector-curvature="0" />
      <path
         d="m 159.55169,274.58258 h -8.72223 q -3.94796,0 -3.94796,-3.82216 v -23.93401 q 0,-5.27822 -2.57076,-8.19033 -2.57077,-2.91213 -7.52866,-2.91213 -7.0696,0 -11.01756,5.73324 -0.45906,0.54603 -1.19357,2.00209 v 25.02604 h 4.86609 q 1.19357,0 1.19357,1.09205 v 3.91316 q 0,1.09205 -1.19357,1.09205 h -17.53627 q -1.19357,0 -1.19357,-1.09205 v -3.91316 q 0,-1.09205 1.19357,-1.09205 h 5.04971 v -32.57936 h -5.04971 q -1.19357,0 -1.19357,-1.09204 v -3.91318 q 0,-1.09203 1.19357,-1.09203 h 10.74211 q 1.19357,0 1.19357,1.09203 l -0.18362,6.18827 h 0.27544 q 4.77427,-7.91733 14.78188,-7.91733 7.34503,0 11.47662,4.27718 4.13158,4.27719 4.22339,11.55749 v 23.47897 h 5.14153 q 1.19356,0 1.19356,1.09205 v 3.91316 q 0,1.09205 -1.19356,1.09205 z"
         style="font-style:normal;font-variant:normal;font-weight:normal;font-stretch:normal;font-size:98.77777863px;line-height:6.61458302px;font-family:Sanchez;-inkscape-font-specification:Sanchez;letter-spacing:-5.54831266px;word-spacing:0px;fill:#ffffff;fill-opacity:1;stroke:none;stroke-width:0.24484144px;stroke-linecap:butt;stroke-linejoin:miter;stroke-opacity:1"
         id="path4530"
         inkscape:connector-curvature="0" />
      <path
         d="m 181.8983,295.87747 q -4.59065,0 -6.97778,-0.63703 -2.29533,-0.63703 -3.76433,-1.18304 -1.3772,-0.45503 -2.38714,-1.00105 -1.00994,-0.45502 -1.92807,-1.00104 -4.03977,-2.63912 -3.02983,-3.82217 l 2.38714,-3.36714 q 0.55087,-0.81903 1.56082,-0.091 0.0918,0 0.55088,0.36401 0.55087,0.45502 1.00994,0.81904 0.55088,0.36401 1.37719,0.81903 0.91813,0.54602 2.01989,0.91004 1.10175,0.45501 2.38713,0.81903 3.02983,0.81904 6.70235,0.81904 6.61053,0 10.55849,-3.18514 4.03977,-3.09412 4.03977,-9.82841 v -10.37442 q -1.65264,3.82215 -5.50878,6.55226 -3.76433,2.73011 -9.45673,2.73011 -9.36492,0 -15.05733,-6.46126 -5.60059,-6.46127 -5.60059,-16.7447 0,-10.28343 5.69241,-16.5627 5.78421,-6.27926 14.96551,-6.27926 5.6924,0 9.54854,2.63911 3.94796,2.54812 5.69241,6.27927 h 0.18362 l -0.0918,-7.18931 q 0,-1.09204 1.10175,-1.09204 h 10.83392 q 1.10177,0 1.10177,1.09204 v 3.91317 q 0,1.09204 -1.10177,1.09204 h -4.9579 v 40.40569 q 0,9.73741 -6.05965,14.65163 -5.96784,4.91419 -15.79182,4.91419 z m -13.58831,-43.68183 q 0,7.46232 4.03976,12.10352 4.03977,4.55018 10.09943,4.55018 6.05965,0 10.00761,-4.55018 4.03977,-4.5502 4.03977,-12.19453 0,-7.64431 -4.03977,-12.10349 -3.94796,-4.45919 -10.00761,-4.45919 -6.05966,0 -10.09943,4.55019 -4.03976,4.55019 -4.03976,12.1035 z"
         style="font-style:normal;font-variant:normal;font-weight:normal;font-stretch:normal;font-size:98.77777863px;line-height:6.61458302px;font-family:Sanchez;-inkscape-font-specification:Sanchez;letter-spacing:-5.54831266px;word-spacing:0px;fill:#ffffff;fill-opacity:1;stroke:none;stroke-width:0.24484144px;stroke-linecap:butt;stroke-linejoin:miter;stroke-opacity:1"
         id="path4532"
         inkscape:connector-curvature="0" />
      <path
         d="m 249.07545,268.84934 q -6.4269,6.37026 -16.43451,6.37026 -10.00762,0 -16.43452,-6.27926 -6.42692,-6.37027 -6.42692,-16.83571 0,-10.55644 6.51873,-16.74469 6.51872,-6.18826 16.34271,-6.18826 9.91579,0 16.34268,6.27926 6.51874,6.18827 6.51874,16.65369 0,10.37444 -6.42691,16.74471 z M 217.4918,252.10463 q 0,7.46232 4.40702,12.10351 4.40702,4.6412 10.74212,4.6412 6.4269,0 10.83392,-4.6412 4.40702,-4.64119 4.40702,-12.10351 0,-7.4623 -4.49883,-12.01249 -4.40702,-4.55019 -10.65031,-4.55019 -6.24328,0 -10.74211,4.55019 -4.49883,4.55019 -4.49883,12.01249 z"
         style="font-style:normal;font-variant:normal;font-weight:normal;font-stretch:normal;font-size:98.77777863px;line-height:6.61458302px;font-family:Sanchez;-inkscape-font-specification:Sanchez;letter-spacing:-5.54831266px;word-spacing:0px;fill:#ffffff;fill-opacity:1;stroke:none;stroke-width:0.24484144px;stroke-linecap:butt;stroke-linejoin:miter;stroke-opacity:1"
         id="path4534"
         inkscape:connector-curvature="0" />
      <g
         transform="matrix(1.006747,0,0,0.99787463,110.60502,120.51181)"
         id="g4507">
        <g
           id="g987">
          <path
             inkscape:connector-curvature="0"
             id="path4566"
             d="m -74.624023,136.95886 -0.684712,-0.25787 c -0.004,-10e-4 -0.0081,-0.003 -0.01188,-0.004 l -0.760161,-0.28371 c -0.003,-10e-4 -0.0068,-0.003 -0.0098,-0.004 l -0.760161,-0.28009 c -0.003,-0.001 -0.0073,-0.003 -0.01035,-0.004 l -0.760162,-0.27646 c -0.003,-10e-4 -0.0048,-0.003 -0.0078,-0.004 l -0.760158,-0.2744 c -0.003,-0.001 -0.0073,-0.003 -0.01035,-0.004 l -0.760158,-0.27233 c -0.003,-8e-4 -0.0048,-0.001 -0.0078,-0.002 l -0.760162,-0.27026 c -0.003,-0.001 -0.0053,-0.003 -0.0083,-0.004 l -0.760158,-0.26665 c -0.0021,-0.001 -0.0042,-0.003 -0.0062,-0.004 l -0.760161,-0.26458 c -0.003,-8e-4 -0.0048,-0.001 -0.0078,-0.002 l -0.760158,-0.26458 c -0.0021,-8e-4 -0.0042,-10e-4 -0.0062,-0.002 l -0.760162,-0.26252 c -0.003,-7.9e-4 -0.0053,-0.001 -0.0083,-0.002 l -0.760159,-0.25839 c -0.002,-7.9e-4 -0.0037,-0.001 -0.0057,-0.002 l -0.760161,-0.25839 c -0.002,-7.9e-4 -0.0042,-0.001 -0.0062,-0.002 l -0.76016,-0.25684 -0.0041,-0.002 -0.760161,-0.25477 c -0.002,-7.9e-4 -0.0037,-0.001 -0.0057,-0.002 l -0.760677,-0.2527 c -0.002,-8e-4 -0.0037,-0.001 -0.0057,-0.002 l -0.760161,-0.25063 -0.0041,-0.002 -0.76016,-0.24856 c -0.002,-7.9e-4 -0.0042,-0.001 -0.0062,-0.002 l -0.760161,-0.24908 -0.0041,-0.002 -0.76016,-0.24702 -0.0036,-0.002 -0.760161,-0.24495 c -0.002,-7.9e-4 -0.0042,-0.001 -0.0062,-0.002 l -0.760161,-0.24494 -0.0041,-0.002 -0.76016,-0.24288 -0.0041,-0.002 -0.76016,-0.24081 -0.0041,-0.002 -0.131258,-0.0413 v 6.50968 l 0.526583,0.17053 0.753959,0.24288 0.756543,0.2465 0.754476,0.24701 0.756026,0.24908 0.754476,0.24856 0.754476,0.25063 0.753959,0.25322 0.754476,0.25425 0.754476,0.25683 0.754476,0.25683 0.751892,0.25838 0.754476,0.26252 0.752409,0.26251 0.752409,0.26459 0.752408,0.26872 0.750343,0.2682 0.752409,0.27233 0.750342,0.2744 0.750343,0.27647 0.748789,0.28009 0.750342,0.28215 0.746207,0.28577 0.748792,0.28836 0.74621,0.29197 0.744657,0.29765 0.744656,0.29973 0.74259,0.3054 0.740524,0.30955 0.738458,0.31574 0.736904,0.32143 0.732771,0.32711 0.730705,0.33486 0.727089,0.34313 0.720886,0.35244 0.7152,0.36277 0.709002,0.37207 0.697632,0.38809 0.683678,0.40152 0.662493,0.4191 0.634587,0.4408 0.58601,0.45682 0.49971,0.46405 0.07648,0.0925 1.984891,4.34961 -2.041736,-5.80947 -0.380339,-0.6935 -0.601514,-0.85265 -0.646472,-0.79531 -0.671793,-0.75447 -0.691947,-0.71882 -0.705384,-0.69143 -0.713134,-0.67025 -0.71882,-0.65267 -0.725019,-0.63458 -0.729155,-0.62116 -0.734322,-0.60926 -0.734838,-0.5979 -0.738973,-0.58962 -0.738457,-0.57775 -0.742591,-0.57206 -0.74259,-0.5643 -0.744656,-0.55863 -0.744141,-0.55035 z"
             style="color:#000000;font-style:normal;font-variant:normal;font-weight:normal;font-stretch:normal;font-size:medium;line-height:normal;font-family:sans-serif;text-indent:0;text-align:start;text-decoration:none;text-decoration-line:none;text-decoration-style:solid;text-decoration-color:#000000;letter-spacing:normal;word-spacing:normal;text-transform:none;writing-mode:lr-tb;direction:ltr;baseline-shift:baseline;text-anchor:start;white-space:normal;clip-rule:nonzero;display:inline;overflow:visible;visibility:visible;opacity:1;isolation:auto;mix-blend-mode:normal;color-interpolation:sRGB;color-interpolation-filters:linearRGB;solid-color:#000000;solid-opacity:1;fill:#00643f;fill-opacity:1;fill-rule:nonzero;stroke:none;stroke-width:6.19988155;stroke-linecap:butt;stroke-linejoin:round;stroke-miterlimit:100;stroke-dasharray:none;stroke-dashoffset:0;stroke-opacity:1;color-rendering:auto;image-rendering:auto;shape-rendering:auto;text-rendering:auto;enable-background:accumulate" />
          <path
             inkscape:connector-curvature="0"
             id="path4571"
             d="m -77.599551,127.30053 -0.108002,-0.0729 c -0.003,-0.002 -0.0048,-0.004 -0.0078,-0.006 l -0.760161,-0.51108 c -0.003,-0.002 -0.0073,-0.004 -0.01035,-0.006 l -0.760161,-0.50746 c -0.003,-0.002 -0.0047,-0.004 -0.0078,-0.006 l -0.760161,-0.50126 c -0.003,-0.002 -0.0073,-0.004 -0.01035,-0.006 l -0.760161,-0.49971 c -0.003,-0.002 -0.0048,-0.004 -0.0078,-0.006 l -0.760159,-0.49557 c -0.003,-0.001 -0.0053,-0.003 -0.0083,-0.004 l -0.760161,-0.49403 c -0.003,-0.001 -0.0053,-0.003 -0.0083,-0.004 l -0.758092,-0.48989 c -0.003,-0.002 -0.0048,-0.004 -0.0078,-0.006 l -0.760161,-0.48575 c -0.003,-0.001 -0.0053,-0.003 -0.0083,-0.004 l -0.76016,-0.48369 c -0.003,-0.001 -0.0048,-0.003 -0.0078,-0.004 l -0.75861,-0.48214 c -0.003,-10e-4 -0.0048,-0.003 -0.0078,-0.004 l -0.76016,-0.47801 c -0.003,-10e-4 -0.0053,-0.003 -0.0083,-0.004 l -0.758094,-0.47439 c -0.003,-0.001 -0.0053,-0.003 -0.0083,-0.004 l -0.76016,-0.47181 c -0.002,-10e-4 -0.0037,-0.003 -0.0057,-0.004 l -0.76016,-0.47026 c -0.002,-0.001 -0.0042,-0.003 -0.0062,-0.004 l -0.76016,-0.46611 c -0.003,-0.001 -0.0053,-0.003 -0.0083,-0.004 l -0.760161,-0.46457 c -0.002,-0.001 -0.0037,-0.003 -0.0057,-0.004 l -0.756543,-0.45889 c -0.002,-0.001 -0.0042,-0.003 -0.0062,-0.004 l -0.76016,-0.45837 c -0.002,-0.001 -0.0042,-0.003 -0.0062,-0.004 l -0.76016,-0.45837 c -0.002,-7.9e-4 -0.0037,-0.001 -0.0057,-0.002 l -0.76016,-0.45475 c -0.002,-0.001 -0.0042,-0.003 -0.0062,-0.004 l -0.02274,-0.0135 v 7.23988 l 0.618567,0.37723 0.754476,0.4625 0.752409,0.46613 0.753959,0.46818 0.752409,0.47026 0.754476,0.47232 0.752409,0.47594 0.752409,0.48008 0.752408,0.48007 0.752409,0.48576 0.752409,0.48783 0.752409,0.48989 0.751892,0.49403 0.750857,0.49764 0.752409,0.50126 0.750342,0.50384 0.750343,0.50747 0.750339,0.51108 0.750343,0.51728 0.748276,0.51935 0.748792,0.52503 0.748273,0.52917 0.748274,0.53485 0.746725,0.53898 0.746726,0.54467 0.744141,0.55036 0.744656,0.55862 0.74259,0.5643 0.74259,0.57206 0.738458,0.57775 0.738973,0.58962 0.734838,0.5979 0.734322,0.60927 0.729154,0.62115 0.72502,0.63458 0.71882,0.65268 0.713134,0.67024 0.705384,0.69143 0.691946,0.71882 0.671793,0.75448 0.646473,0.7953 0.601514,0.85266 0.380339,0.6935 2.037085,5.79706 -2.064991,-6.93085 -0.527098,-1.25625 -0.662492,-1.26556 -0.689364,-1.16788 -0.707451,-1.09916 -0.715201,-1.05007 -0.725022,-1.01079 -0.728636,-0.98185 -0.732771,-0.95601 -0.736907,-0.93483 -0.738457,-0.91467 -0.740521,-0.89969 -0.742593,-0.88315 -0.74259,-0.8723 -0.746723,-0.85628 -0.744657,-0.84646 -0.74621,-0.83612 -0.746723,-0.82683 -0.748276,-0.81545 -0.748273,-0.80925 -0.748792,-0.79943 -0.748276,-0.79117 z"
             style="color:#000000;font-style:normal;font-variant:normal;font-weight:normal;font-stretch:normal;font-size:medium;line-height:normal;font-family:sans-serif;text-indent:0;text-align:start;text-decoration:none;text-decoration-line:none;text-decoration-style:solid;text-decoration-color:#000000;letter-spacing:normal;word-spacing:normal;text-transform:none;writing-mode:lr-tb;direction:ltr;baseline-shift:baseline;text-anchor:start;white-space:normal;clip-rule:nonzero;display:inline;overflow:visible;visibility:visible;opacity:1;isolation:auto;mix-blend-mode:normal;color-interpolation:sRGB;color-interpolation-filters:linearRGB;solid-color:#000000;solid-opacity:1;fill:#008654;fill-opacity:1;fill-rule:nonzero;stroke:none;stroke-width:6.19988155;stroke-linecap:butt;stroke-linejoin:round;stroke-miterlimit:100;stroke-dasharray:none;stroke-dashoffset:0;stroke-opacity:1;color-rendering:auto;image-rendering:auto;shape-rendering:auto;text-rendering:auto;enable-background:accumulate" />
          <path
             inkscape:connector-curvature="0"
             id="path4533"
             d="m -93.082843,112.45648 0.179317,0.15865 0.752409,0.67024 0.750342,0.67593 0.752409,0.67954 0.752409,0.6842 0.752408,0.68936 0.751893,0.6935 0.750858,0.6997 0.752409,0.70538 0.751892,0.709 0.750859,0.7152 0.752408,0.71934 0.750342,0.72657 0.750342,0.73122 0.752409,0.73846 0.750342,0.74259 0.750342,0.75034 0.75034,0.75447 0.750343,0.76378 0.750342,0.76843 0.748792,0.77566 0.75034,0.78394 0.748276,0.79116 0.748792,0.79944 0.748273,0.80925 0.748276,0.81545 0.746723,0.82683 0.74621,0.83612 0.744657,0.84646 0.746723,0.85628 0.74259,0.8723 0.742593,0.88315 0.740521,0.89968 0.738457,0.91468 0.736907,0.93482 0.732771,0.95602 0.728636,0.98185 0.725022,1.01079 0.715201,1.05007 0.707451,1.09916 0.689364,1.16788 0.662492,1.26556 0.527098,1.25625 2.069126,6.94376 -2.086694,-8.15092 -0.621152,-1.90634 -0.703315,-1.78698 -0.721405,-1.64382 -0.728636,-1.54978 -0.734838,-1.48518 -0.738458,-1.43195 -0.74259,-1.38958 -0.74259,-1.35547 -0.744659,-1.32447 -0.746723,-1.29915 -0.746207,-1.27382 -0.748276,-1.25367 -0.748792,-1.23042 -0.748274,-1.21491 -0.750342,-1.19527 -0.748792,-1.17926 -0.75034,-1.16375 -0.748276,-1.14826 -0.750342,-1.13429 -0.75034,-1.12086 -0.01447,-0.0227 -0.546737,-0.54519 c -0.003,-0.003 -0.0053,-0.007 -0.0083,-0.01 l -0.760159,-0.75241 -0.0098,-0.0104 -0.760161,-0.74621 c -0.003,-0.003 -0.0073,-0.005 -0.01035,-0.008 l -0.758095,-0.74052 -0.0098,-0.01 -0.760159,-0.73277 c -0.003,-0.003 -0.0053,-0.007 -0.0083,-0.0104 l -0.760161,-0.72864 c -0.003,-0.003 -0.0068,-0.005 -0.0098,-0.008 l -0.760161,-0.72295 -0.0083,-0.008 -0.760158,-0.71726 -0.0083,-0.008 -0.760162,-0.71314 -0.0078,-0.008 -0.76016,-0.70745 c -0.003,-0.003 -0.0073,-0.005 -0.01033,-0.008 l -0.758093,-0.70125 c -0.003,-0.003 -0.0073,-0.005 -0.01033,-0.008 l -0.76016,-0.69556 -0.0078,-0.008 -0.76016,-0.69143 -0.0083,-0.008 -0.76016,-0.68781 c -0.003,-0.002 -0.0047,-0.004 -0.0078,-0.006 l -0.76016,-0.68213 -0.0088,-0.008 -0.760161,-0.678 c -0.003,-0.002 -0.0053,-0.004 -0.0083,-0.006 l -0.76016,-0.67386 -0.0078,-0.008 -0.75861,-0.66766 c -0.003,-0.002 -0.0047,-0.004 -0.0078,-0.006 l -0.76016,-0.66405 c -0.003,-0.002 -0.0053,-0.004 -0.0083,-0.006 l -0.760161,-0.66042 -0.0078,-0.008 -0.76016,-0.65474 c -0.003,-0.002 -0.0053,-0.004 -0.0083,-0.006 l -0.448035,-0.38447 z"
             style="color:#000000;font-style:normal;font-variant:normal;font-weight:normal;font-stretch:normal;font-size:medium;line-height:normal;font-family:sans-serif;text-indent:0;text-align:start;text-decoration:none;text-decoration-line:none;text-decoration-style:solid;text-decoration-color:#000000;letter-spacing:normal;word-spacing:normal;text-transform:none;writing-mode:lr-tb;direction:ltr;baseline-shift:baseline;text-anchor:start;white-space:normal;clip-rule:nonzero;display:inline;overflow:visible;visibility:visible;opacity:1;isolation:auto;mix-blend-mode:normal;color-interpolation:sRGB;color-interpolation-filters:linearRGB;solid-color:#000000;solid-opacity:1;fill:#00a86a;fill-opacity:1;fill-rule:nonzero;stroke:none;stroke-width:6.19988155;stroke-linecap:butt;stroke-linejoin:round;stroke-miterlimit:100;stroke-dasharray:none;stroke-dashoffset:0;stroke-opacity:1;color-rendering:auto;image-rendering:auto;shape-rendering:auto;text-rendering:auto;enable-background:accumulate" />
          <path
             sodipodi:nodetypes="ssssccssssssssccccccccccccccccccccccccccccccccccccccccccccccccsscsssssssscccccccccccccccccccccccccccccccccccccccccccccccccccccccccccccccccccccccccccccccccccccccccccs"
             inkscape:connector-curvature="0"
             id="path4546"
             d="m -108.16461,88.17579 c -0.80188,0 -1.20251,0.370337 -1.20251,1.110527 v 4.718575 c 0,0.74019 0.40063,1.11001 1.20251,1.11001 h 7.03213 V 147.6688 h -7.03213 c -0.80188,0 -1.20251,0.37034 -1.20251,1.11053 v 4.71857 c 0,0.74019 0.40063,1.11001 1.20251,1.11001 h 22.20588 c 0.801876,0 1.203027,-0.36982 1.203027,-1.11001 v -4.71857 c 0,-0.74019 -0.401151,-1.11053 -1.203027,-1.11053 h -7.124113 v -45.52177 -4.487581 l 0.618567,0.736389 0.750342,0.905372 0.750342,0.91312 0.752408,0.92088 0.750342,0.92862 0.752409,0.93845 0.750342,0.94826 0.750859,0.95601 0.751892,0.96583 0.750858,0.97617 0.750342,0.9834 0.752409,0.99529 0.750341,1.00511 0.750342,1.01492 0.752409,1.02475 0.750342,1.03663 0.750343,1.048 0.75034,1.05781 0.750342,1.07022 0.752409,1.08314 0.750342,1.09347 0.750859,1.10898 0.750342,1.12086 0.75034,1.1343 0.748276,1.14825 0.750343,1.16375 0.748789,1.17926 0.750342,1.19527 0.748276,1.21492 0.748792,1.23041 0.748274,1.25367 0.746207,1.27383 0.746725,1.29914 0.744657,1.32447 0.74259,1.35547 0.74259,1.38958 0.738458,1.43196 0.734837,1.48518 0.728639,1.54977 0.721402,1.64383 0.703316,1.78697 0.621152,1.90634 2.086694,8.15093 h 1.228865 1.850533 4.996077 c 0.801878,0 1.203029,-0.37034 1.203029,-1.11053 V 95.115418 h 7.124112 c 0.740193,0 1.110525,-0.370336 1.110525,-1.110526 v -4.718575 c 0,-0.74019 -0.370332,-1.110527 -1.110525,-1.110527 h -22.297863 c -0.740193,0 -1.110528,0.370337 -1.110528,1.110527 v 4.718575 c 0,0.74019 0.370335,1.110526 1.110528,1.110526 h 7.124112 v 42.836142 l -0.492476,-1.04748 c -0.009,-0.0191 -0.01804,-0.0379 -0.02739,-0.0568 l -0.760162,-1.53428 c -0.008,-0.015 -0.01534,-0.0301 -0.02326,-0.045 l -0.760162,-1.47537 c -0.006,-0.0124 -0.01302,-0.0249 -0.01963,-0.0372 l -0.760158,-1.42421 c -0.006,-0.0111 -0.01217,-0.0226 -0.0181,-0.0336 l -0.760161,-1.38493 c -0.005,-0.01 -0.01027,-0.0198 -0.0155,-0.0295 l -0.760162,-1.35185 c -0.005,-0.008 -0.0092,-0.0173 -0.01394,-0.0258 l -0.760161,-1.3224 c -0.005,-0.007 -0.0087,-0.0145 -0.01344,-0.0217 l -0.760153,-1.29708 c -0.004,-0.007 -0.0081,-0.014 -0.01188,-0.0212 l -0.760161,-1.27382 c -0.004,-0.007 -0.0081,-0.0131 -0.01188,-0.0196 l -0.760161,-1.25161 c -0.004,-0.006 -0.0081,-0.0122 -0.01188,-0.0181 l -0.760161,-1.23248 c -0.004,-0.006 -0.0081,-0.0116 -0.01188,-0.0176 l -0.760161,-1.21284 c -0.003,-0.006 -0.0068,-0.0116 -0.0098,-0.0176 l -0.760161,-1.19527 c -0.003,-0.006 -0.0073,-0.0117 -0.01035,-0.0176 l -0.760161,-1.17926 c -0.003,-0.005 -0.0068,-0.0107 -0.0098,-0.016 l -0.760161,-1.16376 c -0.003,-0.005 -0.0073,-0.0102 -0.01035,-0.0155 l -0.760161,-1.15032 c -0.003,-0.005 -0.0068,-0.009 -0.0098,-0.0134 l -0.760159,-1.13637 c -0.003,-0.005 -0.0073,-0.009 -0.01035,-0.0139 l -0.760161,-1.12086 c -0.003,-0.005 -0.0068,-0.009 -0.0098,-0.0134 l -0.760161,-1.10898 c -0.003,-0.005 -0.0073,-0.009 -0.01035,-0.0139 l -0.760161,-1.09709 c -0.003,-0.004 -0.0068,-0.008 -0.0098,-0.0119 l -0.758093,-1.0852 c -0.003,-0.004 -0.0073,-0.008 -0.01035,-0.0119 l -0.760161,-1.07177 c -0.003,-0.005 -0.0068,-0.009 -0.0098,-0.0134 l -0.760161,-1.05989 c -0.003,-0.004 -0.0053,-0.008 -0.0083,-0.0119 l -0.760159,-1.05007 c -0.003,-0.004 -0.0068,-0.008 -0.0098,-0.0119 l -0.760158,-1.03819 c -0.003,-0.004 -0.0073,-0.008 -0.01035,-0.0119 l -0.760161,-1.02888 c -0.003,-0.004 -0.0048,-0.008 -0.0078,-0.0114 l -0.760677,-1.01699 c -0.003,-0.004 -0.0068,-0.008 -0.0098,-0.0119 l -0.760158,-1.00666 c -0.003,-0.004 -0.0053,-0.008 -0.0083,-0.0119 l -0.760161,-0.99529 c -0.003,-0.004 -0.0068,-0.008 -0.0098,-0.0119 l -0.760162,-0.98754 c -0.003,-0.004 -0.0053,-0.008 -0.0083,-0.0114 l -0.760158,-0.97772 c -0.003,-0.004 -0.0068,-0.008 -0.0098,-0.0119 l -0.760161,-0.9679 c -0.003,-0.003 -0.0053,-0.007 -0.0083,-0.01 l -0.76016,-0.960149 -0.0098,-0.0098 -0.76016,-0.95033 c -0.003,-0.004 -0.0053,-0.0081 -0.0083,-0.01189 l -0.76016,-0.940511 -0.0098,-0.0098 -0.76016,-0.932759 c -0.003,-0.004 -0.0053,-0.0081 -0.0083,-0.01189 l -0.760161,-0.922941 -0.0098,-0.0098 -0.760161,-0.91519 c -0.003,-0.004 -0.0053,-0.0076 -0.0083,-0.01137 l -0.76016,-0.907438 -0.0098,-0.0098 -0.75861,-0.89917 -0.0098,-0.01033 -0.76016,-0.889352 c -0.003,-0.004 -0.0053,-0.0081 -0.0083,-0.01188 l -0.760161,-0.8816 -0.0098,-0.0098 -0.760161,-0.875915 c -0.003,-0.003 -0.0053,-0.0073 -0.0083,-0.01034 l -0.760196,-0.867649 -0.0098,-0.01033 c -0.251043,-0.286073 -0.502945,-0.572464 -0.752926,-0.858863 z"
             style="color:#000000;font-style:normal;font-variant:normal;font-weight:normal;font-stretch:normal;font-size:medium;line-height:normal;font-family:sans-serif;text-indent:0;text-align:start;text-decoration:none;text-decoration-line:none;text-decoration-style:solid;text-decoration-color:#000000;letter-spacing:normal;word-spacing:normal;text-transform:none;writing-mode:lr-tb;direction:ltr;baseline-shift:baseline;text-anchor:start;white-space:normal;clip-rule:nonzero;display:inline;overflow:visible;visibility:visible;opacity:1;isolation:auto;mix-blend-mode:normal;color-interpolation:sRGB;color-interpolation-filters:linearRGB;solid-color:#000000;solid-opacity:1;fill:#ffffff;fill-opacity:1;fill-rule:nonzero;stroke:none;stroke-width:6.19988155;stroke-linecap:butt;stroke-linejoin:round;stroke-miterlimit:100;stroke-dasharray:none;stroke-dashoffset:0;stroke-opacity:1;color-rendering:auto;image-rendering:auto;shape-rendering:auto;text-rendering:auto;enable-background:accumulate" />
        </g>
      </g>
      <path
         d="m 289.90707,275.96963 h -29.73455 q -1.19674,0 -1.19674,-1.09496 v -4.65355 q 0,-1.09496 1.19674,-1.09496 h 6.99636 v -51.8278 h -6.99636 q -1.19674,0 -1.19674,-1.09496 v -4.65355 q 0,-1.09495 1.19674,-1.09495 h 29.64249 q 9.20575,0 14.2689,4.83604 5.15522,4.83604 5.15522,12.68322 0,9.21585 -8.19311,13.77816 11.78335,3.37611 11.78335,15.51185 0,8.57714 -5.79962,13.68691 -5.70756,5.01855 -17.12268,5.01855 z m -14.72919,-6.84347 h 14.08479 q 7.27253,0 11.32306,-3.01112 4.14259,-3.10237 4.14259,-9.48959 0,-11.40577 -14.91331,-11.40577 h -14.63713 z m 0,-29.92873 h 14.08479 q 4.78698,-0.0912 8.28517,-2.73738 3.59024,-2.64614 3.59024,-8.3034 0,-5.65726 -3.77436,-8.21216 -3.68229,-2.64613 -9.11368,-2.64613 h -13.07216 z"
         style="font-style:normal;font-variant:normal;font-weight:normal;font-stretch:normal;font-size:91.44048309px;line-height:1.25;font-family:Sanchez;-inkscape-font-specification:Sanchez;letter-spacing:-4.66989565px;word-spacing:0px;fill:#00a86a;fill-opacity:1;stroke:none;stroke-width:1.15890181"
         id="path4874"
         inkscape:connector-curvature="0" />
      <path
         d="m 334.88359,275.96963 h -17.58296 q -1.19675,0 -1.19675,-1.09496 v -3.92359 q 0,-1.09494 1.19675,-1.09494 h 5.06316 v -32.66613 h -5.06316 q -1.19675,0 -1.19675,-1.09495 v -3.92358 q 0,-1.09496 1.19675,-1.09496 h 10.77072 q 1.19674,0 1.19674,1.09496 v 11.40577 h 0.27618 q 0.27617,-1.45994 1.93321,-4.01483 1.65702,-2.5549 3.59023,-4.19733 2.02526,-1.73367 5.70756,-3.10236 3.77435,-1.3687 8.46929,-1.3687 1.19674,0 1.19674,1.18621 v 4.83604 q 0,1.1862 -1.19674,1.1862 h -1.93321 q -7.91694,0 -12.61187,5.01854 -4.69493,5.01853 -4.69493,11.40577 v 15.32935 h 4.87904 q 1.19675,0 1.19675,1.09494 v 3.92359 q 0,1.09496 -1.19675,1.09496 z"
         style="font-style:normal;font-variant:normal;font-weight:normal;font-stretch:normal;font-size:91.44048309px;line-height:1.25;font-family:Sanchez;-inkscape-font-specification:Sanchez;letter-spacing:-4.66989565px;word-spacing:0px;fill:#00a86a;fill-opacity:1;stroke:none;stroke-width:1.15890181"
         id="path4876"
         inkscape:connector-curvature="0" />
      <path
         d="m 395.07981,275.96963 h -8.009 q -3.95847,0 -3.95847,-3.83234 v -4.65356 h -0.18411 q -6.7202,9.21586 -17.95121,9.21586 -6.62813,0 -10.86277,-3.3761 -4.23465,-3.46735 -4.23465,-9.30711 0,-7.48218 6.53609,-10.94953 6.62813,-3.5586 18.13531,-3.5586 h 7.73282 v -1.09496 q 0,-11.40577 -11.96746,-11.40577 -5.61551,0 -8.10106,1.09496 -2.48554,1.0037 -3.59024,1.64243 -1.01263,0.63872 -1.56497,1.0037 -1.38087,1.09496 -2.02527,0.18249 l -2.5776,-3.1936 q -0.64441,-0.72998 0.18411,-1.45994 1.56498,-2.00742 6.44402,-3.92359 4.87905,-1.91617 11.50718,-1.91617 19.33206,0 19.33206,18.24922 v 21.16912 h 5.15522 q 1.10469,0 1.10469,1.09494 v 3.92359 q 0,1.09496 -1.10469,1.09496 z m -12.79599,-20.98662 h -7.27253 q -5.33933,0 -8.83752,0.54748 -3.49818,0.54747 -5.98373,2.3724 -2.39349,1.82492 -2.39349,5.01854 0,3.19361 2.57761,5.29227 2.66966,2.00742 6.90431,2.00742 8.92956,0 15.00535,-7.84717 z"
         style="font-style:normal;font-variant:normal;font-weight:normal;font-stretch:normal;font-size:91.44048309px;line-height:1.25;font-family:Sanchez;-inkscape-font-specification:Sanchez;letter-spacing:-4.66989565px;word-spacing:0px;fill:#00a86a;fill-opacity:1;stroke:none;stroke-width:1.15890181"
         id="path4878"
         inkscape:connector-curvature="0" />
      <path
         d="m 417.35843,275.96963 h -17.58298 q -1.19674,0 -1.19674,-1.09496 v -3.92359 q 0,-1.09494 1.19674,-1.09494 h 5.06317 v -32.66613 h -5.06317 q -1.19674,0 -1.19674,-1.09495 v -3.92358 q 0,-1.09496 1.19674,-1.09496 h 11.59925 q 1.10468,0 1.10468,1.09496 v 37.68466 h 4.87905 q 1.19674,0 1.19674,1.09494 v 3.92359 q 0,1.09496 -1.19674,1.09496 z m -5.24727,-58.39753 q 1.56497,1.55118 1.56497,3.64984 0,2.09866 -1.56497,3.5586 -1.47293,1.45994 -3.59025,1.45994 -2.11732,0 -3.68229,-1.45994 -1.47292,-1.45994 -1.47292,-3.5586 0,-2.09866 1.47292,-3.64984 1.56497,-1.55119 3.68229,-1.55119 2.11732,0 3.59025,1.55119 z"
         style="font-style:normal;font-variant:normal;font-weight:normal;font-stretch:normal;font-size:91.44048309px;line-height:1.25;font-family:Sanchez;-inkscape-font-specification:Sanchez;letter-spacing:-4.66989565px;word-spacing:0px;fill:#00a86a;fill-opacity:1;stroke:none;stroke-width:1.15890181"
         id="path4880"
         inkscape:connector-curvature="0" />
      <path
         d="m 469.82181,275.96963 h -8.74545 q -3.95847,0 -3.95847,-3.83234 v -23.99774 q 0,-5.29228 -2.57761,-8.21215 -2.57761,-2.91988 -7.54871,-2.91988 -7.08842,0 -11.04689,5.74851 -0.46029,0.54748 -1.19675,2.00741 v 25.0927 h 4.87905 q 1.19674,0 1.19674,1.09494 v 3.92359 q 0,1.09496 -1.19674,1.09496 H 422.044 q -1.19674,0 -1.19674,-1.09496 v -3.92359 q 0,-1.09494 1.19674,-1.09494 h 5.06317 V 237.19001 H 422.044 q -1.19674,0 -1.19674,-1.09495 v -3.92358 q 0,-1.09496 1.19674,-1.09496 h 10.77073 q 1.19675,0 1.19675,1.09496 l -0.18413,6.20474 h 0.27618 q 4.78699,-7.93842 14.82124,-7.93842 7.3646,0 11.50718,4.28857 4.14259,4.28857 4.23465,11.58826 v 23.54151 h 5.15521 q 1.19675,0 1.19675,1.09494 v 3.92359 q 0,1.09496 -1.19675,1.09496 z"
         style="font-style:normal;font-variant:normal;font-weight:normal;font-stretch:normal;font-size:91.44048309px;line-height:1.25;font-family:Sanchez;-inkscape-font-specification:Sanchez;letter-spacing:-4.66989565px;word-spacing:0px;fill:#00a86a;fill-opacity:1;stroke:none;stroke-width:1.15890181"
         id="path4882"
         inkscape:connector-curvature="0" />
      <path
         d="m 519.22284,275.96963 h -8.00899 q -2.11732,0 -3.12996,-0.82123 -0.92057,-0.91245 -0.92057,-3.01111 v -5.10979 h -0.092 q -1.47292,3.83234 -5.52345,6.75222 -4.05052,2.82863 -9.85014,2.82863 -9.20575,0 -15.00537,-6.38723 -5.70756,-6.38723 -5.70756,-16.69805 0,-10.40205 5.70756,-16.69804 5.79962,-6.38723 15.09742,-6.38723 5.70757,0 9.48192,2.64614 3.77436,2.5549 5.43139,6.29599 h 0.092 q -0.092,-1.82493 -0.092,-3.01113 v -19.80042 h -5.15522 q -1.19675,0 -1.19675,-1.09494 v -3.92359 q 0,-1.09495 1.19675,-1.09495 h 11.41512 q 1.1047,0 1.1047,1.09495 v 58.30629 h 5.15521 q 1.10469,0 1.10469,1.09494 v 3.92359 q 0,1.09496 -1.10469,1.09496 z m -40.68938,-22.62905 q 0,7.57343 3.95847,12.22698 4.05053,4.65356 10.21837,4.65356 6.16786,0 10.12633,-4.56231 3.95847,-4.65355 3.95847,-12.31823 0,-7.66467 -4.05053,-12.04448 -4.05052,-4.47107 -10.03427,-4.47107 -5.98373,0 -10.12631,4.47107 -4.05053,4.47105 -4.05053,12.04448 z"
         style="font-style:normal;font-variant:normal;font-weight:normal;font-stretch:normal;font-size:91.44048309px;line-height:1.25;font-family:Sanchez;-inkscape-font-specification:Sanchez;letter-spacing:-4.66989565px;word-spacing:0px;fill:#00a86a;fill-opacity:1;stroke:none;stroke-width:1.15890181"
         id="path4884"
         inkscape:connector-curvature="0" />
      <path
         d="m 541.34036,275.96963 h -17.58297 q -1.19675,0 -1.19675,-1.09496 v -3.92359 q 0,-1.09494 1.19675,-1.09494 h 5.06316 v -32.66613 h -5.06316 q -1.19675,0 -1.19675,-1.09495 v -3.92358 q 0,-1.09496 1.19675,-1.09496 h 10.77072 q 1.19675,0 1.19675,1.09496 v 11.40577 h 0.27617 q 0.27617,-1.45994 1.9332,-4.01483 1.65704,-2.5549 3.59025,-4.19733 2.02526,-1.73367 5.70756,-3.10236 3.77435,-1.3687 8.46928,-1.3687 1.19675,0 1.19675,1.18621 v 4.83604 q 0,1.1862 -1.19675,1.1862 h -1.93321 q -7.91694,0 -12.61186,5.01854 -4.69494,5.01853 -4.69494,11.40577 v 15.32935 h 4.87905 q 1.19674,0 1.19674,1.09494 v 3.92359 q 0,1.09496 -1.19674,1.09496 z"
         style="font-style:normal;font-variant:normal;font-weight:normal;font-stretch:normal;font-size:91.44048309px;line-height:1.25;font-family:Sanchez;-inkscape-font-specification:Sanchez;letter-spacing:-4.66989565px;word-spacing:0px;fill:#00a86a;fill-opacity:1;stroke:none;stroke-width:1.15890181"
         id="path4886"
         inkscape:connector-curvature="0" />
      <path
         d="m 594.65817,270.22112 q -6.44402,6.38723 -16.47829,6.38723 -10.03426,0 -16.47827,-6.29599 -6.44403,-6.38722 -6.44403,-16.88053 0,-10.58456 6.53609,-16.78929 6.53607,-6.20474 16.38621,-6.20474 9.94221,0 16.38623,6.29598 6.53607,6.20474 6.53607,16.69805 0,10.40206 -6.44401,16.78929 z m -31.66776,-16.78929 q 0,7.48218 4.41876,12.13573 4.41875,4.65356 10.77071,4.65356 6.44403,0 10.86278,-4.65356 4.41876,-4.65355 4.41876,-12.13573 0,-7.48219 -4.51081,-12.04449 -4.41876,-4.56231 -10.67867,-4.56231 -6.2599,0 -10.77071,4.56231 -4.51082,4.5623 -4.51082,12.04449 z"
         style="font-style:normal;font-variant:normal;font-weight:normal;font-stretch:normal;font-size:91.44048309px;line-height:1.25;font-family:Sanchez;-inkscape-font-specification:Sanchez;letter-spacing:-4.66989565px;word-spacing:0px;fill:#00a86a;fill-opacity:1;stroke:none;stroke-width:1.15890181"
         id="path4888"
         inkscape:connector-curvature="0" />
      <path
         d="m 622.21858,296.50001 h -18.50355 q -1.19675,0 -1.19675,-1.09496 v -3.92358 q 0,-1.09495 1.19675,-1.09495 h 5.15522 v -53.19651 h -4.9711 q -1.19675,0 -1.19675,-1.09495 v -3.92358 q 0,-1.09496 1.19675,-1.09496 h 10.77072 q 1.19674,0 1.19674,1.09496 l -0.092,7.20845 h 0.092 q 1.74909,-3.74109 5.6155,-6.29599 3.95847,-2.64614 9.66603,-2.64614 9.29781,0 15.00537,6.29598 5.70756,6.20474 5.70756,16.6068 0,10.31081 -5.61551,16.78929 -5.6155,6.47848 -15.00536,6.47848 -5.70756,0 -9.57397,-2.55489 -3.77436,-2.64614 -5.43138,-6.38723 h -0.27618 q 0.27618,2.91987 0.27618,4.19732 v 18.52297 h 5.98373 q 1.19674,0 1.19674,1.09495 v 3.92358 q 0,1.09496 -1.19674,1.09496 z m -6.16786,-42.79444 q 0,7.93841 4.1426,12.22698 4.23464,4.28857 10.12631,4.28857 5.98373,0 9.9422,-4.56231 4.05053,-4.65355 4.05053,-12.13574 0,-7.57343 -4.05053,-12.13573 -3.95847,-4.56231 -9.9422,-4.56231 -5.98373,0 -10.12631,4.47107 -4.1426,4.47105 -4.1426,12.40947 z"
         style="font-style:normal;font-variant:normal;font-weight:normal;font-stretch:normal;font-size:91.44048309px;line-height:1.25;font-family:Sanchez;-inkscape-font-specification:Sanchez;letter-spacing:-4.66989565px;word-spacing:0px;fill:#00a86a;fill-opacity:1;stroke:none;stroke-width:1.15890181"
         id="path4890"
         inkscape:connector-curvature="0" />
    </g>
  </g>
</svg>
