<?xml version="1.0" encoding="UTF-8" standalone="no"?>
<!-- Created with Inkscape (http://www.inkscape.org/) -->

<svg
   xmlns:dc="http://purl.org/dc/elements/1.1/"
   xmlns:cc="http://creativecommons.org/ns#"
   xmlns:rdf="http://www.w3.org/1999/02/22-rdf-syntax-ns#"
   xmlns:svg="http://www.w3.org/2000/svg"
   xmlns="http://www.w3.org/2000/svg"
   xmlns:sodipodi="http://sodipodi.sourceforge.net/DTD/sodipodi-0.dtd"
   xmlns:inkscape="http://www.inkscape.org/namespaces/inkscape"
   width="68mm"
   height="68mm"
   viewBox="0 0 68 68"
   version="1.1"
   id="svg8"
   inkscape:version="0.92.3 (2405546, 2018-03-11)"
   sodipodi:docname="square-dark.svg">
  <defs
     id="defs2">
    <clipPath
       id="p594bf549dd">
      <rect
         id="rect409"
         y="79.199997"
         x="54"
         width="334.79999"
         height="613.79999" />
    </clipPath>
    <clipPath
       id="clipPath6004">
      <rect
         id="rect6002"
         y="79.199997"
         x="54"
         width="334.79999"
         height="613.79999" />
    </clipPath>
    <clipPath
       id="clipPath6008">
      <rect
         id="rect6006"
         y="79.199997"
         x="54"
         width="334.79999"
         height="613.79999" />
    </clipPath>
    <clipPath
       id="clipPath6012">
      <rect
         id="rect6010"
         y="79.199997"
         x="54"
         width="334.79999"
         height="613.79999" />
    </clipPath>
    <clipPath
       id="p594bf549dd-3">
      <rect
         height="613.79999"
         width="334.79999"
         x="54"
         y="79.199997"
         id="rect409-6" />
    </clipPath>
    <clipPath
       id="clipPath6004-7">
      <rect
         height="613.79999"
         width="334.79999"
         x="54"
         y="79.199997"
         id="rect6002-5" />
    </clipPath>
    <clipPath
       id="clipPath6008-3">
      <rect
         height="613.79999"
         width="334.79999"
         x="54"
         y="79.199997"
         id="rect6006-5" />
    </clipPath>
    <clipPath
       id="clipPath6012-6">
      <rect
         height="613.79999"
         width="334.79999"
         x="54"
         y="79.199997"
         id="rect6010-2" />
    </clipPath>
    <clipPath
       id="p594bf549dd-7">
      <rect
         height="613.79999"
         width="334.79999"
         x="54"
         y="79.199997"
         id="rect409-5" />
    </clipPath>
    <clipPath
       id="clipPath6004-3">
      <rect
         height="613.79999"
         width="334.79999"
         x="54"
         y="79.199997"
         id="rect6002-56" />
    </clipPath>
    <clipPath
       id="clipPath6008-2">
      <rect
         height="613.79999"
         width="334.79999"
         x="54"
         y="79.199997"
         id="rect6006-9" />
    </clipPath>
    <clipPath
       id="clipPath6012-1">
      <rect
         height="613.79999"
         width="334.79999"
         x="54"
         y="79.199997"
         id="rect6010-27" />
    </clipPath>
    <clipPath
       id="p594bf549dd-0">
      <rect
         height="613.79999"
         width="334.79999"
         x="54"
         y="79.199997"
         id="rect409-2" />
    </clipPath>
    <clipPath
       id="clipPath6004-37">
      <rect
         height="613.79999"
         width="334.79999"
         x="54"
         y="79.199997"
         id="rect6002-59" />
    </clipPath>
    <clipPath
       id="clipPath6008-22">
      <rect
         height="613.79999"
         width="334.79999"
         x="54"
         y="79.199997"
         id="rect6006-8" />
    </clipPath>
    <clipPath
       id="clipPath6012-97">
      <rect
         height="613.79999"
         width="334.79999"
         x="54"
         y="79.199997"
         id="rect6010-36" />
    </clipPath>
    <clipPath
       id="p594bf549dd-3-1">
      <rect
         id="rect409-6-2"
         y="79.199997"
         x="54"
         width="334.79999"
         height="613.79999" />
    </clipPath>
    <clipPath
       id="clipPath6004-7-9">
      <rect
         id="rect6002-5-3"
         y="79.199997"
         x="54"
         width="334.79999"
         height="613.79999" />
    </clipPath>
    <clipPath
       id="clipPath6008-3-1">
      <rect
         id="rect6006-5-9"
         y="79.199997"
         x="54"
         width="334.79999"
         height="613.79999" />
    </clipPath>
    <clipPath
       id="clipPath6012-6-4">
      <rect
         id="rect6010-2-7"
         y="79.199997"
         x="54"
         width="334.79999"
         height="613.79999" />
    </clipPath>
    <clipPath
       id="p594bf549dd-8">
      <rect
         id="rect409-9"
         y="79.199997"
         x="54"
         width="334.79999"
         height="613.79999" />
    </clipPath>
    <clipPath
       id="clipPath6004-73">
      <rect
         id="rect6002-6"
         y="79.199997"
         x="54"
         width="334.79999"
         height="613.79999" />
    </clipPath>
    <clipPath
       id="clipPath6008-1">
      <rect
         id="rect6006-2"
         y="79.199997"
         x="54"
         width="334.79999"
         height="613.79999" />
    </clipPath>
    <clipPath
       id="clipPath6012-9">
      <rect
         id="rect6010-3"
         y="79.199997"
         x="54"
         width="334.79999"
         height="613.79999" />
    </clipPath>
    <clipPath
       id="p594bf549dd-6">
      <rect
         id="rect409-3"
         y="79.199997"
         x="54"
         width="334.79999"
         height="613.79999" />
    </clipPath>
    <clipPath
       id="clipPath6004-2">
      <rect
         id="rect6002-0"
         y="79.199997"
         x="54"
         width="334.79999"
         height="613.79999" />
    </clipPath>
    <clipPath
       id="clipPath6008-6">
      <rect
         id="rect6006-1"
         y="79.199997"
         x="54"
         width="334.79999"
         height="613.79999" />
    </clipPath>
    <clipPath
       id="clipPath6012-5">
      <rect
         id="rect6010-5"
         y="79.199997"
         x="54"
         width="334.79999"
         height="613.79999" />
    </clipPath>
    <clipPath
       id="p594bf549dd-75">
      <rect
         height="613.79999"
         width="334.79999"
         x="54"
         y="79.199997"
         id="rect409-35" />
    </clipPath>
    <clipPath
       id="clipPath6004-6">
      <rect
         height="613.79999"
         width="334.79999"
         x="54"
         y="79.199997"
         id="rect6002-2" />
    </clipPath>
    <clipPath
       id="clipPath6008-91">
      <rect
         height="613.79999"
         width="334.79999"
         x="54"
         y="79.199997"
         id="rect6006-27" />
    </clipPath>
    <clipPath
       id="clipPath6012-0">
      <rect
         height="613.79999"
         width="334.79999"
         x="54"
         y="79.199997"
         id="rect6010-9" />
    </clipPath>
    <clipPath
       id="p594bf549dd-7-3">
      <rect
         id="rect409-5-6"
         y="79.199997"
         x="54"
         width="334.79999"
         height="613.79999" />
    </clipPath>
    <clipPath
       id="clipPath6004-35">
      <rect
         id="rect6002-62"
         y="79.199997"
         x="54"
         width="334.79999"
         height="613.79999" />
    </clipPath>
    <clipPath
       id="clipPath6008-9">
      <rect
         id="rect6006-1-0"
         y="79.199997"
         x="54"
         width="334.79999"
         height="613.79999" />
    </clipPath>
    <clipPath
       id="clipPath6012-27">
      <rect
         id="rect6010-0"
         y="79.199997"
         x="54"
         width="334.79999"
         height="613.79999" />
    </clipPath>
    <clipPath
       id="p594bf549dd-3-6">
      <rect
         height="613.79999"
         width="334.79999"
         x="54"
         y="79.199997"
         id="rect409-6-26" />
    </clipPath>
    <clipPath
       id="clipPath6004-7-1">
      <rect
         height="613.79999"
         width="334.79999"
         x="54"
         y="79.199997"
         id="rect6002-5-8" />
    </clipPath>
    <clipPath
       id="clipPath6008-3-7">
      <rect
         height="613.79999"
         width="334.79999"
         x="54"
         y="79.199997"
         id="rect6006-5-92" />
    </clipPath>
    <clipPath
       id="clipPath6012-6-0">
      <rect
         height="613.79999"
         width="334.79999"
         x="54"
         y="79.199997"
         id="rect6010-2-2" />
    </clipPath>
    <clipPath
       id="p594bf549dd-0-3">
      <rect
         id="rect409-9-7"
         y="79.199997"
         x="54"
         width="334.79999"
         height="613.79999" />
    </clipPath>
    <clipPath
       id="clipPath6004-3-5">
      <rect
         id="rect6002-6-9"
         y="79.199997"
         x="54"
         width="334.79999"
         height="613.79999" />
    </clipPath>
    <clipPath
       id="clipPath6008-0">
      <rect
         id="rect6006-6"
         y="79.199997"
         x="54"
         width="334.79999"
         height="613.79999" />
    </clipPath>
    <clipPath
       id="clipPath6012-2">
      <rect
         id="rect6010-6"
         y="79.199997"
         x="54"
         width="334.79999"
         height="613.79999" />
    </clipPath>
  </defs>
  <sodipodi:namedview
     id="base"
     pagecolor="#ffffff"
     bordercolor="#666666"
     borderopacity="1.0"
     inkscape:pageopacity="0"
     inkscape:pageshadow="2"
     inkscape:zoom="0.42554595"
     inkscape:cx="-495.46055"
     inkscape:cy="-138.41191"
     inkscape:document-units="mm"
     inkscape:current-layer="layer1"
     showgrid="false"
     width="400mm"
     inkscape:window-width="1916"
     inkscape:window-height="1033"
     inkscape:window-x="1920"
     inkscape:window-y="22"
     inkscape:window-maximized="0" />
  <metadata
     id="metadata5">
    <rdf:RDF>
      <cc:Work
         rdf:about="">
        <dc:format>image/svg+xml</dc:format>
        <dc:type
           rdf:resource="http://purl.org/dc/dcmitype/StillImage" />
        <dc:title></dc:title>
      </cc:Work>
    </rdf:RDF>
  </metadata>
  <g
     inkscape:label="Layer 1"
     inkscape:groupmode="layer"
     id="layer1"
     transform="translate(0,-229)">
    <g
       id="g999">
      <rect
         transform="scale(-1,1)"
         ry="11.876026"
         rx="11.876024"
         y="229.5"
         x="-67.5"
         height="67"
         width="67"
         id="rect926"
         style="opacity:1;fill:#00a86b;fill-opacity:1;fill-rule:nonzero;stroke:none;stroke-width:0.34511152;stroke-linecap:square;stroke-miterlimit:4;stroke-dasharray:none;stroke-dashoffset:0;stroke-opacity:1;paint-order:normal" />
      <g
         transform="translate(-0.22669285,-0.188635)"
         id="g963">
        <path
           inkscape:connector-curvature="0"
           id="path4566"
           d="m 35.159034,274.77883 -0.511004,-0.19206 c -0.003,-7.5e-4 -0.006,-0.002 -0.0089,-0.003 l -0.567311,-0.21131 c -0.0022,-7.4e-4 -0.0051,-0.002 -0.0073,-0.003 l -0.567312,-0.20861 c -0.0022,-7.4e-4 -0.0054,-0.002 -0.0077,-0.003 l -0.567312,-0.2059 c -0.0022,-7.5e-4 -0.0036,-0.002 -0.0058,-0.003 l -0.56731,-0.20438 c -0.0022,-7.4e-4 -0.0054,-0.002 -0.0077,-0.003 l -0.567309,-0.20283 c -0.0022,-5.9e-4 -0.0036,-7.4e-4 -0.0058,-0.001 l -0.567312,-0.20128 c -0.0022,-7.5e-4 -0.004,-0.002 -0.0062,-0.003 l -0.56731,-0.1986 c -0.0016,-7.5e-4 -0.0031,-0.002 -0.0046,-0.003 l -0.567311,-0.19706 c -0.0022,-6e-4 -0.0036,-7.5e-4 -0.0058,-10e-4 l -0.567423,-0.1979 c -0.0016,-5.9e-4 -0.0031,-7.4e-4 -0.0046,-0.001 l -0.567312,-0.19552 c -0.0022,-5.9e-4 -0.004,-7.5e-4 -0.0062,-10e-4 l -0.56731,-0.19245 c -0.0015,-5.9e-4 -0.0028,-7.4e-4 -0.0043,-0.001 l -0.567311,-0.19245 c -0.0015,-5.8e-4 -0.0031,-7.4e-4 -0.0046,-0.001 l -0.56731,-0.19129 -0.0031,-0.001 -0.567312,-0.18975 c -0.0015,-5.9e-4 -0.0028,-7.5e-4 -0.0043,-10e-4 l -0.567696,-0.18821 c -0.0015,-6e-4 -0.0028,-7.5e-4 -0.0043,-10e-4 l -0.567312,-0.18667 -0.0031,-10e-4 -0.567311,-0.18512 c -0.0015,-5.9e-4 -0.0031,-7.5e-4 -0.0046,-10e-4 l -0.567311,-0.18552 -0.0031,-0.001 -0.567311,-0.18398 -0.0027,-0.001 -0.567311,-0.18243 c -0.0015,-5.9e-4 -0.0031,-7.5e-4 -0.0046,-10e-4 l -0.567311,-0.18243 -0.0031,-10e-4 -0.567311,-0.1809 -0.0031,-10e-4 -0.567311,-0.17935 -0.0031,-0.001 -0.09796,-0.0308 v 4.84838 l 0.392991,0.12701 0.562683,0.1809 0.564612,0.18359 0.563069,0.18397 0.564225,0.18552 0.563069,0.18512 0.563069,0.18667 0.562683,0.1886 0.563069,0.18936 0.563069,0.19129 0.563069,0.19128 0.56114,0.19244 0.563069,0.19553 0.561526,0.19551 0.561527,0.19707 0.561525,0.20014 0.559985,0.19976 0.561526,0.20283 0.559983,0.20437 0.559985,0.20591 0.558824,0.20861 0.559984,0.21015 0.556898,0.21284 0.558827,0.21477 0.5569,0.21745 0.555741,0.22169 0.55574,0.22324 0.554198,0.22746 0.552656,0.23055 0.551115,0.23517 0.549955,0.2394 0.54687,0.24363 0.545329,0.2494 0.542629,0.25556 0.538001,0.2625 0.533757,0.27019 0.529131,0.27711 0.520646,0.28905 0.510232,0.29905 0.494422,0.31214 0.473595,0.32831 0.437342,0.34024 0.372936,0.34562 0.05708,0.0689 1.481333,3.23958 -1.523757,-4.32687 -0.283848,-0.51652 -0.448913,-0.63505 -0.482465,-0.59234 -0.501362,-0.56193 -0.516403,-0.53537 -0.526432,-0.51498 -0.532215,-0.4992 -0.536458,-0.4861 -0.541085,-0.47264 -0.544172,-0.46264 -0.548028,-0.45377 -0.548413,-0.44531 -0.551499,-0.43915 -0.551114,-0.43031 -0.554199,-0.42606 -0.554198,-0.42029 -0.55574,-0.41607 -0.555356,-0.4099 z"
           style="color:#000000;font-style:normal;font-variant:normal;font-weight:normal;font-stretch:normal;font-size:medium;line-height:normal;font-family:sans-serif;text-indent:0;text-align:start;text-decoration:none;text-decoration-line:none;text-decoration-style:solid;text-decoration-color:#000000;letter-spacing:normal;word-spacing:normal;text-transform:none;writing-mode:lr-tb;direction:ltr;baseline-shift:baseline;text-anchor:start;white-space:normal;clip-rule:nonzero;display:inline;overflow:visible;visibility:visible;opacity:1;isolation:auto;mix-blend-mode:normal;color-interpolation:sRGB;color-interpolation-filters:linearRGB;solid-color:#000000;solid-opacity:1;fill:#66caa5;fill-opacity:1;fill-rule:nonzero;stroke:none;stroke-width:4.62232161;stroke-linecap:butt;stroke-linejoin:round;stroke-miterlimit:100;stroke-dasharray:none;stroke-dashoffset:0;stroke-opacity:1;color-rendering:auto;image-rendering:auto;shape-rendering:auto;text-rendering:auto;enable-background:accumulate" />
        <path
           inkscape:connector-curvature="0"
           id="path4571"
           d="m 32.938384,267.58534 -0.0806,-0.0543 c -0.0022,-0.001 -0.0036,-0.003 -0.0058,-0.004 l -0.567311,-0.38065 c -0.0022,-10e-4 -0.0054,-0.003 -0.0077,-0.004 l -0.567312,-0.37795 c -0.0022,-10e-4 -0.0035,-0.003 -0.0058,-0.004 L 31.13648,266.3857 c -0.0022,-10e-4 -0.0054,-0.003 -0.0077,-0.004 l -0.567312,-0.37219 c -0.0022,-10e-4 -0.0036,-0.003 -0.0058,-0.004 l -0.56731,-0.3691 c -0.0022,-7.5e-4 -0.004,-0.002 -0.0062,-0.003 l -0.567312,-0.36795 c -0.0022,-7.5e-4 -0.004,-0.002 -0.0062,-0.003 l -0.565768,-0.36487 c -0.0022,-10e-4 -0.0036,-0.003 -0.0058,-0.004 l -0.567312,-0.36178 c -0.0022,-7.5e-4 -0.004,-0.002 -0.0062,-0.003 l -0.567311,-0.36025 c -0.0022,-7.5e-4 -0.0036,-0.002 -0.0058,-0.003 l -0.566154,-0.3591 c -0.0022,-7.4e-4 -0.0036,-0.002 -0.0058,-0.003 L 26.5511,263.44614 c -0.0022,-7.4e-4 -0.004,-0.002 -0.0062,-0.003 l -0.565769,-0.35332 c -0.0022,-7.5e-4 -0.004,-0.002 -0.0062,-0.003 l -0.567311,-0.3514 c -0.0015,-7.5e-4 -0.0028,-0.002 -0.0043,-0.003 l -0.56731,-0.35025 c -0.0015,-7.5e-4 -0.0031,-0.002 -0.0046,-0.003 l -0.567311,-0.34716 c -0.0022,-7.4e-4 -0.004,-0.002 -0.0062,-0.003 L 23.688588,261.683 c -0.0015,-7.4e-4 -0.0028,-0.002 -0.0043,-0.003 l -0.564612,-0.34178 c -0.0015,-7.5e-4 -0.0031,-0.002 -0.0046,-0.003 l -0.567311,-0.3414 c -0.0015,-7.4e-4 -0.0031,-0.002 -0.0046,-0.003 l -0.567311,-0.3414 c -0.0015,-5.9e-4 -0.0028,-7.4e-4 -0.0043,-0.001 l -0.56731,-0.33869 c -0.0015,-7.5e-4 -0.0031,-0.002 -0.0046,-0.003 l -0.01697,-0.0101 v 5.39224 l 0.461639,0.28096 0.563069,0.34447 0.561526,0.34717 0.562683,0.3487 0.561526,0.35024 0.563069,0.35179 0.561526,0.35447 0.561527,0.35757 0.561525,0.35755 0.561526,0.36179 0.561527,0.36334 0.561526,0.36487 0.56114,0.36795 0.560368,0.37064 0.561527,0.37333 0.559983,0.37526 0.559985,0.37796 0.559981,0.38065 0.559985,0.38527 0.558441,0.38681 0.558827,0.39104 0.55844,0.39413 0.55844,0.39835 0.557284,0.40143 0.557285,0.40567 0.555356,0.4099 0.55574,0.41606 0.554199,0.42029 0.554198,0.42607 0.551114,0.43031 0.551499,0.43914 0.548413,0.44532 0.548028,0.45378 0.544171,0.46263 0.541086,0.47263 0.536458,0.48611 0.532216,0.4992 0.526431,0.51497 0.516402,0.53538 0.501363,0.56193 0.482465,0.59234 0.448913,0.63505 0.283849,0.51652 1.520285,4.31763 -1.541112,-5.16207 -0.393375,-0.93565 -0.494421,-0.94259 -0.514476,-0.86983 -0.527974,-0.81865 -0.533757,-0.78209 -0.541088,-0.75283 -0.543784,-0.73128 -0.54687,-0.71203 -0.549957,-0.69626 -0.551114,-0.68124 -0.552654,-0.67009 -0.554201,-0.65776 -0.554198,-0.64969 -0.557283,-0.63775 -0.555741,-0.63044 -0.5569,-0.62274 -0.557283,-0.61582 -0.558441,-0.60735 -0.55844,-0.60272 -0.558827,-0.59542 -0.558441,-0.58926 z"
           style="color:#000000;font-style:normal;font-variant:normal;font-weight:normal;font-stretch:normal;font-size:medium;line-height:normal;font-family:sans-serif;text-indent:0;text-align:start;text-decoration:none;text-decoration-line:none;text-decoration-style:solid;text-decoration-color:#000000;letter-spacing:normal;word-spacing:normal;text-transform:none;writing-mode:lr-tb;direction:ltr;baseline-shift:baseline;text-anchor:start;white-space:normal;clip-rule:nonzero;display:inline;overflow:visible;visibility:visible;opacity:1;isolation:auto;mix-blend-mode:normal;color-interpolation:sRGB;color-interpolation-filters:linearRGB;solid-color:#000000;solid-opacity:1;fill:#99dcc3;fill-opacity:1;fill-rule:nonzero;stroke:none;stroke-width:4.62232161;stroke-linecap:butt;stroke-linejoin:round;stroke-miterlimit:100;stroke-dasharray:none;stroke-dashoffset:0;stroke-opacity:1;color-rendering:auto;image-rendering:auto;shape-rendering:auto;text-rendering:auto;enable-background:accumulate" />
        <path
           inkscape:connector-curvature="0"
           id="path4533"
           d="m 21.383133,256.52955 0.133825,0.11816 0.561526,0.49919 0.559984,0.50343 0.561526,0.50612 0.561526,0.50959 0.561526,0.51343 0.561141,0.51652 0.560369,0.52113 0.561526,0.52537 0.56114,0.52806 0.56037,0.53268 0.561525,0.53576 0.559984,0.54114 0.559984,0.54461 0.561526,0.55001 0.559984,0.55307 0.559983,0.55885 0.559982,0.56193 0.559985,0.56886 0.559983,0.57232 0.558827,0.57771 0.559982,0.58388 0.558442,0.58925 0.558827,0.59542 0.55844,0.60273 0.558441,0.60734 0.557283,0.61582 0.5569,0.62274 0.555741,0.63044 0.557283,0.63775 0.554198,0.64969 0.554201,0.65777 0.552654,0.67008 0.551114,0.68125 0.549957,0.69625 0.54687,0.71204 0.543784,0.73127 0.541088,0.75284 0.533757,0.78208 0.527974,0.81865 0.514476,0.86984 0.494421,0.94258 0.393375,0.93565 1.544198,5.17169 -1.557309,-6.07078 -0.463568,-1.41983 -0.524888,-1.33094 -0.538387,-1.22431 -0.543785,-1.15427 -0.548413,-1.10615 -0.551114,-1.06652 -0.554199,-1.03495 -0.554198,-1.00955 -0.555742,-0.98646 -0.557283,-0.9676 -0.556898,-0.94874 -0.558442,-0.93372 -0.558826,-0.91642 -0.558441,-0.90486 -0.559983,-0.89023 -0.558827,-0.87831 -0.559982,-0.86675 -0.558442,-0.85522 -0.559984,-0.84482 -0.559982,-0.83481 -0.0108,-0.0169 -0.408032,-0.40605 c -0.0022,-0.002 -0.004,-0.005 -0.0062,-0.007 l -0.56731,-0.56039 -0.0073,-0.008 -0.567311,-0.55577 c -0.0022,-0.002 -0.0054,-0.004 -0.0077,-0.006 l -0.56577,-0.55154 -0.0073,-0.007 -0.56731,-0.54576 c -0.0022,-0.002 -0.004,-0.005 -0.0062,-0.008 l -0.567312,-0.54269 c -0.0022,-0.002 -0.0051,-0.004 -0.0073,-0.006 l -0.567311,-0.53845 -0.0062,-0.006 -0.567309,-0.53422 -0.0062,-0.006 -0.567313,-0.53115 -0.0058,-0.006 -0.567311,-0.5269 c -0.0022,-0.002 -0.0054,-0.004 -0.0077,-0.006 l -0.565768,-0.52229 c -0.0022,-0.002 -0.0054,-0.004 -0.0077,-0.006 l -0.567311,-0.51805 -0.0058,-0.006 -0.567311,-0.51497 -0.0062,-0.006 -0.567311,-0.51228 c -0.0022,-0.001 -0.0035,-0.003 -0.0058,-0.004 l -0.567311,-0.50804 -0.0066,-0.006 -0.567312,-0.50497 c -0.0022,-0.001 -0.004,-0.003 -0.0062,-0.004 l -0.567311,-0.50189 -0.0058,-0.006 -0.566154,-0.49727 c -0.0022,-0.001 -0.0035,-0.003 -0.0058,-0.004 l -0.567311,-0.49458 c -0.0022,-0.001 -0.004,-0.003 -0.0062,-0.004 l -0.567311,-0.49188 -0.0058,-0.006 -0.56731,-0.48764 c -0.0022,-0.001 -0.004,-0.003 -0.0062,-0.004 l -0.33437,-0.28635 z"
           style="color:#000000;font-style:normal;font-variant:normal;font-weight:normal;font-stretch:normal;font-size:medium;line-height:normal;font-family:sans-serif;text-indent:0;text-align:start;text-decoration:none;text-decoration-line:none;text-decoration-style:solid;text-decoration-color:#000000;letter-spacing:normal;word-spacing:normal;text-transform:none;writing-mode:lr-tb;direction:ltr;baseline-shift:baseline;text-anchor:start;white-space:normal;clip-rule:nonzero;display:inline;overflow:visible;visibility:visible;opacity:1;isolation:auto;mix-blend-mode:normal;color-interpolation:sRGB;color-interpolation-filters:linearRGB;solid-color:#000000;solid-opacity:1;fill:#ccede1;fill-opacity:1;fill-rule:nonzero;stroke:none;stroke-width:4.62232161;stroke-linecap:butt;stroke-linejoin:round;stroke-miterlimit:100;stroke-dasharray:none;stroke-dashoffset:0;stroke-opacity:1;color-rendering:auto;image-rendering:auto;shape-rendering:auto;text-rendering:auto;enable-background:accumulate" />
        <path
           sodipodi:nodetypes="ssssccssssssssccccccccccccccccccccccccccccccccccccccccccccccccsscsssssssscccccccccccccccccccccccccccccccccccccccccccccccccccccccccccccccccccccccccccccccccccccccccccs"
           inkscape:connector-curvature="0"
           id="path4546"
           d="m 10.127541,238.44538 c -0.5984463,0 -0.8974383,0.27583 -0.8974383,0.82712 v 3.51437 c 0,0.5513 0.298992,0.82674 0.8974383,0.82674 h 5.248111 v 39.14194 h -5.248111 c -0.5984463,0 -0.8974383,0.27583 -0.8974383,0.82712 v 3.51437 c 0,0.55129 0.298992,0.82673 0.8974383,0.82673 h 16.57235 c 0.598443,0 0.897824,-0.27544 0.897824,-0.82673 v -3.51437 c 0,-0.55129 -0.299381,-0.82712 -0.897824,-0.82712 h -5.316758 v -33.90444 -3.34234 l 0.461639,0.54846 0.559984,0.67432 0.559983,0.68009 0.561526,0.68587 0.559984,0.69163 0.561526,0.69895 0.559983,0.70627 0.56037,0.71203 0.56114,0.71934 0.560369,0.72705 0.559984,0.73243 0.561526,0.74129 0.559983,0.7486 0.559984,0.75591 0.561526,0.76323 0.559983,0.77208 0.559985,0.78055 0.559982,0.78785 0.559984,0.7971 0.561526,0.80671 0.559984,0.81442 0.560369,0.82596 0.559984,0.83481 0.559982,0.84483 0.558442,0.85521 0.559984,0.86675 0.558825,0.87831 0.559983,0.89024 0.558442,0.90486 0.558827,0.91641 0.55844,0.93373 0.556898,0.94874 0.557284,0.96759 0.555741,0.98646 0.554198,1.00955 0.554199,1.03496 0.551114,1.06652 0.548413,1.10615 0.543786,1.15427 0.538386,1.22431 0.524888,1.33093 0.463568,1.41984 1.557309,6.07078 h 0.917108 1.381061 3.728595 c 0.598445,0 0.897826,-0.27583 0.897826,-0.82712 v -43.48305 h 5.316757 c 0.55241,0 0.82879,-0.27582 0.82879,-0.82712 v -3.51437 c 0,-0.55129 -0.27638,-0.82712 -0.82879,-0.82712 H 41.753497 c -0.55241,0 -0.828792,0.27583 -0.828792,0.82712 v 3.51437 c 0,0.5513 0.276382,0.82712 0.828792,0.82712 h 5.316757 v 31.90419 l -0.367537,-0.78015 c -0.0067,-0.0142 -0.01346,-0.0282 -0.02044,-0.0423 L 46.114963,273.553 c -0.006,-0.0112 -0.01145,-0.0224 -0.01736,-0.0335 l -0.567312,-1.09885 c -0.0045,-0.009 -0.0097,-0.0186 -0.01465,-0.0277 l -0.567309,-1.06074 c -0.0045,-0.008 -0.0091,-0.0168 -0.01351,-0.025 l -0.567311,-1.03149 c -0.0037,-0.007 -0.0077,-0.0147 -0.01157,-0.022 l -0.567312,-1.00685 c -0.0037,-0.006 -0.0069,-0.0129 -0.0104,-0.0192 l -0.567311,-0.98492 c -0.0037,-0.005 -0.0065,-0.0108 -0.01003,-0.0162 l -0.567305,-0.96606 c -0.003,-0.005 -0.006,-0.0104 -0.0089,-0.0158 l -0.567312,-0.94874 c -0.003,-0.005 -0.006,-0.01 -0.0089,-0.0146 l -0.567312,-0.9322 c -0.003,-0.004 -0.006,-0.009 -0.0089,-0.0135 l -0.567311,-0.91794 c -0.003,-0.004 -0.006,-0.009 -0.0089,-0.0131 l -0.567311,-0.90332 c -0.0022,-0.004 -0.0051,-0.009 -0.0073,-0.0131 l -0.567312,-0.89023 c -0.0022,-0.004 -0.0054,-0.009 -0.0077,-0.0131 l -0.567311,-0.87831 c -0.0022,-0.004 -0.0051,-0.008 -0.0073,-0.0119 l -0.567312,-0.86676 c -0.0022,-0.004 -0.0054,-0.008 -0.0077,-0.0115 l -0.567312,-0.85676 c -0.0022,-0.004 -0.0051,-0.007 -0.0073,-0.01 l -0.56731,-0.84636 c -0.0022,-0.004 -0.0054,-0.007 -0.0077,-0.0104 l -0.567311,-0.83481 c -0.0022,-0.004 -0.0051,-0.007 -0.0073,-0.01 l -0.567312,-0.82596 c -0.0022,-0.004 -0.0054,-0.007 -0.0077,-0.0104 l -0.567312,-0.81711 c -0.0022,-0.003 -0.0051,-0.006 -0.0073,-0.009 l -0.565768,-0.80825 c -0.0022,-0.003 -0.0054,-0.006 -0.0077,-0.009 l -0.567312,-0.79825 c -0.0022,-0.004 -0.0051,-0.007 -0.0073,-0.01 l -0.567312,-0.7894 c -0.0022,-0.003 -0.004,-0.006 -0.0062,-0.009 l -0.567311,-0.78209 c -0.0022,-0.003 -0.0051,-0.006 -0.0073,-0.009 l -0.56731,-0.77324 c -0.0022,-0.003 -0.0054,-0.006 -0.0077,-0.009 l -0.567312,-0.76631 c -0.0022,-0.003 -0.0036,-0.006 -0.0058,-0.008 l -0.567696,-0.75745 c -0.0022,-0.003 -0.0051,-0.006 -0.0073,-0.009 l -0.56731,-0.74976 c -0.0022,-0.003 -0.004,-0.006 -0.0062,-0.009 l -0.567312,-0.74129 c -0.0022,-0.003 -0.0051,-0.006 -0.0073,-0.009 l -0.567313,-0.73552 c -0.0022,-0.003 -0.004,-0.006 -0.0062,-0.008 l -0.567309,-0.7282 c -0.0022,-0.003 -0.0051,-0.006 -0.0073,-0.009 l -0.567312,-0.72089 c -0.0022,-0.002 -0.004,-0.005 -0.0062,-0.007 l -0.567311,-0.71512 -0.0073,-0.007 -0.567311,-0.7078 c -0.0022,-0.003 -0.004,-0.006 -0.0062,-0.009 l -0.567311,-0.70049 -0.0073,-0.007 -0.56731,-0.69472 c -0.0022,-0.003 -0.004,-0.006 -0.0062,-0.009 l -0.567311,-0.6874 -0.0073,-0.007 -0.567312,-0.68163 c -0.0022,-0.003 -0.004,-0.006 -0.0062,-0.008 l -0.567311,-0.67586 -0.0073,-0.007 -0.566154,-0.6697 -0.0073,-0.008 -0.567311,-0.66239 c -0.0022,-0.003 -0.004,-0.006 -0.0062,-0.009 l -0.567311,-0.65662 -0.0073,-0.007 -0.567312,-0.65237 c -0.0022,-0.002 -0.004,-0.005 -0.0062,-0.008 l -0.567338,-0.64623 -0.0073,-0.008 c -0.187354,-0.21307 -0.37535,-0.42637 -0.561912,-0.63968 z"
           style="color:#000000;font-style:normal;font-variant:normal;font-weight:normal;font-stretch:normal;font-size:medium;line-height:normal;font-family:sans-serif;text-indent:0;text-align:start;text-decoration:none;text-decoration-line:none;text-decoration-style:solid;text-decoration-color:#000000;letter-spacing:normal;word-spacing:normal;text-transform:none;writing-mode:lr-tb;direction:ltr;baseline-shift:baseline;text-anchor:start;white-space:normal;clip-rule:nonzero;display:inline;overflow:visible;visibility:visible;opacity:1;isolation:auto;mix-blend-mode:normal;color-interpolation:sRGB;color-interpolation-filters:linearRGB;solid-color:#000000;solid-opacity:1;fill:#ffffff;fill-opacity:1;fill-rule:nonzero;stroke:none;stroke-width:4.62232161;stroke-linecap:butt;stroke-linejoin:round;stroke-miterlimit:100;stroke-dasharray:none;stroke-dashoffset:0;stroke-opacity:1;color-rendering:auto;image-rendering:auto;shape-rendering:auto;text-rendering:auto;enable-background:accumulate" />
      </g>
    </g>
  </g>
</svg>
