<?xml version="1.0" encoding="UTF-8" standalone="no"?>
<!-- Created with Inkscape (http://www.inkscape.org/) -->

<svg
   xmlns:dc="http://purl.org/dc/elements/1.1/"
   xmlns:cc="http://creativecommons.org/ns#"
   xmlns:rdf="http://www.w3.org/1999/02/22-rdf-syntax-ns#"
   xmlns:svg="http://www.w3.org/2000/svg"
   xmlns="http://www.w3.org/2000/svg"
   xmlns:sodipodi="http://sodipodi.sourceforge.net/DTD/sodipodi-0.dtd"
   xmlns:inkscape="http://www.inkscape.org/namespaces/inkscape"
   width="702.16504mm"
   height="90.000008mm"
   viewBox="0 0 702.16504 90.000008"
   version="1.1"
   id="svg8"
   inkscape:version="0.92.3 (2405546, 2018-03-11)"
   sodipodi:docname="full-dark.svg">
  <defs
     id="defs2">
    <clipPath
       id="p594bf549dd">
      <rect
         id="rect409"
         y="79.199997"
         x="54"
         width="334.79999"
         height="613.79999" />
    </clipPath>
    <clipPath
       id="clipPath6004">
      <rect
         id="rect6002"
         y="79.199997"
         x="54"
         width="334.79999"
         height="613.79999" />
    </clipPath>
    <clipPath
       id="clipPath6008">
      <rect
         id="rect6006"
         y="79.199997"
         x="54"
         width="334.79999"
         height="613.79999" />
    </clipPath>
    <clipPath
       id="clipPath6012">
      <rect
         id="rect6010"
         y="79.199997"
         x="54"
         width="334.79999"
         height="613.79999" />
    </clipPath>
    <clipPath
       id="p594bf549dd-3">
      <rect
         height="613.79999"
         width="334.79999"
         x="54"
         y="79.199997"
         id="rect409-6" />
    </clipPath>
    <clipPath
       id="clipPath6004-7">
      <rect
         height="613.79999"
         width="334.79999"
         x="54"
         y="79.199997"
         id="rect6002-5" />
    </clipPath>
    <clipPath
       id="clipPath6008-3">
      <rect
         height="613.79999"
         width="334.79999"
         x="54"
         y="79.199997"
         id="rect6006-5" />
    </clipPath>
    <clipPath
       id="clipPath6012-6">
      <rect
         height="613.79999"
         width="334.79999"
         x="54"
         y="79.199997"
         id="rect6010-2" />
    </clipPath>
    <clipPath
       id="p594bf549dd-0">
      <rect
         id="rect409-9"
         y="79.199997"
         x="54"
         width="334.79999"
         height="613.79999" />
    </clipPath>
    <clipPath
       id="clipPath6004-3">
      <rect
         id="rect6002-6"
         y="79.199997"
         x="54"
         width="334.79999"
         height="613.79999" />
    </clipPath>
    <clipPath
       id="clipPath6008-0">
      <rect
         id="rect6006-6"
         y="79.199997"
         x="54"
         width="334.79999"
         height="613.79999" />
    </clipPath>
    <clipPath
       id="clipPath6012-2">
      <rect
         id="rect6010-6"
         y="79.199997"
         x="54"
         width="334.79999"
         height="613.79999" />
    </clipPath>
    <clipPath
       id="p594bf549dd-7">
      <rect
         height="613.79999"
         width="334.79999"
         x="54"
         y="79.199997"
         id="rect409-5" />
    </clipPath>
    <clipPath
       id="clipPath6004-35">
      <rect
         height="613.79999"
         width="334.79999"
         x="54"
         y="79.199997"
         id="rect6002-62" />
    </clipPath>
    <clipPath
       id="clipPath6008-9">
      <rect
         height="613.79999"
         width="334.79999"
         x="54"
         y="79.199997"
         id="rect6006-1" />
    </clipPath>
    <clipPath
       id="clipPath6012-27">
      <rect
         height="613.79999"
         width="334.79999"
         x="54"
         y="79.199997"
         id="rect6010-0" />
    </clipPath>
    <clipPath
       id="p594bf549dd-75">
      <rect
         height="613.79999"
         width="334.79999"
         x="54"
         y="79.199997"
         id="rect409-3" />
    </clipPath>
    <clipPath
       id="clipPath6004-5">
      <rect
         height="613.79999"
         width="334.79999"
         x="54"
         y="79.199997"
         id="rect6002-629" />
    </clipPath>
    <clipPath
       id="clipPath6008-1">
      <rect
         height="613.79999"
         width="334.79999"
         x="54"
         y="79.199997"
         id="rect6006-2" />
    </clipPath>
    <clipPath
       id="clipPath6012-7">
      <rect
         height="613.79999"
         width="334.79999"
         x="54"
         y="79.199997"
         id="rect6010-09" />
    </clipPath>
    <clipPath
       id="p594bf549dd-3-3">
      <rect
         id="rect409-6-6"
         y="79.199997"
         x="54"
         width="334.79999"
         height="613.79999" />
    </clipPath>
    <clipPath
       id="clipPath6004-7-0">
      <rect
         id="rect6002-5-6"
         y="79.199997"
         x="54"
         width="334.79999"
         height="613.79999" />
    </clipPath>
    <clipPath
       id="clipPath6008-3-2">
      <rect
         id="rect6006-5-6"
         y="79.199997"
         x="54"
         width="334.79999"
         height="613.79999" />
    </clipPath>
    <clipPath
       id="clipPath6012-6-1">
      <rect
         id="rect6010-2-8"
         y="79.199997"
         x="54"
         width="334.79999"
         height="613.79999" />
    </clipPath>
    <clipPath
       id="p594bf549dd-0-7">
      <rect
         height="613.79999"
         width="334.79999"
         x="54"
         y="79.199997"
         id="rect409-9-9" />
    </clipPath>
    <clipPath
       id="clipPath6004-3-2">
      <rect
         height="613.79999"
         width="334.79999"
         x="54"
         y="79.199997"
         id="rect6002-6-0" />
    </clipPath>
    <clipPath
       id="clipPath6008-0-2">
      <rect
         height="613.79999"
         width="334.79999"
         x="54"
         y="79.199997"
         id="rect6006-6-3" />
    </clipPath>
    <clipPath
       id="clipPath6012-2-7">
      <rect
         height="613.79999"
         width="334.79999"
         x="54"
         y="79.199997"
         id="rect6010-6-5" />
    </clipPath>
    <clipPath
       id="p594bf549dd-7-9">
      <rect
         id="rect409-5-2"
         y="79.199997"
         x="54"
         width="334.79999"
         height="613.79999" />
    </clipPath>
    <clipPath
       id="clipPath6004-35-2">
      <rect
         id="rect6002-62-8"
         y="79.199997"
         x="54"
         width="334.79999"
         height="613.79999" />
    </clipPath>
    <clipPath
       id="clipPath6008-9-9">
      <rect
         id="rect6006-1-7"
         y="79.199997"
         x="54"
         width="334.79999"
         height="613.79999" />
    </clipPath>
    <clipPath
       id="clipPath6012-27-3">
      <rect
         id="rect6010-0-6"
         y="79.199997"
         x="54"
         width="334.79999"
         height="613.79999" />
    </clipPath>
  </defs>
  <sodipodi:namedview
     id="base"
     pagecolor="#ffffff"
     bordercolor="#666666"
     borderopacity="1.0"
     inkscape:pageopacity="0"
     inkscape:pageshadow="2"
     inkscape:zoom="0.31503306"
     inkscape:cx="1019.2834"
     inkscape:cy="813.0846"
     inkscape:document-units="mm"
     inkscape:current-layer="layer1"
     showgrid="false"
     width="400mm"
     inkscape:window-width="1916"
     inkscape:window-height="1033"
     inkscape:window-x="1920"
     inkscape:window-y="22"
     inkscape:window-maximized="0"
     fit-margin-top="1"
     fit-margin-left="1"
     fit-margin-right="1"
     fit-margin-bottom="1" />
  <metadata
     id="metadata5">
    <rdf:RDF>
      <cc:Work
         rdf:about="">
        <dc:format>image/svg+xml</dc:format>
        <dc:type
           rdf:resource="http://purl.org/dc/dcmitype/StillImage" />
        <dc:title></dc:title>
      </cc:Work>
    </rdf:RDF>
  </metadata>
  <g
     inkscape:label="Layer 1"
     inkscape:groupmode="layer"
     id="layer1"
     transform="translate(0.4999986,-207.5)">
    <g
       id="g962">
      <path
         d="M 107.10987,253.42348 H 74.149221 q 0.36623,7.60713 4.760984,11.73148 4.48631,4.12434 10.071308,4.12434 5.585,0 9.521967,-2.38295 4.02852,-2.38296 5.40188,-4.67426 0.73246,-0.91652 1.64804,-0.27496 l 2.47204,2.47461 q 0.54935,0.54991 0.54935,1.00818 0,0.3666 -0.45779,1.00816 -0.36623,0.64157 -1.64803,2.01636 -1.2818,1.37478 -3.66229,3.11617 -2.28894,1.74139 -6.04279,2.93287 -3.662295,1.19147 -7.873934,1.19147 -9.613522,0 -16.114095,-6.32399 -6.409015,-6.324 -6.409015,-16.95566 0,-10.72331 6.409015,-16.864 6.409015,-6.23235 15.656309,-6.23235 9.33885,0 14.64918,6.04905 5.31032,5.95738 5.31032,16.13078 0,0.36661 0,0.73322 0,1.19148 -1.2818,1.19148 z m -6.31746,-5.59078 q -0.27467,-5.68245 -3.570733,-9.07357 -3.296066,-3.39113 -8.789507,-3.39113 -5.493442,0 -9.430409,3.11617 -3.936965,3.11618 -4.669424,9.34853 z"
         style="font-style:normal;font-variant:normal;font-weight:normal;font-stretch:normal;font-size:98.77777863px;line-height:6.61458302px;font-family:Sanchez;-inkscape-font-specification:Sanchez;letter-spacing:-5.54831266px;word-spacing:0px;fill:#ffffff;fill-opacity:1;stroke:none;stroke-width:0.24536988px;stroke-linecap:butt;stroke-linejoin:miter;stroke-opacity:1"
         id="path4528-7"
         inkscape:connector-curvature="0" />
      <path
         d="m 159.10893,275.05339 h -8.69795 q -3.93696,0 -3.93696,-3.84939 v -24.10453 q 0,-5.31582 -2.56361,-8.24869 -2.56361,-2.93288 -7.5077,-2.93288 -7.04992,0 -10.98689,5.77409 -0.45778,0.54992 -1.19024,2.01636 v 25.20435 h 4.85254 q 1.19024,0 1.19024,1.09982 v 3.94105 q 0,1.09982 -1.19024,1.09982 h -17.48746 q -1.19024,0 -1.19024,-1.09982 v -3.94105 q 0,-1.09982 1.19024,-1.09982 h 5.03566 v -32.81149 h -5.03566 q -1.19024,0 -1.19024,-1.09982 v -3.94106 q 0,-1.09981 1.19024,-1.09981 h 10.71221 q 1.19025,0 1.19025,1.09981 l -0.18312,6.23236 h 0.27468 q 4.76098,-7.97374 14.74073,-7.97374 7.32459,0 11.44467,4.30765 4.12008,4.30767 4.21164,11.63984 v 23.64626 h 5.12721 q 1.19025,0 1.19025,1.09982 v 3.94105 q 0,1.09982 -1.19025,1.09982 z"
         style="font-style:normal;font-variant:normal;font-weight:normal;font-stretch:normal;font-size:98.77777863px;line-height:6.61458302px;font-family:Sanchez;-inkscape-font-specification:Sanchez;letter-spacing:-5.54831266px;word-spacing:0px;fill:#ffffff;fill-opacity:1;stroke:none;stroke-width:0.24536988px;stroke-linecap:butt;stroke-linejoin:miter;stroke-opacity:1"
         id="path4530-9"
         inkscape:connector-curvature="0" />
      <path
         d="m 181.39334,296.50001 q -4.57787,0 -6.95836,-0.64158 -2.28893,-0.64156 -3.75385,-1.19146 -1.37336,-0.45827 -2.38049,-1.00818 -1.00713,-0.45827 -1.92271,-1.00817 -4.02852,-2.65793 -3.02139,-3.84941 l 2.38049,-3.39112 q 0.54935,-0.82488 1.55648,-0.0917 0.0916,0 0.54934,0.36661 0.54935,0.45826 1.00713,0.82487 0.54935,0.36661 1.37336,0.82487 0.91558,0.54991 2.01426,0.91653 1.09869,0.45825 2.3805,0.82486 3.02139,0.82488 6.68368,0.82488 6.59213,0 10.5291,-3.20784 4.02852,-3.11617 4.02852,-9.89843 V 266.3464 q -1.64803,3.84938 -5.49344,6.59895 -3.75385,2.74955 -9.43041,2.74955 -9.33885,0 -15.0154,-6.50729 -5.585,-6.5073 -5.585,-16.864 0,-10.3567 5.67655,-16.68071 5.76812,-6.324 14.92385,-6.324 5.67656,0 9.52197,2.65792 3.93697,2.56627 5.67656,6.324 h 0.18311 l -0.0916,-7.24053 q 0,-1.09982 1.09869,-1.09982 h 10.80376 q 1.0987,0 1.0987,1.09982 v 3.94105 q 0,1.09982 -1.0987,1.09982 h -4.9441 v 40.69358 q 0,9.80678 -6.04278,14.75601 Q 191.18997,296.5 181.39334,296.5 Z m -13.55049,-43.99306 q 0,7.51549 4.02852,12.18976 4.02853,4.58259 10.07131,4.58259 6.04279,0 9.97976,-4.58259 4.02852,-4.58262 4.02852,-12.28141 0,-7.69878 -4.02852,-12.18973 -3.93697,-4.49096 -9.97976,-4.49096 -6.04278,0 -10.07131,4.5826 -4.02852,4.58262 -4.02852,12.18974 z"
         style="font-style:normal;font-variant:normal;font-weight:normal;font-stretch:normal;font-size:98.77777863px;line-height:6.61458302px;font-family:Sanchez;-inkscape-font-specification:Sanchez;letter-spacing:-5.54831266px;word-spacing:0px;fill:#ffffff;fill-opacity:1;stroke:none;stroke-width:0.24536988px;stroke-linecap:butt;stroke-linejoin:miter;stroke-opacity:1"
         id="path4532-2"
         inkscape:connector-curvature="0" />
      <path
         d="m 248.38349,269.2793 q -6.40901,6.41565 -16.38877,6.41565 -9.97976,0 -16.38877,-6.32399 -6.40902,-6.41566 -6.40902,-16.95566 0,-10.63165 6.50058,-16.864 6.50057,-6.23235 16.29721,-6.23235 9.8882,0 16.2972,6.324 6.50059,6.23236 6.50059,16.77235 0,10.44835 -6.40902,16.864 z m -31.49573,-16.864 q 0,7.51548 4.39475,12.18974 4.39475,4.67426 10.71221,4.67426 6.40902,0 10.80377,-4.67426 4.39475,-4.67426 4.39475,-12.18974 0,-7.51547 -4.48631,-12.09809 -4.39474,-4.5826 -10.62066,-4.5826 -6.2259,0 -10.7122,4.5826 -4.48631,4.58262 -4.48631,12.09809 z"
         style="font-style:normal;font-variant:normal;font-weight:normal;font-stretch:normal;font-size:98.77777863px;line-height:6.61458302px;font-family:Sanchez;-inkscape-font-specification:Sanchez;letter-spacing:-5.54831266px;word-spacing:0px;fill:#ffffff;fill-opacity:1;stroke:none;stroke-width:0.24536988px;stroke-linecap:butt;stroke-linejoin:miter;stroke-opacity:1"
         id="path4534-0"
         inkscape:connector-curvature="0" />
      <g
         id="g942">
        <path
           style="color:#000000;font-style:normal;font-variant:normal;font-weight:normal;font-stretch:normal;font-size:medium;line-height:normal;font-family:sans-serif;text-indent:0;text-align:start;text-decoration:none;text-decoration-line:none;text-decoration-style:solid;text-decoration-color:#000000;letter-spacing:normal;word-spacing:normal;text-transform:none;writing-mode:lr-tb;direction:ltr;baseline-shift:baseline;text-anchor:start;white-space:normal;clip-rule:nonzero;display:inline;overflow:visible;visibility:visible;opacity:1;isolation:auto;mix-blend-mode:normal;color-interpolation:sRGB;color-interpolation-filters:linearRGB;solid-color:#000000;solid-opacity:1;fill:#007385;fill-opacity:1;fill-rule:nonzero;stroke:none;stroke-width:6.22755957;stroke-linecap:butt;stroke-linejoin:round;stroke-miterlimit:100;stroke-dasharray:none;stroke-dashoffset:0;stroke-opacity:1;color-rendering:auto;image-rendering:auto;shape-rendering:auto;text-rendering:auto;enable-background:accumulate"
           d="m 35.380143,257.5264 -0.687413,-0.25915 c -0.004,-10e-4 -0.0081,-0.003 -0.01193,-0.004 l -0.76316,-0.28513 c -0.003,-10e-4 -0.0068,-0.003 -0.0098,-0.004 l -0.76316,-0.28148 c -0.003,-10e-4 -0.0073,-0.003 -0.01039,-0.004 l -0.76316,-0.27784 c -0.003,-10e-4 -0.0048,-0.003 -0.0078,-0.004 l -0.763156,-0.27577 c -0.003,-0.001 -0.0073,-0.003 -0.01039,-0.004 l -0.763156,-0.27368 c -0.003,-8.1e-4 -0.0048,-0.001 -0.0078,-0.002 l -0.763161,-0.27161 c -0.003,-10e-4 -0.0053,-0.003 -0.0083,-0.004 l -0.763157,-0.26798 c -0.0021,-0.001 -0.0042,-0.003 -0.0062,-0.004 l -0.76316,-0.2659 c -0.003,-8e-4 -0.0048,-0.001 -0.0078,-0.002 l -0.763156,-0.2659 c -0.0021,-8e-4 -0.0042,-0.001 -0.0062,-0.002 l -0.763161,-0.26383 c -0.003,-7.9e-4 -0.0053,-0.001 -0.0083,-0.002 l -0.763157,-0.25967 c -0.002,-8e-4 -0.0037,-0.001 -0.0057,-0.002 l -0.763159,-0.25968 c -0.002,-8e-4 -0.0042,-0.001 -0.0062,-0.002 l -0.763158,-0.25812 -0.0041,-0.002 -0.76316,-0.25604 c -0.002,-8e-4 -0.0037,-10e-4 -0.0057,-0.002 l -0.763678,-0.25396 c -0.002,-8.1e-4 -0.0037,-0.001 -0.0057,-0.002 l -0.76316,-0.25188 -0.0041,-0.002 -0.763158,-0.2498 c -0.002,-7.9e-4 -0.0042,-10e-4 -0.0062,-0.002 l -0.763159,-0.25032 -0.0041,-0.002 -0.763159,-0.24825 -0.0036,-0.002 -0.763159,-0.24617 c -0.002,-8e-4 -0.0042,-0.001 -0.0062,-0.002 l -0.763159,-0.24616 -0.0041,-0.002 -0.763159,-0.24409 -0.0041,-0.002 -0.763158,-0.24201 -0.0041,-0.002 -0.131775,-0.0415 v 6.54213 l 0.52866,0.17138 0.756933,0.24409 0.759527,0.24773 0.757452,0.24824 0.759008,0.25032 0.757452,0.2498 0.757452,0.25188 0.756933,0.25448 0.757452,0.25552 0.757452,0.25811 0.757452,0.25811 0.754858,0.25966 0.757452,0.26383 0.755377,0.26382 0.755377,0.26591 0.755376,0.27006 0.753302,0.26954 0.755377,0.27368 0.753302,0.27577 0.753303,0.27785 0.751742,0.28148 0.753302,0.28356 0.74915,0.2872 0.751746,0.28979 0.749154,0.29343 0.747594,0.29913 0.747593,0.30123 0.745519,0.30692 0.743445,0.31109 0.741371,0.31731 0.739811,0.32304 0.735661,0.32874 0.733588,0.33653 0.729957,0.34484 0.723729,0.35419 0.718021,0.36458 0.711799,0.37393 0.700384,0.39002 0.686374,0.40352 0.665107,0.42119 0.63709,0.443 0.588321,0.45909 0.501681,0.46637 0.07678,0.093 1.99272,4.37129 -2.049789,-5.83843 -0.381839,-0.69696 -0.603887,-0.8569 -0.649022,-0.79927 -0.674443,-0.75823 -0.694676,-0.7224 -0.708167,-0.69488 -0.715947,-0.67359 -0.721655,-0.65592 -0.727879,-0.63775 -0.732031,-0.62425 -0.737219,-0.6123 -0.737736,-0.60088 -0.741888,-0.59256 -0.74137,-0.58063 -0.74552,-0.57491 -0.745519,-0.56711 -0.747594,-0.56142 -0.747076,-0.55309 z"
           id="path4566-3"
           inkscape:connector-curvature="0" />
        <path
           style="color:#000000;font-style:normal;font-variant:normal;font-weight:normal;font-stretch:normal;font-size:medium;line-height:normal;font-family:sans-serif;text-indent:0;text-align:start;text-decoration:none;text-decoration-line:none;text-decoration-style:solid;text-decoration-color:#000000;letter-spacing:normal;word-spacing:normal;text-transform:none;writing-mode:lr-tb;direction:ltr;baseline-shift:baseline;text-anchor:start;white-space:normal;clip-rule:nonzero;display:inline;overflow:visible;visibility:visible;opacity:1;isolation:auto;mix-blend-mode:normal;color-interpolation:sRGB;color-interpolation-filters:linearRGB;solid-color:#000000;solid-opacity:1;fill:#0099b1;fill-opacity:1;fill-rule:nonzero;stroke:none;stroke-width:6.22755957;stroke-linecap:butt;stroke-linejoin:round;stroke-miterlimit:100;stroke-dasharray:none;stroke-dashoffset:0;stroke-opacity:1;color-rendering:auto;image-rendering:auto;shape-rendering:auto;text-rendering:auto;enable-background:accumulate"
           d="m 32.392878,247.81993 -0.108428,-0.0733 c -0.003,-0.002 -0.0048,-0.004 -0.0078,-0.006 L 31.51349,247.227 c -0.003,-0.002 -0.0073,-0.004 -0.01039,-0.006 l -0.76316,-0.50999 c -0.003,-0.002 -0.0047,-0.004 -0.0078,-0.006 l -0.763159,-0.50375 c -0.003,-0.002 -0.0073,-0.004 -0.01039,-0.006 l -0.763159,-0.5022 c -0.003,-0.002 -0.0048,-0.004 -0.0078,-0.006 l -0.763158,-0.49804 c -0.003,-0.001 -0.0053,-0.003 -0.0083,-0.004 l -0.76316,-0.4965 c -0.003,-0.001 -0.0053,-0.003 -0.0083,-0.004 l -0.761082,-0.49233 c -0.003,-0.002 -0.0048,-0.004 -0.0078,-0.006 l -0.763159,-0.48817 c -0.003,-0.001 -0.0053,-0.003 -0.0083,-0.004 l -0.763158,-0.4861 c -0.003,-0.001 -0.0048,-0.003 -0.0078,-0.004 l -0.761602,-0.48454 c -0.003,-0.001 -0.0048,-0.003 -0.0078,-0.004 l -0.763159,-0.4804 c -0.003,-0.001 -0.0053,-0.003 -0.0083,-0.004 l -0.761085,-0.47675 c -0.003,-0.001 -0.0053,-0.003 -0.0083,-0.004 l -0.763159,-0.47416 c -0.002,-0.001 -0.0037,-0.003 -0.0057,-0.004 l -0.763159,-0.47261 c -0.002,-0.001 -0.0042,-0.003 -0.0062,-0.004 l -0.763159,-0.46843 c -0.003,-0.001 -0.0053,-0.003 -0.0083,-0.004 l -0.76316,-0.46688 c -0.002,-0.001 -0.0037,-0.003 -0.0057,-0.004 l -0.759528,-0.46118 c -0.002,-0.001 -0.0042,-0.003 -0.0062,-0.004 l -0.763158,-0.46066 c -0.002,-0.001 -0.0042,-0.003 -0.0062,-0.004 l -0.763158,-0.46065 c -0.002,-8e-4 -0.0037,-0.001 -0.0057,-0.002 l -0.763158,-0.45702 c -0.002,-0.001 -0.0042,-0.003 -0.0062,-0.004 l -0.02283,-0.0136 v 7.27596 l 0.621006,0.37911 0.757453,0.46481 0.755376,0.46845 0.756933,0.47051 0.755377,0.47261 0.757452,0.47467 0.755377,0.47831 0.755377,0.48248 0.755376,0.48246 0.755377,0.48818 0.755377,0.49026 0.755377,0.49233 0.754857,0.4965 0.753819,0.50012 0.755377,0.50375 0.753302,0.50636 0.753302,0.51 0.753299,0.51362 0.753303,0.51986 0.751227,0.52194 0.751746,0.52765 0.751225,0.5318 0.751225,0.53752 0.749671,0.54167 0.749671,0.54738 0.747076,0.5531 0.747594,0.56141 0.745519,0.56711 0.745519,0.57491 0.741371,0.58063 0.741888,0.59256 0.737736,0.60088 0.737219,0.61231 0.73203,0.62424 0.72788,0.63775 0.721655,0.65593 0.715947,0.67358 0.708167,0.69488 0.694675,0.7224 0.674443,0.75824 0.649023,0.79926 0.603886,0.85691 0.38184,0.69696 2.04512,5.82596 -2.073136,-6.9654 -0.529177,-1.26251 -0.665106,-1.27187 -0.692083,-1.1737 -0.710241,-1.10464 -0.718023,-1.0553 -0.727881,-1.01583 -0.73151,-0.98674 -0.735662,-0.96078 -0.739814,-0.93949 -0.741369,-0.91923 -0.743442,-0.90417 -0.745523,-0.88755 -0.745519,-0.87665 -0.749668,-0.86055 -0.747595,-0.85068 -0.749153,-0.84029 -0.749668,-0.83095 -0.751228,-0.81951 -0.751225,-0.81329 -0.751745,-0.80341 -0.751228,-0.79511 z"
           id="path4571-7"
           inkscape:connector-curvature="0" />
        <path
           style="color:#000000;font-style:normal;font-variant:normal;font-weight:normal;font-stretch:normal;font-size:medium;line-height:normal;font-family:sans-serif;text-indent:0;text-align:start;text-decoration:none;text-decoration-line:none;text-decoration-style:solid;text-decoration-color:#000000;letter-spacing:normal;word-spacing:normal;text-transform:none;writing-mode:lr-tb;direction:ltr;baseline-shift:baseline;text-anchor:start;white-space:normal;clip-rule:nonzero;display:inline;overflow:visible;visibility:visible;opacity:1;isolation:auto;mix-blend-mode:normal;color-interpolation:sRGB;color-interpolation-filters:linearRGB;solid-color:#000000;solid-opacity:1;fill:#00c0de;fill-opacity:1;fill-rule:nonzero;stroke:none;stroke-width:6.22755957;stroke-linecap:butt;stroke-linejoin:round;stroke-miterlimit:100;stroke-dasharray:none;stroke-dashoffset:0;stroke-opacity:1;color-rendering:auto;image-rendering:auto;shape-rendering:auto;text-rendering:auto;enable-background:accumulate"
           d="m 16.848512,232.9019 0.180024,0.15944 0.755377,0.67358 0.753302,0.6793 0.755377,0.68292 0.755376,0.68761 0.755376,0.6928 0.754859,0.69696 0.75382,0.70318 0.755377,0.7089 0.754858,0.71253 0.75382,0.71877 0.755376,0.72292 0.753302,0.7302 0.753302,0.73486 0.755377,0.74214 0.753301,0.74629 0.753302,0.75408 0.7533,0.75823 0.753302,0.76759 0.753302,0.77226 0.751746,0.77953 0.753299,0.78784 0.751228,0.79511 0.751746,0.80342 0.751224,0.81329 0.751228,0.81951 0.749668,0.83095 0.749154,0.84029 0.747594,0.85068 0.749668,0.86055 0.74552,0.87664 0.745522,0.88755 0.743442,0.90417 0.74137,0.91924 0.739813,0.93948 0.735662,0.96078 0.73151,0.98675 0.727882,1.01582 0.718022,1.05531 0.710241,1.10464 0.692084,1.1737 0.665105,1.27187 0.529177,1.26251 2.077288,6.97837 -2.094925,-8.19155 -0.623603,-1.91584 -0.706089,-1.79589 -0.72425,-1.65201 -0.73151,-1.55751 -0.737737,-1.49258 -0.741371,-1.43909 -0.745519,-1.3965 -0.745519,-1.36223 -0.747597,-1.33107 -0.749668,-1.30562 -0.74915,-1.28017 -0.751228,-1.25992 -0.751746,-1.23656 -0.751225,-1.22096 -0.753302,-1.20123 -0.751745,-1.18514 -0.7533,-1.16955 -0.751228,-1.15398 -0.753301,-1.13994 -0.7533,-1.12645 -0.01453,-0.0228 -0.548894,-0.54791 c -0.003,-0.003 -0.0053,-0.007 -0.0083,-0.0101 l -0.763157,-0.75616 -0.0098,-0.0105 -0.763159,-0.74993 c -0.003,-0.003 -0.0073,-0.005 -0.01039,-0.008 l -0.761085,-0.74421 -0.0098,-0.0101 -0.763157,-0.73642 c -0.003,-0.003 -0.0053,-0.007 -0.0083,-0.0105 l -0.76316,-0.73227 c -0.003,-0.003 -0.0068,-0.005 -0.0098,-0.008 l -0.76316,-0.72655 -0.0083,-0.008 -0.763157,-0.72084 -0.0083,-0.008 -0.76316,-0.71669 -0.0078,-0.008 -0.763158,-0.71098 c -0.003,-0.003 -0.0073,-0.005 -0.01037,-0.008 l -0.761083,-0.70474 c -0.003,-0.003 -0.0073,-0.005 -0.01037,-0.008 l -0.763159,-0.69903 -0.0078,-0.008 -0.763159,-0.69488 -0.0083,-0.008 -0.763158,-0.69123 c -0.003,-0.002 -0.0047,-0.004 -0.0078,-0.006 l -0.763158,-0.68553 -0.0088,-0.008 -0.763159,-0.68138 c -0.003,-0.002 -0.0053,-0.004 -0.0083,-0.006 l -0.763159,-0.67722 -0.0078,-0.008 -0.761603,-0.67099 c -0.003,-0.002 -0.0047,-0.004 -0.0078,-0.006 L 18.848618,226.366 c -0.003,-0.002 -0.0053,-0.004 -0.0083,-0.006 l -0.763159,-0.66371 -0.0078,-0.008 -0.763158,-0.658 c -0.003,-0.002 -0.0053,-0.004 -0.0083,-0.006 l -0.449802,-0.38639 z"
           id="path4533-5"
           inkscape:connector-curvature="0" />
        <path
           style="color:#000000;font-style:normal;font-variant:normal;font-weight:normal;font-stretch:normal;font-size:medium;line-height:normal;font-family:sans-serif;text-indent:0;text-align:start;text-decoration:none;text-decoration-line:none;text-decoration-style:solid;text-decoration-color:#000000;letter-spacing:normal;word-spacing:normal;text-transform:none;writing-mode:lr-tb;direction:ltr;baseline-shift:baseline;text-anchor:start;white-space:normal;clip-rule:nonzero;display:inline;overflow:visible;visibility:visible;opacity:1;isolation:auto;mix-blend-mode:normal;color-interpolation:sRGB;color-interpolation-filters:linearRGB;solid-color:#000000;solid-opacity:1;fill:#ffffff;fill-opacity:1;fill-rule:nonzero;stroke:none;stroke-width:6.22755957;stroke-linecap:butt;stroke-linejoin:round;stroke-miterlimit:100;stroke-dasharray:none;stroke-dashoffset:0;stroke-opacity:1;color-rendering:auto;image-rendering:auto;shape-rendering:auto;text-rendering:auto;enable-background:accumulate"
           d="m 1.7072547,208.50018 c -0.80504302,0 -1.2072533,0.37219 -1.2072533,1.11607 v 4.74209 c 0,0.74388 0.40221028,1.11554 1.2072533,1.11554 h 7.0598682 v 52.81585 H 1.7072547 c -0.80504302,0 -1.2072533,0.37218 -1.2072533,1.11606 v 4.74209 c 0,0.74388 0.40221028,1.11554 1.2072533,1.11554 H 24.000726 c 0.805039,0 1.207772,-0.37166 1.207772,-1.11554 v -4.74209 c 0,-0.74388 -0.402733,-1.11606 -1.207772,-1.11606 h -7.152214 v -45.74867 -4.50995 l 0.621007,0.74006 0.753301,0.90989 0.753302,0.91767 0.755376,0.92547 0.753302,0.93325 0.755377,0.94312 0.753301,0.95299 0.753821,0.96078 0.754858,0.97064 0.75382,0.98104 0.753301,0.9883 0.755377,1.00025 0.753301,1.01012 0.753302,1.01998 0.755377,1.02985 0.753301,1.0418 0.753303,1.05322 0.7533,1.06309 0.753301,1.07555 0.755377,1.08854 0.753302,1.09892 0.753821,1.11451 0.753302,1.12644 0.753299,1.13996 0.751228,1.15397 0.753303,1.16955 0.751742,1.18514 0.753302,1.20123 0.751227,1.22097 0.751746,1.23654 0.751226,1.25992 0.74915,1.28018 0.749671,1.30562 0.747594,1.33107 0.745519,1.36223 0.745519,1.3965 0.741371,1.4391 0.737736,1.49258 0.731513,1.5575 0.724247,1.65202 0.70609,1.79588 0.623603,1.91584 2.094925,8.19155 h 1.233712 1.857832 5.015784 c 0.805041,0 1.207775,-0.37218 1.207775,-1.11606 V 215.4744 h 7.152213 c 0.743112,0 1.114905,-0.37218 1.114905,-1.11606 v -4.74209 c 0,-0.74388 -0.371793,-1.11607 -1.114905,-1.11607 H 44.251152 c -0.743113,0 -1.114909,0.37219 -1.114909,1.11607 v 4.74209 c 0,0.74388 0.371796,1.11606 1.114909,1.11606 h 7.152213 v 43.04965 l -0.494419,-1.0527 c -0.009,-0.0192 -0.01811,-0.0381 -0.0275,-0.0571 l -0.76316,-1.54193 c -0.008,-0.0151 -0.0154,-0.0302 -0.02335,-0.0452 l -0.76316,-1.48273 c -0.006,-0.0125 -0.01307,-0.025 -0.01971,-0.0374 l -0.763156,-1.43131 c -0.006,-0.0112 -0.01222,-0.0227 -0.01817,-0.0338 l -0.763159,-1.39183 c -0.005,-0.01 -0.01031,-0.0199 -0.01556,-0.0297 l -0.763161,-1.35859 c -0.005,-0.008 -0.0092,-0.0174 -0.014,-0.0259 l -0.763159,-1.32899 c -0.005,-0.007 -0.0087,-0.0146 -0.01349,-0.0218 l -0.763152,-1.30355 c -0.004,-0.007 -0.0081,-0.0141 -0.01193,-0.0213 l -0.763159,-1.28016 c -0.004,-0.007 -0.0081,-0.0132 -0.01193,-0.0197 l -0.763159,-1.25785 c -0.004,-0.006 -0.0081,-0.0123 -0.01193,-0.0182 l -0.76316,-1.23862 c -0.004,-0.006 -0.0081,-0.0117 -0.01193,-0.0177 l -0.76316,-1.21889 c -0.003,-0.006 -0.0068,-0.0117 -0.0098,-0.0177 l -0.763159,-1.20123 c -0.003,-0.006 -0.0073,-0.0118 -0.01039,-0.0177 l -0.763159,-1.18514 c -0.003,-0.005 -0.0068,-0.0108 -0.0098,-0.0161 l -0.763159,-1.16956 c -0.003,-0.005 -0.0073,-0.0102 -0.01039,-0.0156 l -0.76316,-1.15605 c -0.003,-0.005 -0.0068,-0.009 -0.0098,-0.0135 l -0.763158,-1.14203 c -0.003,-0.005 -0.0073,-0.009 -0.01039,-0.014 l -0.763159,-1.12645 c -0.003,-0.005 -0.0068,-0.009 -0.0098,-0.0135 l -0.763159,-1.11451 c -0.003,-0.005 -0.0073,-0.009 -0.01039,-0.014 l -0.763159,-1.10256 c -0.003,-0.004 -0.0068,-0.008 -0.0098,-0.012 l -0.761083,-1.09061 c -0.003,-0.004 -0.0073,-0.008 -0.01039,-0.012 l -0.76316,-1.07711 c -0.003,-0.005 -0.0068,-0.009 -0.0098,-0.0135 l -0.76316,-1.06518 c -0.003,-0.004 -0.0053,-0.008 -0.0083,-0.012 l -0.763157,-1.0553 c -0.003,-0.004 -0.0068,-0.008 -0.0098,-0.012 l -0.763156,-1.04336 c -0.003,-0.004 -0.0073,-0.008 -0.01039,-0.012 l -0.763159,-1.03401 c -0.003,-0.004 -0.0048,-0.008 -0.0078,-0.0115 l -0.763678,-1.02206 c -0.003,-0.004 -0.0068,-0.008 -0.0098,-0.012 l -0.763157,-1.01167 c -0.003,-0.004 -0.0053,-0.008 -0.0083,-0.012 l -0.76316,-1.00025 c -0.003,-0.004 -0.0068,-0.008 -0.0098,-0.012 l -0.76316,-0.99247 c -0.003,-0.004 -0.0053,-0.008 -0.0083,-0.0114 l -0.763156,-0.9826 c -0.003,-0.004 -0.0068,-0.008 -0.0098,-0.012 l -0.763159,-0.97273 c -0.003,-0.003 -0.0053,-0.007 -0.0083,-0.0101 l -0.763159,-0.96493 -0.0098,-0.01 -0.763159,-0.95507 c -0.003,-0.004 -0.0053,-0.008 -0.0083,-0.012 l -0.763159,-0.9452 -0.0098,-0.01 -0.763158,-0.9374 c -0.003,-0.004 -0.0053,-0.008 -0.0083,-0.012 l -0.763159,-0.92754 -0.0098,-0.01 -0.763159,-0.91976 c -0.003,-0.004 -0.0053,-0.008 -0.0083,-0.0114 l -0.763158,-0.91196 -0.0098,-0.01 -0.761602,-0.90365 -0.0098,-0.0104 -0.763159,-0.89378 c -0.003,-0.004 -0.0053,-0.008 -0.0083,-0.0119 l -0.76316,-0.88599 -0.0098,-0.01 -0.76316,-0.88028 c -0.003,-0.003 -0.0053,-0.007 -0.0083,-0.0104 l -0.763194,-0.87198 -0.0098,-0.0104 C 17.35225,209.07564 17.099354,208.78782 16.848387,208.5 Z"
           id="path4546-9"
           inkscape:connector-curvature="0"
           sodipodi:nodetypes="ssssccssssssssccccccccccccccccccccccccccccccccccccccccccccccccsscsssssssscccccccccccccccccccccccccccccccccccccccccccccccccccccccccccccccccccccccccccccccccccccccccccs" />
      </g>
      <path
         d="m 268.67417,275.56258 h -5.14084 q -1.19341,0 -1.19341,-1.10275 v -21.50361 q 0,-1.19465 1.19341,-1.19465 h 5.78344 q 1.10161,0 1.10161,1.19465 v 1.92981 q 0,1.74602 2.11142,4.68668 2.11141,2.84877 4.22283,4.68669 2.11141,1.83791 5.59984,3.21635 3.58023,1.28654 7.71126,1.28654 7.06865,0 11.01608,-2.94066 4.03923,-2.94067 4.03923,-8.17873 0,-3.03256 -2.29502,-5.14616 -2.20321,-2.2055 -5.78344,-3.49204 -3.58023,-1.28654 -7.98666,-2.38929 -4.31463,-1.10275 -8.72106,-2.48118 -4.31464,-1.47034 -7.89486,-3.40015 -3.58023,-2.02171 -5.87525,-5.51374 -2.20321,-3.58394 -2.20321,-8.36252 0,-7.71924 5.78344,-12.77351 5.87524,-5.05427 15.69792,-5.05427 12.39309,0 18.17653,7.25977 l -0.1836,-5.69754 q 0,-1.10275 1.19341,-1.10275 h 5.14084 q 1.10161,0 1.10161,1.10275 v 20.03328 q 0,1.10275 -1.10161,1.10275 h -5.78344 q -1.10161,0 -1.10161,-1.10275 v -2.57308 q 0,-3.76773 -4.22283,-7.62735 -4.22284,-3.85963 -12.3931,-3.85963 -6.05884,0 -9.82267,2.94067 -3.67203,2.84877 -3.67203,7.35166 0,3.21635 2.29502,5.51375 2.29502,2.29739 5.96704,3.67583 3.67203,1.37843 8.07846,2.57308 4.40644,1.10275 8.81287,2.48119 4.40643,1.37843 8.07846,3.30824 3.67203,1.92981 5.96705,5.32996 2.29501,3.30824 2.29501,7.90303 0,8.08683 -5.78344,13.32489 -5.78344,5.23806 -17.25853,5.23806 -8.44566,0 -13.9537,-3.40015 -5.50805,-3.40014 -7.98666,-7.35166 l 0.0918,9.00579 q 0,1.10275 -1.10161,1.10275 z"
         style="font-style:normal;font-variant:normal;font-weight:normal;font-stretch:normal;font-size:91.44000244px;line-height:1.25;font-family:Sanchez;-inkscape-font-specification:Sanchez;letter-spacing:-4.66989565px;word-spacing:0px;fill:#00c0de;fill-opacity:1;stroke:none;stroke-width:0.26576447"
         id="path4798"
         inkscape:connector-curvature="0" />
      <path
         d="M 336.98174,296.23912 H 318.5298 q -1.19341,0 -1.19341,-1.10274 v -3.95152 q 0,-1.10275 1.19341,-1.10275 h 5.14084 v -53.57523 h -4.95724 q -1.1934,0 -1.1934,-1.10275 v -3.95152 q 0,-1.10275 1.1934,-1.10275 h 10.74068 q 1.19341,0 1.19341,1.10275 l -0.0918,7.25976 h 0.0918 q 1.74422,-3.76772 5.59985,-6.3408 3.94743,-2.66498 9.63907,-2.66498 9.27187,0 14.96351,6.34081 5.69164,6.24891 5.69164,16.72503 0,10.38422 -5.59984,16.90882 -5.59984,6.5246 -14.96351,6.5246 -5.69164,0 -9.54727,-2.57308 -3.76383,-2.66498 -5.41624,-6.43271 h -0.27541 q 0.27541,2.94067 0.27541,4.22721 v 18.65484 h 5.96704 q 1.19341,0 1.19341,1.10275 v 3.95152 q 0,1.10274 -1.19341,1.10274 z m -6.15064,-43.09911 q 0,7.99493 4.13103,12.31403 4.22283,4.3191 10.09807,4.3191 5.96705,0 9.91448,-4.59478 4.03923,-4.68669 4.03923,-12.22214 0,-7.62735 -4.03923,-12.22214 -3.94743,-4.59479 -9.91448,-4.59479 -5.96704,0 -10.09807,4.5029 -4.13103,4.50289 -4.13103,12.49782 z"
         style="font-style:normal;font-variant:normal;font-weight:normal;font-stretch:normal;font-size:91.44000244px;line-height:1.25;font-family:Sanchez;-inkscape-font-specification:Sanchez;letter-spacing:-4.66989565px;word-spacing:0px;fill:#00c0de;fill-opacity:1;stroke:none;stroke-width:0.26576447"
         id="path4800"
         inkscape:connector-curvature="0" />
      <path
         d="m 387.13716,275.56258 h -17.53393 q -1.19341,0 -1.19341,-1.10275 v -3.95152 q 0,-1.10275 1.19341,-1.10275 h 5.04904 v -32.89868 h -5.04904 q -1.19341,0 -1.19341,-1.10275 v -3.95152 q 0,-1.10275 1.19341,-1.10275 h 11.56689 q 1.10161,0 1.10161,1.10275 v 37.95295 h 4.86543 q 1.19341,0 1.19341,1.10275 v 3.95152 q 0,1.10275 -1.19341,1.10275 z m -5.23264,-58.81329 q 1.56061,1.56222 1.56061,3.67583 0,2.1136 -1.56061,3.58393 -1.46881,1.47033 -3.58022,1.47033 -2.11142,0 -3.67203,-1.47033 -1.46881,-1.47033 -1.46881,-3.58393 0,-2.11361 1.46881,-3.67583 1.56061,-1.56223 3.67203,-1.56223 2.11141,0 3.58022,1.56223 z"
         style="font-style:normal;font-variant:normal;font-weight:normal;font-stretch:normal;font-size:91.44000244px;line-height:1.25;font-family:Sanchez;-inkscape-font-specification:Sanchez;letter-spacing:-4.66989565px;word-spacing:0px;fill:#00c0de;fill-opacity:1;stroke:none;stroke-width:0.26576447"
         id="path4802"
         inkscape:connector-curvature="0" />
      <path
         d="m 448.63427,275.56258 h -4.95723 q -1.74422,0 -2.75402,-0.64327 -1.00981,-0.73517 -1.92782,-2.2055 l -26.5304,-41.53689 -4.59003,-7.71924 h -0.1836 v 45.21271 h 7.06865 q 1.19341,0 1.19341,1.10275 v 4.68669 q 0,1.10275 -1.19341,1.10275 h -22.03216 q -1.19341,0 -1.19341,-1.10275 v -4.68669 q 0,-1.10275 1.19341,-1.10275 h 6.97685 V 216.4736 h -6.97685 q -1.19341,0 -1.19341,-1.10275 v -4.68668 q 0,-1.10275 1.19341,-1.10275 h 12.85209 q 2.66222,0 4.68184,3.12445 l 26.16319,40.98551 5.23264,8.91389 h 0.1836 V 216.4736 h -7.06865 q -1.10161,0 -1.10161,-1.10275 v -4.68668 q 0,-1.10275 1.10161,-1.10275 h 22.12397 q 1.1016,0 1.1016,1.10275 v 4.68668 q 0,1.10275 -1.1016,1.10275 h -7.06866 v 57.98623 q 0,1.10275 -1.19341,1.10275 z"
         style="font-style:normal;font-variant:normal;font-weight:normal;font-stretch:normal;font-size:91.44000244px;line-height:1.25;font-family:Sanchez;-inkscape-font-specification:Sanchez;letter-spacing:-4.66989565px;word-spacing:0px;fill:#00c0de;fill-opacity:1;stroke:none;stroke-width:0.26576447"
         id="path4804"
         inkscape:connector-curvature="0" />
      <path
         d="m 517.99613,275.56258 h -4.95724 q -1.74421,0 -2.75402,-0.64327 -1.00981,-0.73517 -1.92781,-2.2055 l -26.5304,-41.53689 -4.59004,-7.71924 h -0.1836 v 45.21271 h 7.06865 q 1.19341,0 1.19341,1.10275 v 4.68669 q 0,1.10275 -1.19341,1.10275 H 462.0895 q -1.19341,0 -1.19341,-1.10275 v -4.68669 q 0,-1.10275 1.19341,-1.10275 h 6.97685 V 216.4736 h -6.97685 q -1.19341,0 -1.19341,-1.10275 v -4.68668 q 0,-1.10275 1.19341,-1.10275 h 12.85211 q 2.66222,0 4.68183,3.12445 l 26.1632,40.98551 5.23263,8.91389 h 0.18361 V 216.4736 h -7.06866 q -1.1016,0 -1.1016,-1.10275 v -4.68668 q 0,-1.10275 1.1016,-1.10275 h 22.12397 q 1.10161,0 1.10161,1.10275 v 4.68668 q 0,1.10275 -1.10161,1.10275 h -7.06865 v 57.98623 q 0,1.10275 -1.19341,1.10275 z"
         style="font-style:normal;font-variant:normal;font-weight:normal;font-stretch:normal;font-size:91.44000244px;line-height:1.25;font-family:Sanchez;-inkscape-font-specification:Sanchez;letter-spacing:-4.66989565px;word-spacing:0px;fill:#00c0de;fill-opacity:1;stroke:none;stroke-width:0.26576447"
         id="path4806"
         inkscape:connector-curvature="0" />
      <path
         d="m 572.08319,275.56258 h -7.98666 q -3.94743,0 -3.94743,-3.85963 v -4.68668 h -0.18361 q -6.70145,9.28147 -17.90113,9.28147 -6.60965,0 -10.83248,-3.40014 -4.22283,-3.49204 -4.22283,-9.37337 0,-7.53545 6.51785,-11.02749 6.60965,-3.58393 18.08473,-3.58393 h 7.71126 v -1.10275 q 0,-11.48698 -11.93409,-11.48698 -5.59984,0 -8.07846,1.10275 -2.47862,1.01086 -3.58023,1.65413 -1.0098,0.64327 -1.56061,1.01085 -1.37701,1.10275 -2.01961,0.18379 l -2.57042,-3.21635 q -0.64261,-0.73517 0.1836,-1.47033 1.56061,-2.02171 6.42605,-3.95152 4.86543,-1.92981 11.47508,-1.92981 19.27815,0 19.27815,18.37915 v 21.31982 h 5.14084 q 1.1016,0 1.1016,1.10275 v 3.95152 q 0,1.10275 -1.1016,1.10275 z m -12.7603,-21.13603 h -7.25225 q -5.32444,0 -8.81287,0.55138 -3.48843,0.55137 -5.96704,2.38929 -2.38682,1.83791 -2.38682,5.05426 0,3.21635 2.57042,5.32996 2.66222,2.0217 6.88505,2.0217 8.90466,0 14.96351,-7.90303 z"
         style="font-style:normal;font-variant:normal;font-weight:normal;font-stretch:normal;font-size:91.44000244px;line-height:1.25;font-family:Sanchez;-inkscape-font-specification:Sanchez;letter-spacing:-4.66989565px;word-spacing:0px;fill:#00c0de;fill-opacity:1;stroke:none;stroke-width:0.26576447"
         id="path4808"
         inkscape:connector-curvature="0" />
      <path
         d="m 623.87237,275.56258 h -4.95723 q -2.84582,0 -4.86544,-2.84877 l -16.24872,-22.05499 -8.90467,8.27062 v 10.47612 h 4.86544 q 1.19341,0 1.19341,1.10275 v 3.95152 q 0,1.10275 -1.19341,1.10275 h -17.53393 q -1.19341,0 -1.19341,-1.10275 v -3.95152 q 0,-1.10275 1.19341,-1.10275 h 5.04904 v -53.66713 h -5.04904 q -1.19341,0 -1.19341,-1.10275 v -3.95151 q 0,-1.10275 1.19341,-1.10275 h 11.56689 q 1.1016,0 1.1016,1.10275 v 41.1693 l 16.70773,-15.34659 h -3.30483 q -1.1016,0 -1.1016,-1.10275 v -3.95152 q 0,-1.10275 1.1016,-1.10275 h 17.62574 q 1.1016,0 1.1016,1.10275 v 3.95152 q 0,1.10275 -1.1016,1.10275 h -5.96705 l -11.19968,9.83284 17.16673,23.06584 h 3.94742 q 1.10161,0 1.10161,1.10275 v 3.95152 q 0,1.10275 -1.10161,1.10275 z"
         style="font-style:normal;font-variant:normal;font-weight:normal;font-stretch:normal;font-size:91.44000244px;line-height:1.25;font-family:Sanchez;-inkscape-font-specification:Sanchez;letter-spacing:-4.66989565px;word-spacing:0px;fill:#00c0de;fill-opacity:1;stroke:none;stroke-width:0.26576447"
         id="path4810"
         inkscape:connector-curvature="0" />
      <path
         d="m 662.656,253.87518 h -33.04825 q 0.3672,7.62734 4.77363,11.76265 4.49824,4.13531 10.09808,4.13531 5.59984,0 9.54727,-2.38929 4.03923,-2.38929 5.41624,-4.68668 0.73441,-0.91896 1.65241,-0.27569 l 2.47862,2.48119 q 0.55081,0.55137 0.55081,1.01085 0,0.36758 -0.45901,1.01085 -0.3672,0.64328 -1.65241,2.02171 -1.28521,1.37844 -3.67203,3.12446 -2.29501,1.74602 -6.05884,2.94066 -3.67203,1.19465 -7.89486,1.19465 -9.63907,0 -16.15692,-6.34081 -6.42605,-6.34081 -6.42605,-17.00072 0,-10.7518 6.42605,-16.90882 6.42605,-6.24891 15.69792,-6.24891 9.36367,0 14.68811,6.06512 5.32444,5.97323 5.32444,16.17366 0,0.36758 0,0.73516 0,1.19465 -1.28521,1.19465 z m -6.33425,-5.60565 q -0.2754,-5.69753 -3.58023,-9.09768 -3.30482,-3.40014 -8.81286,-3.40014 -5.50804,0 -9.45547,3.12446 -3.94743,3.12445 -4.68184,9.37336 z"
         style="font-style:normal;font-variant:normal;font-weight:normal;font-stretch:normal;font-size:91.44000244px;line-height:1.25;font-family:Sanchez;-inkscape-font-specification:Sanchez;letter-spacing:-4.66989565px;word-spacing:0px;fill:#00c0de;fill-opacity:1;stroke:none;stroke-width:0.26576447"
         id="path4812"
         inkscape:connector-curvature="0" />
      <path
         d="M 685.15073,275.56258 H 667.6168 q -1.19341,0 -1.19341,-1.10275 v -3.95152 q 0,-1.10275 1.19341,-1.10275 h 5.04903 v -32.89868 h -5.04903 q -1.19341,0 -1.19341,-1.10275 v -3.95152 q 0,-1.10275 1.19341,-1.10275 h 10.74068 q 1.19341,0 1.19341,1.10275 v 11.48697 h 0.2754 q 0.2754,-1.47033 1.92781,-4.04341 1.65241,-2.57309 3.58023,-4.22721 2.01961,-1.74602 5.69164,-3.12446 3.76383,-1.37843 8.44566,-1.37843 1.19341,0 1.19341,1.19464 v 4.87048 q 0,1.19464 -1.19341,1.19464 h -1.92781 q -7.89486,0 -12.57669,5.05427 -4.68184,5.05427 -4.68184,11.48697 v 15.43849 h 4.86544 q 1.19341,0 1.19341,1.10275 v 3.95152 q 0,1.10275 -1.19341,1.10275 z"
         style="font-style:normal;font-variant:normal;font-weight:normal;font-stretch:normal;font-size:91.44000244px;line-height:1.25;font-family:Sanchez;-inkscape-font-specification:Sanchez;letter-spacing:-4.66989565px;word-spacing:0px;fill:#00c0de;fill-opacity:1;stroke:none;stroke-width:0.26576447"
         id="path4814"
         inkscape:connector-curvature="0" />
    </g>
  </g>
</svg>
