<?xml version="1.0" encoding="UTF-8" standalone="no"?>
<!-- Created with Inkscape (http://www.inkscape.org/) -->

<svg
   xmlns:dc="http://purl.org/dc/elements/1.1/"
   xmlns:cc="http://creativecommons.org/ns#"
   xmlns:rdf="http://www.w3.org/1999/02/22-rdf-syntax-ns#"
   xmlns:svg="http://www.w3.org/2000/svg"
   xmlns="http://www.w3.org/2000/svg"
   xmlns:sodipodi="http://sodipodi.sourceforge.net/DTD/sodipodi-0.dtd"
   xmlns:inkscape="http://www.inkscape.org/namespaces/inkscape"
   width="501.11099mm"
   height="90.001221mm"
   viewBox="0 0 501.11099 90.001221"
   version="1.1"
   id="svg8"
   inkscape:version="0.92.3 (2405546, 2018-03-11)"
   sodipodi:docname="full-light.svg">
  <defs
     id="defs2">
    <clipPath
       id="p594bf549dd">
      <rect
         id="rect409"
         y="79.199997"
         x="54"
         width="334.79999"
         height="613.79999" />
    </clipPath>
    <clipPath
       id="clipPath6004">
      <rect
         id="rect6002"
         y="79.199997"
         x="54"
         width="334.79999"
         height="613.79999" />
    </clipPath>
    <clipPath
       id="clipPath6008">
      <rect
         id="rect6006"
         y="79.199997"
         x="54"
         width="334.79999"
         height="613.79999" />
    </clipPath>
    <clipPath
       id="clipPath6012">
      <rect
         id="rect6010"
         y="79.199997"
         x="54"
         width="334.79999"
         height="613.79999" />
    </clipPath>
    <clipPath
       id="p594bf549dd-7">
      <rect
         height="613.79999"
         width="334.79999"
         x="54"
         y="79.199997"
         id="rect409-5" />
    </clipPath>
    <clipPath
       id="clipPath6004-35">
      <rect
         height="613.79999"
         width="334.79999"
         x="54"
         y="79.199997"
         id="rect6002-62" />
    </clipPath>
    <clipPath
       id="clipPath6008-9">
      <rect
         height="613.79999"
         width="334.79999"
         x="54"
         y="79.199997"
         id="rect6006-1" />
    </clipPath>
    <clipPath
       id="clipPath6012-27">
      <rect
         height="613.79999"
         width="334.79999"
         x="54"
         y="79.199997"
         id="rect6010-0" />
    </clipPath>
    <clipPath
       id="p594bf549dd-3">
      <rect
         id="rect409-6"
         y="79.199997"
         x="54"
         width="334.79999"
         height="613.79999" />
    </clipPath>
    <clipPath
       id="clipPath6004-7">
      <rect
         id="rect6002-5"
         y="79.199997"
         x="54"
         width="334.79999"
         height="613.79999" />
    </clipPath>
    <clipPath
       id="clipPath6008-3">
      <rect
         id="rect6006-5"
         y="79.199997"
         x="54"
         width="334.79999"
         height="613.79999" />
    </clipPath>
    <clipPath
       id="clipPath6012-6">
      <rect
         id="rect6010-2"
         y="79.199997"
         x="54"
         width="334.79999"
         height="613.79999" />
    </clipPath>
    <clipPath
       id="p594bf549dd-0">
      <rect
         height="613.79999"
         width="334.79999"
         x="54"
         y="79.199997"
         id="rect409-9" />
    </clipPath>
    <clipPath
       id="clipPath6004-3">
      <rect
         height="613.79999"
         width="334.79999"
         x="54"
         y="79.199997"
         id="rect6002-6" />
    </clipPath>
    <clipPath
       id="clipPath6008-0">
      <rect
         height="613.79999"
         width="334.79999"
         x="54"
         y="79.199997"
         id="rect6006-6" />
    </clipPath>
    <clipPath
       id="clipPath6012-2">
      <rect
         height="613.79999"
         width="334.79999"
         x="54"
         y="79.199997"
         id="rect6010-6" />
    </clipPath>
    <clipPath
       id="p594bf549dd-753">
      <rect
         height="613.79999"
         width="334.79999"
         x="54"
         y="79.199997"
         id="rect409-56" />
    </clipPath>
    <clipPath
       id="clipPath6004-29">
      <rect
         height="613.79999"
         width="334.79999"
         x="54"
         y="79.199997"
         id="rect6002-1" />
    </clipPath>
    <clipPath
       id="clipPath6008-27">
      <rect
         height="613.79999"
         width="334.79999"
         x="54"
         y="79.199997"
         id="rect6006-0" />
    </clipPath>
    <clipPath
       id="clipPath6012-93">
      <rect
         height="613.79999"
         width="334.79999"
         x="54"
         y="79.199997"
         id="rect6010-60" />
    </clipPath>
    <clipPath
       id="p594bf549dd-3-62">
      <rect
         id="rect409-6-6"
         y="79.199997"
         x="54"
         width="334.79999"
         height="613.79999" />
    </clipPath>
    <clipPath
       id="clipPath6004-7-18">
      <rect
         id="rect6002-5-7"
         y="79.199997"
         x="54"
         width="334.79999"
         height="613.79999" />
    </clipPath>
    <clipPath
       id="clipPath6008-3-9">
      <rect
         id="rect6006-5-2"
         y="79.199997"
         x="54"
         width="334.79999"
         height="613.79999" />
    </clipPath>
    <clipPath
       id="clipPath6012-6-02">
      <rect
         id="rect6010-2-3"
         y="79.199997"
         x="54"
         width="334.79999"
         height="613.79999" />
    </clipPath>
    <clipPath
       id="p594bf549dd-7-7">
      <rect
         id="rect409-5-5"
         y="79.199997"
         x="54"
         width="334.79999"
         height="613.79999" />
    </clipPath>
    <clipPath
       id="clipPath6004-3-9">
      <rect
         id="rect6002-56"
         y="79.199997"
         x="54"
         width="334.79999"
         height="613.79999" />
    </clipPath>
    <clipPath
       id="clipPath6008-2">
      <rect
         id="rect6006-9"
         y="79.199997"
         x="54"
         width="334.79999"
         height="613.79999" />
    </clipPath>
    <clipPath
       id="clipPath6012-1">
      <rect
         id="rect6010-27"
         y="79.199997"
         x="54"
         width="334.79999"
         height="613.79999" />
    </clipPath>
    <clipPath
       id="p594bf549dd-0-2">
      <rect
         id="rect409-2"
         y="79.199997"
         x="54"
         width="334.79999"
         height="613.79999" />
    </clipPath>
    <clipPath
       id="clipPath6004-37">
      <rect
         id="rect6002-59"
         y="79.199997"
         x="54"
         width="334.79999"
         height="613.79999" />
    </clipPath>
    <clipPath
       id="clipPath6008-22">
      <rect
         id="rect6006-8"
         y="79.199997"
         x="54"
         width="334.79999"
         height="613.79999" />
    </clipPath>
    <clipPath
       id="clipPath6012-97">
      <rect
         id="rect6010-36"
         y="79.199997"
         x="54"
         width="334.79999"
         height="613.79999" />
    </clipPath>
    <clipPath
       id="p594bf549dd-3-1">
      <rect
         height="613.79999"
         width="334.79999"
         x="54"
         y="79.199997"
         id="rect409-6-2" />
    </clipPath>
    <clipPath
       id="clipPath6004-7-9">
      <rect
         height="613.79999"
         width="334.79999"
         x="54"
         y="79.199997"
         id="rect6002-5-3" />
    </clipPath>
    <clipPath
       id="clipPath6008-3-1">
      <rect
         height="613.79999"
         width="334.79999"
         x="54"
         y="79.199997"
         id="rect6006-5-9" />
    </clipPath>
    <clipPath
       id="clipPath6012-6-4">
      <rect
         height="613.79999"
         width="334.79999"
         x="54"
         y="79.199997"
         id="rect6010-2-7" />
    </clipPath>
    <clipPath
       id="p594bf549dd-8">
      <rect
         height="613.79999"
         width="334.79999"
         x="54"
         y="79.199997"
         id="rect409-9-2" />
    </clipPath>
    <clipPath
       id="clipPath6004-73">
      <rect
         height="613.79999"
         width="334.79999"
         x="54"
         y="79.199997"
         id="rect6002-6-8" />
    </clipPath>
    <clipPath
       id="clipPath6008-1">
      <rect
         height="613.79999"
         width="334.79999"
         x="54"
         y="79.199997"
         id="rect6006-2" />
    </clipPath>
    <clipPath
       id="clipPath6012-9">
      <rect
         height="613.79999"
         width="334.79999"
         x="54"
         y="79.199997"
         id="rect6010-3" />
    </clipPath>
    <clipPath
       id="p594bf549dd-6">
      <rect
         height="613.79999"
         width="334.79999"
         x="54"
         y="79.199997"
         id="rect409-3" />
    </clipPath>
    <clipPath
       id="clipPath6004-2">
      <rect
         height="613.79999"
         width="334.79999"
         x="54"
         y="79.199997"
         id="rect6002-0" />
    </clipPath>
    <clipPath
       id="clipPath6008-6">
      <rect
         height="613.79999"
         width="334.79999"
         x="54"
         y="79.199997"
         id="rect6006-1-9" />
    </clipPath>
    <clipPath
       id="clipPath6012-5">
      <rect
         height="613.79999"
         width="334.79999"
         x="54"
         y="79.199997"
         id="rect6010-5" />
    </clipPath>
    <clipPath
       id="p594bf549dd-75">
      <rect
         id="rect409-35"
         y="79.199997"
         x="54"
         width="334.79999"
         height="613.79999" />
    </clipPath>
    <clipPath
       id="clipPath6004-6">
      <rect
         id="rect6002-2"
         y="79.199997"
         x="54"
         width="334.79999"
         height="613.79999" />
    </clipPath>
    <clipPath
       id="clipPath6008-91">
      <rect
         id="rect6006-27"
         y="79.199997"
         x="54"
         width="334.79999"
         height="613.79999" />
    </clipPath>
    <clipPath
       id="clipPath6012-0">
      <rect
         id="rect6010-9"
         y="79.199997"
         x="54"
         width="334.79999"
         height="613.79999" />
    </clipPath>
    <clipPath
       id="p594bf549dd-7-3">
      <rect
         height="613.79999"
         width="334.79999"
         x="54"
         y="79.199997"
         id="rect409-5-6" />
    </clipPath>
    <clipPath
       id="clipPath6004-35-7">
      <rect
         height="613.79999"
         width="334.79999"
         x="54"
         y="79.199997"
         id="rect6002-62-3" />
    </clipPath>
    <clipPath
       id="clipPath6008-9-6">
      <rect
         height="613.79999"
         width="334.79999"
         x="54"
         y="79.199997"
         id="rect6006-1-0" />
    </clipPath>
    <clipPath
       id="clipPath6012-27-1">
      <rect
         height="613.79999"
         width="334.79999"
         x="54"
         y="79.199997"
         id="rect6010-0-2" />
    </clipPath>
    <clipPath
       id="p594bf549dd-3-6">
      <rect
         id="rect409-6-26"
         y="79.199997"
         x="54"
         width="334.79999"
         height="613.79999" />
    </clipPath>
    <clipPath
       id="clipPath6004-7-1">
      <rect
         id="rect6002-5-8"
         y="79.199997"
         x="54"
         width="334.79999"
         height="613.79999" />
    </clipPath>
    <clipPath
       id="clipPath6008-3-7">
      <rect
         id="rect6006-5-92"
         y="79.199997"
         x="54"
         width="334.79999"
         height="613.79999" />
    </clipPath>
    <clipPath
       id="clipPath6012-6-0">
      <rect
         id="rect6010-2-2"
         y="79.199997"
         x="54"
         width="334.79999"
         height="613.79999" />
    </clipPath>
    <clipPath
       id="p594bf549dd-0-3">
      <rect
         height="613.79999"
         width="334.79999"
         x="54"
         y="79.199997"
         id="rect409-9-7" />
    </clipPath>
    <clipPath
       id="clipPath6004-3-5">
      <rect
         height="613.79999"
         width="334.79999"
         x="54"
         y="79.199997"
         id="rect6002-6-9" />
    </clipPath>
    <clipPath
       id="clipPath6008-0-9">
      <rect
         height="613.79999"
         width="334.79999"
         x="54"
         y="79.199997"
         id="rect6006-6-3" />
    </clipPath>
    <clipPath
       id="clipPath6012-2-1">
      <rect
         height="613.79999"
         width="334.79999"
         x="54"
         y="79.199997"
         id="rect6010-6-9" />
    </clipPath>
    <clipPath
       id="p594bf549dd-7535">
      <rect
         height="613.79999"
         width="334.79999"
         x="54"
         y="79.199997"
         id="rect409-62" />
    </clipPath>
    <clipPath
       id="clipPath6004-9">
      <rect
         height="613.79999"
         width="334.79999"
         x="54"
         y="79.199997"
         id="rect6002-12" />
    </clipPath>
    <clipPath
       id="clipPath6008-7">
      <rect
         height="613.79999"
         width="334.79999"
         x="54"
         y="79.199997"
         id="rect6006-09" />
    </clipPath>
    <clipPath
       id="clipPath6012-3">
      <rect
         height="613.79999"
         width="334.79999"
         x="54"
         y="79.199997"
         id="rect6010-606" />
    </clipPath>
    <clipPath
       id="p594bf549dd-7-2">
      <rect
         id="rect409-5-61"
         y="79.199997"
         x="54"
         width="334.79999"
         height="613.79999" />
    </clipPath>
    <clipPath
       id="clipPath6004-3-8">
      <rect
         id="rect6002-5-79"
         y="79.199997"
         x="54"
         width="334.79999"
         height="613.79999" />
    </clipPath>
    <clipPath
       id="clipPath6008-62">
      <rect
         id="rect6006-9-2"
         y="79.199997"
         x="54"
         width="334.79999"
         height="613.79999" />
    </clipPath>
    <clipPath
       id="clipPath6012-1-0">
      <rect
         id="rect6010-2-23"
         y="79.199997"
         x="54"
         width="334.79999"
         height="613.79999" />
    </clipPath>
    <clipPath
       id="p594bf549dd-6-7">
      <rect
         height="613.79999"
         width="334.79999"
         x="54"
         y="79.199997"
         id="rect409-0" />
    </clipPath>
    <clipPath
       id="clipPath6004-6-5">
      <rect
         height="613.79999"
         width="334.79999"
         x="54"
         y="79.199997"
         id="rect6002-2-9" />
    </clipPath>
    <clipPath
       id="clipPath6008-6-2">
      <rect
         height="613.79999"
         width="334.79999"
         x="54"
         y="79.199997"
         id="rect6006-1-2" />
    </clipPath>
    <clipPath
       id="clipPath6012-8">
      <rect
         height="613.79999"
         width="334.79999"
         x="54"
         y="79.199997"
         id="rect6010-7" />
    </clipPath>
    <clipPath
       id="p594bf549dd-75356">
      <rect
         height="613.79999"
         width="334.79999"
         x="54"
         y="79.199997"
         id="rect409-29" />
    </clipPath>
    <clipPath
       id="clipPath6004-1">
      <rect
         height="613.79999"
         width="334.79999"
         x="54"
         y="79.199997"
         id="rect6002-27" />
    </clipPath>
    <clipPath
       id="clipPath6008-09">
      <rect
         height="613.79999"
         width="334.79999"
         x="54"
         y="79.199997"
         id="rect6006-3" />
    </clipPath>
    <clipPath
       id="clipPath6012-60">
      <rect
         height="613.79999"
         width="334.79999"
         x="54"
         y="79.199997"
         id="rect6010-62" />
    </clipPath>
  </defs>
  <sodipodi:namedview
     id="base"
     pagecolor="#ffffff"
     bordercolor="#666666"
     borderopacity="1.0"
     inkscape:pageopacity="0"
     inkscape:pageshadow="2"
     inkscape:zoom="0.45254834"
     inkscape:cx="608.02915"
     inkscape:cy="438.30867"
     inkscape:document-units="mm"
     inkscape:current-layer="layer1"
     showgrid="false"
     width="400mm"
     inkscape:window-width="1916"
     inkscape:window-height="1033"
     inkscape:window-x="1920"
     inkscape:window-y="22"
     inkscape:window-maximized="0"
     fit-margin-top="1"
     fit-margin-left="1"
     fit-margin-right="1"
     fit-margin-bottom="1" />
  <metadata
     id="metadata5">
    <rdf:RDF>
      <cc:Work
         rdf:about="">
        <dc:format>image/svg+xml</dc:format>
        <dc:type
           rdf:resource="http://purl.org/dc/dcmitype/StillImage" />
        <dc:title></dc:title>
      </cc:Work>
    </rdf:RDF>
  </metadata>
  <g
     inkscape:label="Layer 1"
     inkscape:groupmode="layer"
     id="layer1"
     transform="translate(0.5,-207.49878)">
    <g
       id="g1060">
      <path
         d="M 107.22021,253.42347 H 74.225448 q 0.366609,7.60714 4.765912,11.73148 4.490953,4.12435 10.081732,4.12435 5.59078,0 9.531822,-2.38296 4.032696,-2.38296 5.407476,-4.67425 0.73322,-0.91653 1.64974,-0.27497 l 2.4746,2.47462 q 0.54992,0.5499 0.54992,1.00818 0,0.36659 -0.45826,1.00816 -0.36661,0.64157 -1.64974,2.01636 -1.28313,1.37478 -3.66609,3.11616 -2.2913,1.7414 -6.049036,2.93288 -3.666086,1.19147 -7.882085,1.19147 -9.623472,0 -16.130772,-6.324 -6.415649,-6.32399 -6.415649,-16.95566 0,-10.7233 6.415649,-16.864 6.415648,-6.23235 15.672513,-6.23235 9.348516,0 14.66434,6.04905 5.31582,5.95739 5.31582,16.13078 0,0.36661 0,0.73322 0,1.19148 -1.28313,1.19148 z m -6.32399,-5.59078 q -0.27496,-5.68244 -3.574435,-9.07357 -3.299478,-3.39113 -8.798605,-3.39113 -5.499128,0 -9.440169,3.11618 -3.941041,3.11617 -4.674257,9.34852 z"
         style="font-style:normal;font-variant:normal;font-weight:normal;font-stretch:normal;font-size:98.77777863px;line-height:6.61458302px;font-family:Sanchez;-inkscape-font-specification:Sanchez;letter-spacing:-5.54831266px;word-spacing:0px;fill:#212121;fill-opacity:1;stroke:none;stroke-width:0.24427935px;stroke-linecap:butt;stroke-linejoin:miter;stroke-opacity:1"
         id="path4528"
         inkscape:connector-curvature="0" />
      <path
         d="m 159.27309,275.05338 h -8.70695 q -3.94104,0 -3.94104,-3.84939 v -24.10452 q 0,-5.31583 -2.56626,-8.24869 -2.56626,-2.93288 -7.51547,-2.93288 -7.05722,0 -10.99826,5.77409 -0.45826,0.54991 -1.19148,2.01636 v 25.20434 h 4.85757 q 1.19148,0 1.19148,1.09982 v 3.94105 q 0,1.09982 -1.19148,1.09982 h -17.50556 q -1.19148,0 -1.19148,-1.09982 v -3.94105 q 0,-1.09982 1.19148,-1.09982 h 5.04087 v -32.81148 h -5.04087 q -1.19148,0 -1.19148,-1.09982 v -3.94106 q 0,-1.09982 1.19148,-1.09982 h 10.7233 q 1.19148,0 1.19148,1.09982 l -0.18331,6.23236 h 0.27496 q 4.76591,-7.97375 14.75599,-7.97375 7.33217,0 11.45652,4.30766 4.12434,4.30766 4.21599,11.63984 v 23.64625 h 5.13252 q 1.19148,0 1.19148,1.09982 v 3.94105 q 0,1.09982 -1.19148,1.09982 z"
         style="font-style:normal;font-variant:normal;font-weight:normal;font-stretch:normal;font-size:98.77777863px;line-height:6.61458302px;font-family:Sanchez;-inkscape-font-specification:Sanchez;letter-spacing:-5.54831266px;word-spacing:0px;fill:#212121;fill-opacity:1;stroke:none;stroke-width:0.24427935px;stroke-linecap:butt;stroke-linejoin:miter;stroke-opacity:1"
         id="path4530"
         inkscape:connector-curvature="0" />
      <path
         d="m 181.58057,296.5 q -4.58261,0 -6.96556,-0.64157 -2.29131,-0.64156 -3.75774,-1.19147 -1.37478,-0.45826 -2.38296,-1.00818 -1.00817,-0.45826 -1.92469,-1.00817 -4.03269,-2.65792 -3.02452,-3.8494 l 2.38295,-3.39113 q 0.54991,-0.82487 1.55809,-0.0917 0.0917,0 0.54991,0.36661 0.54991,0.45827 1.00818,0.82487 0.54991,0.36661 1.37478,0.82487 0.91652,0.54991 2.01634,0.91653 1.09983,0.45825 2.38296,0.82486 3.02452,0.82488 6.6906,0.82488 6.59896,0 10.54,-3.20784 4.03269,-3.11616 4.03269,-9.89843 v -10.44834 q -1.64974,3.84938 -5.49913,6.59895 -3.75773,2.74956 -9.44016,2.74956 -9.34852,0 -15.03095,-6.5073 -5.59078,-6.5073 -5.59078,-16.86399 0,-10.35671 5.68243,-16.68071 5.77408,-6.32401 14.9393,-6.32401 5.68243,0 9.53182,2.65792 3.94104,2.56627 5.68243,6.32401 h 0.1833 l -0.0917,-7.24053 q 0,-1.09983 1.09983,-1.09983 h 10.81494 q 1.09984,0 1.09984,1.09983 v 3.94105 q 0,1.09982 -1.09984,1.09982 h -4.94921 v 40.69357 q 0,9.80679 -6.04904,14.75601 -5.95739,4.94921 -15.76416,4.94921 z m -13.56452,-43.99306 q 0,7.5155 4.0327,12.18976 4.03269,4.5826 10.08173,4.5826 6.04904,0 9.99008,-4.5826 4.0327,-4.58262 4.0327,-12.28141 0,-7.69877 -4.0327,-12.18973 -3.94104,-4.49096 -9.99008,-4.49096 -6.04904,0 -10.08173,4.58261 -4.0327,4.58262 -4.0327,12.18973 z"
         style="font-style:normal;font-variant:normal;font-weight:normal;font-stretch:normal;font-size:98.77777863px;line-height:6.61458302px;font-family:Sanchez;-inkscape-font-specification:Sanchez;letter-spacing:-5.54831266px;word-spacing:0px;fill:#212121;fill-opacity:1;stroke:none;stroke-width:0.24427935px;stroke-linecap:butt;stroke-linejoin:miter;stroke-opacity:1"
         id="path4532"
         inkscape:connector-curvature="0" />
      <path
         d="m 248.64005,269.2793 q -6.41565,6.41565 -16.40572,6.41565 -9.9901,0 -16.40574,-6.324 -6.41566,-6.41566 -6.41566,-16.95566 0,-10.63165 6.50732,-16.864 6.50729,-6.23235 16.31408,-6.23235 9.89842,0 16.31406,6.32401 6.50731,6.23236 6.50731,16.77234 0,10.44836 -6.41565,16.86401 z m -31.52833,-16.86401 q 0,7.51548 4.3993,12.18975 4.3993,4.67426 10.72331,4.67426 6.41563,0 10.81494,-4.67426 4.3993,-4.67427 4.3993,-12.18975 0,-7.51546 -4.49095,-12.09808 -4.3993,-4.58261 -10.63165,-4.58261 -6.23235,0 -10.7233,4.58261 -4.49095,4.58262 -4.49095,12.09808 z"
         style="font-style:normal;font-variant:normal;font-weight:normal;font-stretch:normal;font-size:98.77777863px;line-height:6.61458302px;font-family:Sanchez;-inkscape-font-specification:Sanchez;letter-spacing:-5.54831266px;word-spacing:0px;fill:#212121;fill-opacity:1;stroke:none;stroke-width:0.24427935px;stroke-linecap:butt;stroke-linejoin:miter;stroke-opacity:1"
         id="path4534"
         inkscape:connector-curvature="0" />
      <g
         id="g1045">
        <path
           style="color:#000000;font-style:normal;font-variant:normal;font-weight:normal;font-stretch:normal;font-size:medium;line-height:normal;font-family:sans-serif;text-indent:0;text-align:start;text-decoration:none;text-decoration-line:none;text-decoration-style:solid;text-decoration-color:#000000;letter-spacing:normal;word-spacing:normal;text-transform:none;writing-mode:lr-tb;direction:ltr;baseline-shift:baseline;text-anchor:start;white-space:normal;clip-rule:nonzero;display:inline;overflow:visible;visibility:visible;opacity:1;isolation:auto;mix-blend-mode:normal;color-interpolation:sRGB;color-interpolation-filters:linearRGB;solid-color:#000000;solid-opacity:1;fill:#9875b9;fill-opacity:1;fill-rule:nonzero;stroke:none;stroke-width:6.19988155;stroke-linecap:butt;stroke-linejoin:round;stroke-miterlimit:100;stroke-dasharray:none;stroke-dashoffset:0;stroke-opacity:1;color-rendering:auto;image-rendering:auto;shape-rendering:auto;text-rendering:auto;enable-background:accumulate"
           d="m 35.416243,257.5264 -0.688124,-0.25916 c -0.004,-0.001 -0.0081,-0.003 -0.01194,-0.004 l -0.76395,-0.28512 c -0.003,-10e-4 -0.0068,-0.003 -0.0098,-0.004 l -0.763949,-0.28149 c -0.003,-0.001 -0.0073,-0.003 -0.0104,-0.004 l -0.76395,-0.27783 c -0.003,-10e-4 -0.0048,-0.003 -0.0078,-0.004 l -0.763946,-0.27577 c -0.003,-0.001 -0.0073,-0.003 -0.0104,-0.004 l -0.763946,-0.27369 c -0.003,-8e-4 -0.0048,-0.001 -0.0078,-0.002 l -0.76395,-0.27161 c -0.003,-0.001 -0.0053,-0.003 -0.0083,-0.004 l -0.763946,-0.26798 c -0.0021,-0.001 -0.0042,-0.003 -0.0062,-0.004 l -0.763949,-0.26589 c -0.003,-8.1e-4 -0.0048,-0.001 -0.0078,-0.002 l -0.763947,-0.2659 c -0.0021,-8.1e-4 -0.0042,-0.001 -0.0062,-0.002 l -0.76395,-0.26383 c -0.003,-7.9e-4 -0.0053,-0.001 -0.0083,-0.002 l -0.763948,-0.25968 c -0.002,-7.9e-4 -0.0037,-0.001 -0.0057,-0.002 l -0.763949,-0.25968 c -0.002,-7.9e-4 -0.0042,-0.001 -0.0062,-0.002 l -0.763949,-0.25812 -0.0041,-0.002 -0.763949,-0.25604 c -0.002,-7.9e-4 -0.0037,-0.001 -0.0057,-0.002 l -0.764471,-0.25396 c -0.002,-8e-4 -0.004,-0.001 -0.006,-0.002 l -0.76395,-0.25188 -0.004,-0.002 -0.76394,-0.24979 c -0.002,-8e-4 -0.004,-10e-4 -0.006,-0.002 l -0.76395,-0.25033 -0.004,-0.002 -0.76395,-0.24825 -0.004,-0.002 -0.76395,-0.24617 c -0.002,-7.9e-4 -0.004,-0.001 -0.006,-0.002 l -0.76395,-0.24616 -0.004,-0.002 -0.76395,-0.24409 -0.004,-0.002 -0.76395,-0.24201 -0.004,-0.002 -0.13191,-0.0415 v 6.54213 l 0.52921,0.17138 0.75771,0.24409 0.76032,0.24773 0.75823,0.24824 0.7598,0.25032 0.75823,0.2498 0.75824,0.25188 0.75772,0.25448 0.758232,0.25552 0.758236,0.25811 0.758236,0.25811 0.755639,0.25967 0.758237,0.26383 0.756158,0.26382 0.756159,0.2659 0.756157,0.27006 0.754083,0.26954 0.756158,0.27369 0.754082,0.27577 0.754083,0.27784 0.75252,0.28149 0.754082,0.28356 0.749925,0.28719 0.752525,0.2898 0.749928,0.29342 0.748368,0.29914 0.748367,0.30122 0.746291,0.30692 0.744214,0.31109 0.742139,0.31732 0.740576,0.32303 0.736423,0.32874 0.734346,0.33653 0.730713,0.34484 0.724478,0.3542 0.718765,0.36458 0.712535,0.37392 0.701109,0.39002 0.687085,0.40353 0.665795,0.42118 0.637749,0.443 0.58893,0.4591 0.502201,0.46636 0.07686,0.093 1.994783,4.37129 -2.051911,-5.83842 -0.382235,-0.69696 -0.604512,-0.8569 -0.649693,-0.79927 -0.675141,-0.75824 -0.695395,-0.7224 -0.7089,-0.69487 -0.716688,-0.67359 -0.722402,-0.65593 -0.728632,-0.63774 -0.732789,-0.62426 -0.737981,-0.61229 -0.738501,-0.60088 -0.742655,-0.59256 -0.742138,-0.58063 -0.746291,-0.57491 -0.746291,-0.56712 -0.748367,-0.56141 -0.74785,-0.55309 z"
           id="path4566"
           inkscape:connector-curvature="0" />
        <path
           style="color:#000000;font-style:normal;font-variant:normal;font-weight:normal;font-stretch:normal;font-size:medium;line-height:normal;font-family:sans-serif;text-indent:0;text-align:start;text-decoration:none;text-decoration-line:none;text-decoration-style:solid;text-decoration-color:#000000;letter-spacing:normal;word-spacing:normal;text-transform:none;writing-mode:lr-tb;direction:ltr;baseline-shift:baseline;text-anchor:start;white-space:normal;clip-rule:nonzero;display:inline;overflow:visible;visibility:visible;opacity:1;isolation:auto;mix-blend-mode:normal;color-interpolation:sRGB;color-interpolation-filters:linearRGB;solid-color:#000000;solid-opacity:1;fill:#7647a2;fill-opacity:1;fill-rule:nonzero;stroke:none;stroke-width:6.19988155;stroke-linecap:butt;stroke-linejoin:round;stroke-miterlimit:100;stroke-dasharray:none;stroke-dashoffset:0;stroke-opacity:1;color-rendering:auto;image-rendering:auto;shape-rendering:auto;text-rendering:auto;enable-background:accumulate"
           d="m 32.425886,247.81993 -0.108541,-0.0733 c -0.003,-0.002 -0.0048,-0.004 -0.0078,-0.006 L 31.545596,247.227 c -0.003,-0.002 -0.0073,-0.004 -0.0104,-0.006 l -0.76395,-0.50999 c -0.003,-0.002 -0.0047,-0.004 -0.0078,-0.006 l -0.763948,-0.50376 c -0.003,-0.002 -0.0073,-0.004 -0.0104,-0.006 l -0.76395,-0.5022 c -0.003,-0.002 -0.0048,-0.004 -0.0078,-0.006 l -0.763947,-0.49804 c -0.003,-0.001 -0.0053,-0.003 -0.0083,-0.004 l -0.76395,-0.49649 c -0.003,-0.001 -0.0053,-0.003 -0.0083,-0.004 l -0.76187,-0.49233 c -0.003,-0.002 -0.0048,-0.004 -0.0078,-0.006 l -0.763949,-0.48817 c -0.003,-0.001 -0.0053,-0.003 -0.0083,-0.004 l -0.763948,-0.48611 c -0.003,-0.001 -0.0048,-0.003 -0.0078,-0.004 l -0.762392,-0.48454 c -0.003,-0.001 -0.0048,-0.003 -0.0078,-0.004 l -0.763948,-0.48039 c -0.003,-0.001 -0.0053,-0.003 -0.0083,-0.004 l -0.761874,-0.47676 c -0.003,-0.001 -0.005,-0.003 -0.008,-0.004 l -0.76395,-0.47416 c -0.002,-0.001 -0.004,-0.003 -0.006,-0.004 l -0.76394,-0.4726 c -0.002,-0.001 -0.004,-0.003 -0.006,-0.004 l -0.76395,-0.46843 c -0.003,-0.001 -0.005,-0.003 -0.008,-0.004 l -0.76395,-0.46689 c -0.002,-0.001 -0.004,-0.003 -0.006,-0.004 l -0.76031,-0.46118 c -0.002,-0.001 -0.004,-0.003 -0.006,-0.004 l -0.76395,-0.46065 c -0.002,-0.001 -0.004,-0.003 -0.006,-0.004 l -0.76395,-0.46066 c -0.002,-7.9e-4 -0.004,-0.001 -0.006,-0.002 l -0.76395,-0.45701 c -0.002,-0.001 -0.004,-0.003 -0.006,-0.004 l -0.0229,-0.0136 v 7.27597 l 0.62165,0.37911 0.75824,0.4648 0.75616,0.46845 0.75771,0.47052 0.75616,0.4726 0.75824,0.47468 0.75616,0.47831 0.75616,0.48247 0.756153,0.48246 0.756159,0.48819 0.756159,0.49026 0.756158,0.49233 0.75564,0.49649 0.754598,0.50012 0.756159,0.50376 0.754081,0.50635 0.754083,0.51 0.754078,0.51363 0.754083,0.51986 0.752004,0.52193 0.752525,0.52765 0.752001,0.53181 0.752004,0.53751 0.750446,0.54167 0.750447,0.54739 0.74785,0.5531 0.748367,0.5614 0.746291,0.56712 0.746291,0.57491 0.742138,0.58063 0.742655,0.59256 0.738501,0.60088 0.737981,0.6123 0.732788,0.62425 0.728633,0.63774 0.722403,0.65593 0.716687,0.67359 0.7089,0.69487 0.695394,0.7224 0.675141,0.75825 0.649695,0.79926 0.604512,0.85691 0.382234,0.69696 2.047237,5.82595 -2.075282,-6.9654 -0.529725,-1.26251 -0.665793,-1.27186 -0.6928,-1.17371 -0.710977,-1.10463 -0.718765,-1.05531 -0.728635,-1.01583 -0.732267,-0.98674 -0.736424,-0.96078 -0.740578,-0.93948 -0.742138,-0.91923 -0.744211,-0.90418 -0.746294,-0.88755 -0.746291,-0.87665 -0.750444,-0.86055 -0.748368,-0.85067 -0.749929,-0.84029 -0.750444,-0.83095 -0.752006,-0.81952 -0.752001,-0.81328 -0.752525,-0.80342 -0.752004,-0.79511 z"
           id="path4571"
           inkscape:connector-curvature="0" />
        <path
           style="color:#000000;font-style:normal;font-variant:normal;font-weight:normal;font-stretch:normal;font-size:medium;line-height:normal;font-family:sans-serif;text-indent:0;text-align:start;text-decoration:none;text-decoration-line:none;text-decoration-style:solid;text-decoration-color:#000000;letter-spacing:normal;word-spacing:normal;text-transform:none;writing-mode:lr-tb;direction:ltr;baseline-shift:baseline;text-anchor:start;white-space:normal;clip-rule:nonzero;display:inline;overflow:visible;visibility:visible;opacity:1;isolation:auto;mix-blend-mode:normal;color-interpolation:sRGB;color-interpolation-filters:linearRGB;solid-color:#000000;solid-opacity:1;fill:#541a8b;fill-opacity:1;fill-rule:nonzero;stroke:none;stroke-width:6.19988155;stroke-linecap:butt;stroke-linejoin:round;stroke-miterlimit:100;stroke-dasharray:none;stroke-dashoffset:0;stroke-opacity:1;color-rendering:auto;image-rendering:auto;shape-rendering:auto;text-rendering:auto;enable-background:accumulate"
           d="m 16.86543,232.90189 0.18021,0.15944 0.75616,0.67358 0.75408,0.6793 0.75616,0.68293 0.75616,0.68761 0.75616,0.6928 0.75564,0.69695 0.7546,0.70319 0.75616,0.7089 0.755635,0.71253 0.754601,0.71876 0.756158,0.72293 0.754081,0.73019 0.754082,0.73487 0.756158,0.74214 0.754082,0.74629 0.754081,0.75408 0.75408,0.75823 0.754082,0.76759 0.754082,0.77226 0.752523,0.77952 0.75408,0.78785 0.752004,0.7951 0.752524,0.80343 0.752002,0.81328 0.752006,0.81951 0.750443,0.83096 0.74993,0.84028 0.748367,0.85068 0.750445,0.86055 0.74629,0.87665 0.746295,0.88755 0.744211,0.90416 0.742137,0.91924 0.740579,0.93948 0.736424,0.96079 0.732266,0.98674 0.728636,1.01583 0.718765,1.0553 0.710977,1.10464 0.6928,1.1737 0.665793,1.27187 0.529725,1.26251 2.079437,6.97837 -2.097093,-8.19154 -0.624247,-1.91585 -0.70682,-1.79588 -0.725001,-1.65202 -0.732266,-1.5575 -0.738501,-1.49258 -0.742138,-1.43909 -0.746291,-1.39651 -0.74629,-1.36222 -0.748371,-1.33107 -0.750444,-1.30563 -0.749926,-1.28017 -0.752005,-1.25992 -0.752524,-1.23655 -0.752002,-1.22097 -0.754082,-1.20122 -0.752523,-1.18514 -0.75408,-1.16955 -0.752006,-1.15398 -0.754081,-1.13995 -0.75408,-1.12644 -0.01454,-0.0228 -0.549461,-0.54791 c -0.003,-0.003 -0.0053,-0.007 -0.0083,-0.01 l -0.763948,-0.75617 -0.0098,-0.0104 -0.763949,-0.74993 c -0.003,-0.003 -0.0073,-0.005 -0.0104,-0.008 l -0.761874,-0.74421 -0.0098,-0.01 -0.763947,-0.73642 c -0.003,-0.003 -0.0053,-0.007 -0.0083,-0.0104 l -0.76395,-0.73227 c -0.003,-0.003 -0.0068,-0.005 -0.0098,-0.008 l -0.763948,-0.72656 -0.0083,-0.008 -0.763947,-0.72083 -0.0083,-0.008 -0.76395,-0.7167 -0.0078,-0.008 -0.763949,-0.71097 c -0.003,-0.003 -0.0073,-0.005 -0.01038,-0.008 l -0.761871,-0.70475 c -0.003,-0.003 -0.0073,-0.005 -0.01038,-0.008 l -0.763949,-0.69902 -0.0078,-0.008 -0.763948,-0.69488 -0.0083,-0.008 -0.763949,-0.69124 c -0.003,-0.002 -0.005,-0.004 -0.008,-0.006 l -0.76395,-0.68553 -0.009,-0.008 -0.76395,-0.68138 c -0.003,-0.002 -0.005,-0.004 -0.008,-0.006 l -0.76394,-0.67721 -0.008,-0.008 -0.76239,-0.67099 c -0.003,-0.002 -0.005,-0.004 -0.008,-0.006 l -0.76395,-0.66736 c -0.003,-0.002 -0.005,-0.004 -0.008,-0.006 l -0.76395,-0.66371 -0.008,-0.008 -0.76395,-0.65801 c -0.003,-0.002 -0.005,-0.004 -0.008,-0.006 l -0.45027,-0.38638 z"
           id="path4533"
           inkscape:connector-curvature="0" />
        <path
           style="color:#000000;font-style:normal;font-variant:normal;font-weight:normal;font-stretch:normal;font-size:medium;line-height:normal;font-family:sans-serif;text-indent:0;text-align:start;text-decoration:none;text-decoration-line:none;text-decoration-style:solid;text-decoration-color:#000000;letter-spacing:normal;word-spacing:normal;text-transform:none;writing-mode:lr-tb;direction:ltr;baseline-shift:baseline;text-anchor:start;white-space:normal;clip-rule:nonzero;display:inline;overflow:visible;visibility:visible;opacity:1;isolation:auto;mix-blend-mode:normal;color-interpolation:sRGB;color-interpolation-filters:linearRGB;solid-color:#000000;solid-opacity:1;fill:#212121;fill-opacity:1;fill-rule:nonzero;stroke:none;stroke-width:6.19988155;stroke-linecap:butt;stroke-linejoin:round;stroke-miterlimit:100;stroke-dasharray:none;stroke-dashoffset:0;stroke-opacity:1;color-rendering:auto;image-rendering:auto;shape-rendering:auto;text-rendering:auto;enable-background:accumulate"
           d="m 1.7085,208.50018 c -0.80587,0 -1.2085,0.37219 -1.2085,1.11607 v 4.74209 c 0,0.74388 0.40263,1.11554 1.2085,1.11554 h 7.06717 v 52.81584 H 1.7085 c -0.80587,0 -1.2085,0.37219 -1.2085,1.11607 v 4.74208 c 0,0.74388 0.40263,1.11555 1.2085,1.11555 h 22.316548 c 0.805872,0 1.209023,-0.37167 1.209023,-1.11555 v -4.74208 c 0,-0.74388 -0.403151,-1.11607 -1.209023,-1.11607 H 16.86543 v -45.74866 -4.50995 l 0.62165,0.74006 0.75408,0.90989 0.75408,0.91767 0.75616,0.92546 0.75408,0.93325 0.75616,0.94313 0.75408,0.95299 0.7546,0.96077 0.755643,0.97065 0.7546,0.98103 0.754082,0.9883 0.756158,1.00025 0.754081,1.01012 0.754081,1.01998 0.756159,1.02986 0.754081,1.0418 0.754083,1.05322 0.754078,1.06308 0.754082,1.07556 0.756159,1.08854 0.754081,1.09892 0.754601,1.1145 0.754082,1.12645 0.754079,1.13995 0.752005,1.15398 0.754083,1.16955 0.75252,1.18513 0.754082,1.20123 0.752005,1.22098 0.752524,1.23654 0.752003,1.25992 0.749926,1.28018 0.750446,1.30561 0.748368,1.33107 0.746291,1.36223 0.746291,1.39651 0.742138,1.43909 0.738499,1.49259 0.73227,1.55749 0.724998,1.65202 0.70682,1.79588 0.624248,1.91584 2.097093,8.19156 h 1.23499 1.859754 5.020976 c 0.805875,0 1.209024,-0.37219 1.209024,-1.11607 V 215.4744 h 7.159617 c 0.743881,0 1.116059,-0.37218 1.116059,-1.11606 v -4.74209 c 0,-0.74388 -0.372178,-1.11607 -1.116059,-1.11607 H 44.296433 c -0.743881,0 -1.116062,0.37219 -1.116062,1.11607 v 4.74209 c 0,0.74388 0.372181,1.11606 1.116062,1.11606 h 7.159617 v 43.04965 l -0.494931,-1.0527 c -0.009,-0.0192 -0.01813,-0.0381 -0.02753,-0.0571 l -0.763951,-1.54192 c -0.008,-0.0151 -0.01542,-0.0303 -0.02338,-0.0452 l -0.76395,-1.48272 c -0.006,-0.0125 -0.01309,-0.025 -0.01973,-0.0374 l -0.763947,-1.43131 c -0.006,-0.0111 -0.01223,-0.0227 -0.01819,-0.0338 l -0.763949,-1.39184 c -0.005,-0.01 -0.01032,-0.0199 -0.01558,-0.0296 l -0.76395,-1.35859 c -0.005,-0.008 -0.0092,-0.0174 -0.01401,-0.0259 l -0.76395,-1.32899 c -0.005,-0.007 -0.0087,-0.0146 -0.01351,-0.0218 l -0.763941,-1.30354 c -0.004,-0.007 -0.0081,-0.0141 -0.01194,-0.0213 l -0.76395,-1.28017 c -0.004,-0.007 -0.0081,-0.0132 -0.01194,-0.0197 l -0.763949,-1.25785 c -0.004,-0.006 -0.0081,-0.0123 -0.01194,-0.0182 l -0.76395,-1.23862 c -0.004,-0.006 -0.0081,-0.0117 -0.01194,-0.0177 l -0.763949,-1.21888 c -0.003,-0.006 -0.0068,-0.0117 -0.0098,-0.0177 l -0.76395,-1.20123 c -0.003,-0.006 -0.0073,-0.0118 -0.0104,-0.0177 l -0.763948,-1.18514 c -0.003,-0.005 -0.0068,-0.0108 -0.0098,-0.0161 l -0.76395,-1.16956 c -0.003,-0.005 -0.0073,-0.0102 -0.0104,-0.0156 l -0.763948,-1.15605 c -0.003,-0.005 -0.0068,-0.009 -0.0098,-0.0135 l -0.763948,-1.14203 c -0.003,-0.005 -0.0073,-0.009 -0.0104,-0.014 L 37.7337,235.23416 c -0.003,-0.005 -0.0068,-0.009 -0.0098,-0.0135 l -0.76395,-1.1145 c -0.003,-0.005 -0.0073,-0.009 -0.0104,-0.014 l -0.763949,-1.10256 c -0.003,-0.004 -0.0068,-0.008 -0.0098,-0.012 l -0.761871,-1.09061 c -0.003,-0.004 -0.0073,-0.008 -0.0104,-0.012 l -0.763948,-1.07711 c -0.003,-0.005 -0.0068,-0.009 -0.0098,-0.0135 l -0.76395,-1.06517 c -0.003,-0.004 -0.0053,-0.008 -0.0083,-0.012 l -0.763946,-1.0553 c -0.003,-0.004 -0.0068,-0.008 -0.0098,-0.012 l -0.763947,-1.04337 c -0.003,-0.004 -0.0073,-0.008 -0.0104,-0.012 l -0.763948,-1.03401 c -0.003,-0.004 -0.0048,-0.008 -0.0078,-0.0114 l -0.764469,-1.02206 c -0.003,-0.004 -0.0068,-0.008 -0.0098,-0.012 l -0.763945,-1.01168 c -0.003,-0.004 -0.0053,-0.008 -0.0083,-0.012 l -0.76395,-1.00025 c -0.003,-0.004 -0.0068,-0.008 -0.0098,-0.012 l -0.76395,-0.99246 c -0.003,-0.004 -0.0053,-0.008 -0.0083,-0.0115 l -0.763946,-0.98259 c -0.003,-0.004 -0.0068,-0.008 -0.0098,-0.012 l -0.763949,-0.97272 c -0.003,-0.003 -0.0053,-0.007 -0.0083,-0.0101 l -0.763948,-0.96493 -0.0098,-0.01 -0.763948,-0.95507 c -0.003,-0.004 -0.0053,-0.008 -0.0083,-0.0119 l -0.763949,-0.9452 -0.0098,-0.01 -0.763948,-0.93741 c -0.003,-0.004 -0.0053,-0.008 -0.0083,-0.0119 l -0.763949,-0.92754 -0.01,-0.01 -0.76395,-0.91975 c -0.003,-0.004 -0.005,-0.008 -0.008,-0.0114 l -0.76395,-0.91196 -0.01,-0.01 -0.76239,-0.90365 -0.01,-0.0104 -0.76395,-0.89379 c -0.003,-0.004 -0.005,-0.008 -0.008,-0.0119 l -0.76395,-0.88599 -0.01,-0.01 -0.76395,-0.88028 c -0.003,-0.003 -0.005,-0.007 -0.008,-0.0104 l -0.76398,-0.87198 -0.01,-0.0104 c -0.2523,-0.2875 -0.50545,-0.57531 -0.75668,-0.86314 z"
           id="path4546"
           inkscape:connector-curvature="0"
           sodipodi:nodetypes="ssssccssssssssccccccccccccccccccccccccccccccccccccccccccccccccsscsssssssscccccccccccccccccccccccccccccccccccccccccccccccccccccccccccccccccccccccccccccccccccccccccccs" />
      </g>
      <path
         d="m 288.65086,275.85491 h -25.36321 q -1.19465,0 -1.19465,-1.10275 v -4.68668 q 0,-1.10275 1.19465,-1.10275 h 6.98406 v -52.19679 h -6.98406 q -1.19465,0 -1.19465,-1.10275 v -4.68668 q 0,-1.10275 1.19465,-1.10275 h 47.14249 q 1.19465,0 1.19465,1.10275 v 14.79521 q 0,1.19465 -1.19465,1.19465 h -4.96237 q -1.10275,0 -1.10275,-1.19465 v -9.00578 h -26.09837 v 22.79014 h 21.59548 q 1.19464,0 1.19464,1.10275 v 4.68669 q 0,1.10275 -1.19464,1.10275 h -21.59548 v 22.51446 h 10.38421 q 1.10275,0 1.10275,1.10275 v 4.68668 q 0,1.10275 -1.10275,1.10275 z"
         style="font-style:normal;font-variant:normal;font-weight:normal;font-stretch:normal;font-size:91.44000244px;line-height:1.25;font-family:Sanchez;-inkscape-font-specification:Sanchez;letter-spacing:-4.66989565px;word-spacing:0px;fill:#541a8b;fill-opacity:1;stroke:none;stroke-width:0.26458332"
         id="path4913"
         inkscape:connector-curvature="0" />
      <path
         d="M 339.83459,275.85491 H 315.8498 q -1.19464,0 -1.19464,-1.10275 v -4.68668 q 0,-1.10275 1.19464,-1.10275 h 6.98408 v -52.19679 h -6.98408 q -1.19464,0 -1.19464,-1.10275 v -4.68668 q 0,-1.10275 1.19464,-1.10275 h 28.30388 q 9.74096,0 15.89796,5.69753 6.24891,5.60564 6.24891,15.2547 0,9.55716 -6.06512,14.88711 -6.06511,5.23806 -17.09259,5.23806 H 330.8288 v 18.01157 h 9.00579 q 1.10275,0 1.10275,1.10275 v 4.68668 q 0,1.10275 -1.10275,1.10275 z m -9.00579,-31.42835 h 11.94646 q 15.43848,0 15.43848,-13.60057 0,-7.07598 -4.411,-10.56801 -4.3191,-3.49204 -10.93559,-3.49204 H 330.8288 Z"
         style="font-style:normal;font-variant:normal;font-weight:normal;font-stretch:normal;font-size:91.44000244px;line-height:1.25;font-family:Sanchez;-inkscape-font-specification:Sanchez;letter-spacing:-4.66989565px;word-spacing:0px;fill:#541a8b;fill-opacity:1;stroke:none;stroke-width:0.26458332"
         id="path4915"
         inkscape:connector-curvature="0" />
      <path
         d="m 428.0092,275.85491 h -4.87048 q -1.19464,0 -1.19464,-1.10275 l 0.0919,-6.34081 q -8.08682,8.08683 -21.59549,8.08683 -13.41677,0 -22.42255,-9.37337 -9.00578,-9.37336 -9.00578,-24.62806 0,-10.20043 4.50289,-17.91967 4.59478,-7.71924 11.57886,-11.48697 7.07596,-3.76773 15.25469,-3.76773 14.06004,0 20.21704,8.7301 l -0.0918,-7.07597 q -0.18379,-1.10275 1.10275,-1.10275 h 5.14616 q 1.19464,0 1.19464,1.10275 v 18.93052 q 0,1.10275 -1.19464,1.10275 h -5.78943 q -1.10274,0 -1.10274,-1.10275 v -1.10275 q 0,-4.04341 -5.60564,-7.99493 -5.51375,-3.95151 -14.15194,-3.95151 -8.6382,0 -15.62227,7.16786 -6.89218,7.07597 -6.89218,19.02242 0,11.85456 6.98408,18.83863 6.98406,6.89219 15.62226,6.89219 8.6382,0 13.60057,-2.75688 5.05426,-2.75687 7.53544,-6.5246 v -7.16786 h -17.09259 q -1.10275,0 -1.10275,-1.19465 v -4.2272 q 0,-1.10275 1.10275,-1.10275 h 23.80098 q 1.10275,0 1.10275,1.10275 v 27.84441 q 0,1.10275 -1.10275,1.10275 z"
         style="font-style:normal;font-variant:normal;font-weight:normal;font-stretch:normal;font-size:91.44000244px;line-height:1.25;font-family:Sanchez;-inkscape-font-specification:Sanchez;letter-spacing:-4.66989565px;word-spacing:0px;fill:#541a8b;fill-opacity:1;stroke:none;stroke-width:0.26458332"
         id="path4917"
         inkscape:connector-curvature="0" />
      <path
         d="m 498.50825,275.85491 h -20.76842 q -1.10275,0 -1.10275,-1.10275 v -4.68668 q 0,-1.10275 1.10275,-1.10275 h 6.43269 l -5.97321,-15.89797 H 452.5604 l -5.97321,15.89797 h 6.43269 q 1.10275,0 1.10275,1.10275 v 4.68668 q 0,1.10275 -1.10275,1.10275 h -20.67652 q -1.10275,0 -1.10275,-1.10275 v -4.68668 q 0,-1.10275 1.10275,-1.10275 h 6.157 l 19.75758,-52.19679 h -4.96237 q -1.19465,0 -1.19465,-1.10275 v -4.68668 q 0,-1.10275 1.19465,-1.10275 h 12.49782 q 2.20549,0 3.30824,0.91895 1.19464,0.91896 2.02171,3.03256 l 21.13601,55.13746 h 6.2489 q 1.10275,0 1.10275,1.10275 v 4.68668 q 0,1.10275 -1.10275,1.10275 z M 475.71812,246.72395 465.5177,219.43092 h -0.27568 l -10.29233,27.29303 z"
         style="font-style:normal;font-variant:normal;font-weight:normal;font-stretch:normal;font-size:91.44000244px;line-height:1.25;font-family:Sanchez;-inkscape-font-specification:Sanchez;letter-spacing:-4.66989565px;word-spacing:0px;fill:#541a8b;fill-opacity:1;stroke:none;stroke-width:0.26458332"
         id="path4919"
         inkscape:connector-curvature="0" />
    </g>
  </g>
</svg>
