<?xml version="1.0" encoding="UTF-8" standalone="no"?>
<!-- Created with Inkscape (http://www.inkscape.org/) -->

<svg
   xmlns:dc="http://purl.org/dc/elements/1.1/"
   xmlns:cc="http://creativecommons.org/ns#"
   xmlns:rdf="http://www.w3.org/1999/02/22-rdf-syntax-ns#"
   xmlns:svg="http://www.w3.org/2000/svg"
   xmlns="http://www.w3.org/2000/svg"
   xmlns:sodipodi="http://sodipodi.sourceforge.net/DTD/sodipodi-0.dtd"
   xmlns:inkscape="http://www.inkscape.org/namespaces/inkscape"
   width="702.16473mm"
   height="90.000008mm"
   viewBox="0 0 702.16474 90.000008"
   version="1.1"
   id="svg8"
   inkscape:version="0.92.3 (2405546, 2018-03-11)"
   sodipodi:docname="full-light.svg">
  <defs
     id="defs2">
    <clipPath
       id="p594bf549dd">
      <rect
         id="rect409"
         y="79.199997"
         x="54"
         width="334.79999"
         height="613.79999" />
    </clipPath>
    <clipPath
       id="clipPath6004">
      <rect
         id="rect6002"
         y="79.199997"
         x="54"
         width="334.79999"
         height="613.79999" />
    </clipPath>
    <clipPath
       id="clipPath6008">
      <rect
         id="rect6006"
         y="79.199997"
         x="54"
         width="334.79999"
         height="613.79999" />
    </clipPath>
    <clipPath
       id="clipPath6012">
      <rect
         id="rect6010"
         y="79.199997"
         x="54"
         width="334.79999"
         height="613.79999" />
    </clipPath>
    <clipPath
       id="p594bf549dd-3">
      <rect
         height="613.79999"
         width="334.79999"
         x="54"
         y="79.199997"
         id="rect409-6" />
    </clipPath>
    <clipPath
       id="clipPath6004-7">
      <rect
         height="613.79999"
         width="334.79999"
         x="54"
         y="79.199997"
         id="rect6002-5" />
    </clipPath>
    <clipPath
       id="clipPath6008-3">
      <rect
         height="613.79999"
         width="334.79999"
         x="54"
         y="79.199997"
         id="rect6006-5" />
    </clipPath>
    <clipPath
       id="clipPath6012-6">
      <rect
         height="613.79999"
         width="334.79999"
         x="54"
         y="79.199997"
         id="rect6010-2" />
    </clipPath>
    <clipPath
       id="p594bf549dd-0">
      <rect
         id="rect409-9"
         y="79.199997"
         x="54"
         width="334.79999"
         height="613.79999" />
    </clipPath>
    <clipPath
       id="clipPath6004-3">
      <rect
         id="rect6002-6"
         y="79.199997"
         x="54"
         width="334.79999"
         height="613.79999" />
    </clipPath>
    <clipPath
       id="clipPath6008-0">
      <rect
         id="rect6006-6"
         y="79.199997"
         x="54"
         width="334.79999"
         height="613.79999" />
    </clipPath>
    <clipPath
       id="clipPath6012-2">
      <rect
         id="rect6010-6"
         y="79.199997"
         x="54"
         width="334.79999"
         height="613.79999" />
    </clipPath>
    <clipPath
       id="p594bf549dd-7">
      <rect
         height="613.79999"
         width="334.79999"
         x="54"
         y="79.199997"
         id="rect409-5" />
    </clipPath>
    <clipPath
       id="clipPath6004-35">
      <rect
         height="613.79999"
         width="334.79999"
         x="54"
         y="79.199997"
         id="rect6002-62" />
    </clipPath>
    <clipPath
       id="clipPath6008-9">
      <rect
         height="613.79999"
         width="334.79999"
         x="54"
         y="79.199997"
         id="rect6006-1" />
    </clipPath>
    <clipPath
       id="clipPath6012-27">
      <rect
         height="613.79999"
         width="334.79999"
         x="54"
         y="79.199997"
         id="rect6010-0" />
    </clipPath>
  </defs>
  <sodipodi:namedview
     id="base"
     pagecolor="#ffffff"
     bordercolor="#666666"
     borderopacity="1.0"
     inkscape:pageopacity="0.0"
     inkscape:pageshadow="2"
     inkscape:zoom="0.31503306"
     inkscape:cx="858.88476"
     inkscape:cy="333.75281"
     inkscape:document-units="mm"
     inkscape:current-layer="layer1"
     showgrid="false"
     width="400mm"
     inkscape:window-width="1916"
     inkscape:window-height="1033"
     inkscape:window-x="1920"
     inkscape:window-y="22"
     inkscape:window-maximized="0"
     fit-margin-top="1"
     fit-margin-left="1"
     fit-margin-right="1"
     fit-margin-bottom="1" />
  <metadata
     id="metadata5">
    <rdf:RDF>
      <cc:Work
         rdf:about="">
        <dc:format>image/svg+xml</dc:format>
        <dc:type
           rdf:resource="http://purl.org/dc/dcmitype/StillImage" />
        <dc:title></dc:title>
      </cc:Work>
    </rdf:RDF>
  </metadata>
  <g
     inkscape:label="Layer 1"
     inkscape:groupmode="layer"
     id="layer1"
     transform="translate(0.50000854,-207.5)">
    <g
       id="g917">
      <path
         d="M 107.22028,253.42348 H 74.225491 q 0.366609,7.60713 4.765915,11.73148 4.490956,4.12434 10.081739,4.12434 5.590784,0 9.531829,-2.38295 4.032696,-2.38296 5.407476,-4.67426 0.73322,-0.91652 1.64974,-0.27496 l 2.47461,2.47461 q 0.54991,0.54991 0.54991,1.00818 0,0.3666 -0.45826,1.00816 -0.36661,0.64157 -1.64974,2.01636 -1.28313,1.37478 -3.66608,3.11617 -2.29131,1.74139 -6.049048,2.93287 -3.666088,1.19147 -7.882089,1.19147 -9.623479,0 -16.130784,-6.32399 -6.415653,-6.324 -6.415653,-16.95566 0,-10.72331 6.415653,-16.864 6.415653,-6.23235 15.672524,-6.23235 9.348523,0 14.664347,6.04905 5.31583,5.95738 5.31583,16.13078 0,0.36661 0,0.73322 0,1.19148 -1.28313,1.19148 z m -6.324,-5.59078 q -0.27496,-5.68245 -3.574437,-9.07357 -3.29948,-3.39113 -8.79861,-3.39113 -5.499132,0 -9.440177,3.11617 -3.941042,3.11618 -4.67426,9.34853 z"
         style="font-style:normal;font-variant:normal;font-weight:normal;font-stretch:normal;font-size:98.77777863px;line-height:6.61458302px;font-family:Sanchez;-inkscape-font-specification:Sanchez;letter-spacing:-5.54831266px;word-spacing:0px;fill:#212121;fill-opacity:1;stroke:none;stroke-width:0.24549691px;stroke-linecap:butt;stroke-linejoin:miter;stroke-opacity:1"
         id="path4528-7"
         inkscape:connector-curvature="0" />
      <path
         d="m 159.2732,275.05339 h -8.70696 q -3.94105,0 -3.94105,-3.84939 v -24.10453 q 0,-5.31582 -2.56626,-8.24869 -2.56626,-2.93288 -7.51548,-2.93288 -7.05721,0 -10.99826,5.77409 -0.45826,0.54992 -1.19148,2.01636 v 25.20435 h 4.85757 q 1.19148,0 1.19148,1.09982 v 3.94105 q 0,1.09982 -1.19148,1.09982 h -17.50557 q -1.19148,0 -1.19148,-1.09982 v -3.94105 q 0,-1.09982 1.19148,-1.09982 h 5.04087 v -32.81149 h -5.04087 q -1.19148,0 -1.19148,-1.09982 v -3.94106 q 0,-1.09981 1.19148,-1.09981 h 10.72331 q 1.19148,0 1.19148,1.09981 l -0.18331,6.23236 h 0.27496 q 4.76591,-7.97374 14.756,-7.97374 7.33218,0 11.45652,4.30765 4.12435,4.30767 4.216,11.63984 v 23.64626 h 5.13253 q 1.19148,0 1.19148,1.09982 v 3.94105 q 0,1.09982 -1.19148,1.09982 z"
         style="font-style:normal;font-variant:normal;font-weight:normal;font-stretch:normal;font-size:98.77777863px;line-height:6.61458302px;font-family:Sanchez;-inkscape-font-specification:Sanchez;letter-spacing:-5.54831266px;word-spacing:0px;fill:#212121;fill-opacity:1;stroke:none;stroke-width:0.24549691px;stroke-linecap:butt;stroke-linejoin:miter;stroke-opacity:1"
         id="path4530-9"
         inkscape:connector-curvature="0" />
      <path
         d="m 181.58068,296.50001 q -4.58261,0 -6.96556,-0.64158 -2.29131,-0.64156 -3.75774,-1.19146 -1.37478,-0.45827 -2.38296,-1.00818 -1.00817,-0.45827 -1.92469,-1.00817 -4.0327,-2.65793 -3.02453,-3.84941 l 2.38296,-3.39112 q 0.54991,-0.82488 1.55809,-0.0917 0.0916,0 0.54991,0.36661 0.54991,0.45826 1.00817,0.82487 0.54992,0.36661 1.37479,0.82487 0.91652,0.54991 2.01635,0.91653 1.09982,0.45825 2.38295,0.82486 3.02452,0.82488 6.69061,0.82488 6.59896,0 10.54,-3.20784 4.0327,-3.11617 4.0327,-9.89843 V 266.3464 q -1.64974,3.84938 -5.49913,6.59895 -3.75774,2.74955 -9.44018,2.74955 -9.34852,0 -15.03095,-6.50729 -5.59079,-6.5073 -5.59079,-16.864 0,-10.3567 5.68244,-16.68071 5.77408,-6.324 14.9393,-6.324 5.68244,0 9.53183,2.65792 3.94105,2.56627 5.68244,6.324 h 0.1833 l -0.0917,-7.24053 q 0,-1.09982 1.09982,-1.09982 h 10.81495 q 1.09984,0 1.09984,1.09982 v 3.94105 q 0,1.09982 -1.09984,1.09982 h -4.94921 v 40.69358 q 0,9.80678 -6.04904,14.75601 -5.9574,4.94921 -15.76418,4.94921 z m -13.56452,-43.99306 q 0,7.51549 4.0327,12.18976 4.03269,4.58259 10.08174,4.58259 6.04904,0 9.99009,-4.58259 4.03269,-4.58262 4.03269,-12.28141 0,-7.69878 -4.03269,-12.18973 -3.94105,-4.49096 -9.99009,-4.49096 -6.04905,0 -10.08174,4.5826 -4.0327,4.58262 -4.0327,12.18974 z"
         style="font-style:normal;font-variant:normal;font-weight:normal;font-stretch:normal;font-size:98.77777863px;line-height:6.61458302px;font-family:Sanchez;-inkscape-font-specification:Sanchez;letter-spacing:-5.54831266px;word-spacing:0px;fill:#212121;fill-opacity:1;stroke:none;stroke-width:0.24549691px;stroke-linecap:butt;stroke-linejoin:miter;stroke-opacity:1"
         id="path4532-2"
         inkscape:connector-curvature="0" />
      <path
         d="m 248.64021,269.2793 q -6.41565,6.41565 -16.40573,6.41565 -9.9901,0 -16.40575,-6.32399 -6.41566,-6.41566 -6.41566,-16.95566 0,-10.63165 6.50732,-16.864 6.5073,-6.23235 16.31409,-6.23235 9.89843,0 16.31407,6.324 6.50732,6.23236 6.50732,16.77235 0,10.44835 -6.41566,16.864 z m -31.52834,-16.864 q 0,7.51548 4.39929,12.18974 4.39931,4.67426 10.72332,4.67426 6.41565,0 10.81495,-4.67426 4.3993,-4.67426 4.3993,-12.18974 0,-7.51547 -4.49095,-12.09809 -4.3993,-4.5826 -10.63166,-4.5826 -6.23235,0 -10.7233,4.5826 -4.49095,4.58262 -4.49095,12.09809 z"
         style="font-style:normal;font-variant:normal;font-weight:normal;font-stretch:normal;font-size:98.77777863px;line-height:6.61458302px;font-family:Sanchez;-inkscape-font-specification:Sanchez;letter-spacing:-5.54831266px;word-spacing:0px;fill:#212121;fill-opacity:1;stroke:none;stroke-width:0.24549691px;stroke-linecap:butt;stroke-linejoin:miter;stroke-opacity:1"
         id="path4534-0"
         inkscape:connector-curvature="0" />
      <g
         id="g897">
        <path
           style="color:#000000;font-style:normal;font-variant:normal;font-weight:normal;font-stretch:normal;font-size:medium;line-height:normal;font-family:sans-serif;text-indent:0;text-align:start;text-decoration:none;text-decoration-line:none;text-decoration-style:solid;text-decoration-color:#000000;letter-spacing:normal;word-spacing:normal;text-transform:none;writing-mode:lr-tb;direction:ltr;baseline-shift:baseline;text-anchor:start;white-space:normal;clip-rule:nonzero;display:inline;overflow:visible;visibility:visible;opacity:1;isolation:auto;mix-blend-mode:normal;color-interpolation:sRGB;color-interpolation-filters:linearRGB;solid-color:#000000;solid-opacity:1;fill:#66d9eb;fill-opacity:1;fill-rule:nonzero;stroke:none;stroke-width:6.23078346;stroke-linecap:butt;stroke-linejoin:round;stroke-miterlimit:100;stroke-dasharray:none;stroke-dashoffset:0;stroke-opacity:1;color-rendering:auto;image-rendering:auto;shape-rendering:auto;text-rendering:auto;enable-background:accumulate"
           d="m 35.416258,257.5264 -0.688124,-0.25915 c -0.004,-10e-4 -0.0081,-0.003 -0.01194,-0.004 l -0.763949,-0.28513 c -0.003,-10e-4 -0.0068,-0.003 -0.0098,-0.004 l -0.76395,-0.28148 c -0.003,-10e-4 -0.0073,-0.003 -0.0104,-0.004 l -0.763951,-0.27784 c -0.003,-10e-4 -0.0048,-0.003 -0.0078,-0.004 l -0.763947,-0.27577 c -0.003,-0.001 -0.0073,-0.003 -0.0104,-0.004 l -0.763947,-0.27368 c -0.003,-8.1e-4 -0.0048,-0.001 -0.0078,-0.002 l -0.763951,-0.27161 c -0.003,-10e-4 -0.0053,-0.003 -0.0083,-0.004 l -0.763947,-0.26798 c -0.0021,-0.001 -0.0042,-0.003 -0.0062,-0.004 l -0.76395,-0.2659 c -0.003,-8e-4 -0.0048,-0.001 -0.0078,-0.002 l -0.763947,-0.2659 c -0.0021,-8e-4 -0.0042,-0.001 -0.0062,-0.002 l -0.763951,-0.26383 c -0.003,-7.9e-4 -0.0053,-0.001 -0.0083,-0.002 l -0.763948,-0.25967 c -0.002,-8e-4 -0.0037,-0.001 -0.0057,-0.002 l -0.76395,-0.25968 c -0.002,-8e-4 -0.0042,-0.001 -0.0062,-0.002 l -0.763949,-0.25812 -0.0041,-0.002 -0.76395,-0.25604 c -0.002,-8e-4 -0.0037,-10e-4 -0.0057,-0.002 l -0.764468,-0.25396 c -0.002,-8.1e-4 -0.0037,-0.001 -0.0057,-0.002 l -0.76395,-0.25188 -0.0041,-0.002 -0.763949,-0.2498 c -0.002,-7.9e-4 -0.0042,-10e-4 -0.0062,-0.002 l -0.76395,-0.25032 -0.0041,-0.002 -0.763949,-0.24825 -0.0036,-0.002 -0.76395,-0.24617 c -0.002,-8e-4 -0.0042,-0.001 -0.0062,-0.002 l -0.76395,-0.24616 -0.0041,-0.002 -0.763949,-0.24409 -0.0041,-0.002 -0.763949,-0.24201 -0.0041,-0.002 -0.131912,-0.0415 v 6.54213 l 0.529208,0.17138 0.757717,0.24409 0.760313,0.24773 0.758237,0.24824 0.759794,0.25032 0.758237,0.2498 0.758236,0.25188 0.757717,0.25448 0.758237,0.25552 0.758236,0.25811 0.758237,0.25811 0.75564,0.25966 0.758236,0.26383 0.756159,0.26382 0.75616,0.26591 0.756158,0.27006 0.754083,0.26954 0.756159,0.27368 0.754082,0.27577 0.754083,0.27785 0.752521,0.28148 0.754082,0.28356 0.749926,0.2872 0.752524,0.28979 0.74993,0.29343 0.748368,0.29913 0.748368,0.30123 0.746291,0.30692 0.744215,0.31109 0.742139,0.31731 0.740577,0.32304 0.736423,0.32874 0.734347,0.33653 0.730713,0.34484 0.724479,0.35419 0.718765,0.36458 0.712536,0.37393 0.701109,0.39002 0.687086,0.40352 0.665795,0.42119 0.63775,0.443 0.588931,0.45909 0.502201,0.46637 0.07686,0.093 1.994784,4.37129 -2.051913,-5.83843 -0.382234,-0.69696 -0.604512,-0.8569 -0.649695,-0.79927 -0.675141,-0.75823 -0.695396,-0.7224 -0.7089,-0.69488 -0.716688,-0.67359 -0.722403,-0.65592 -0.728633,-0.63775 -0.732789,-0.62425 -0.737982,-0.6123 -0.738501,-0.60088 -0.742656,-0.59256 -0.742138,-0.58063 -0.746292,-0.57491 -0.746291,-0.56711 -0.748368,-0.56142 -0.74785,-0.55309 z"
           id="path4566-3"
           inkscape:connector-curvature="0" />
        <path
           style="color:#000000;font-style:normal;font-variant:normal;font-weight:normal;font-stretch:normal;font-size:medium;line-height:normal;font-family:sans-serif;text-indent:0;text-align:start;text-decoration:none;text-decoration-line:none;text-decoration-style:solid;text-decoration-color:#000000;letter-spacing:normal;word-spacing:normal;text-transform:none;writing-mode:lr-tb;direction:ltr;baseline-shift:baseline;text-anchor:start;white-space:normal;clip-rule:nonzero;display:inline;overflow:visible;visibility:visible;opacity:1;isolation:auto;mix-blend-mode:normal;color-interpolation:sRGB;color-interpolation-filters:linearRGB;solid-color:#000000;solid-opacity:1;fill:#32cce4;fill-opacity:1;fill-rule:nonzero;stroke:none;stroke-width:6.23078346;stroke-linecap:butt;stroke-linejoin:round;stroke-miterlimit:100;stroke-dasharray:none;stroke-dashoffset:0;stroke-opacity:1;color-rendering:auto;image-rendering:auto;shape-rendering:auto;text-rendering:auto;enable-background:accumulate"
           d="m 32.4259,247.81993 -0.108541,-0.0733 c -0.003,-0.002 -0.0048,-0.004 -0.0078,-0.006 l -0.76395,-0.51363 c -0.003,-0.002 -0.0073,-0.004 -0.0104,-0.006 l -0.76395,-0.50999 c -0.003,-0.002 -0.0047,-0.004 -0.0078,-0.006 l -0.76395,-0.50375 c -0.003,-0.002 -0.0073,-0.004 -0.0104,-0.006 l -0.76395,-0.5022 c -0.003,-0.002 -0.0048,-0.004 -0.0078,-0.006 l -0.763948,-0.49804 c -0.003,-0.001 -0.0053,-0.003 -0.0083,-0.004 l -0.76395,-0.4965 c -0.003,-0.001 -0.0053,-0.003 -0.0083,-0.004 l -0.76187,-0.49233 c -0.003,-0.002 -0.0048,-0.004 -0.0078,-0.006 L 26.139,243.69784 c -0.003,-0.001 -0.0053,-0.003 -0.0083,-0.004 l -0.763949,-0.4861 c -0.003,-0.001 -0.0048,-0.003 -0.0078,-0.004 L 24.59656,242.7192 c -0.003,-0.001 -0.0048,-0.003 -0.0078,-0.004 l -0.763949,-0.4804 c -0.003,-0.001 -0.0053,-0.003 -0.0083,-0.004 l -0.761873,-0.47675 c -0.003,-0.001 -0.0053,-0.003 -0.0083,-0.004 l -0.763949,-0.47416 c -0.002,-0.001 -0.0037,-0.003 -0.0057,-0.004 l -0.763949,-0.47261 c -0.002,-0.001 -0.0042,-0.003 -0.0062,-0.004 l -0.763949,-0.46843 c -0.003,-0.001 -0.0053,-0.003 -0.0083,-0.004 l -0.76395,-0.46688 c -0.002,-0.001 -0.0037,-0.003 -0.0057,-0.004 l -0.760314,-0.46118 c -0.002,-0.001 -0.0042,-0.003 -0.0062,-0.004 l -0.763949,-0.46066 c -0.002,-0.001 -0.0042,-0.003 -0.0062,-0.004 l -0.763949,-0.46065 c -0.002,-8e-4 -0.0037,-0.001 -0.0057,-0.002 l -0.763949,-0.45702 c -0.002,-0.001 -0.0042,-0.003 -0.0062,-0.004 l -0.02285,-0.0136 v 7.27596 l 0.621651,0.37911 0.758236,0.46481 0.756159,0.46845 0.757717,0.47051 0.756159,0.47261 0.758237,0.47467 0.756159,0.47831 0.756159,0.48248 0.756159,0.48246 0.756159,0.48818 0.756159,0.49026 0.756159,0.49233 0.75564,0.4965 0.7546,0.50012 0.756159,0.50375 0.754082,0.50636 0.754083,0.51 0.754079,0.51362 0.754083,0.51986 0.752005,0.52194 0.752524,0.52765 0.752003,0.5318 0.752004,0.53752 0.750446,0.54167 0.750448,0.54738 0.74785,0.5531 0.748368,0.56141 0.746291,0.56711 0.746292,0.57491 0.742138,0.58063 0.742657,0.59256 0.7385,0.60088 0.737982,0.61231 0.732789,0.62424 0.728633,0.63775 0.722403,0.65593 0.716689,0.67358 0.708899,0.69488 0.695395,0.7224 0.675142,0.75824 0.649695,0.79926 0.604512,0.85691 0.382235,0.69696 2.047238,5.82596 -2.075283,-6.9654 -0.529725,-1.26251 -0.665795,-1.27187 -0.6928,-1.1737 -0.710977,-1.10464 -0.718765,-1.0553 -0.728636,-1.01583 -0.732268,-0.98674 -0.736423,-0.96078 -0.74058,-0.93949 -0.742138,-0.91923 -0.744212,-0.90417 -0.746294,-0.88755 -0.746292,-0.87665 -0.750444,-0.86055 -0.748369,-0.85068 -0.749929,-0.84029 -0.750445,-0.83095 -0.752006,-0.81951 -0.752002,-0.81329 -0.752525,-0.80341 -0.752005,-0.79511 z"
           id="path4571-7"
           inkscape:connector-curvature="0" />
        <path
           style="color:#000000;font-style:normal;font-variant:normal;font-weight:normal;font-stretch:normal;font-size:medium;line-height:normal;font-family:sans-serif;text-indent:0;text-align:start;text-decoration:none;text-decoration-line:none;text-decoration-style:solid;text-decoration-color:#000000;letter-spacing:normal;word-spacing:normal;text-transform:none;writing-mode:lr-tb;direction:ltr;baseline-shift:baseline;text-anchor:start;white-space:normal;clip-rule:nonzero;display:inline;overflow:visible;visibility:visible;opacity:1;isolation:auto;mix-blend-mode:normal;color-interpolation:sRGB;color-interpolation-filters:linearRGB;solid-color:#000000;solid-opacity:1;fill:#00c0de;fill-opacity:1;fill-rule:nonzero;stroke:none;stroke-width:6.23078346;stroke-linecap:butt;stroke-linejoin:round;stroke-miterlimit:100;stroke-dasharray:none;stroke-dashoffset:0;stroke-opacity:1;color-rendering:auto;image-rendering:auto;shape-rendering:auto;text-rendering:auto;enable-background:accumulate"
           d="m 16.865434,232.9019 0.180211,0.15944 0.756159,0.67358 0.754082,0.6793 0.756159,0.68292 0.75616,0.68761 0.756158,0.6928 0.75564,0.69696 0.754601,0.70318 0.756159,0.7089 0.75564,0.71253 0.754601,0.71877 0.756159,0.72292 0.754082,0.7302 0.754081,0.73486 0.75616,0.74214 0.754082,0.74629 0.754082,0.75408 0.754079,0.75823 0.754083,0.76759 0.754082,0.77226 0.752525,0.77953 0.754079,0.78784 0.752006,0.79511 0.752524,0.80342 0.752003,0.81329 0.752006,0.81951 0.750444,0.83095 0.74993,0.84029 0.748368,0.85068 0.750445,0.86055 0.746292,0.87664 0.746294,0.88755 0.744212,0.90417 0.742138,0.91924 0.740579,0.93948 0.736424,0.96078 0.732268,0.98675 0.728635,1.01582 0.718766,1.05531 0.710977,1.10464 0.6928,1.1737 0.665794,1.27187 0.529725,1.26251 2.07944,6.97837 -2.097095,-8.19155 -0.624248,-1.91584 -0.706821,-1.79589 -0.725,-1.65201 -0.732268,-1.55751 -0.738501,-1.49258 -0.742138,-1.43909 -0.746292,-1.3965 -0.746291,-1.36223 -0.748371,-1.33107 -0.750444,-1.30562 -0.749927,-1.28017 -0.752005,-1.25992 -0.752525,-1.23656 -0.752003,-1.22096 -0.754082,-1.20123 -0.752524,-1.18514 -0.75408,-1.16955 -0.752006,-1.15398 -0.754082,-1.13994 -0.75408,-1.12645 -0.01454,-0.0228 -0.549462,-0.54791 c -0.003,-0.003 -0.0053,-0.007 -0.0083,-0.0101 l -0.763948,-0.75616 -0.0098,-0.0105 -0.76395,-0.74993 c -0.003,-0.003 -0.0073,-0.005 -0.0104,-0.008 l -0.761873,-0.74421 -0.0098,-0.0101 -0.763948,-0.73642 c -0.003,-0.003 -0.0053,-0.007 -0.0083,-0.0105 l -0.76395,-0.73227 c -0.003,-0.003 -0.0068,-0.005 -0.0098,-0.008 l -0.76395,-0.72655 -0.0083,-0.008 -0.763947,-0.72084 -0.0083,-0.008 -0.763951,-0.71669 -0.0078,-0.008 -0.763949,-0.71098 c -0.003,-0.003 -0.0073,-0.005 -0.01038,-0.008 l -0.761872,-0.70474 c -0.003,-0.003 -0.0073,-0.005 -0.01038,-0.008 l -0.763948,-0.69903 -0.0078,-0.008 -0.763949,-0.69488 -0.0083,-0.008 -0.763948,-0.69123 c -0.003,-0.002 -0.0047,-0.004 -0.0078,-0.006 l -0.763949,-0.68553 -0.0088,-0.008 -0.76395,-0.68138 c -0.003,-0.002 -0.0053,-0.004 -0.0083,-0.006 l -0.763949,-0.67722 -0.0078,-0.008 -0.762391,-0.67099 c -0.003,-0.002 -0.0047,-0.004 -0.0078,-0.006 L 18.867612,226.366 c -0.003,-0.002 -0.0053,-0.004 -0.0083,-0.006 l -0.76395,-0.66371 -0.0078,-0.008 -0.763949,-0.658 c -0.003,-0.002 -0.0053,-0.004 -0.0083,-0.006 l -0.450268,-0.38639 z"
           id="path4533-5"
           inkscape:connector-curvature="0" />
        <path
           style="color:#000000;font-style:normal;font-variant:normal;font-weight:normal;font-stretch:normal;font-size:medium;line-height:normal;font-family:sans-serif;text-indent:0;text-align:start;text-decoration:none;text-decoration-line:none;text-decoration-style:solid;text-decoration-color:#000000;letter-spacing:normal;word-spacing:normal;text-transform:none;writing-mode:lr-tb;direction:ltr;baseline-shift:baseline;text-anchor:start;white-space:normal;clip-rule:nonzero;display:inline;overflow:visible;visibility:visible;opacity:1;isolation:auto;mix-blend-mode:normal;color-interpolation:sRGB;color-interpolation-filters:linearRGB;solid-color:#000000;solid-opacity:1;fill:#212121;fill-opacity:1;fill-rule:nonzero;stroke:none;stroke-width:6.23078346;stroke-linecap:butt;stroke-linejoin:round;stroke-miterlimit:100;stroke-dasharray:none;stroke-dashoffset:0;stroke-opacity:1;color-rendering:auto;image-rendering:auto;shape-rendering:auto;text-rendering:auto;enable-background:accumulate"
           d="m 1.7084951,208.50018 c -0.80587678,0 -1.20850364,0.37219 -1.20850364,1.11607 v 4.74209 c 0,0.74388 0.40262686,1.11554 1.20850364,1.11554 h 7.0671803 v 52.81585 H 1.7084951 c -0.80587678,0 -1.20850364,0.37218 -1.20850364,1.11606 v 4.74209 c 0,0.74388 0.40262686,1.11554 1.20850364,1.11554 H 24.025056 c 0.805873,0 1.209023,-0.37166 1.209023,-1.11554 v -4.74209 c 0,-0.74388 -0.40315,-1.11606 -1.209023,-1.11606 h -7.159622 v -45.74867 -4.50995 l 0.62165,0.74006 0.754082,0.90989 0.754082,0.91767 0.756158,0.92547 0.754082,0.93325 0.75616,0.94312 0.754081,0.95299 0.754602,0.96078 0.75564,0.97064 0.7546,0.98104 0.754082,0.9883 0.756159,1.00025 0.754081,1.01012 0.754082,1.01998 0.756159,1.02985 0.754082,1.0418 0.754083,1.05322 0.75408,1.06309 0.754082,1.07555 0.756159,1.08854 0.754082,1.09892 0.754602,1.11451 0.754082,1.12644 0.75408,1.13996 0.752005,1.15397 0.754083,1.16955 0.752521,1.18514 0.754082,1.20123 0.752006,1.22097 0.752524,1.23654 0.752004,1.25992 0.749926,1.28018 0.750447,1.30562 0.748369,1.33107 0.746291,1.36223 0.746291,1.3965 0.742139,1.4391 0.7385,1.49258 0.73227,1.5575 0.724998,1.65202 0.706821,1.79588 0.624249,1.91584 2.097094,8.19155 h 1.23499 1.859757 5.020979 c 0.805875,0 1.209025,-0.37218 1.209025,-1.11606 V 215.4744 h 7.159621 c 0.743882,0 1.11606,-0.37218 1.11606,-1.11606 v -4.74209 c 0,-0.74388 -0.372178,-1.11607 -1.11606,-1.11607 H 44.296456 c -0.743883,0 -1.116064,0.37219 -1.116064,1.11607 v 4.74209 c 0,0.74388 0.372181,1.11606 1.116064,1.11606 h 7.15962 v 43.04965 l -0.49493,-1.0527 c -0.009,-0.0192 -0.01813,-0.0381 -0.02753,-0.0571 l -0.763951,-1.54193 c -0.008,-0.0151 -0.01542,-0.0302 -0.02338,-0.0452 l -0.763951,-1.48273 c -0.006,-0.0125 -0.01308,-0.025 -0.01973,-0.0374 l -0.763947,-1.43131 c -0.006,-0.0112 -0.01223,-0.0227 -0.01819,-0.0338 l -0.763949,-1.39183 c -0.005,-0.01 -0.01032,-0.0199 -0.01558,-0.0297 l -0.763951,-1.35859 c -0.005,-0.008 -0.0092,-0.0174 -0.01401,-0.0259 l -0.76395,-1.32899 c -0.005,-0.007 -0.0087,-0.0146 -0.01351,-0.0218 l -0.763942,-1.30355 c -0.004,-0.007 -0.0081,-0.0141 -0.01194,-0.0213 l -0.76395,-1.28016 c -0.004,-0.007 -0.0081,-0.0132 -0.01194,-0.0197 l -0.76395,-1.25785 c -0.004,-0.006 -0.0081,-0.0123 -0.01194,-0.0182 l -0.76395,-1.23862 c -0.004,-0.006 -0.0081,-0.0117 -0.01194,-0.0177 l -0.76395,-1.21889 c -0.003,-0.006 -0.0068,-0.0117 -0.0098,-0.0177 l -0.76395,-1.20123 c -0.003,-0.006 -0.0073,-0.0118 -0.0104,-0.0177 l -0.76395,-1.18514 c -0.003,-0.005 -0.0068,-0.0108 -0.0098,-0.0161 l -0.76395,-1.16956 c -0.003,-0.005 -0.0073,-0.0102 -0.0104,-0.0156 l -0.763949,-1.15605 c -0.003,-0.005 -0.0068,-0.009 -0.0098,-0.0135 l -0.763948,-1.14203 c -0.003,-0.005 -0.0073,-0.009 -0.0104,-0.014 l -0.76395,-1.12645 c -0.003,-0.005 -0.0068,-0.009 -0.0098,-0.0135 l -0.76395,-1.11451 c -0.003,-0.005 -0.0073,-0.009 -0.0104,-0.014 l -0.76395,-1.10256 c -0.003,-0.004 -0.0068,-0.008 -0.0098,-0.012 l -0.761871,-1.09061 c -0.003,-0.004 -0.0073,-0.008 -0.0104,-0.012 l -0.76395,-1.07711 c -0.003,-0.005 -0.0068,-0.009 -0.0098,-0.0135 l -0.76395,-1.06518 c -0.003,-0.004 -0.0053,-0.008 -0.0083,-0.012 l -0.763948,-1.0553 c -0.003,-0.004 -0.0068,-0.008 -0.0098,-0.012 l -0.763947,-1.04336 c -0.003,-0.004 -0.0073,-0.008 -0.0104,-0.012 l -0.76395,-1.03401 c -0.003,-0.004 -0.0048,-0.008 -0.0078,-0.0115 l -0.764468,-1.02206 c -0.003,-0.004 -0.0068,-0.008 -0.0098,-0.012 l -0.763947,-1.01167 c -0.003,-0.004 -0.0053,-0.008 -0.0083,-0.012 l -0.76395,-1.00025 c -0.003,-0.004 -0.0068,-0.008 -0.0098,-0.012 l -0.763951,-0.99247 c -0.003,-0.004 -0.0053,-0.008 -0.0083,-0.0114 l -0.763947,-0.9826 c -0.003,-0.004 -0.0068,-0.008 -0.0098,-0.012 l -0.76395,-0.97273 c -0.003,-0.003 -0.0053,-0.007 -0.0083,-0.0101 l -0.763949,-0.96493 -0.0098,-0.01 -0.763949,-0.95507 c -0.003,-0.004 -0.0053,-0.008 -0.0083,-0.012 l -0.763949,-0.9452 -0.0098,-0.01 -0.763949,-0.9374 c -0.003,-0.004 -0.0053,-0.008 -0.0083,-0.012 l -0.76395,-0.92754 -0.0098,-0.01 -0.763949,-0.91976 c -0.003,-0.004 -0.0053,-0.008 -0.0083,-0.0114 l -0.763949,-0.91196 -0.0098,-0.01 -0.762391,-0.90365 -0.0098,-0.0104 -0.763948,-0.89378 c -0.003,-0.004 -0.0053,-0.008 -0.0083,-0.0119 l -0.76395,-0.88599 -0.0098,-0.01 -0.76395,-0.88028 c -0.003,-0.003 -0.0053,-0.007 -0.0083,-0.0104 l -0.763985,-0.87198 -0.0098,-0.0104 C 17.369694,209.07564 17.116537,208.78782 16.86531,208.5 Z"
           id="path4546-9"
           inkscape:connector-curvature="0"
           sodipodi:nodetypes="ssssccssssssssccccccccccccccccccccccccccccccccccccccccccccccccsscsssssssscccccccccccccccccccccccccccccccccccccccccccccccccccccccccccccccccccccccccccccccccccccccccccs" />
      </g>
      <path
         d="m 268.22642,275.66966 h -5.14616 q -1.19465,0 -1.19465,-1.10275 V 253.0633 q 0,-1.19465 1.19465,-1.19465 h 5.78943 q 1.10275,0 1.10275,1.19465 v 1.92981 q 0,1.74602 2.1136,4.68668 2.1136,2.84877 4.22721,4.68669 2.1136,1.83791 5.60564,3.21635 3.58393,1.28654 7.71924,1.28654 7.07598,0 11.0275,-2.94066 4.04341,-2.94067 4.04341,-8.17873 0,-3.03256 -2.2974,-5.14616 -2.20549,-2.2055 -5.78943,-3.49204 -3.58393,-1.28654 -7.99493,-2.38929 -4.3191,-1.10275 -8.7301,-2.48118 -4.3191,-1.47034 -7.90303,-3.40015 -3.58394,-2.02171 -5.88133,-5.51374 -2.2055,-3.58394 -2.2055,-8.36252 0,-7.71924 5.78943,-12.77351 5.88133,-5.05427 15.71418,-5.05427 12.40593,0 18.19536,7.25977 l -0.18379,-5.69754 q 0,-1.10275 1.19464,-1.10275 h 5.14617 q 1.10275,0 1.10275,1.10275 v 20.03328 q 0,1.10275 -1.10275,1.10275 h -5.78944 q -1.10275,0 -1.10275,-1.10275 v -2.57308 q 0,-3.76773 -4.2272,-7.62735 -4.22721,-3.85963 -12.40593,-3.85963 -6.06512,0 -9.83285,2.94067 -3.67583,2.84877 -3.67583,7.35166 0,3.21635 2.2974,5.51375 2.29739,2.29739 5.97322,3.67583 3.67583,1.37843 8.08683,2.57308 4.411,1.10275 8.82199,2.48119 4.411,1.37843 8.08683,3.30824 3.67583,1.92981 5.97322,5.32996 2.2974,3.30824 2.2974,7.90303 0,8.08683 -5.78943,13.32489 -5.78944,5.23806 -17.27641,5.23806 -8.45441,0 -13.96816,-3.40015 -5.51374,-3.40014 -7.99493,-7.35166 l 0.0919,9.00579 q 0,1.10275 -1.10275,1.10275 z"
         style="font-style:normal;font-variant:normal;font-weight:normal;font-stretch:normal;font-size:91.44000244px;line-height:1.25;font-family:Sanchez;-inkscape-font-specification:Sanchez;letter-spacing:-4.66989565px;word-spacing:0px;fill:#00c0de;fill-opacity:1;stroke:none;stroke-width:0.26590207"
         id="path4798"
         inkscape:connector-curvature="0" />
      <path
         d="m 336.60474,296.3462 h -18.47105 q -1.19464,0 -1.19464,-1.10274 v -3.95152 q 0,-1.10275 1.19464,-1.10275 h 5.14616 v -53.57523 h -4.96237 q -1.19464,0 -1.19464,-1.10275 v -3.95152 q 0,-1.10275 1.19464,-1.10275 h 10.75181 q 1.19464,0 1.19464,1.10275 l -0.0919,7.25976 h 0.0919 q 1.74602,-3.76772 5.60564,-6.3408 3.95152,-2.66498 9.64906,-2.66498 9.28147,0 14.97901,6.34081 5.69754,6.24891 5.69754,16.72503 0,10.38422 -5.60565,16.90882 -5.60564,6.5246 -14.97901,6.5246 -5.69753,0 -9.55716,-2.57308 -3.76772,-2.66498 -5.42185,-6.43271 h -0.27568 q 0.27568,2.94067 0.27568,4.22721 v 18.65484 h 5.97323 q 1.19464,0 1.19464,1.10275 v 3.95152 q 0,1.10274 -1.19464,1.10274 z m -6.15702,-43.09911 q 0,7.99493 4.13531,12.31403 4.22721,4.3191 10.10854,4.3191 5.97322,0 9.92474,-4.59478 4.04341,-4.68669 4.04341,-12.22214 0,-7.62735 -4.04341,-12.22214 -3.95152,-4.59479 -9.92474,-4.59479 -5.97323,0 -10.10854,4.5029 -4.13531,4.50289 -4.13531,12.49782 z"
         style="font-style:normal;font-variant:normal;font-weight:normal;font-stretch:normal;font-size:91.44000244px;line-height:1.25;font-family:Sanchez;-inkscape-font-specification:Sanchez;letter-spacing:-4.66989565px;word-spacing:0px;fill:#00c0de;fill-opacity:1;stroke:none;stroke-width:0.26590207"
         id="path4800"
         inkscape:connector-curvature="0" />
      <path
         d="m 386.81211,275.66966 h -17.55209 q -1.19465,0 -1.19465,-1.10275 v -3.95152 q 0,-1.10275 1.19465,-1.10275 h 5.05426 v -32.89868 h -5.05426 q -1.19465,0 -1.19465,-1.10275 v -3.95152 q 0,-1.10275 1.19465,-1.10275 h 11.57886 q 1.10275,0 1.10275,1.10275 v 37.95295 h 4.87048 q 1.19464,0 1.19464,1.10275 v 3.95152 q 0,1.10275 -1.19464,1.10275 z m -5.23806,-58.81329 q 1.56223,1.56222 1.56223,3.67583 0,2.1136 -1.56223,3.58393 -1.47033,1.47033 -3.58394,1.47033 -2.1136,0 -3.67583,-1.47033 -1.47033,-1.47033 -1.47033,-3.58393 0,-2.11361 1.47033,-3.67583 1.56223,-1.56223 3.67583,-1.56223 2.11361,0 3.58394,1.56223 z"
         style="font-style:normal;font-variant:normal;font-weight:normal;font-stretch:normal;font-size:91.44000244px;line-height:1.25;font-family:Sanchez;-inkscape-font-specification:Sanchez;letter-spacing:-4.66989565px;word-spacing:0px;fill:#00c0de;fill-opacity:1;stroke:none;stroke-width:0.26590207"
         id="path4802"
         inkscape:connector-curvature="0" />
      <path
         d="m 448.37291,275.66966 h -4.96237 q -1.74602,0 -2.75687,-0.64327 -1.01086,-0.73517 -1.92981,-2.2055 l -26.55788,-41.53689 -4.59479,-7.71924 h -0.18379 v 45.21271 h 7.07598 q 1.19464,0 1.19464,1.10275 v 4.68669 q 0,1.10275 -1.19464,1.10275 h -22.05499 q -1.19464,0 -1.19464,-1.10275 v -4.68669 q 0,-1.10275 1.19464,-1.10275 h 6.98408 v -52.19679 h -6.98408 q -1.19464,0 -1.19464,-1.10275 v -4.68668 q 0,-1.10275 1.19464,-1.10275 h 12.86541 q 2.66498,0 4.68668,3.12445 l 26.1903,40.98551 5.23805,8.91389 h 0.1838 v -46.13167 h -7.07598 q -1.10275,0 -1.10275,-1.10275 v -4.68668 q 0,-1.10275 1.10275,-1.10275 h 22.14688 q 1.10275,0 1.10275,1.10275 v 4.68668 q 0,1.10275 -1.10275,1.10275 h -7.07597 v 57.98623 q 0,1.10275 -1.19465,1.10275 z"
         style="font-style:normal;font-variant:normal;font-weight:normal;font-stretch:normal;font-size:91.44000244px;line-height:1.25;font-family:Sanchez;-inkscape-font-specification:Sanchez;letter-spacing:-4.66989565px;word-spacing:0px;fill:#00c0de;fill-opacity:1;stroke:none;stroke-width:0.26590207"
         id="path4804"
         inkscape:connector-curvature="0" />
      <path
         d="m 517.8066,275.66966 h -4.96237 q -1.74602,0 -2.75687,-0.64327 -1.01085,-0.73517 -1.92981,-2.2055 l -26.55788,-41.53689 -4.59479,-7.71924 h -0.18379 v 45.21271 h 7.07598 q 1.19464,0 1.19464,1.10275 v 4.68669 q 0,1.10275 -1.19464,1.10275 h -22.055 q -1.19464,0 -1.19464,-1.10275 v -4.68669 q 0,-1.10275 1.19464,-1.10275 h 6.98408 v -52.19679 h -6.98408 q -1.19464,0 -1.19464,-1.10275 v -4.68668 q 0,-1.10275 1.19464,-1.10275 h 12.86542 q 2.66498,0 4.68668,3.12445 l 26.1903,40.98551 5.23806,8.91389 h 0.18379 v -46.13167 h -7.07598 q -1.10275,0 -1.10275,-1.10275 v -4.68668 q 0,-1.10275 1.10275,-1.10275 h 22.14688 q 1.10275,0 1.10275,1.10275 v 4.68668 q 0,1.10275 -1.10275,1.10275 h -7.07597 v 57.98623 q 0,1.10275 -1.19465,1.10275 z"
         style="font-style:normal;font-variant:normal;font-weight:normal;font-stretch:normal;font-size:91.44000244px;line-height:1.25;font-family:Sanchez;-inkscape-font-specification:Sanchez;letter-spacing:-4.66989565px;word-spacing:0px;fill:#00c0de;fill-opacity:1;stroke:none;stroke-width:0.26590207"
         id="path4806"
         inkscape:connector-curvature="0" />
      <path
         d="m 571.94968,275.66966 h -7.99493 q -3.95152,0 -3.95152,-3.85963 v -4.68668 h -0.18379 q -6.70839,9.28147 -17.91967,9.28147 -6.6165,0 -10.8437,-3.40014 -4.22721,-3.49204 -4.22721,-9.37337 0,-7.53545 6.5246,-11.02749 6.6165,-3.58393 18.10347,-3.58393 h 7.71924 v -1.10275 q 0,-11.48698 -11.94645,-11.48698 -5.60564,0 -8.08683,1.10275 -2.48118,1.01086 -3.58393,1.65413 -1.01085,0.64327 -1.56223,1.01085 -1.37844,1.10275 -2.02171,0.18379 l -2.57308,-3.21635 q -0.64327,-0.73517 0.18379,-1.47033 1.56223,-2.02171 6.43271,-3.95152 4.87047,-1.92981 11.48697,-1.92981 19.29811,0 19.29811,18.37915 v 21.31982 h 5.14616 q 1.10275,0 1.10275,1.10275 v 3.95152 q 0,1.10275 -1.10275,1.10275 z m -12.77351,-21.13603 h -7.25977 q -5.32995,0 -8.82199,0.55138 -3.49204,0.55137 -5.97322,2.38929 -2.38929,1.83791 -2.38929,5.05426 0,3.21635 2.57308,5.32996 2.66498,2.0217 6.89218,2.0217 8.91389,0 14.97901,-7.90303 z"
         style="font-style:normal;font-variant:normal;font-weight:normal;font-stretch:normal;font-size:91.44000244px;line-height:1.25;font-family:Sanchez;-inkscape-font-specification:Sanchez;letter-spacing:-4.66989565px;word-spacing:0px;fill:#00c0de;fill-opacity:1;stroke:none;stroke-width:0.26590207"
         id="path4808"
         inkscape:connector-curvature="0" />
      <path
         d="m 623.79251,275.66966 h -4.96237 q -2.84877,0 -4.87048,-2.84877 l -16.26555,-22.05499 -8.91389,8.27062 v 10.47612 h 4.87048 q 1.19464,0 1.19464,1.10275 v 3.95152 q 0,1.10275 -1.19464,1.10275 h -17.55209 q -1.19465,0 -1.19465,-1.10275 v -3.95152 q 0,-1.10275 1.19465,-1.10275 h 5.05427 v -53.66713 h -5.05427 q -1.19465,0 -1.19465,-1.10275 v -3.95151 q 0,-1.10275 1.19465,-1.10275 h 11.57886 q 1.10275,0 1.10275,1.10275 v 41.1693 l 16.72503,-15.34659 h -3.30824 q -1.10275,0 -1.10275,-1.10275 v -3.95152 q 0,-1.10275 1.10275,-1.10275 h 17.64398 q 1.10275,0 1.10275,1.10275 v 3.95152 q 0,1.10275 -1.10275,1.10275 h -5.97322 l -11.21129,9.83284 17.18451,23.06584 h 3.95152 q 1.10275,0 1.10275,1.10275 v 3.95152 q 0,1.10275 -1.10275,1.10275 z"
         style="font-style:normal;font-variant:normal;font-weight:normal;font-stretch:normal;font-size:91.44000244px;line-height:1.25;font-family:Sanchez;-inkscape-font-specification:Sanchez;letter-spacing:-4.66989565px;word-spacing:0px;fill:#00c0de;fill-opacity:1;stroke:none;stroke-width:0.26590207"
         id="path4810"
         inkscape:connector-curvature="0" />
      <path
         d="m 662.6163,253.98226 h -33.08248 q 0.36759,7.62734 4.77858,11.76265 4.5029,4.13531 10.10854,4.13531 5.60564,0 9.55716,-2.38929 4.04341,-2.38929 5.42185,-4.68668 0.73516,-0.91896 1.65412,-0.27569 l 2.48119,2.48119 q 0.55137,0.55137 0.55137,1.01085 0,0.36758 -0.45948,1.01085 -0.36758,0.64328 -1.65412,2.02171 -1.28654,1.37844 -3.67583,3.12446 -2.2974,1.74602 -6.06512,2.94066 -3.67583,1.19465 -7.90304,1.19465 -9.64905,0 -16.17365,-6.34081 -6.43271,-6.34081 -6.43271,-17.00072 0,-10.7518 6.43271,-16.90882 6.4327,-6.24891 15.71417,-6.24891 9.37337,0 14.70333,6.06512 5.32995,5.97323 5.32995,16.17366 0,0.36758 0,0.73516 0,1.19465 -1.28654,1.19465 z m -6.34081,-5.60565 q -0.27569,-5.69753 -3.58393,-9.09768 -3.30825,-3.40014 -8.822,-3.40014 -5.51374,0 -9.46526,3.12446 -3.95152,3.12445 -4.68668,9.37336 z"
         style="font-style:normal;font-variant:normal;font-weight:normal;font-stretch:normal;font-size:91.44000244px;line-height:1.25;font-family:Sanchez;-inkscape-font-specification:Sanchez;letter-spacing:-4.66989565px;word-spacing:0px;fill:#00c0de;fill-opacity:1;stroke:none;stroke-width:0.26590207"
         id="path4812"
         inkscape:connector-curvature="0" />
      <path
         d="m 685.13433,275.66966 h -17.55209 q -1.19465,0 -1.19465,-1.10275 v -3.95152 q 0,-1.10275 1.19465,-1.10275 h 5.05427 v -32.89868 h -5.05427 q -1.19465,0 -1.19465,-1.10275 v -3.95152 q 0,-1.10275 1.19465,-1.10275 h 10.7518 q 1.19465,0 1.19465,1.10275 v 11.48697 h 0.27569 q 0.27568,-1.47033 1.92981,-4.04341 1.65412,-2.57309 3.58393,-4.22721 2.02171,-1.74602 5.69754,-3.12446 3.76772,-1.37843 8.45441,-1.37843 1.19464,0 1.19464,1.19464 v 4.87048 q 0,1.19464 -1.19464,1.19464 h -1.92981 q -7.90304,0 -12.58972,5.05427 -4.68669,5.05427 -4.68669,11.48697 v 15.43849 h 4.87048 q 1.19464,0 1.19464,1.10275 v 3.95152 q 0,1.10275 -1.19464,1.10275 z"
         style="font-style:normal;font-variant:normal;font-weight:normal;font-stretch:normal;font-size:91.44000244px;line-height:1.25;font-family:Sanchez;-inkscape-font-specification:Sanchez;letter-spacing:-4.66989565px;word-spacing:0px;fill:#00c0de;fill-opacity:1;stroke:none;stroke-width:0.26590207"
         id="path4814"
         inkscape:connector-curvature="0" />
    </g>
  </g>
</svg>
