<?xml version="1.0" encoding="UTF-8" standalone="no"?>
<!-- Created with Inkscape (http://www.inkscape.org/) -->

<svg
   xmlns:dc="http://purl.org/dc/elements/1.1/"
   xmlns:cc="http://creativecommons.org/ns#"
   xmlns:rdf="http://www.w3.org/1999/02/22-rdf-syntax-ns#"
   xmlns:svg="http://www.w3.org/2000/svg"
   xmlns="http://www.w3.org/2000/svg"
   xmlns:sodipodi="http://sodipodi.sourceforge.net/DTD/sodipodi-0.dtd"
   xmlns:inkscape="http://www.inkscape.org/namespaces/inkscape"
   width="68mm"
   height="68mm"
   viewBox="0 0 68 68"
   version="1.1"
   id="svg8"
   inkscape:version="0.92.3 (2405546, 2018-03-11)"
   sodipodi:docname="square-dark.svg">
  <defs
     id="defs2">
    <clipPath
       id="p594bf549dd">
      <rect
         id="rect409"
         y="79.199997"
         x="54"
         width="334.79999"
         height="613.79999" />
    </clipPath>
    <clipPath
       id="clipPath6004">
      <rect
         id="rect6002"
         y="79.199997"
         x="54"
         width="334.79999"
         height="613.79999" />
    </clipPath>
    <clipPath
       id="clipPath6008">
      <rect
         id="rect6006"
         y="79.199997"
         x="54"
         width="334.79999"
         height="613.79999" />
    </clipPath>
    <clipPath
       id="clipPath6012">
      <rect
         id="rect6010"
         y="79.199997"
         x="54"
         width="334.79999"
         height="613.79999" />
    </clipPath>
    <clipPath
       id="p594bf549dd-3">
      <rect
         height="613.79999"
         width="334.79999"
         x="54"
         y="79.199997"
         id="rect409-6" />
    </clipPath>
    <clipPath
       id="clipPath6004-7">
      <rect
         height="613.79999"
         width="334.79999"
         x="54"
         y="79.199997"
         id="rect6002-5" />
    </clipPath>
    <clipPath
       id="clipPath6008-3">
      <rect
         height="613.79999"
         width="334.79999"
         x="54"
         y="79.199997"
         id="rect6006-5" />
    </clipPath>
    <clipPath
       id="clipPath6012-6">
      <rect
         height="613.79999"
         width="334.79999"
         x="54"
         y="79.199997"
         id="rect6010-2" />
    </clipPath>
    <clipPath
       id="p594bf549dd-7">
      <rect
         height="613.79999"
         width="334.79999"
         x="54"
         y="79.199997"
         id="rect409-5" />
    </clipPath>
    <clipPath
       id="clipPath6004-3">
      <rect
         height="613.79999"
         width="334.79999"
         x="54"
         y="79.199997"
         id="rect6002-56" />
    </clipPath>
    <clipPath
       id="clipPath6008-2">
      <rect
         height="613.79999"
         width="334.79999"
         x="54"
         y="79.199997"
         id="rect6006-9" />
    </clipPath>
    <clipPath
       id="clipPath6012-1">
      <rect
         height="613.79999"
         width="334.79999"
         x="54"
         y="79.199997"
         id="rect6010-27" />
    </clipPath>
    <clipPath
       id="p594bf549dd-0">
      <rect
         height="613.79999"
         width="334.79999"
         x="54"
         y="79.199997"
         id="rect409-2" />
    </clipPath>
    <clipPath
       id="clipPath6004-37">
      <rect
         height="613.79999"
         width="334.79999"
         x="54"
         y="79.199997"
         id="rect6002-59" />
    </clipPath>
    <clipPath
       id="clipPath6008-22">
      <rect
         height="613.79999"
         width="334.79999"
         x="54"
         y="79.199997"
         id="rect6006-8" />
    </clipPath>
    <clipPath
       id="clipPath6012-97">
      <rect
         height="613.79999"
         width="334.79999"
         x="54"
         y="79.199997"
         id="rect6010-36" />
    </clipPath>
    <clipPath
       id="p594bf549dd-3-1">
      <rect
         id="rect409-6-2"
         y="79.199997"
         x="54"
         width="334.79999"
         height="613.79999" />
    </clipPath>
    <clipPath
       id="clipPath6004-7-9">
      <rect
         id="rect6002-5-3"
         y="79.199997"
         x="54"
         width="334.79999"
         height="613.79999" />
    </clipPath>
    <clipPath
       id="clipPath6008-3-1">
      <rect
         id="rect6006-5-9"
         y="79.199997"
         x="54"
         width="334.79999"
         height="613.79999" />
    </clipPath>
    <clipPath
       id="clipPath6012-6-4">
      <rect
         id="rect6010-2-7"
         y="79.199997"
         x="54"
         width="334.79999"
         height="613.79999" />
    </clipPath>
    <clipPath
       id="p594bf549dd-8">
      <rect
         id="rect409-9"
         y="79.199997"
         x="54"
         width="334.79999"
         height="613.79999" />
    </clipPath>
    <clipPath
       id="clipPath6004-73">
      <rect
         id="rect6002-6"
         y="79.199997"
         x="54"
         width="334.79999"
         height="613.79999" />
    </clipPath>
    <clipPath
       id="clipPath6008-1">
      <rect
         id="rect6006-2"
         y="79.199997"
         x="54"
         width="334.79999"
         height="613.79999" />
    </clipPath>
    <clipPath
       id="clipPath6012-9">
      <rect
         id="rect6010-3"
         y="79.199997"
         x="54"
         width="334.79999"
         height="613.79999" />
    </clipPath>
    <clipPath
       id="p594bf549dd-6">
      <rect
         id="rect409-3"
         y="79.199997"
         x="54"
         width="334.79999"
         height="613.79999" />
    </clipPath>
    <clipPath
       id="clipPath6004-2">
      <rect
         id="rect6002-0"
         y="79.199997"
         x="54"
         width="334.79999"
         height="613.79999" />
    </clipPath>
    <clipPath
       id="clipPath6008-6">
      <rect
         id="rect6006-1"
         y="79.199997"
         x="54"
         width="334.79999"
         height="613.79999" />
    </clipPath>
    <clipPath
       id="clipPath6012-5">
      <rect
         id="rect6010-5"
         y="79.199997"
         x="54"
         width="334.79999"
         height="613.79999" />
    </clipPath>
    <clipPath
       id="p594bf549dd-75">
      <rect
         height="613.79999"
         width="334.79999"
         x="54"
         y="79.199997"
         id="rect409-35" />
    </clipPath>
    <clipPath
       id="clipPath6004-6">
      <rect
         height="613.79999"
         width="334.79999"
         x="54"
         y="79.199997"
         id="rect6002-2" />
    </clipPath>
    <clipPath
       id="clipPath6008-91">
      <rect
         height="613.79999"
         width="334.79999"
         x="54"
         y="79.199997"
         id="rect6006-27" />
    </clipPath>
    <clipPath
       id="clipPath6012-0">
      <rect
         height="613.79999"
         width="334.79999"
         x="54"
         y="79.199997"
         id="rect6010-9" />
    </clipPath>
    <clipPath
       id="p594bf549dd-7-3">
      <rect
         id="rect409-5-6"
         y="79.199997"
         x="54"
         width="334.79999"
         height="613.79999" />
    </clipPath>
    <clipPath
       id="clipPath6004-35">
      <rect
         id="rect6002-62"
         y="79.199997"
         x="54"
         width="334.79999"
         height="613.79999" />
    </clipPath>
    <clipPath
       id="clipPath6008-9">
      <rect
         id="rect6006-1-0"
         y="79.199997"
         x="54"
         width="334.79999"
         height="613.79999" />
    </clipPath>
    <clipPath
       id="clipPath6012-27">
      <rect
         id="rect6010-0"
         y="79.199997"
         x="54"
         width="334.79999"
         height="613.79999" />
    </clipPath>
    <clipPath
       id="p594bf549dd-3-6">
      <rect
         height="613.79999"
         width="334.79999"
         x="54"
         y="79.199997"
         id="rect409-6-26" />
    </clipPath>
    <clipPath
       id="clipPath6004-7-1">
      <rect
         height="613.79999"
         width="334.79999"
         x="54"
         y="79.199997"
         id="rect6002-5-8" />
    </clipPath>
    <clipPath
       id="clipPath6008-3-7">
      <rect
         height="613.79999"
         width="334.79999"
         x="54"
         y="79.199997"
         id="rect6006-5-92" />
    </clipPath>
    <clipPath
       id="clipPath6012-6-0">
      <rect
         height="613.79999"
         width="334.79999"
         x="54"
         y="79.199997"
         id="rect6010-2-2" />
    </clipPath>
    <clipPath
       id="p594bf549dd-0-3">
      <rect
         id="rect409-9-7"
         y="79.199997"
         x="54"
         width="334.79999"
         height="613.79999" />
    </clipPath>
    <clipPath
       id="clipPath6004-3-5">
      <rect
         id="rect6002-6-9"
         y="79.199997"
         x="54"
         width="334.79999"
         height="613.79999" />
    </clipPath>
    <clipPath
       id="clipPath6008-0">
      <rect
         id="rect6006-6"
         y="79.199997"
         x="54"
         width="334.79999"
         height="613.79999" />
    </clipPath>
    <clipPath
       id="clipPath6012-2">
      <rect
         id="rect6010-6"
         y="79.199997"
         x="54"
         width="334.79999"
         height="613.79999" />
    </clipPath>
    <clipPath
       id="p594bf549dd-7535">
      <rect
         height="613.79999"
         width="334.79999"
         x="54"
         y="79.199997"
         id="rect409-62" />
    </clipPath>
    <clipPath
       id="clipPath6004-9">
      <rect
         height="613.79999"
         width="334.79999"
         x="54"
         y="79.199997"
         id="rect6002-12" />
    </clipPath>
    <clipPath
       id="clipPath6008-7">
      <rect
         height="613.79999"
         width="334.79999"
         x="54"
         y="79.199997"
         id="rect6006-09" />
    </clipPath>
    <clipPath
       id="clipPath6012-3">
      <rect
         height="613.79999"
         width="334.79999"
         x="54"
         y="79.199997"
         id="rect6010-60" />
    </clipPath>
    <clipPath
       id="p594bf549dd-75-6">
      <rect
         id="rect409-3-2"
         y="79.199997"
         x="54"
         width="334.79999"
         height="613.79999" />
    </clipPath>
    <clipPath
       id="clipPath6004-5">
      <rect
         id="rect6002-6-6"
         y="79.199997"
         x="54"
         width="334.79999"
         height="613.79999" />
    </clipPath>
    <clipPath
       id="clipPath6008-2-1">
      <rect
         id="rect6006-9-8"
         y="79.199997"
         x="54"
         width="334.79999"
         height="613.79999" />
    </clipPath>
    <clipPath
       id="clipPath6012-1-7">
      <rect
         id="rect6010-2-9"
         y="79.199997"
         x="54"
         width="334.79999"
         height="613.79999" />
    </clipPath>
    <clipPath
       id="p594bf549dd-7-2">
      <rect
         height="613.79999"
         width="334.79999"
         x="54"
         y="79.199997"
         id="rect409-5-0" />
    </clipPath>
    <clipPath
       id="clipPath6004-3-2">
      <rect
         height="613.79999"
         width="334.79999"
         x="54"
         y="79.199997"
         id="rect6002-5-37" />
    </clipPath>
    <clipPath
       id="clipPath6008-6-5">
      <rect
         height="613.79999"
         width="334.79999"
         x="54"
         y="79.199997"
         id="rect6006-2-9" />
    </clipPath>
    <clipPath
       id="clipPath6012-9-2">
      <rect
         height="613.79999"
         width="334.79999"
         x="54"
         y="79.199997"
         id="rect6010-1" />
    </clipPath>
    <clipPath
       id="p594bf549dd-753">
      <rect
         id="rect409-56"
         y="79.199997"
         x="54"
         width="334.79999"
         height="613.79999" />
    </clipPath>
    <clipPath
       id="clipPath6004-29">
      <rect
         id="rect6002-1"
         y="79.199997"
         x="54"
         width="334.79999"
         height="613.79999" />
    </clipPath>
    <clipPath
       id="clipPath6008-27">
      <rect
         id="rect6006-0"
         y="79.199997"
         x="54"
         width="334.79999"
         height="613.79999" />
    </clipPath>
    <clipPath
       id="clipPath6012-93">
      <rect
         id="rect6010-6-2"
         y="79.199997"
         x="54"
         width="334.79999"
         height="613.79999" />
    </clipPath>
    <clipPath
       id="p594bf549dd-3-8">
      <rect
         height="613.79999"
         width="334.79999"
         x="54"
         y="79.199997"
         id="rect409-6-9" />
    </clipPath>
    <clipPath
       id="clipPath6004-7-7">
      <rect
         height="613.79999"
         width="334.79999"
         x="54"
         y="79.199997"
         id="rect6002-5-0" />
    </clipPath>
    <clipPath
       id="clipPath6008-3-3">
      <rect
         height="613.79999"
         width="334.79999"
         x="54"
         y="79.199997"
         id="rect6006-5-6" />
    </clipPath>
    <clipPath
       id="clipPath6012-6-1">
      <rect
         height="613.79999"
         width="334.79999"
         x="54"
         y="79.199997"
         id="rect6010-2-6" />
    </clipPath>
    <clipPath
       id="p594bf549dd-8-2">
      <rect
         height="613.79999"
         width="334.79999"
         x="54"
         y="79.199997"
         id="rect409-9-9" />
    </clipPath>
    <clipPath
       id="clipPath6004-73-3">
      <rect
         height="613.79999"
         width="334.79999"
         x="54"
         y="79.199997"
         id="rect6002-6-2" />
    </clipPath>
    <clipPath
       id="clipPath6008-1-1">
      <rect
         height="613.79999"
         width="334.79999"
         x="54"
         y="79.199997"
         id="rect6006-2-6" />
    </clipPath>
    <clipPath
       id="clipPath6012-9-1">
      <rect
         height="613.79999"
         width="334.79999"
         x="54"
         y="79.199997"
         id="rect6010-3-9" />
    </clipPath>
    <clipPath
       id="p594bf549dd-6-4">
      <rect
         height="613.79999"
         width="334.79999"
         x="54"
         y="79.199997"
         id="rect409-3-8" />
    </clipPath>
    <clipPath
       id="clipPath6004-2-7">
      <rect
         height="613.79999"
         width="334.79999"
         x="54"
         y="79.199997"
         id="rect6002-0-8" />
    </clipPath>
    <clipPath
       id="clipPath6008-6-7">
      <rect
         height="613.79999"
         width="334.79999"
         x="54"
         y="79.199997"
         id="rect6006-1-4" />
    </clipPath>
    <clipPath
       id="clipPath6012-5-5">
      <rect
         height="613.79999"
         width="334.79999"
         x="54"
         y="79.199997"
         id="rect6010-5-0" />
    </clipPath>
  </defs>
  <sodipodi:namedview
     id="base"
     pagecolor="#ffffff"
     bordercolor="#666666"
     borderopacity="1.0"
     inkscape:pageopacity="0"
     inkscape:pageshadow="2"
     inkscape:zoom="2.1416469"
     inkscape:cx="175.43216"
     inkscape:cy="143.29831"
     inkscape:document-units="mm"
     inkscape:current-layer="layer1"
     showgrid="false"
     width="400mm"
     inkscape:window-width="1916"
     inkscape:window-height="1033"
     inkscape:window-x="1920"
     inkscape:window-y="22"
     inkscape:window-maximized="0" />
  <metadata
     id="metadata5">
    <rdf:RDF>
      <cc:Work
         rdf:about="">
        <dc:format>image/svg+xml</dc:format>
        <dc:type
           rdf:resource="http://purl.org/dc/dcmitype/StillImage" />
        <dc:title />
      </cc:Work>
    </rdf:RDF>
  </metadata>
  <g
     inkscape:label="Layer 1"
     inkscape:groupmode="layer"
     id="layer1"
     transform="translate(0,-229)">
    <g
       id="g1071"
       transform="translate(110.84312,45.56105)">
      <rect
         transform="scale(-1,1)"
         ry="11.876026"
         rx="11.876025"
         y="183.93895"
         x="43.343117"
         height="67"
         width="67.000008"
         id="rect926"
         style="opacity:1;fill:#541a8b;fill-opacity:1;fill-rule:nonzero;stroke:none;stroke-width:0.34511152;stroke-linecap:square;stroke-miterlimit:4;stroke-dasharray:none;stroke-dashoffset:0;stroke-opacity:1;paint-order:normal" />
      <g
         id="g1063">
        <path
           inkscape:connector-curvature="0"
           id="path4566-3"
           d="m -75.910778,229.02915 -0.511002,-0.19206 c -0.003,-7.5e-4 -0.006,-0.002 -0.0089,-0.003 l -0.567311,-0.21131 c -0.0022,-7.4e-4 -0.0052,-0.002 -0.0075,-0.003 l -0.567311,-0.20861 c -0.0022,-7.4e-4 -0.0052,-0.002 -0.0077,-0.003 l -0.567311,-0.2059 c -0.0022,-7.5e-4 -0.0037,-0.002 -0.006,-0.003 l -0.567311,-0.20438 c -0.0022,-7.4e-4 -0.0052,-0.002 -0.0077,-0.003 l -0.567304,-0.20283 c -0.0022,-5.9e-4 -0.0037,-7.4e-4 -0.006,-7.4e-4 l -0.567311,-0.20129 c -0.0022,-7.4e-4 -0.0037,-0.002 -0.006,-0.003 l -0.567304,-0.1986 c -0.0015,-7.5e-4 -0.003,-0.002 -0.0045,-0.003 l -0.56731,-0.19706 c -0.0022,-6.1e-4 -0.0037,-7.5e-4 -0.006,-7.5e-4 l -0.567423,-0.1979 c -0.0015,-5.9e-4 -0.003,-7.4e-4 -0.0045,-7.4e-4 l -0.567318,-0.19552 c -0.0022,-5.9e-4 -0.0037,-7.4e-4 -0.006,-7.4e-4 l -0.567311,-0.19246 c -0.0015,-5.9e-4 -0.003,-7.4e-4 -0.0045,-7.4e-4 l -0.567311,-0.19245 c -0.0015,-5.8e-4 -0.003,-7.5e-4 -0.0045,-7.5e-4 l -0.567311,-0.19129 -0.003,-7.4e-4 -0.567311,-0.18976 c -0.0015,-5.8e-4 -0.003,-7.4e-4 -0.0045,-7.4e-4 l -0.567699,-0.18821 c -0.0015,-6e-4 -0.003,-7.4e-4 -0.0045,-7.4e-4 l -0.567311,-0.18667 -0.003,-7.5e-4 -0.567311,-0.18512 c -0.0015,-5.9e-4 -0.003,-7.4e-4 -0.0045,-7.4e-4 l -0.567311,-0.18552 -0.003,-7.5e-4 -0.567311,-0.18398 -0.003,-7.5e-4 -0.567311,-0.18243 c -0.0015,-5.9e-4 -0.003,-7.4e-4 -0.0045,-7.4e-4 l -0.567311,-0.18244 -0.003,-7.4e-4 -0.567311,-0.1809 -0.003,-7.5e-4 -0.567311,-0.17935 -0.003,-7.4e-4 -0.09796,-0.0308 v 4.84838 l 0.392989,0.12701 0.562684,0.1809 0.564616,0.18359 0.563065,0.18397 0.564229,0.18552 0.563064,0.18512 0.563072,0.18667 0.562684,0.1886 0.563071,0.18936 0.563065,0.19129 0.563072,0.19128 0.561139,0.19244 0.563071,0.19553 0.56152,0.19551 0.561527,0.19707 0.561527,0.20014 0.55999,0.19976 0.561519,0.20283 0.55999,0.20437 0.559982,0.20591 0.558825,0.20861 0.559982,0.21015 0.5569,0.21284 0.558826,0.21477 0.5569,0.21745 0.555743,0.22169 0.555736,0.22324 0.554198,0.22746 0.552661,0.23055 0.551108,0.23517 0.54996,0.2394 0.546869,0.24363 0.545332,0.2494 0.542624,0.25556 0.538003,0.2625 0.533757,0.27019 0.52913,0.27711 0.520644,0.28905 0.510234,0.29905 0.494427,0.31214 0.47359,0.32831 0.437342,0.34024 0.372935,0.34562 0.05709,0.0689 1.481332,3.23958 -1.52376,-4.32687 -0.283849,-0.51652 -0.44891,-0.63505 -0.482463,-0.59234 -0.501368,-0.56193 -0.516398,-0.53537 -0.526436,-0.51498 -0.532212,-0.4992 -0.536458,-0.4861 -0.541086,-0.47264 -0.544175,-0.46264 -0.548027,-0.45377 -0.548414,-0.44531 -0.551497,-0.43915 -0.551116,-0.43031 -0.554198,-0.42606 -0.554199,-0.42029 -0.555735,-0.41606 -0.555355,-0.40991 z"
           style="color:#000000;font-style:normal;font-variant:normal;font-weight:normal;font-stretch:normal;font-size:medium;line-height:normal;font-family:sans-serif;text-indent:0;text-align:start;text-decoration:none;text-decoration-line:none;text-decoration-style:solid;text-decoration-color:#000000;letter-spacing:normal;word-spacing:normal;text-transform:none;writing-mode:lr-tb;direction:ltr;baseline-shift:baseline;text-anchor:start;white-space:normal;clip-rule:nonzero;display:inline;overflow:visible;visibility:visible;opacity:1;isolation:auto;mix-blend-mode:normal;color-interpolation:sRGB;color-interpolation-filters:linearRGB;solid-color:#000000;solid-opacity:1;fill:#9875b9;fill-opacity:1;fill-rule:nonzero;stroke:none;stroke-width:4.62232161;stroke-linecap:butt;stroke-linejoin:round;stroke-miterlimit:100;stroke-dasharray:none;stroke-dashoffset:0;stroke-opacity:1;color-rendering:auto;image-rendering:auto;shape-rendering:auto;text-rendering:auto;enable-background:accumulate" />
        <path
           inkscape:connector-curvature="0"
           id="path4571-6"
           d="m -78.13143,221.83565 -0.0806,-0.0543 c -0.0022,-7.5e-4 -0.0037,-0.003 -0.006,-0.004 l -0.567311,-0.38066 c -0.0022,-7.4e-4 -0.0052,-0.003 -0.0077,-0.004 l -0.567318,-0.37795 c -0.0022,-7.5e-4 -0.0037,-0.003 -0.006,-0.004 l -0.567378,-0.37473 c -0.0022,-7.5e-4 -0.0052,-0.003 -0.0077,-0.004 l -0.56731,-0.3722 c -0.0022,-7.4e-4 -0.0037,-0.003 -0.006,-0.004 l -0.567311,-0.3691 c -0.0022,-7.4e-4 -0.0037,-0.002 -0.006,-0.003 l -0.567311,-0.36794 c -0.0022,-7.5e-4 -0.0037,-0.002 -0.006,-0.003 l -0.565766,-0.36487 c -0.0022,-7.4e-4 -0.0037,-0.003 -0.006,-0.004 l -0.567311,-0.36179 c -0.0022,-7.4e-4 -0.0037,-0.002 -0.006,-0.003 l -0.567311,-0.36025 c -0.0022,-7.4e-4 -0.0037,-0.002 -0.006,-0.003 l -0.566154,-0.3591 c -0.0022,-7.4e-4 -0.0037,-0.002 -0.006,-0.003 l -0.567401,-0.35731 c -0.0022,-7.5e-4 -0.0037,-0.002 -0.006,-0.003 l -0.565773,-0.35332 c -0.0022,-7.5e-4 -0.0037,-0.002 -0.006,-0.003 l -0.567311,-0.3514 c -0.0015,-7.5e-4 -0.003,-0.002 -0.0045,-0.003 l -0.56731,-0.35025 c -0.0015,-7.4e-4 -0.003,-0.002 -0.0045,-0.003 l -0.567311,-0.34716 c -0.0022,-7.4e-4 -0.0037,-0.002 -0.006,-0.003 l -0.56731,-0.34601 c -0.0015,-7.4e-4 -0.003,-0.002 -0.0045,-0.003 l -0.56461,-0.34178 c -0.0015,-7.5e-4 -0.003,-0.002 -0.0045,-0.003 l -0.567311,-0.3414 c -0.0015,-7.4e-4 -0.003,-0.002 -0.0045,-0.003 l -0.567311,-0.3414 c -0.0015,-5.9e-4 -0.003,-7.4e-4 -0.0045,-7.5e-4 l -0.567311,-0.33868 c -0.0015,-7.5e-4 -0.003,-0.002 -0.0045,-0.003 l -0.01694,-0.0101 v 5.39224 l 0.461635,0.28096 0.563071,0.34447 0.561527,0.34717 0.562684,0.3487 0.561527,0.35024 0.563065,0.35179 0.561527,0.35447 0.561527,0.35757 0.561527,0.35754 0.561527,0.3618 0.561527,0.36334 0.561519,0.36487 0.561147,0.36795 0.560362,0.37064 0.561527,0.37333 0.559983,0.37526 0.559989,0.37796 0.559982,0.38065 0.559982,0.38527 0.558445,0.38681 0.558826,0.39104 0.558437,0.39413 0.558445,0.39834 0.55728,0.40143 0.557288,0.40568 0.555355,0.4099 0.555736,0.41606 0.554198,0.42029 0.554199,0.42607 0.551116,0.43031 0.551496,0.43914 0.548415,0.44532 0.548026,0.45378 0.544176,0.46263 0.541085,0.47262 0.536459,0.48612 0.532212,0.4992 0.526436,0.51496 0.516398,0.53539 0.501367,0.56193 0.482464,0.59234 0.448909,0.63505 0.28385,0.51652 1.520289,4.31763 -1.541111,-5.16207 -0.393377,-0.93565 -0.49442,-0.94259 -0.514479,-0.86983 -0.527974,-0.81865 -0.533757,-0.78209 -0.541085,-0.75283 -0.543788,-0.73128 -0.546869,-0.71203 -0.54996,-0.69627 -0.551108,-0.68123 -0.552654,-0.67009 -0.554205,-0.65776 -0.554199,-0.64969 -0.55728,-0.63775 -0.555743,-0.63044 -0.5569,-0.62274 -0.557281,-0.61582 -0.558445,-0.60735 -0.558437,-0.60272 -0.558825,-0.59542 -0.558445,-0.58926 z"
           style="color:#000000;font-style:normal;font-variant:normal;font-weight:normal;font-stretch:normal;font-size:medium;line-height:normal;font-family:sans-serif;text-indent:0;text-align:start;text-decoration:none;text-decoration-line:none;text-decoration-style:solid;text-decoration-color:#000000;letter-spacing:normal;word-spacing:normal;text-transform:none;writing-mode:lr-tb;direction:ltr;baseline-shift:baseline;text-anchor:start;white-space:normal;clip-rule:nonzero;display:inline;overflow:visible;visibility:visible;opacity:1;isolation:auto;mix-blend-mode:normal;color-interpolation:sRGB;color-interpolation-filters:linearRGB;solid-color:#000000;solid-opacity:1;fill:#baa3d0;fill-opacity:1;fill-rule:nonzero;stroke:none;stroke-width:4.62232161;stroke-linecap:butt;stroke-linejoin:round;stroke-miterlimit:100;stroke-dasharray:none;stroke-dashoffset:0;stroke-opacity:1;color-rendering:auto;image-rendering:auto;shape-rendering:auto;text-rendering:auto;enable-background:accumulate" />
        <path
           inkscape:connector-curvature="0"
           id="path4533-7"
           d="m -89.68668,210.77986 0.133828,0.11816 0.561527,0.4992 0.559982,0.50343 0.561527,0.50612 0.561527,0.50959 0.561527,0.51343 0.561139,0.51651 0.56037,0.52114 0.561527,0.52536 0.561139,0.52806 0.56037,0.53269 0.56152,0.53575 0.55999,0.54115 0.559982,0.54461 0.561527,0.55001 0.559982,0.55306 0.559982,0.55885 0.559982,0.56194 0.559982,0.56886 0.55999,0.57231 0.558825,0.57772 0.559982,0.58387 0.558438,0.58926 0.558833,0.59542 0.558437,0.60272 0.558437,0.60735 0.557288,0.61582 0.5569,0.62274 0.555743,0.63044 0.557281,0.63774 0.554198,0.6497 0.554198,0.65776 0.552654,0.67009 0.551116,0.68125 0.549959,0.69624 0.54687,0.71204 0.54378,0.73127 0.541093,0.75284 0.533757,0.78208 0.527973,0.81865 0.514473,0.86984 0.494419,0.94259 0.393377,0.93565 1.544201,5.17168 -1.557314,-6.07078 -0.463567,-1.41982 -0.524883,-1.33094 -0.538392,-1.22431 -0.54378,-1.15427 -0.548414,-1.10615 -0.551116,-1.06653 -0.554198,-1.03494 -0.554199,-1.00955 -0.555743,-0.98646 -0.55728,-0.9676 -0.5569,-0.94875 -0.558445,-0.93371 -0.558825,-0.91642 -0.558438,-0.90486 -0.559982,-0.89023 -0.558833,-0.87831 -0.559974,-0.86675 -0.558445,-0.85522 -0.559982,-0.84482 -0.559983,-0.83482 -0.01082,-0.0169 -0.408034,-0.40605 c -0.0022,-0.002 -0.0037,-0.005 -0.006,-0.007 l -0.567311,-0.5604 -0.0075,-0.008 -0.567311,-0.55577 c -0.0022,-0.002 -0.0052,-0.004 -0.0077,-0.006 l -0.565766,-0.55154 -0.0075,-0.007 -0.567311,-0.54576 c -0.0022,-0.002 -0.0037,-0.005 -0.006,-0.008 l -0.567311,-0.54269 c -0.0022,-0.002 -0.0052,-0.004 -0.0075,-0.006 l -0.567311,-0.53844 -0.006,-0.006 -0.567311,-0.53422 -0.006,-0.006 -0.56731,-0.53114 -0.006,-0.006 -0.567311,-0.5269 c -0.0022,-0.002 -0.0052,-0.004 -0.0077,-0.006 l -0.565766,-0.52229 c -0.0022,-0.002 -0.0052,-0.004 -0.0077,-0.006 l -0.56731,-0.51805 -0.006,-0.006 -0.567311,-0.51498 -0.006,-0.006 -0.567311,-0.51228 c -0.0022,-7.4e-4 -0.0037,-0.003 -0.006,-0.004 l -0.567311,-0.50804 -0.0067,-0.006 -0.567318,-0.50497 c -0.0022,-7.4e-4 -0.0037,-0.003 -0.006,-0.004 l -0.567311,-0.50189 -0.006,-0.006 -0.566154,-0.49727 c -0.0022,-7.5e-4 -0.0037,-0.003 -0.006,-0.004 l -0.567311,-0.49457 c -0.0022,-7.4e-4 -0.0037,-0.003 -0.006,-0.004 l -0.567311,-0.49189 -0.006,-0.006 -0.567311,-0.48764 c -0.0022,-7.4e-4 -0.0037,-0.003 -0.006,-0.004 l -0.334374,-0.28635 z"
           style="color:#000000;font-style:normal;font-variant:normal;font-weight:normal;font-stretch:normal;font-size:medium;line-height:normal;font-family:sans-serif;text-indent:0;text-align:start;text-decoration:none;text-decoration-line:none;text-decoration-style:solid;text-decoration-color:#000000;letter-spacing:normal;word-spacing:normal;text-transform:none;writing-mode:lr-tb;direction:ltr;baseline-shift:baseline;text-anchor:start;white-space:normal;clip-rule:nonzero;display:inline;overflow:visible;visibility:visible;opacity:1;isolation:auto;mix-blend-mode:normal;color-interpolation:sRGB;color-interpolation-filters:linearRGB;solid-color:#000000;solid-opacity:1;fill:#dcd1e7;fill-opacity:1;fill-rule:nonzero;stroke:none;stroke-width:4.62232161;stroke-linecap:butt;stroke-linejoin:round;stroke-miterlimit:100;stroke-dasharray:none;stroke-dashoffset:0;stroke-opacity:1;color-rendering:auto;image-rendering:auto;shape-rendering:auto;text-rendering:auto;enable-background:accumulate" />
        <path
           sodipodi:nodetypes="ssssccssssssssccccccccccccccccccccccccccccccccccccccccccccccccsscsssssssscccccccccccccccccccccccccccccccccccccccccccccccccccccccccccccccccccccccccccccccccccccccccccs"
           inkscape:connector-curvature="0"
           id="path4546-5"
           d="m -100.94227,192.6957 c -0.59845,0 -0.89744,0.27583 -0.89744,0.82712 v 3.51437 c 0,0.5513 0.29899,0.82674 0.89744,0.82674 h 5.248108 v 39.14193 h -5.248108 c -0.59845,0 -0.89744,0.27583 -0.89744,0.82712 v 3.51438 c 0,0.55129 0.29899,0.82673 0.89744,0.82673 h 16.572346 c 0.598447,0 0.897827,-0.27544 0.897827,-0.82673 v -3.51438 c 0,-0.55129 -0.29938,-0.82712 -0.897827,-0.82712 h -5.316756 v -33.90444 -3.34234 l 0.461642,0.54846 0.559982,0.67433 0.559982,0.68009 0.561527,0.68586 0.559983,0.69164 0.561527,0.69894 0.559982,0.70628 0.56037,0.71202 0.561139,0.71934 0.56037,0.72706 0.559982,0.73242 0.561527,0.7413 0.559982,0.74859 0.55999,0.75592 0.561527,0.76323 0.559982,0.77208 0.559982,0.78054 0.559983,0.78786 0.559982,0.79709 0.561527,0.80671 0.559982,0.81442 0.56037,0.82597 0.559982,0.83481 0.559982,0.84483 0.558445,0.8552 0.559982,0.86675 0.558826,0.87832 0.559982,0.89024 0.558445,0.90486 0.558825,0.9164 0.558445,0.93373 0.556892,0.94875 0.557288,0.96758 0.555743,0.98646 0.554199,1.00955 0.554198,1.03496 0.551109,1.06653 0.548414,1.10615 0.543787,1.15427 0.538384,1.22431 0.524891,1.33093 0.463567,1.41983 1.557307,6.07078 h 0.917111 1.381059 3.728597 c 0.598447,0 0.897827,-0.27582 0.897827,-0.82711 v -43.48305 h 5.316756 c 0.552407,0 0.828793,-0.27582 0.828793,-0.82712 v -3.51437 c 0,-0.55129 -0.276386,-0.82712 -0.828793,-0.82712 h -16.640995 c -0.552414,0 -0.828793,0.27583 -0.828793,0.82712 v 3.51437 c 0,0.5513 0.276379,0.82712 0.828793,0.82712 h 5.316756 v 31.90418 l -0.36754,-0.78014 c -0.0067,-0.0142 -0.01343,-0.0282 -0.02045,-0.0423 l -0.567311,-1.14273 c -0.006,-0.0112 -0.01142,-0.0224 -0.01739,-0.0335 l -0.56731,-1.09885 c -0.0045,-0.009 -0.0097,-0.0186 -0.01463,-0.0277 l -0.567311,-1.06075 c -0.0045,-0.008 -0.0091,-0.0168 -0.01351,-0.025 l -0.567311,-1.03149 c -0.0037,-0.007 -0.0077,-0.0147 -0.01157,-0.022 l -0.56731,-1.00685 c -0.0037,-0.006 -0.0067,-0.0129 -0.01037,-0.0192 l -0.567311,-0.98492 c -0.0037,-0.005 -0.0067,-0.0108 -0.01,-0.0162 l -0.567304,-0.96606 c -0.003,-0.005 -0.006,-0.0104 -0.0089,-0.0158 l -0.567311,-0.94874 c -0.003,-0.005 -0.006,-0.01 -0.0089,-0.0146 l -0.567311,-0.9322 c -0.003,-0.004 -0.006,-0.009 -0.0089,-0.0135 l -0.567311,-0.91794 c -0.003,-0.004 -0.006,-0.009 -0.0089,-0.0131 l -0.56731,-0.90332 c -0.0022,-0.004 -0.0052,-0.009 -0.0075,-0.0131 l -0.567311,-0.89024 c -0.0022,-0.004 -0.0052,-0.009 -0.0077,-0.0131 l -0.567311,-0.87831 c -0.0022,-0.004 -0.0052,-0.008 -0.0075,-0.0119 l -0.567311,-0.86676 c -0.0022,-0.004 -0.0052,-0.008 -0.0077,-0.0115 l -0.567311,-0.85676 c -0.0022,-0.004 -0.0052,-0.007 -0.0075,-0.01 l -0.567311,-0.84635 c -0.0022,-0.004 -0.0052,-0.007 -0.0077,-0.0104 l -0.567311,-0.83481 c -0.0022,-0.004 -0.0052,-0.007 -0.0075,-0.01 l -0.56731,-0.82595 c -0.0022,-0.004 -0.0052,-0.007 -0.0077,-0.0104 l -0.567311,-0.81711 c -0.0022,-0.003 -0.0052,-0.006 -0.0075,-0.009 l -0.565774,-0.80825 c -0.0022,-0.003 -0.0052,-0.006 -0.0077,-0.009 l -0.567318,-0.79825 c -0.0022,-0.004 -0.0052,-0.007 -0.0075,-0.01 l -0.567311,-0.7894 c -0.0022,-0.003 -0.0037,-0.006 -0.006,-0.009 l -0.567311,-0.78209 c -0.0022,-0.003 -0.0052,-0.006 -0.0075,-0.009 l -0.567311,-0.77324 c -0.0022,-0.003 -0.0052,-0.006 -0.0077,-0.009 l -0.567318,-0.76632 c -0.0022,-0.003 -0.0037,-0.006 -0.006,-0.008 l -0.567691,-0.75745 c -0.0022,-0.003 -0.0052,-0.006 -0.0075,-0.009 l -0.567304,-0.74976 c -0.0022,-0.003 -0.0037,-0.006 -0.006,-0.009 l -0.567311,-0.74129 c -0.0022,-0.003 -0.0052,-0.006 -0.0075,-0.009 l -0.567311,-0.73552 c -0.0022,-0.003 -0.0037,-0.006 -0.006,-0.008 l -0.567304,-0.7282 c -0.0022,-0.003 -0.0052,-0.006 -0.0075,-0.009 l -0.567318,-0.7209 c -0.0022,-0.002 -0.0037,-0.005 -0.006,-0.007 l -0.567311,-0.71513 -0.0075,-0.007 -0.56731,-0.7078 c -0.0022,-0.003 -0.0037,-0.006 -0.006,-0.009 l -0.567311,-0.70049 -0.0075,-0.007 -0.567303,-0.69473 c -0.0022,-0.003 -0.0037,-0.006 -0.006,-0.009 l -0.567311,-0.6874 -0.0075,-0.007 -0.56731,-0.68163 c -0.0022,-0.003 -0.0037,-0.006 -0.006,-0.008 l -0.567311,-0.67586 -0.0075,-0.007 -0.566154,-0.66969 -0.0075,-0.008 -0.567311,-0.6624 c -0.0022,-0.003 -0.0037,-0.006 -0.006,-0.009 l -0.567311,-0.65662 -0.0075,-0.007 -0.567311,-0.65237 c -0.0022,-0.002 -0.0037,-0.005 -0.006,-0.008 l -0.567341,-0.64623 -0.0075,-0.008 c -0.187353,-0.21307 -0.375354,-0.42637 -0.561915,-0.63968 z"
           style="color:#000000;font-style:normal;font-variant:normal;font-weight:normal;font-stretch:normal;font-size:medium;line-height:normal;font-family:sans-serif;text-indent:0;text-align:start;text-decoration:none;text-decoration-line:none;text-decoration-style:solid;text-decoration-color:#000000;letter-spacing:normal;word-spacing:normal;text-transform:none;writing-mode:lr-tb;direction:ltr;baseline-shift:baseline;text-anchor:start;white-space:normal;clip-rule:nonzero;display:inline;overflow:visible;visibility:visible;opacity:1;isolation:auto;mix-blend-mode:normal;color-interpolation:sRGB;color-interpolation-filters:linearRGB;solid-color:#000000;solid-opacity:1;fill:#ffffff;fill-opacity:1;fill-rule:nonzero;stroke:none;stroke-width:4.62232161;stroke-linecap:butt;stroke-linejoin:round;stroke-miterlimit:100;stroke-dasharray:none;stroke-dashoffset:0;stroke-opacity:1;color-rendering:auto;image-rendering:auto;shape-rendering:auto;text-rendering:auto;enable-background:accumulate" />
      </g>
    </g>
  </g>
</svg>
