<?xml version="1.0" encoding="UTF-8" standalone="no"?>
<!-- Created with Inkscape (http://www.inkscape.org/) -->

<svg
   xmlns:dc="http://purl.org/dc/elements/1.1/"
   xmlns:cc="http://creativecommons.org/ns#"
   xmlns:rdf="http://www.w3.org/1999/02/22-rdf-syntax-ns#"
   xmlns:svg="http://www.w3.org/2000/svg"
   xmlns="http://www.w3.org/2000/svg"
   xmlns:sodipodi="http://sodipodi.sourceforge.net/DTD/sodipodi-0.dtd"
   xmlns:inkscape="http://www.inkscape.org/namespaces/inkscape"
   width="428.68542mm"
   height="90mm"
   viewBox="0 0 428.68539 89.999999"
   version="1.1"
   id="svg8"
   inkscape:version="0.92.3 (2405546, 2018-03-11)"
   sodipodi:docname="full-light.svg">
  <defs
     id="defs2">
    <clipPath
       id="p594bf549dd">
      <rect
         id="rect409"
         y="79.199997"
         x="54"
         width="334.79999"
         height="613.79999" />
    </clipPath>
    <clipPath
       id="clipPath6004">
      <rect
         id="rect6002"
         y="79.199997"
         x="54"
         width="334.79999"
         height="613.79999" />
    </clipPath>
    <clipPath
       id="clipPath6008">
      <rect
         id="rect6006"
         y="79.199997"
         x="54"
         width="334.79999"
         height="613.79999" />
    </clipPath>
    <clipPath
       id="clipPath6012">
      <rect
         id="rect6010"
         y="79.199997"
         x="54"
         width="334.79999"
         height="613.79999" />
    </clipPath>
    <clipPath
       id="p594bf549dd-3">
      <rect
         height="613.79999"
         width="334.79999"
         x="54"
         y="79.199997"
         id="rect409-6" />
    </clipPath>
    <clipPath
       id="clipPath6004-7">
      <rect
         height="613.79999"
         width="334.79999"
         x="54"
         y="79.199997"
         id="rect6002-5" />
    </clipPath>
    <clipPath
       id="clipPath6008-3">
      <rect
         height="613.79999"
         width="334.79999"
         x="54"
         y="79.199997"
         id="rect6006-5" />
    </clipPath>
    <clipPath
       id="clipPath6012-6">
      <rect
         height="613.79999"
         width="334.79999"
         x="54"
         y="79.199997"
         id="rect6010-2" />
    </clipPath>
    <clipPath
       id="p594bf549dd-0">
      <rect
         id="rect409-9"
         y="79.199997"
         x="54"
         width="334.79999"
         height="613.79999" />
    </clipPath>
    <clipPath
       id="clipPath6004-3">
      <rect
         id="rect6002-6"
         y="79.199997"
         x="54"
         width="334.79999"
         height="613.79999" />
    </clipPath>
    <clipPath
       id="clipPath6008-0">
      <rect
         id="rect6006-6"
         y="79.199997"
         x="54"
         width="334.79999"
         height="613.79999" />
    </clipPath>
    <clipPath
       id="clipPath6012-2">
      <rect
         id="rect6010-6"
         y="79.199997"
         x="54"
         width="334.79999"
         height="613.79999" />
    </clipPath>
    <clipPath
       id="p594bf549dd-7">
      <rect
         height="613.79999"
         width="334.79999"
         x="54"
         y="79.199997"
         id="rect409-5" />
    </clipPath>
    <clipPath
       id="clipPath6004-35">
      <rect
         height="613.79999"
         width="334.79999"
         x="54"
         y="79.199997"
         id="rect6002-62" />
    </clipPath>
    <clipPath
       id="clipPath6008-9">
      <rect
         height="613.79999"
         width="334.79999"
         x="54"
         y="79.199997"
         id="rect6006-1" />
    </clipPath>
    <clipPath
       id="clipPath6012-27">
      <rect
         height="613.79999"
         width="334.79999"
         x="54"
         y="79.199997"
         id="rect6010-0" />
    </clipPath>
  </defs>
  <sodipodi:namedview
     id="base"
     pagecolor="#ffffff"
     bordercolor="#666666"
     borderopacity="1.0"
     inkscape:pageopacity="0.0"
     inkscape:pageshadow="2"
     inkscape:zoom="0.63006614"
     inkscape:cx="592.16645"
     inkscape:cy="144.51667"
     inkscape:document-units="mm"
     inkscape:current-layer="layer1"
     showgrid="false"
     width="400mm"
     inkscape:window-width="1916"
     inkscape:window-height="1033"
     inkscape:window-x="1920"
     inkscape:window-y="22"
     inkscape:window-maximized="0"
     units="mm"
     fit-margin-top="1"
     fit-margin-left="1"
     fit-margin-right="1"
     fit-margin-bottom="1" />
  <metadata
     id="metadata5">
    <rdf:RDF>
      <cc:Work
         rdf:about="">
        <dc:format>image/svg+xml</dc:format>
        <dc:type
           rdf:resource="http://purl.org/dc/dcmitype/StillImage" />
        <dc:title></dc:title>
      </cc:Work>
    </rdf:RDF>
  </metadata>
  <g
     inkscape:label="Layer 1"
     inkscape:groupmode="layer"
     id="layer1"
     transform="translate(0.34249514,-207.49999)">
    <g
       id="g896">
      <path
         d="M 106.93506,253.60217 H 74.077152 q 0.365089,7.57558 4.746144,11.68281 4.472325,4.10724 10.039915,4.10724 5.56759,0 9.492286,-2.37308 4.015963,-2.37307 5.385043,-4.65486 0.73018,-0.91272 1.6429,-0.27382 l 2.46434,2.46435 q 0.54763,0.54762 0.54763,1.004 0,0.36507 -0.45636,1.00397 -0.36509,0.63891 -1.64289,2.008 -1.27781,1.36907 -3.65088,3.10324 -2.2818,1.73417 -6.023951,2.9207 -3.650879,1.18653 -7.849391,1.18653 -9.583555,0 -16.063865,-6.29776 -6.389037,-6.29776 -6.389037,-16.88532 0,-10.67882 6.389037,-16.79404 6.389038,-6.20649 15.607507,-6.20649 9.30974,0 14.60351,6.02395 5.29378,5.93268 5.29378,16.06387 0,0.36508 0,0.73017 0,1.18654 -1.27781,1.18654 z m -6.29776,-5.56759 q -0.27382,-5.65887 -3.559611,-9.03593 -3.285792,-3.37706 -8.762109,-3.37706 -5.476318,0 -9.401014,3.10325 -3.924693,3.10325 -4.654869,9.30974 z"
         style="font-style:normal;font-variant:normal;font-weight:normal;font-stretch:normal;font-size:98.77777863px;line-height:6.61458302px;font-family:Sanchez;-inkscape-font-specification:Sanchez;letter-spacing:-5.54831266px;word-spacing:0px;fill:#212121;fill-opacity:1;stroke:none;stroke-width:0.24447846px;stroke-linecap:butt;stroke-linejoin:miter;stroke-opacity:1"
         id="path4528-7"
         inkscape:connector-curvature="0" />
      <path
         d="m 158.77204,275.14235 h -8.67084 q -3.9247,0 -3.9247,-3.83342 V 247.3044 q 0,-5.29377 -2.55561,-8.21447 -2.55562,-2.92071 -7.4843,-2.92071 -7.02794,0 -10.95264,5.75013 -0.45636,0.54764 -1.18653,2.008 v 25.09978 h 4.83741 q 1.18654,0 1.18654,1.09526 v 3.9247 q 0,1.09526 -1.18654,1.09526 h -17.43295 q -1.18653,0 -1.18653,-1.09526 v -3.9247 q 0,-1.09526 1.18653,-1.09526 h 5.01996 v -32.67536 h -5.01996 q -1.18653,0 -1.18653,-1.09526 v -3.92471 q 0,-1.09525 1.18653,-1.09525 h 10.67882 q 1.18654,0 1.18654,1.09525 l -0.18254,6.2065 h 0.27381 q 4.74614,-7.94066 14.69479,-7.94066 7.30176,0 11.40899,4.28978 4.10724,4.28979 4.19851,11.59155 v 23.54816 h 5.11124 q 1.18653,0 1.18653,1.09526 v 3.9247 q 0,1.09526 -1.18653,1.09526 z"
         style="font-style:normal;font-variant:normal;font-weight:normal;font-stretch:normal;font-size:98.77777863px;line-height:6.61458302px;font-family:Sanchez;-inkscape-font-specification:Sanchez;letter-spacing:-5.54831266px;word-spacing:0px;fill:#212121;fill-opacity:1;stroke:none;stroke-width:0.24447846px;stroke-linecap:butt;stroke-linejoin:miter;stroke-opacity:1"
         id="path4530-9"
         inkscape:connector-curvature="0" />
      <path
         d="m 180.98698,296.49999 q -4.5636,0 -6.93667,-0.63891 -2.2818,-0.6389 -3.74215,-1.18652 -1.36908,-0.45636 -2.37307,-1.004 -1.00399,-0.45636 -1.91671,-1.00399 -4.01597,-2.64689 -3.01198,-3.83343 l 2.37307,-3.37706 q 0.54764,-0.82145 1.55163,-0.0913 0.0913,0 0.54763,0.36508 0.54763,0.45637 1.00399,0.82145 0.54763,0.36509 1.36908,0.82145 0.91272,0.54763 2.00798,0.91272 1.09527,0.45636 2.37307,0.82144 3.01198,0.82146 6.66286,0.82146 6.57158,0 10.49627,-3.19453 4.01597,-3.10324 4.01597,-9.85737 v -10.40499 q -1.64289,3.83341 -5.47632,6.57157 -3.74215,2.73815 -9.40101,2.73815 -9.30974,0 -14.9686,-6.4803 -5.56759,-6.4803 -5.56759,-16.79403 0,-10.31374 5.65886,-16.61151 5.75013,-6.29777 14.87733,-6.29777 5.65886,0 9.49228,2.64689 3.9247,2.55562 5.65887,6.29777 h 0.18254 l -0.0913,-7.21049 q 0,-1.09526 1.09526,-1.09526 h 10.77008 q 1.09528,0 1.09528,1.09526 v 3.9247 q 0,1.09526 -1.09528,1.09526 h -4.92868 v 40.52475 q 0,9.76611 -6.02395,14.6948 -5.93267,4.92867 -15.69877,4.92867 z m -13.50825,-43.81055 q 0,7.48432 4.01597,12.13919 4.01596,4.56359 10.03991,4.56359 6.02395,0 9.94865,-4.56359 4.01596,-4.56361 4.01596,-12.23046 0,-7.66683 -4.01596,-12.13916 -3.9247,-4.47233 -9.94865,-4.47233 -6.02395,0 -10.03991,4.5636 -4.01597,4.5636 -4.01597,12.13916 z"
         style="font-style:normal;font-variant:normal;font-weight:normal;font-stretch:normal;font-size:98.77777863px;line-height:6.61458302px;font-family:Sanchez;-inkscape-font-specification:Sanchez;letter-spacing:-5.54831266px;word-spacing:0px;fill:#212121;fill-opacity:1;stroke:none;stroke-width:0.24447846px;stroke-linecap:butt;stroke-linejoin:miter;stroke-opacity:1"
         id="path4532-2"
         inkscape:connector-curvature="0" />
      <path
         d="m 247.76831,269.39222 q -6.38903,6.38903 -16.33768,6.38903 -9.94865,0 -16.33768,-6.29776 -6.38905,-6.38904 -6.38905,-16.88532 0,-10.58754 6.48032,-16.79404 6.48031,-6.20649 16.24641,-6.20649 9.85737,0 16.2464,6.29777 6.48032,6.2065 6.48032,16.70276 0,10.40501 -6.38904,16.79405 z m -31.39755,-16.79405 q 0,7.48431 4.38105,12.13918 4.38106,4.65487 10.67882,4.65487 6.38904,0 10.7701,-4.65487 4.38104,-4.65487 4.38104,-12.13918 0,-7.48429 -4.47232,-12.04789 -4.38105,-4.5636 -10.58755,-4.5636 -6.2065,0 -10.67882,4.5636 -4.47232,4.5636 -4.47232,12.04789 z"
         style="font-style:normal;font-variant:normal;font-weight:normal;font-stretch:normal;font-size:98.77777863px;line-height:6.61458302px;font-family:Sanchez;-inkscape-font-specification:Sanchez;letter-spacing:-5.54831266px;word-spacing:0px;fill:#212121;fill-opacity:1;stroke:none;stroke-width:0.24447846px;stroke-linecap:butt;stroke-linejoin:miter;stroke-opacity:1"
         id="path4534-0"
         inkscape:connector-curvature="0" />
      <g
         id="g882">
        <path
           style="color:#000000;font-style:normal;font-variant:normal;font-weight:normal;font-stretch:normal;font-size:medium;line-height:normal;font-family:sans-serif;text-indent:0;text-align:start;text-decoration:none;text-decoration-line:none;text-decoration-style:solid;text-decoration-color:#000000;letter-spacing:normal;word-spacing:normal;text-transform:none;writing-mode:lr-tb;direction:ltr;baseline-shift:baseline;text-anchor:start;white-space:normal;clip-rule:nonzero;display:inline;overflow:visible;visibility:visible;opacity:1;isolation:auto;mix-blend-mode:normal;color-interpolation:sRGB;color-interpolation-filters:linearRGB;solid-color:#000000;solid-opacity:1;fill:#e56666;fill-opacity:1;fill-rule:nonzero;stroke:none;stroke-width:6.20493507;stroke-linecap:butt;stroke-linejoin:round;stroke-miterlimit:100;stroke-dasharray:none;stroke-dashoffset:0;stroke-opacity:1;color-rendering:auto;image-rendering:auto;shape-rendering:auto;text-rendering:auto;enable-background:accumulate"
           d="m 35.428921,257.68808 -0.68527,-0.25809 c -0.004,-10e-4 -0.0081,-0.003 -0.01189,-0.004 l -0.76078,-0.28394 c -0.003,-10e-4 -0.0068,-0.003 -0.0098,-0.004 L 33.2004,256.85773 c -0.003,-10e-4 -0.0073,-0.003 -0.01036,-0.004 l -0.760782,-0.27669 c -0.003,-0.001 -0.0048,-0.003 -0.0078,-0.004 l -0.760778,-0.27463 c -0.003,-10e-4 -0.0073,-0.003 -0.01036,-0.004 l -0.760778,-0.27255 c -0.003,-8e-4 -0.0048,-10e-4 -0.0078,-0.002 l -0.760782,-0.27048 c -0.003,-0.001 -0.0053,-0.003 -0.0083,-0.004 l -0.760777,-0.26686 c -0.0021,-0.001 -0.0042,-0.003 -0.0062,-0.004 l -0.760781,-0.26479 c -0.003,-8e-4 -0.0048,-0.001 -0.0078,-0.002 l -0.760778,-0.2648 c -0.0021,-8e-4 -0.0042,-10e-4 -0.0062,-0.002 l -0.760782,-0.26274 c -0.003,-7.9e-4 -0.0053,-0.001 -0.0083,-0.002 l -0.760779,-0.2586 c -0.002,-7.9e-4 -0.0037,-10e-4 -0.0057,-0.002 l -0.76078,-0.2586 c -0.002,-7.9e-4 -0.0042,-0.001 -0.0062,-0.002 l -0.76078,-0.25705 -0.0041,-0.002 -0.760781,-0.25498 c -0.002,-7.9e-4 -0.0037,-0.001 -0.0057,-0.002 l -0.761297,-0.25291 c -0.002,-8e-4 -0.0037,-0.001 -0.0057,-0.002 l -0.760781,-0.25083 -0.0041,-0.002 -0.76078,-0.24876 c -0.002,-7.9e-4 -0.0042,-0.001 -0.0062,-0.002 l -0.76078,-0.24928 -0.0041,-0.002 -0.760779,-0.24722 -0.0036,-0.002 -0.760781,-0.24515 c -0.002,-7.9e-4 -0.0042,-10e-4 -0.0062,-0.002 l -0.760781,-0.24514 -0.0041,-0.002 -0.76078,-0.24308 -0.0041,-0.002 -0.76078,-0.24101 -0.0041,-0.002 -0.131365,-0.0413 v 6.51498 l 0.527012,0.17067 0.754574,0.24308 0.75716,0.2467 0.755091,0.24721 0.756642,0.24929 0.755091,0.24876 0.755091,0.25083 0.754573,0.25343 0.755091,0.25446 0.755091,0.25704 0.755091,0.25704 0.752505,0.25859 0.755091,0.26273 0.753022,0.26272 0.753023,0.26481 0.753021,0.26894 0.750955,0.26842 0.753022,0.27255 0.750953,0.27462 0.750955,0.2767 0.749399,0.28032 0.750954,0.28238 0.746815,0.286 0.749403,0.28859 0.746818,0.29221 0.745264,0.2979 0.745263,0.29997 0.743195,0.30565 0.741128,0.3098 0.73906,0.316 0.737504,0.32169 0.733368,0.32738 0.731301,0.33513 0.727682,0.34341 0.721473,0.35273 0.715783,0.36306 0.70958,0.37238 0.698201,0.3884 0.684235,0.40185 0.663033,0.41944 0.635104,0.44116 0.586488,0.45719 0.500117,0.46443 0.07654,0.0926 1.986508,4.35315 -2.0434,-5.8142 -0.380649,-0.69407 -0.602004,-0.85334 -0.646999,-0.79596 -0.672341,-0.75509 -0.692511,-0.7194 -0.705959,-0.692 -0.713715,-0.67079 -0.719406,-0.6532 -0.72561,-0.6351 -0.729749,-0.62167 -0.734921,-0.60975 -0.735437,-0.59839 -0.739575,-0.5901 -0.739059,-0.57822 -0.743196,-0.57253 -0.743195,-0.56476 -0.745263,-0.55909 -0.744748,-0.55079 z"
           id="path4566-3"
           inkscape:connector-curvature="0" />
        <path
           style="color:#000000;font-style:normal;font-variant:normal;font-weight:normal;font-stretch:normal;font-size:medium;line-height:normal;font-family:sans-serif;text-indent:0;text-align:start;text-decoration:none;text-decoration-line:none;text-decoration-style:solid;text-decoration-color:#000000;letter-spacing:normal;word-spacing:normal;text-transform:none;writing-mode:lr-tb;direction:ltr;baseline-shift:baseline;text-anchor:start;white-space:normal;clip-rule:nonzero;display:inline;overflow:visible;visibility:visible;opacity:1;isolation:auto;mix-blend-mode:normal;color-interpolation:sRGB;color-interpolation-filters:linearRGB;solid-color:#000000;solid-opacity:1;fill:#dc3232;fill-opacity:1;fill-rule:nonzero;stroke:none;stroke-width:6.20493507;stroke-linecap:butt;stroke-linejoin:round;stroke-miterlimit:100;stroke-dasharray:none;stroke-dashoffset:0;stroke-opacity:1;color-rendering:auto;image-rendering:auto;shape-rendering:auto;text-rendering:auto;enable-background:accumulate"
           d="m 32.450968,248.02187 -0.10809,-0.073 c -0.003,-0.002 -0.0048,-0.004 -0.0078,-0.006 l -0.76078,-0.5115 c -0.003,-0.002 -0.0073,-0.004 -0.01036,-0.006 l -0.76078,-0.50788 c -0.003,-0.002 -0.0047,-0.004 -0.0078,-0.006 l -0.76078,-0.50167 c -0.003,-0.002 -0.0073,-0.004 -0.01036,-0.006 l -0.76078,-0.50011 c -0.003,-0.002 -0.0048,-0.004 -0.0078,-0.006 l -0.760778,-0.49597 c -0.003,-10e-4 -0.0053,-0.003 -0.0083,-0.004 l -0.760781,-0.49444 c -0.003,-0.001 -0.0053,-0.003 -0.0083,-0.004 l -0.758709,-0.49029 c -0.003,-0.002 -0.0048,-0.004 -0.0078,-0.006 l -0.76078,-0.48615 c -0.003,-0.001 -0.0053,-0.003 -0.0083,-0.004 l -0.76078,-0.48409 c -0.003,-10e-4 -0.0048,-0.003 -0.0078,-0.004 l -0.759229,-0.48253 c -0.003,-0.001 -0.0048,-0.003 -0.0078,-0.004 l -0.760779,-0.4784 c -0.003,-0.001 -0.0053,-0.003 -0.0083,-0.004 l -0.758712,-0.47478 c -0.003,-0.001 -0.0053,-0.003 -0.0083,-0.004 l -0.76078,-0.4722 c -0.002,-0.001 -0.0037,-0.003 -0.0057,-0.004 l -0.76078,-0.47064 c -0.002,-0.001 -0.0042,-0.003 -0.0062,-0.004 l -0.760779,-0.46649 c -0.003,-0.001 -0.0053,-0.003 -0.0083,-0.004 l -0.760781,-0.46495 c -0.002,-0.001 -0.0037,-0.003 -0.0057,-0.004 l -0.75716,-0.45926 c -0.002,-0.001 -0.0042,-0.003 -0.0062,-0.004 l -0.76078,-0.45874 c -0.002,-0.001 -0.0042,-0.003 -0.0062,-0.004 l -0.760779,-0.45875 c -0.002,-7.9e-4 -0.0037,-0.001 -0.0057,-0.002 l -0.76078,-0.45512 c -0.002,-0.001 -0.0042,-0.003 -0.0062,-0.004 l -0.02276,-0.0135 v 7.24578 l 0.619071,0.37753 0.755091,0.46288 0.753022,0.46651 0.754574,0.46856 0.753022,0.47065 0.755091,0.4727 0.753022,0.47633 0.753023,0.48047 0.753021,0.48046 0.753022,0.48616 0.753022,0.48823 0.753023,0.49028 0.752505,0.49444 0.751469,0.49804 0.753022,0.50167 0.750954,0.50425 0.750954,0.50789 0.750951,0.51149 0.750954,0.5177 0.748886,0.51978 0.749403,0.52546 0.748882,0.5296 0.748884,0.53528 0.747334,0.53942 0.747335,0.54512 0.744747,0.5508 0.745263,0.55908 0.743196,0.56476 0.743195,0.57253 0.73906,0.57822 0.739575,0.5901 0.735437,0.59838 0.734921,0.60977 0.729748,0.62166 0.725611,0.6351 0.719406,0.65321 0.713715,0.67078 0.705959,0.692 0.69251,0.7194 0.672341,0.7551 0.647,0.79595 0.602004,0.85335 0.380649,0.69407 2.038745,5.80178 -2.066674,-6.9365 -0.527528,-1.25727 -0.663032,-1.26659 -0.689925,-1.16884 -0.708028,-1.10005 -0.715784,-1.05093 -0.725613,-1.01161 -0.72923,-0.98265 -0.733368,-0.95679 -0.737508,-0.93559 -0.739059,-0.91542 -0.741124,-0.90042 -0.743199,-0.88387 -0.743195,-0.87301 -0.747332,-0.85698 -0.745264,-0.84715 -0.746818,-0.8368 -0.747331,-0.82751 -0.748886,-0.81611 -0.748883,-0.80991 -0.749403,-0.80008 -0.748886,-0.79182 z"
           id="path4571-7"
           inkscape:connector-curvature="0" />
        <path
           style="color:#000000;font-style:normal;font-variant:normal;font-weight:normal;font-stretch:normal;font-size:medium;line-height:normal;font-family:sans-serif;text-indent:0;text-align:start;text-decoration:none;text-decoration-line:none;text-decoration-style:solid;text-decoration-color:#000000;letter-spacing:normal;word-spacing:normal;text-transform:none;writing-mode:lr-tb;direction:ltr;baseline-shift:baseline;text-anchor:start;white-space:normal;clip-rule:nonzero;display:inline;overflow:visible;visibility:visible;opacity:1;isolation:auto;mix-blend-mode:normal;color-interpolation:sRGB;color-interpolation-filters:linearRGB;solid-color:#000000;solid-opacity:1;fill:#d40000;fill-opacity:1;fill-rule:nonzero;stroke:none;stroke-width:6.20493507;stroke-linecap:butt;stroke-linejoin:round;stroke-miterlimit:100;stroke-dasharray:none;stroke-dashoffset:0;stroke-opacity:1;color-rendering:auto;image-rendering:auto;shape-rendering:auto;text-rendering:auto;enable-background:accumulate"
           d="m 16.955055,233.16572 0.179463,0.15878 0.753023,0.67079 0.750953,0.67648 0.753023,0.68009 0.753022,0.68476 0.753021,0.68992 0.752506,0.69407 0.75147,0.70027 0.753022,0.70595 0.752505,0.70958 0.751471,0.71578 0.753021,0.71993 0.750954,0.72716 0.750954,0.73182 0.753022,0.73906 0.750954,0.7432 0.750953,0.75095 0.750952,0.75508 0.750954,0.76441 0.750954,0.76905 0.749402,0.77629 0.750952,0.78458 0.748886,0.79181 0.749402,0.80009 0.748883,0.80991 0.748886,0.81611 0.747332,0.82751 0.746818,0.8368 0.745264,0.84715 0.747332,0.85698 0.743195,0.87301 0.743198,0.88387 0.741125,0.90041 0.739059,0.91543 0.737507,0.93558 0.733369,0.9568 0.729229,0.98265 0.725613,1.01161 0.715784,1.05093 0.708028,1.10005 0.689926,1.16884 0.663032,1.26659 0.527528,1.25727 2.070812,6.94942 -2.088395,-8.15756 -0.621658,-1.9079 -0.703888,-1.78843 -0.721993,-1.64516 -0.72923,-1.55105 -0.735437,-1.48639 -0.73906,-1.43311 -0.743195,-1.39072 -0.743196,-1.35657 -0.745266,-1.32555 -0.747331,-1.30021 -0.746816,-1.27486 -0.748885,-1.25469 -0.749403,-1.23142 -0.748884,-1.2159 -0.750953,-1.19625 -0.749403,-1.18022 -0.750951,-1.1647 -0.748886,-1.14919 -0.750954,-1.13522 -0.750951,-1.12177 -0.01448,-0.0227 -0.547183,-0.54563 c -0.003,-0.003 -0.0053,-0.007 -0.0083,-0.01 l -0.760778,-0.75303 -0.0098,-0.0104 -0.760781,-0.74682 c -0.003,-0.003 -0.0073,-0.005 -0.01036,-0.008 l -0.758713,-0.74112 -0.0098,-0.01 -0.760779,-0.73337 c -0.003,-0.003 -0.0053,-0.007 -0.0083,-0.0104 l -0.76078,-0.72923 c -0.003,-0.003 -0.0068,-0.005 -0.0098,-0.008 l -0.760781,-0.72354 -0.0083,-0.008 -0.760777,-0.71785 -0.0083,-0.008 -0.760781,-0.71372 -0.0078,-0.008 -0.760779,-0.70803 c -0.003,-0.003 -0.0073,-0.005 -0.01034,-0.008 L 25.100656,232.16 c -0.003,-0.003 -0.0073,-0.005 -0.01034,-0.008 l -0.76078,-0.69613 -0.0078,-0.008 -0.76078,-0.69199 -0.0083,-0.008 -0.760779,-0.68837 c -0.003,-0.002 -0.0047,-0.004 -0.0078,-0.006 l -0.760779,-0.68269 -0.0088,-0.008 -0.760781,-0.67856 c -0.003,-0.002 -0.0053,-0.004 -0.0083,-0.006 l -0.760779,-0.67441 -0.0078,-0.008 -0.759228,-0.6682 c -0.003,-0.002 -0.0047,-0.004 -0.0078,-0.006 l -0.76078,-0.66459 c -0.003,-0.002 -0.0053,-0.004 -0.0083,-0.006 l -0.76078,-0.66096 -0.0078,-0.008 -0.760779,-0.65527 c -0.003,-0.002 -0.0053,-0.004 -0.0083,-0.006 l -0.4484,-0.38478 z"
           id="path4533-5"
           inkscape:connector-curvature="0" />
        <path
           style="color:#000000;font-style:normal;font-variant:normal;font-weight:normal;font-stretch:normal;font-size:medium;line-height:normal;font-family:sans-serif;text-indent:0;text-align:start;text-decoration:none;text-decoration-line:none;text-decoration-style:solid;text-decoration-color:#000000;letter-spacing:normal;word-spacing:normal;text-transform:none;writing-mode:lr-tb;direction:ltr;baseline-shift:baseline;text-anchor:start;white-space:normal;clip-rule:nonzero;display:inline;overflow:visible;visibility:visible;opacity:1;isolation:auto;mix-blend-mode:normal;color-interpolation:sRGB;color-interpolation-filters:linearRGB;solid-color:#000000;solid-opacity:1;fill:#212121;fill-opacity:1;fill-rule:nonzero;stroke:none;stroke-width:6.20493507;stroke-linecap:butt;stroke-linejoin:round;stroke-miterlimit:100;stroke-dasharray:none;stroke-dashoffset:0;stroke-opacity:1;color-rendering:auto;image-rendering:auto;shape-rendering:auto;text-rendering:auto;enable-background:accumulate"
           d="m 1.860995,208.86524 c -0.8025336,0 -1.20349014,0.37064 -1.20349014,1.11143 v 4.72243 c 0,0.74079 0.40095654,1.11091 1.20349014,1.11091 h 7.0378619 v 52.59673 H 1.860995 c -0.8025336,0 -1.20349014,0.37065 -1.20349014,1.11144 v 4.72242 c 0,0.74079 0.40095654,1.11091 1.20349014,1.11091 h 22.22398 c 0.80253,0 1.204008,-0.37012 1.204008,-1.11091 v -4.72242 c 0,-0.74079 -0.401478,-1.11144 -1.204008,-1.11144 h -7.12992 v -45.55887 -4.49124 l 0.619071,0.73699 0.750954,0.90611 0.750954,0.91386 0.753021,0.92164 0.750953,0.92937 0.753023,0.93922 0.750953,0.94903 0.751471,0.95679 0.752505,0.96662 0.75147,0.97696 0.750954,0.9842 0.753022,0.99611 0.750953,1.00592 0.750953,1.01575 0.753023,1.02559 0.750953,1.03747 0.750955,1.04886 0.750951,1.05867 0.750954,1.07109 0.753022,1.08402 0.750954,1.09436 0.751471,1.10989 0.750954,1.12177 0.750951,1.13523 0.748886,1.14918 0.750955,1.1647 0.749399,1.18022 0.750954,1.19625 0.748886,1.21591 0.749402,1.23141 0.748884,1.25469 0.746815,1.27487 0.747334,1.3002 0.745264,1.32555 0.743195,1.35657 0.743195,1.39072 0.73906,1.43312 0.735436,1.48639 0.729233,1.55104 0.72199,1.64517 0.703889,1.78842 0.621659,1.9079 2.088395,8.15757 h 1.229866 1.852042 5.000149 c 0.802531,0 1.204009,-0.37064 1.204009,-1.11143 v -58.43007 h 7.129919 c 0.740797,0 1.11143,-0.37064 1.11143,-1.11143 v -4.72243 c 0,-0.74079 -0.370633,-1.11143 -1.11143,-1.11143 H 44.272278 c -0.740796,0 -1.111433,0.37064 -1.111433,1.11143 v 4.72243 c 0,0.74079 0.370637,1.11143 1.111433,1.11143 h 7.129919 v 42.87105 l -0.492877,-1.04833 c -0.009,-0.0191 -0.01806,-0.0379 -0.02741,-0.0568 l -0.760781,-1.53553 c -0.008,-0.015 -0.01535,-0.0301 -0.02328,-0.045 l -0.760782,-1.47658 c -0.006,-0.0124 -0.01303,-0.0249 -0.01965,-0.0372 l -0.760777,-1.42537 c -0.006,-0.0111 -0.01218,-0.0226 -0.01811,-0.0336 l -0.760781,-1.38606 c -0.005,-0.01 -0.01028,-0.0198 -0.01551,-0.0295 l -0.760782,-1.35295 c -0.005,-0.008 -0.0092,-0.0173 -0.01395,-0.0258 L 46.22672,248.9052 c -0.005,-0.007 -0.0087,-0.0145 -0.01345,-0.0217 l -0.760772,-1.29813 c -0.004,-0.007 -0.0081,-0.014 -0.01189,-0.0212 l -0.760781,-1.27486 c -0.004,-0.007 -0.0081,-0.0131 -0.01189,-0.0196 l -0.760781,-1.25263 c -0.004,-0.006 -0.0081,-0.0122 -0.01189,-0.0181 l -0.76078,-1.23348 c -0.004,-0.006 -0.0081,-0.0116 -0.01189,-0.0176 l -0.760781,-1.21383 c -0.003,-0.006 -0.0068,-0.0116 -0.0098,-0.0176 l -0.76078,-1.19625 c -0.003,-0.006 -0.0073,-0.0117 -0.01036,-0.0176 l -0.76078,-1.18022 c -0.003,-0.005 -0.0068,-0.0107 -0.0098,-0.016 l -0.760781,-1.16471 c -0.003,-0.005 -0.0073,-0.0102 -0.01036,-0.0155 L 39.27836,237.7748 c -0.003,-0.005 -0.0068,-0.009 -0.0098,-0.0134 l -0.760779,-1.1373 c -0.003,-0.005 -0.0073,-0.009 -0.01036,-0.0139 l -0.760781,-1.12178 c -0.003,-0.005 -0.0068,-0.009 -0.0098,-0.0134 l -0.76078,-1.10988 c -0.003,-0.005 -0.0073,-0.009 -0.01036,-0.0139 l -0.76078,-1.09799 c -0.003,-0.004 -0.0068,-0.008 -0.0098,-0.0119 l -0.758711,-1.08608 c -0.003,-0.004 -0.0073,-0.008 -0.01036,-0.0119 l -0.76078,-1.07264 c -0.003,-0.005 -0.0068,-0.009 -0.0098,-0.0134 L 33.88466,229.9965 c -0.003,-0.004 -0.0053,-0.008 -0.0083,-0.0119 l -0.760778,-1.05092 c -0.003,-0.004 -0.0068,-0.008 -0.0098,-0.0119 l -0.760778,-1.03904 c -0.003,-0.004 -0.0073,-0.008 -0.01036,-0.0119 l -0.760781,-1.02972 c -0.003,-0.004 -0.0048,-0.008 -0.0078,-0.0114 l -0.761297,-1.01782 c -0.003,-0.004 -0.0068,-0.008 -0.0098,-0.0119 l -0.760778,-1.00748 c -0.003,-0.004 -0.0053,-0.008 -0.0083,-0.0119 l -0.760781,-0.9961 c -0.003,-0.004 -0.0068,-0.008 -0.0098,-0.0119 l -0.760782,-0.98834 c -0.003,-0.004 -0.0053,-0.008 -0.0083,-0.0114 l -0.760825,-0.9786 c -0.003,-0.004 -0.0068,-0.008 -0.0098,-0.0119 l -0.760781,-0.96869 c -0.003,-0.003 -0.0053,-0.007 -0.0083,-0.01 l -0.76078,-0.96094 -0.0098,-0.01 -0.76078,-0.95111 c -0.003,-0.004 -0.0053,-0.008 -0.0083,-0.0119 l -0.76078,-0.94128 -0.0098,-0.01 -0.76078,-0.93352 c -0.003,-0.004 -0.0053,-0.008 -0.0083,-0.0119 l -0.760781,-0.9237 -0.0098,-0.01 -0.760781,-0.91594 c -0.003,-0.004 -0.0053,-0.008 -0.0083,-0.0114 l -0.76078,-0.90818 -0.0098,-0.01 -0.759228,-0.8999 -0.0098,-0.0103 -0.76078,-0.89007 c -0.003,-0.004 -0.0053,-0.008 -0.0083,-0.0119 l -0.76078,-0.88232 -0.0098,-0.01 -0.760781,-0.87663 c -0.003,-0.003 -0.0053,-0.007 -0.0083,-0.0104 l -0.760815,-0.86835 -0.0098,-0.0103 c -0.251248,-0.28631 -0.503355,-0.57293 -0.75354,-0.85957 z"
           id="path4546-9"
           inkscape:connector-curvature="0"
           sodipodi:nodetypes="ssssccssssssssccccccccccccccccccccccccccccccccccccccccccccccccsscsssssssscccccccccccccccccccccccccccccccccccccccccccccccccccccccccccccccccccccccccccccccccccccccccccs" />
      </g>
      <path
         d="m 268.77258,274.75651 h -5.12481 q -1.18969,0 -1.18969,-1.09817 v -21.4144 q 0,-1.18969 1.18969,-1.18969 h 5.76542 q 1.09817,0 1.09817,1.18969 v 1.9218 q 0,1.73878 2.10484,4.66724 2.10483,2.83695 4.20966,4.66724 2.10484,1.83029 5.58239,3.20301 3.56907,1.28121 7.68722,1.28121 7.04662,0 10.98175,-2.92847 4.02663,-2.92846 4.02663,-8.14479 0,-3.01998 -2.28786,-5.12482 -2.19635,-2.19635 -5.76541,-3.47755 -3.56907,-1.2812 -7.96177,-2.37938 -4.30118,-1.09817 -8.69388,-2.47089 -4.30118,-1.46423 -7.87025,-3.38604 -3.56907,-2.01332 -5.85693,-5.49087 -2.19635,-3.56907 -2.19635,-8.32782 0,-7.68722 5.76542,-12.72052 5.85693,-5.0333 15.64898,-5.0333 12.35447,0 18.11988,7.22965 l -0.18303,-5.6739 q 0,-1.09818 1.18969,-1.09818 h 5.12481 q 1.09818,0 1.09818,1.09818 v 19.95016 q 0,1.09818 -1.09818,1.09818 h -5.76541 q -1.09818,0 -1.09818,-1.09818 v -2.5624 q 0,-3.7521 -4.20966,-7.59571 -4.20967,-3.84361 -12.35447,-3.84361 -6.03996,0 -9.79205,2.92847 -3.66058,2.83695 -3.66058,7.32116 0,3.20301 2.28786,5.49087 2.28786,2.28786 5.94845,3.66058 3.66058,1.37272 8.05327,2.56241 4.3927,1.09817 8.7854,2.47089 4.3927,1.37272 8.05328,3.29452 3.66058,1.92181 5.94844,5.30785 2.28787,3.29452 2.28787,7.87025 0,8.05328 -5.76542,13.26961 -5.76542,5.21632 -17.20473,5.21632 -8.41934,0 -13.91021,-3.38603 -5.49087,-3.38604 -7.96177,-7.32117 l 0.0915,8.96843 q 0,1.09817 -1.09817,1.09817 z"
         style="font-style:normal;font-variant:normal;font-weight:normal;font-stretch:normal;font-size:91.44000244px;line-height:1.25;font-family:Sanchez;-inkscape-font-specification:Sanchez;letter-spacing:-4.66989565px;word-spacing:0px;fill:#d40000;fill-opacity:1;stroke:none;stroke-width:0.26458332"
         id="path4798"
         inkscape:connector-curvature="0" />
      <path
         d="m 343.09452,274.75651 h -23.8853 q -1.18969,0 -1.18969,-1.09817 v -4.66724 q 0,-1.09818 1.18969,-1.09818 h 6.95511 v -51.98025 h -6.95511 q -1.18969,0 -1.18969,-1.09818 v -4.66724 q 0,-1.09817 1.18969,-1.09817 h 28.18648 q 9.70054,0 15.83201,5.6739 6.22299,5.58238 6.22299,15.19141 0,9.51751 -6.03996,14.82535 -6.03996,5.21633 -17.0217,5.21633 h -12.26295 v 17.93685 h 8.96843 q 1.09817,0 1.09817,1.09818 v 4.66724 q 0,1.09817 -1.09817,1.09817 z m -8.96843,-31.29797 h 11.89689 q 15.37444,0 15.37444,-13.54415 0,-7.04662 -4.39269,-10.52417 -4.30119,-3.47755 -10.89023,-3.47755 h -11.98841 z"
         style="font-style:normal;font-variant:normal;font-weight:normal;font-stretch:normal;font-size:91.44000244px;line-height:1.25;font-family:Sanchez;-inkscape-font-specification:Sanchez;letter-spacing:-4.66989565px;word-spacing:0px;fill:#d40000;fill-opacity:1;stroke:none;stroke-width:0.26458332"
         id="path4800"
         inkscape:connector-curvature="0" />
      <path
         d="m 426.24475,274.75651 h -20.68229 q -1.09818,0 -1.09818,-1.09817 v -4.66724 q 0,-1.09818 1.09818,-1.09818 h 6.40601 l -5.94844,-15.83201 h -25.53256 l -5.94845,15.83201 h 6.40603 q 1.09817,0 1.09817,1.09818 v 4.66724 q 0,1.09817 -1.09817,1.09817 h -20.59078 q -1.09817,0 -1.09817,-1.09817 v -4.66724 q 0,-1.09818 1.09817,-1.09818 h 6.13147 l 19.67563,-51.98025 h -4.94178 q -1.18969,0 -1.18969,-1.09818 v -4.66724 q 0,-1.09817 1.18969,-1.09817 h 12.44598 q 2.19634,0 3.29452,0.91514 1.18969,0.91515 2.01332,3.01998 l 21.04835,54.90872 h 6.22299 q 1.09817,0 1.09817,1.09818 v 4.66724 q 0,1.09817 -1.09817,1.09817 z M 403.54914,245.7464 393.39102,218.56659 h -0.27454 l -10.24963,27.17981 z"
         style="font-style:normal;font-variant:normal;font-weight:normal;font-stretch:normal;font-size:91.44000244px;line-height:1.25;font-family:Sanchez;-inkscape-font-specification:Sanchez;letter-spacing:-4.66989565px;word-spacing:0px;fill:#d40000;fill-opacity:1;stroke:none;stroke-width:0.26458332"
         id="path4802"
         inkscape:connector-curvature="0" />
    </g>
  </g>
</svg>
