<?xml version="1.0" encoding="UTF-8" standalone="no"?>
<!-- Created with Inkscape (http://www.inkscape.org/) -->

<svg
   xmlns:dc="http://purl.org/dc/elements/1.1/"
   xmlns:cc="http://creativecommons.org/ns#"
   xmlns:rdf="http://www.w3.org/1999/02/22-rdf-syntax-ns#"
   xmlns:svg="http://www.w3.org/2000/svg"
   xmlns="http://www.w3.org/2000/svg"
   xmlns:sodipodi="http://sodipodi.sourceforge.net/DTD/sodipodi-0.dtd"
   xmlns:inkscape="http://www.inkscape.org/namespaces/inkscape"
   width="376.32663mm"
   height="90.00132mm"
   viewBox="0 0 376.32663 90.00132"
   version="1.1"
   id="svg8"
   inkscape:version="0.92.3 (2405546, 2018-03-11)"
   sodipodi:docname="full-light.svg">
  <defs
     id="defs2">
    <clipPath
       id="p594bf549dd">
      <rect
         id="rect409"
         y="79.199997"
         x="54"
         width="334.79999"
         height="613.79999" />
    </clipPath>
    <clipPath
       id="clipPath6004">
      <rect
         id="rect6002"
         y="79.199997"
         x="54"
         width="334.79999"
         height="613.79999" />
    </clipPath>
    <clipPath
       id="clipPath6008">
      <rect
         id="rect6006"
         y="79.199997"
         x="54"
         width="334.79999"
         height="613.79999" />
    </clipPath>
    <clipPath
       id="clipPath6012">
      <rect
         id="rect6010"
         y="79.199997"
         x="54"
         width="334.79999"
         height="613.79999" />
    </clipPath>
    <clipPath
       id="p594bf549dd-7">
      <rect
         height="613.79999"
         width="334.79999"
         x="54"
         y="79.199997"
         id="rect409-5" />
    </clipPath>
    <clipPath
       id="clipPath6004-35">
      <rect
         height="613.79999"
         width="334.79999"
         x="54"
         y="79.199997"
         id="rect6002-62" />
    </clipPath>
    <clipPath
       id="clipPath6008-9">
      <rect
         height="613.79999"
         width="334.79999"
         x="54"
         y="79.199997"
         id="rect6006-1" />
    </clipPath>
    <clipPath
       id="clipPath6012-27">
      <rect
         height="613.79999"
         width="334.79999"
         x="54"
         y="79.199997"
         id="rect6010-0" />
    </clipPath>
    <clipPath
       id="p594bf549dd-3">
      <rect
         id="rect409-6"
         y="79.199997"
         x="54"
         width="334.79999"
         height="613.79999" />
    </clipPath>
    <clipPath
       id="clipPath6004-7">
      <rect
         id="rect6002-5"
         y="79.199997"
         x="54"
         width="334.79999"
         height="613.79999" />
    </clipPath>
    <clipPath
       id="clipPath6008-3">
      <rect
         id="rect6006-5"
         y="79.199997"
         x="54"
         width="334.79999"
         height="613.79999" />
    </clipPath>
    <clipPath
       id="clipPath6012-6">
      <rect
         id="rect6010-2"
         y="79.199997"
         x="54"
         width="334.79999"
         height="613.79999" />
    </clipPath>
    <clipPath
       id="p594bf549dd-0">
      <rect
         height="613.79999"
         width="334.79999"
         x="54"
         y="79.199997"
         id="rect409-9" />
    </clipPath>
    <clipPath
       id="clipPath6004-3">
      <rect
         height="613.79999"
         width="334.79999"
         x="54"
         y="79.199997"
         id="rect6002-6" />
    </clipPath>
    <clipPath
       id="clipPath6008-0">
      <rect
         height="613.79999"
         width="334.79999"
         x="54"
         y="79.199997"
         id="rect6006-6" />
    </clipPath>
    <clipPath
       id="clipPath6012-2">
      <rect
         height="613.79999"
         width="334.79999"
         x="54"
         y="79.199997"
         id="rect6010-6" />
    </clipPath>
    <clipPath
       id="p594bf549dd-753">
      <rect
         height="613.79999"
         width="334.79999"
         x="54"
         y="79.199997"
         id="rect409-56" />
    </clipPath>
    <clipPath
       id="clipPath6004-29">
      <rect
         height="613.79999"
         width="334.79999"
         x="54"
         y="79.199997"
         id="rect6002-1" />
    </clipPath>
    <clipPath
       id="clipPath6008-27">
      <rect
         height="613.79999"
         width="334.79999"
         x="54"
         y="79.199997"
         id="rect6006-0" />
    </clipPath>
    <clipPath
       id="clipPath6012-93">
      <rect
         height="613.79999"
         width="334.79999"
         x="54"
         y="79.199997"
         id="rect6010-60" />
    </clipPath>
    <clipPath
       id="p594bf549dd-3-62">
      <rect
         id="rect409-6-6"
         y="79.199997"
         x="54"
         width="334.79999"
         height="613.79999" />
    </clipPath>
    <clipPath
       id="clipPath6004-7-18">
      <rect
         id="rect6002-5-7"
         y="79.199997"
         x="54"
         width="334.79999"
         height="613.79999" />
    </clipPath>
    <clipPath
       id="clipPath6008-3-9">
      <rect
         id="rect6006-5-2"
         y="79.199997"
         x="54"
         width="334.79999"
         height="613.79999" />
    </clipPath>
    <clipPath
       id="clipPath6012-6-02">
      <rect
         id="rect6010-2-3"
         y="79.199997"
         x="54"
         width="334.79999"
         height="613.79999" />
    </clipPath>
    <clipPath
       id="p594bf549dd-7-7">
      <rect
         id="rect409-5-5"
         y="79.199997"
         x="54"
         width="334.79999"
         height="613.79999" />
    </clipPath>
    <clipPath
       id="clipPath6004-3-9">
      <rect
         id="rect6002-56"
         y="79.199997"
         x="54"
         width="334.79999"
         height="613.79999" />
    </clipPath>
    <clipPath
       id="clipPath6008-2">
      <rect
         id="rect6006-9"
         y="79.199997"
         x="54"
         width="334.79999"
         height="613.79999" />
    </clipPath>
    <clipPath
       id="clipPath6012-1">
      <rect
         id="rect6010-27"
         y="79.199997"
         x="54"
         width="334.79999"
         height="613.79999" />
    </clipPath>
    <clipPath
       id="p594bf549dd-0-2">
      <rect
         id="rect409-2"
         y="79.199997"
         x="54"
         width="334.79999"
         height="613.79999" />
    </clipPath>
    <clipPath
       id="clipPath6004-37">
      <rect
         id="rect6002-59"
         y="79.199997"
         x="54"
         width="334.79999"
         height="613.79999" />
    </clipPath>
    <clipPath
       id="clipPath6008-22">
      <rect
         id="rect6006-8"
         y="79.199997"
         x="54"
         width="334.79999"
         height="613.79999" />
    </clipPath>
    <clipPath
       id="clipPath6012-97">
      <rect
         id="rect6010-36"
         y="79.199997"
         x="54"
         width="334.79999"
         height="613.79999" />
    </clipPath>
    <clipPath
       id="p594bf549dd-3-1">
      <rect
         height="613.79999"
         width="334.79999"
         x="54"
         y="79.199997"
         id="rect409-6-2" />
    </clipPath>
    <clipPath
       id="clipPath6004-7-9">
      <rect
         height="613.79999"
         width="334.79999"
         x="54"
         y="79.199997"
         id="rect6002-5-3" />
    </clipPath>
    <clipPath
       id="clipPath6008-3-1">
      <rect
         height="613.79999"
         width="334.79999"
         x="54"
         y="79.199997"
         id="rect6006-5-9" />
    </clipPath>
    <clipPath
       id="clipPath6012-6-4">
      <rect
         height="613.79999"
         width="334.79999"
         x="54"
         y="79.199997"
         id="rect6010-2-7" />
    </clipPath>
    <clipPath
       id="p594bf549dd-8">
      <rect
         height="613.79999"
         width="334.79999"
         x="54"
         y="79.199997"
         id="rect409-9-2" />
    </clipPath>
    <clipPath
       id="clipPath6004-73">
      <rect
         height="613.79999"
         width="334.79999"
         x="54"
         y="79.199997"
         id="rect6002-6-8" />
    </clipPath>
    <clipPath
       id="clipPath6008-1">
      <rect
         height="613.79999"
         width="334.79999"
         x="54"
         y="79.199997"
         id="rect6006-2" />
    </clipPath>
    <clipPath
       id="clipPath6012-9">
      <rect
         height="613.79999"
         width="334.79999"
         x="54"
         y="79.199997"
         id="rect6010-3" />
    </clipPath>
    <clipPath
       id="p594bf549dd-6">
      <rect
         height="613.79999"
         width="334.79999"
         x="54"
         y="79.199997"
         id="rect409-3" />
    </clipPath>
    <clipPath
       id="clipPath6004-2">
      <rect
         height="613.79999"
         width="334.79999"
         x="54"
         y="79.199997"
         id="rect6002-0" />
    </clipPath>
    <clipPath
       id="clipPath6008-6">
      <rect
         height="613.79999"
         width="334.79999"
         x="54"
         y="79.199997"
         id="rect6006-1-9" />
    </clipPath>
    <clipPath
       id="clipPath6012-5">
      <rect
         height="613.79999"
         width="334.79999"
         x="54"
         y="79.199997"
         id="rect6010-5" />
    </clipPath>
    <clipPath
       id="p594bf549dd-75">
      <rect
         id="rect409-35"
         y="79.199997"
         x="54"
         width="334.79999"
         height="613.79999" />
    </clipPath>
    <clipPath
       id="clipPath6004-6">
      <rect
         id="rect6002-2"
         y="79.199997"
         x="54"
         width="334.79999"
         height="613.79999" />
    </clipPath>
    <clipPath
       id="clipPath6008-91">
      <rect
         id="rect6006-27"
         y="79.199997"
         x="54"
         width="334.79999"
         height="613.79999" />
    </clipPath>
    <clipPath
       id="clipPath6012-0">
      <rect
         id="rect6010-9"
         y="79.199997"
         x="54"
         width="334.79999"
         height="613.79999" />
    </clipPath>
    <clipPath
       id="p594bf549dd-7-3">
      <rect
         height="613.79999"
         width="334.79999"
         x="54"
         y="79.199997"
         id="rect409-5-6" />
    </clipPath>
    <clipPath
       id="clipPath6004-35-7">
      <rect
         height="613.79999"
         width="334.79999"
         x="54"
         y="79.199997"
         id="rect6002-62-3" />
    </clipPath>
    <clipPath
       id="clipPath6008-9-6">
      <rect
         height="613.79999"
         width="334.79999"
         x="54"
         y="79.199997"
         id="rect6006-1-0" />
    </clipPath>
    <clipPath
       id="clipPath6012-27-1">
      <rect
         height="613.79999"
         width="334.79999"
         x="54"
         y="79.199997"
         id="rect6010-0-2" />
    </clipPath>
    <clipPath
       id="p594bf549dd-3-6">
      <rect
         id="rect409-6-26"
         y="79.199997"
         x="54"
         width="334.79999"
         height="613.79999" />
    </clipPath>
    <clipPath
       id="clipPath6004-7-1">
      <rect
         id="rect6002-5-8"
         y="79.199997"
         x="54"
         width="334.79999"
         height="613.79999" />
    </clipPath>
    <clipPath
       id="clipPath6008-3-7">
      <rect
         id="rect6006-5-92"
         y="79.199997"
         x="54"
         width="334.79999"
         height="613.79999" />
    </clipPath>
    <clipPath
       id="clipPath6012-6-0">
      <rect
         id="rect6010-2-2"
         y="79.199997"
         x="54"
         width="334.79999"
         height="613.79999" />
    </clipPath>
    <clipPath
       id="p594bf549dd-0-3">
      <rect
         height="613.79999"
         width="334.79999"
         x="54"
         y="79.199997"
         id="rect409-9-7" />
    </clipPath>
    <clipPath
       id="clipPath6004-3-5">
      <rect
         height="613.79999"
         width="334.79999"
         x="54"
         y="79.199997"
         id="rect6002-6-9" />
    </clipPath>
    <clipPath
       id="clipPath6008-0-9">
      <rect
         height="613.79999"
         width="334.79999"
         x="54"
         y="79.199997"
         id="rect6006-6-3" />
    </clipPath>
    <clipPath
       id="clipPath6012-2-1">
      <rect
         height="613.79999"
         width="334.79999"
         x="54"
         y="79.199997"
         id="rect6010-6-9" />
    </clipPath>
    <clipPath
       id="p594bf549dd-06">
      <rect
         height="613.79999"
         width="334.79999"
         x="54"
         y="79.199997"
         id="rect409-1" />
    </clipPath>
    <clipPath
       id="clipPath6004-5">
      <rect
         height="613.79999"
         width="334.79999"
         x="54"
         y="79.199997"
         id="rect6002-54" />
    </clipPath>
    <clipPath
       id="clipPath6008-7">
      <rect
         height="613.79999"
         width="334.79999"
         x="54"
         y="79.199997"
         id="rect6006-65" />
    </clipPath>
    <clipPath
       id="clipPath6012-69">
      <rect
         height="613.79999"
         width="334.79999"
         x="54"
         y="79.199997"
         id="rect6010-37" />
    </clipPath>
    <clipPath
       id="p594bf549dd-6-4">
      <rect
         id="rect409-0"
         y="79.199997"
         x="54"
         width="334.79999"
         height="613.79999" />
    </clipPath>
    <clipPath
       id="clipPath6004-6-5">
      <rect
         id="rect6002-2-2"
         y="79.199997"
         x="54"
         width="334.79999"
         height="613.79999" />
    </clipPath>
    <clipPath
       id="clipPath6008-6-5">
      <rect
         id="rect6006-1-4"
         y="79.199997"
         x="54"
         width="334.79999"
         height="613.79999" />
    </clipPath>
    <clipPath
       id="clipPath6012-8">
      <rect
         id="rect6010-7"
         y="79.199997"
         x="54"
         width="334.79999"
         height="613.79999" />
    </clipPath>
    <clipPath
       id="p594bf549dd-39">
      <rect
         height="613.79999"
         width="334.79999"
         x="54"
         y="79.199997"
         id="rect409-4" />
    </clipPath>
    <clipPath
       id="clipPath6004-8">
      <rect
         height="613.79999"
         width="334.79999"
         x="54"
         y="79.199997"
         id="rect6002-12" />
    </clipPath>
    <clipPath
       id="clipPath6008-93">
      <rect
         height="613.79999"
         width="334.79999"
         x="54"
         y="79.199997"
         id="rect6006-90" />
    </clipPath>
    <clipPath
       id="clipPath6012-88">
      <rect
         height="613.79999"
         width="334.79999"
         x="54"
         y="79.199997"
         id="rect6010-50" />
    </clipPath>
    <clipPath
       id="p594bf549dd-3-9">
      <rect
         id="rect409-6-63"
         y="79.199997"
         x="54"
         width="334.79999"
         height="613.79999" />
    </clipPath>
    <clipPath
       id="clipPath6004-7-8">
      <rect
         id="rect6002-5-5"
         y="79.199997"
         x="54"
         width="334.79999"
         height="613.79999" />
    </clipPath>
    <clipPath
       id="clipPath6008-3-6">
      <rect
         id="rect6006-5-1"
         y="79.199997"
         x="54"
         width="334.79999"
         height="613.79999" />
    </clipPath>
    <clipPath
       id="clipPath6012-6-1">
      <rect
         id="rect6010-2-5"
         y="79.199997"
         x="54"
         width="334.79999"
         height="613.79999" />
    </clipPath>
    <clipPath
       id="p594bf549dd-8-9">
      <rect
         id="rect409-9-8"
         y="79.199997"
         x="54"
         width="334.79999"
         height="613.79999" />
    </clipPath>
    <clipPath
       id="clipPath6004-73-4">
      <rect
         id="rect6002-6-81"
         y="79.199997"
         x="54"
         width="334.79999"
         height="613.79999" />
    </clipPath>
    <clipPath
       id="clipPath6008-1-0">
      <rect
         id="rect6006-2-3"
         y="79.199997"
         x="54"
         width="334.79999"
         height="613.79999" />
    </clipPath>
    <clipPath
       id="clipPath6012-9-0">
      <rect
         id="rect6010-3-4"
         y="79.199997"
         x="54"
         width="334.79999"
         height="613.79999" />
    </clipPath>
    <clipPath
       id="p594bf549dd-6-44">
      <rect
         id="rect409-3-4"
         y="79.199997"
         x="54"
         width="334.79999"
         height="613.79999" />
    </clipPath>
    <clipPath
       id="clipPath6004-2-7">
      <rect
         id="rect6002-0-6"
         y="79.199997"
         x="54"
         width="334.79999"
         height="613.79999" />
    </clipPath>
    <clipPath
       id="clipPath6008-6-3">
      <rect
         id="rect6006-1-1"
         y="79.199997"
         x="54"
         width="334.79999"
         height="613.79999" />
    </clipPath>
    <clipPath
       id="clipPath6012-5-7">
      <rect
         id="rect6010-5-5"
         y="79.199997"
         x="54"
         width="334.79999"
         height="613.79999" />
    </clipPath>
    <clipPath
       id="p594bf549dd-85">
      <rect
         height="613.79999"
         width="334.79999"
         x="54"
         y="79.199997"
         id="rect409-97" />
    </clipPath>
    <clipPath
       id="clipPath6004-53">
      <rect
         height="613.79999"
         width="334.79999"
         x="54"
         y="79.199997"
         id="rect6002-8" />
    </clipPath>
    <clipPath
       id="clipPath6008-8">
      <rect
         height="613.79999"
         width="334.79999"
         x="54"
         y="79.199997"
         id="rect6006-3" />
    </clipPath>
    <clipPath
       id="clipPath6012-18">
      <rect
         height="613.79999"
         width="334.79999"
         x="54"
         y="79.199997"
         id="rect6010-96" />
    </clipPath>
  </defs>
  <sodipodi:namedview
     id="base"
     pagecolor="#ffffff"
     bordercolor="#666666"
     borderopacity="1.0"
     inkscape:pageopacity="0"
     inkscape:pageshadow="2"
     inkscape:zoom="0.45254834"
     inkscape:cx="223.59772"
     inkscape:cy="351.79827"
     inkscape:document-units="mm"
     inkscape:current-layer="layer1"
     showgrid="false"
     width="400mm"
     inkscape:window-width="1916"
     inkscape:window-height="1033"
     inkscape:window-x="1920"
     inkscape:window-y="22"
     inkscape:window-maximized="0"
     fit-margin-top="1"
     fit-margin-left="1"
     fit-margin-right="1"
     fit-margin-bottom="1" />
  <metadata
     id="metadata5">
    <rdf:RDF>
      <cc:Work
         rdf:about="">
        <dc:format>image/svg+xml</dc:format>
        <dc:type
           rdf:resource="http://purl.org/dc/dcmitype/StillImage" />
        <dc:title></dc:title>
      </cc:Work>
    </rdf:RDF>
  </metadata>
  <g
     inkscape:label="Layer 1"
     inkscape:groupmode="layer"
     id="layer1"
     transform="translate(0.49999666,-207.49867)">
    <g
       id="g1048">
      <path
         d="M 107.22027,253.42347 H 74.225488 q 0.366609,7.60714 4.765914,11.73148 4.490956,4.12434 10.081737,4.12434 5.590783,0 9.531827,-2.38295 4.032694,-2.38296 5.407474,-4.67426 0.73322,-0.91652 1.64974,-0.27496 l 2.47461,2.47461 q 0.54991,0.54991 0.54991,1.00818 0,0.3666 -0.45826,1.00816 -0.36661,0.64157 -1.64974,2.01636 -1.28313,1.37478 -3.66608,3.11617 -2.29131,1.74139 -6.049045,2.93287 -3.666087,1.19147 -7.882088,1.19147 -9.623477,0 -16.130781,-6.32399 -6.415652,-6.32399 -6.415652,-16.95566 0,-10.7233 6.415652,-16.864 6.415652,-6.23234 15.672521,-6.23234 9.348521,0 14.664343,6.04904 5.31583,5.95739 5.31583,16.13078 0,0.36661 0,0.73322 0,1.19148 -1.28313,1.19148 z m -6.324,-5.59078 q -0.27496,-5.68244 -3.574434,-9.07357 -3.29948,-3.39113 -8.798609,-3.39113 -5.49913,0 -9.440174,3.11618 -3.941042,3.11617 -4.67426,9.34852 z"
         style="font-style:normal;font-variant:normal;font-weight:normal;font-stretch:normal;font-size:98.77777863px;line-height:6.61458302px;font-family:Sanchez;-inkscape-font-specification:Sanchez;letter-spacing:-5.54831266px;word-spacing:0px;fill:#212121;fill-opacity:1;stroke:none;stroke-width:0.24549687px;stroke-linecap:butt;stroke-linejoin:miter;stroke-opacity:1"
         id="path4528"
         inkscape:connector-curvature="0" />
      <path
         d="m 159.27318,275.05338 h -8.70696 q -3.94104,0 -3.94104,-3.84939 v -24.10452 q 0,-5.31583 -2.56626,-8.24869 -2.56627,-2.93288 -7.51548,-2.93288 -7.05722,0 -10.99826,5.77409 -0.45826,0.54992 -1.19148,2.01636 v 25.20434 h 4.85756 q 1.19148,0 1.19148,1.09982 v 3.94105 q 0,1.09982 -1.19148,1.09982 H 111.7057 q -1.19148,0 -1.19148,-1.09982 v -3.94105 q 0,-1.09982 1.19148,-1.09982 h 5.04087 v -32.81148 h -5.04087 q -1.19148,0 -1.19148,-1.09982 v -3.94106 q 0,-1.09981 1.19148,-1.09981 h 10.7233 q 1.19148,0 1.19148,1.09981 l -0.1833,6.23236 h 0.27496 q 4.76591,-7.97374 14.75599,-7.97374 7.33218,0 11.45653,4.30765 4.12434,4.30766 4.21599,11.63983 v 23.64626 h 5.13253 q 1.19148,0 1.19148,1.09982 v 3.94105 q 0,1.09982 -1.19148,1.09982 z"
         style="font-style:normal;font-variant:normal;font-weight:normal;font-stretch:normal;font-size:98.77777863px;line-height:6.61458302px;font-family:Sanchez;-inkscape-font-specification:Sanchez;letter-spacing:-5.54831266px;word-spacing:0px;fill:#212121;fill-opacity:1;stroke:none;stroke-width:0.24549687px;stroke-linecap:butt;stroke-linejoin:miter;stroke-opacity:1"
         id="path4530"
         inkscape:connector-curvature="0" />
      <path
         d="m 181.58066,296.49999 q -4.58261,0 -6.96556,-0.64157 -2.29131,-0.64156 -3.75774,-1.19147 -1.37479,-0.45826 -2.38296,-1.00818 -1.00817,-0.45826 -1.9247,-1.00817 -4.03269,-2.65792 -3.02452,-3.8494 l 2.38296,-3.39113 q 0.54991,-0.82487 1.55809,-0.0917 0.0917,0 0.54991,0.36661 0.54991,0.45826 1.00817,0.82487 0.54992,0.36661 1.37479,0.82487 0.91652,0.5499 2.01634,0.91652 1.09983,0.45826 2.38296,0.82486 3.02452,0.82488 6.69061,0.82488 6.59895,0 10.54,-3.20783 4.03269,-3.11617 4.03269,-9.89843 v -10.44834 q -1.64974,3.84938 -5.49913,6.59895 -3.75774,2.74955 -9.44017,2.74955 -9.34852,0 -15.03096,-6.50729 -5.59078,-6.5073 -5.59078,-16.864 0,-10.3567 5.68244,-16.6807 5.77408,-6.324 14.9393,-6.324 5.68243,0 9.53182,2.65792 3.94105,2.56626 5.68244,6.324 h 0.1833 l -0.0916,-7.24053 q 0,-1.09982 1.09982,-1.09982 h 10.81495 q 1.09984,0 1.09984,1.09982 v 3.94105 q 0,1.09982 -1.09984,1.09982 h -4.94921 v 40.69357 q 0,9.80678 -6.04904,14.75601 -5.95739,4.9492 -15.76417,4.9492 z m -13.56452,-43.99305 q 0,7.5155 4.03269,12.18976 4.0327,4.58259 10.08174,4.58259 6.04905,0 9.99009,-4.58259 4.0327,-4.58262 4.0327,-12.28141 0,-7.69877 -4.0327,-12.18972 -3.94104,-4.49097 -9.99009,-4.49097 -6.04904,0 -10.08174,4.58261 -4.03269,4.58262 -4.03269,12.18973 z"
         style="font-style:normal;font-variant:normal;font-weight:normal;font-stretch:normal;font-size:98.77777863px;line-height:6.61458302px;font-family:Sanchez;-inkscape-font-specification:Sanchez;letter-spacing:-5.54831266px;word-spacing:0px;fill:#212121;fill-opacity:1;stroke:none;stroke-width:0.24549687px;stroke-linecap:butt;stroke-linejoin:miter;stroke-opacity:1"
         id="path4532"
         inkscape:connector-curvature="0" />
      <path
         d="m 248.64018,269.27929 q -6.41565,6.41565 -16.40574,6.41565 -9.99009,0 -16.40574,-6.32399 -6.41566,-6.41566 -6.41566,-16.95566 0,-10.63165 6.50732,-16.864 6.5073,-6.23234 16.31408,-6.23234 9.89843,0 16.31407,6.324 6.50732,6.23236 6.50732,16.77234 0,10.44836 -6.41565,16.864 z m -31.52835,-16.864 q 0,7.51548 4.3993,12.18974 4.39931,4.67426 10.72331,4.67426 6.41565,0 10.81496,-4.67426 4.3993,-4.67426 4.3993,-12.18974 0,-7.51546 -4.49096,-12.09808 -4.39929,-4.58261 -10.63165,-4.58261 -6.23235,0 -10.7233,4.58261 -4.49096,4.58262 -4.49096,12.09808 z"
         style="font-style:normal;font-variant:normal;font-weight:normal;font-stretch:normal;font-size:98.77777863px;line-height:6.61458302px;font-family:Sanchez;-inkscape-font-specification:Sanchez;letter-spacing:-5.54831266px;word-spacing:0px;fill:#212121;fill-opacity:1;stroke:none;stroke-width:0.24549687px;stroke-linecap:butt;stroke-linejoin:miter;stroke-opacity:1"
         id="path4534"
         inkscape:connector-curvature="0" />
      <g
         id="g1035">
        <path
           style="color:#000000;font-style:normal;font-variant:normal;font-weight:normal;font-stretch:normal;font-size:medium;line-height:normal;font-family:sans-serif;text-indent:0;text-align:start;text-decoration:none;text-decoration-line:none;text-decoration-style:solid;text-decoration-color:#000000;letter-spacing:normal;word-spacing:normal;text-transform:none;writing-mode:lr-tb;direction:ltr;baseline-shift:baseline;text-anchor:start;white-space:normal;clip-rule:nonzero;display:inline;overflow:visible;visibility:visible;opacity:1;isolation:auto;mix-blend-mode:normal;color-interpolation:sRGB;color-interpolation-filters:linearRGB;solid-color:#000000;solid-opacity:1;fill:#ffa366;fill-opacity:1;fill-rule:nonzero;stroke:none;stroke-width:6.23078251;stroke-linecap:butt;stroke-linejoin:round;stroke-miterlimit:100;stroke-dasharray:none;stroke-dashoffset:0;stroke-opacity:1;color-rendering:auto;image-rendering:auto;shape-rendering:auto;text-rendering:auto;enable-background:accumulate"
           d="m 35.416263,257.5264 -0.688124,-0.25916 c -0.004,-0.001 -0.0081,-0.003 -0.01194,-0.004 l -0.76395,-0.28512 c -0.003,-10e-4 -0.0068,-0.003 -0.0098,-0.004 l -0.76395,-0.28149 c -0.003,-0.001 -0.0073,-0.003 -0.0104,-0.004 l -0.763951,-0.27784 c -0.003,-0.001 -0.0048,-0.003 -0.0078,-0.004 l -0.763947,-0.27576 c -0.003,-0.001 -0.0073,-0.003 -0.0104,-0.004 l -0.763947,-0.27369 c -0.003,-8.1e-4 -0.0048,-0.001 -0.0078,-0.002 l -0.763951,-0.27161 c -0.003,-0.001 -0.0053,-0.003 -0.0083,-0.004 l -0.763947,-0.26798 c -0.0021,-0.001 -0.0042,-0.003 -0.0062,-0.004 l -0.763949,-0.2659 c -0.003,-8e-4 -0.0048,-0.001 -0.0078,-0.002 l -0.763947,-0.26589 c -0.0021,-8.1e-4 -0.0042,-0.001 -0.0062,-0.002 l -0.76395,-0.26383 c -0.003,-8e-4 -0.0053,-0.001 -0.0083,-0.002 l -0.763948,-0.25968 c -0.002,-7.9e-4 -0.0037,-0.001 -0.0057,-0.002 l -0.76395,-0.25968 c -0.002,-7.9e-4 -0.0042,-0.001 -0.0062,-0.002 l -0.763948,-0.25812 -0.0041,-0.002 -0.763949,-0.25604 c -0.002,-7.9e-4 -0.0037,-0.001 -0.0057,-0.002 l -0.764468,-0.25396 c -0.002,-8e-4 -0.0037,-0.001 -0.0057,-0.002 l -0.763949,-0.25188 -0.0041,-0.002 -0.763948,-0.2498 c -0.002,-7.9e-4 -0.0042,-0.001 -0.0062,-0.002 l -0.76395,-0.25032 -0.0041,-0.002 -0.763949,-0.24825 -0.0036,-0.002 -0.76395,-0.24617 c -0.002,-7.9e-4 -0.0042,-0.001 -0.0062,-0.002 l -0.763949,-0.24616 -0.0041,-0.002 -0.763949,-0.24409 -0.0041,-0.002 -0.763949,-0.24201 -0.0041,-0.002 -0.131912,-0.0415 v 6.54213 l 0.529207,0.17138 0.757717,0.24409 0.760314,0.24773 0.758236,0.24824 0.759794,0.25032 0.758237,0.2498 0.758236,0.25188 0.757717,0.25448 0.758236,0.25552 0.758237,0.25811 0.758236,0.25811 0.755639,0.25967 0.758237,0.26382 0.756159,0.26382 0.756159,0.26591 0.756158,0.27006 0.754083,0.26954 0.756159,0.27368 0.754082,0.27577 0.754082,0.27785 0.752521,0.28149 0.754082,0.28355 0.749926,0.2872 0.752524,0.28979 0.74993,0.29343 0.748368,0.29913 0.748368,0.30123 0.746291,0.30692 0.744215,0.31109 0.742138,0.31731 0.740577,0.32304 0.736423,0.32874 0.734347,0.33653 0.730713,0.34484 0.724479,0.35419 0.718764,0.36458 0.712536,0.37393 0.701109,0.39002 0.687086,0.40352 0.665795,0.42119 0.63775,0.443 0.58893,0.45909 0.502201,0.46637 0.07686,0.093 1.994784,4.37129 -2.051912,-5.83843 -0.382235,-0.69695 -0.604512,-0.8569 -0.649694,-0.79928 -0.675141,-0.75823 -0.695396,-0.7224 -0.7089,-0.69488 -0.716688,-0.67359 -0.722403,-0.65592 -0.728632,-0.63774 -0.732789,-0.62426 -0.737982,-0.6123 -0.738501,-0.60088 -0.742656,-0.59256 -0.742138,-0.58062 -0.746292,-0.57492 -0.746291,-0.56711 -0.748367,-0.56141 -0.74785,-0.5531 z"
           id="path4566"
           inkscape:connector-curvature="0" />
        <path
           style="color:#000000;font-style:normal;font-variant:normal;font-weight:normal;font-stretch:normal;font-size:medium;line-height:normal;font-family:sans-serif;text-indent:0;text-align:start;text-decoration:none;text-decoration-line:none;text-decoration-style:solid;text-decoration-color:#000000;letter-spacing:normal;word-spacing:normal;text-transform:none;writing-mode:lr-tb;direction:ltr;baseline-shift:baseline;text-anchor:start;white-space:normal;clip-rule:nonzero;display:inline;overflow:visible;visibility:visible;opacity:1;isolation:auto;mix-blend-mode:normal;color-interpolation:sRGB;color-interpolation-filters:linearRGB;solid-color:#000000;solid-opacity:1;fill:#ff8432;fill-opacity:1;fill-rule:nonzero;stroke:none;stroke-width:6.23078251;stroke-linecap:butt;stroke-linejoin:round;stroke-miterlimit:100;stroke-dasharray:none;stroke-dashoffset:0;stroke-opacity:1;color-rendering:auto;image-rendering:auto;shape-rendering:auto;text-rendering:auto;enable-background:accumulate"
           d="m 32.425905,247.81993 -0.10854,-0.0733 c -0.003,-0.002 -0.0048,-0.004 -0.0078,-0.006 l -0.76395,-0.51363 c -0.003,-0.002 -0.0073,-0.004 -0.0104,-0.006 l -0.76395,-0.50999 c -0.003,-0.002 -0.0047,-0.004 -0.0078,-0.006 l -0.76395,-0.50376 c -0.003,-0.002 -0.0073,-0.004 -0.0104,-0.006 l -0.76395,-0.5022 c -0.003,-0.002 -0.0048,-0.004 -0.0078,-0.006 l -0.763948,-0.49804 c -0.003,-0.001 -0.0053,-0.003 -0.0083,-0.004 l -0.76395,-0.49649 c -0.003,-0.001 -0.0053,-0.003 -0.0083,-0.004 l -0.76187,-0.49233 c -0.003,-0.002 -0.0048,-0.004 -0.0078,-0.006 l -0.76395,-0.48817 c -0.003,-0.001 -0.0053,-0.003 -0.0083,-0.004 l -0.763949,-0.48611 c -0.003,-0.001 -0.0048,-0.003 -0.0078,-0.004 l -0.762391,-0.48454 c -0.003,-0.001 -0.0048,-0.003 -0.0078,-0.004 l -0.763949,-0.48039 c -0.003,-0.001 -0.0053,-0.003 -0.0083,-0.004 l -0.761872,-0.47675 c -0.003,-0.001 -0.0053,-0.003 -0.0083,-0.004 l -0.763948,-0.47417 c -0.002,-0.001 -0.0037,-0.003 -0.0057,-0.004 l -0.763949,-0.4726 c -0.002,-0.001 -0.0042,-0.003 -0.0062,-0.004 l -0.763949,-0.46843 c -0.003,-0.001 -0.0053,-0.003 -0.0083,-0.004 l -0.763949,-0.46689 c -0.002,-0.001 -0.0037,-0.003 -0.0057,-0.004 l -0.760313,-0.46118 c -0.002,-0.001 -0.0042,-0.003 -0.0062,-0.004 l -0.763949,-0.46065 c -0.002,-0.001 -0.0042,-0.003 -0.0062,-0.004 l -0.763949,-0.46065 c -0.002,-8e-4 -0.0037,-0.001 -0.0057,-0.002 l -0.763949,-0.45702 c -0.002,-0.001 -0.0042,-0.003 -0.0062,-0.004 l -0.02285,-0.0136 v 7.27597 l 0.62165,0.37911 0.758236,0.4648 0.75616,0.46845 0.757716,0.47052 0.756159,0.4726 0.758237,0.47468 0.756159,0.47831 0.756159,0.48247 0.756158,0.48246 0.756159,0.48818 0.756159,0.49027 0.756159,0.49233 0.75564,0.49649 0.754599,0.50012 0.756159,0.50376 0.754082,0.50635 0.754083,0.51 0.754079,0.51363 0.754082,0.51985 0.752006,0.52194 0.752524,0.52765 0.752002,0.53181 0.752004,0.53751 0.750447,0.54167 0.750447,0.54738 0.74785,0.55311 0.748368,0.5614 0.746291,0.56711 0.746291,0.57491 0.742138,0.58063 0.742657,0.59256 0.7385,0.60088 0.737982,0.61231 0.732788,0.62425 0.728634,0.63774 0.722402,0.65593 0.716689,0.67358 0.708899,0.69488 0.695395,0.7224 0.675141,0.75824 0.649696,0.79927 0.604512,0.8569 0.382234,0.69696 2.047238,5.82595 -2.075283,-6.96539 -0.529725,-1.26251 -0.665794,-1.27187 -0.6928,-1.1737 -0.710977,-1.10464 -0.718765,-1.0553 -0.728636,-1.01583 -0.732268,-0.98674 -0.736423,-0.96078 -0.74058,-0.93949 -0.742137,-0.91923 -0.744212,-0.90417 -0.746294,-0.88755 -0.746291,-0.87665 -0.750445,-0.86055 -0.748368,-0.85068 -0.74993,-0.84028 -0.750444,-0.83095 -0.752006,-0.81952 -0.752002,-0.81328 -0.752524,-0.80342 -0.752006,-0.79511 z"
           id="path4571"
           inkscape:connector-curvature="0" />
        <path
           style="color:#000000;font-style:normal;font-variant:normal;font-weight:normal;font-stretch:normal;font-size:medium;line-height:normal;font-family:sans-serif;text-indent:0;text-align:start;text-decoration:none;text-decoration-line:none;text-decoration-style:solid;text-decoration-color:#000000;letter-spacing:normal;word-spacing:normal;text-transform:none;writing-mode:lr-tb;direction:ltr;baseline-shift:baseline;text-anchor:start;white-space:normal;clip-rule:nonzero;display:inline;overflow:visible;visibility:visible;opacity:1;isolation:auto;mix-blend-mode:normal;color-interpolation:sRGB;color-interpolation-filters:linearRGB;solid-color:#000000;solid-opacity:1;fill:#ff6600;fill-opacity:1;fill-rule:nonzero;stroke:none;stroke-width:6.23078251;stroke-linecap:butt;stroke-linejoin:round;stroke-miterlimit:100;stroke-dasharray:none;stroke-dashoffset:0;stroke-opacity:1;color-rendering:auto;image-rendering:auto;shape-rendering:auto;text-rendering:auto;enable-background:accumulate"
           d="m 16.865443,232.90189 0.180211,0.15945 0.756159,0.67358 0.754081,0.67929 0.756159,0.68293 0.75616,0.68761 0.756158,0.6928 0.75564,0.69695 0.7546,0.70319 0.75616,0.7089 0.755639,0.71253 0.754601,0.71877 0.756159,0.72292 0.754081,0.73019 0.754082,0.73487 0.756159,0.74214 0.754082,0.74629 0.754082,0.75408 0.754079,0.75823 0.754083,0.76758 0.754082,0.77226 0.752524,0.77953 0.75408,0.78785 0.752005,0.7951 0.752524,0.80343 0.752003,0.81328 0.752005,0.81951 0.750445,0.83095 0.749929,0.84029 0.748369,0.85068 0.750444,0.86055 0.746292,0.87665 0.746294,0.88755 0.744212,0.90416 0.742137,0.91924 0.74058,0.93948 0.736423,0.96078 0.732268,0.98675 0.728635,1.01583 0.718766,1.0553 0.710977,1.10464 0.6928,1.1737 0.665794,1.27187 0.529725,1.26251 2.079439,6.97837 -2.097095,-8.19155 -0.624248,-1.91584 -0.70682,-1.79589 -0.725001,-1.65201 -0.732267,-1.5575 -0.738501,-1.49259 -0.742138,-1.43908 -0.746291,-1.39651 -0.746291,-1.36222 -0.748371,-1.33108 -0.750445,-1.30562 -0.749926,-1.28017 -0.752005,-1.25992 -0.752524,-1.23655 -0.752004,-1.22097 -0.754082,-1.20122 -0.752524,-1.18514 -0.754079,-1.16955 -0.752006,-1.15398 -0.754082,-1.13995 -0.754079,-1.12644 -0.01454,-0.0228 -0.549462,-0.5479 c -0.003,-0.003 -0.0053,-0.007 -0.0083,-0.0101 l -0.763948,-0.75616 -0.0098,-0.0105 -0.76395,-0.74993 c -0.003,-0.003 -0.0073,-0.005 -0.0104,-0.008 l -0.761873,-0.74421 -0.0098,-0.0101 -0.763948,-0.73642 c -0.003,-0.003 -0.0053,-0.007 -0.0083,-0.0104 l -0.76395,-0.73227 c -0.003,-0.003 -0.0068,-0.005 -0.0098,-0.008 l -0.763949,-0.72655 -0.0083,-0.008 -0.763946,-0.72084 -0.0083,-0.008 -0.763951,-0.71669 -0.0078,-0.008 -0.763949,-0.71098 c -0.003,-0.003 -0.0073,-0.005 -0.01038,-0.008 l -0.761871,-0.70474 c -0.003,-0.003 -0.0073,-0.005 -0.01038,-0.008 l -0.763948,-0.69903 -0.0078,-0.008 -0.763949,-0.69488 -0.0083,-0.008 -0.763949,-0.69124 c -0.003,-0.002 -0.0047,-0.004 -0.0078,-0.006 l -0.763949,-0.68552 -0.0088,-0.008 -0.76395,-0.68138 c -0.003,-0.002 -0.0053,-0.004 -0.0083,-0.006 l -0.763949,-0.67722 -0.0078,-0.008 -0.762391,-0.67099 c -0.003,-0.002 -0.0047,-0.004 -0.0078,-0.006 L 18.86762,226.366 c -0.003,-0.002 -0.0053,-0.004 -0.0083,-0.006 l -0.76395,-0.66371 -0.0078,-0.008 -0.763948,-0.658 c -0.003,-0.002 -0.0053,-0.004 -0.0083,-0.006 l -0.450268,-0.38639 z"
           id="path4533"
           inkscape:connector-curvature="0" />
        <path
           style="color:#000000;font-style:normal;font-variant:normal;font-weight:normal;font-stretch:normal;font-size:medium;line-height:normal;font-family:sans-serif;text-indent:0;text-align:start;text-decoration:none;text-decoration-line:none;text-decoration-style:solid;text-decoration-color:#000000;letter-spacing:normal;word-spacing:normal;text-transform:none;writing-mode:lr-tb;direction:ltr;baseline-shift:baseline;text-anchor:start;white-space:normal;clip-rule:nonzero;display:inline;overflow:visible;visibility:visible;opacity:1;isolation:auto;mix-blend-mode:normal;color-interpolation:sRGB;color-interpolation-filters:linearRGB;solid-color:#000000;solid-opacity:1;fill:#212121;fill-opacity:1;fill-rule:nonzero;stroke:none;stroke-width:6.23078251;stroke-linecap:butt;stroke-linejoin:round;stroke-miterlimit:100;stroke-dasharray:none;stroke-dashoffset:0;stroke-opacity:1;color-rendering:auto;image-rendering:auto;shape-rendering:auto;text-rendering:auto;enable-background:accumulate"
           d="m 1.7085068,208.50019 c -0.80587668,0 -1.20850346,0.37218 -1.20850346,1.11606 v 4.74209 c 0,0.74388 0.40262678,1.11554 1.20850346,1.11554 h 7.0671788 v 52.81584 H 1.7085068 c -0.80587668,0 -1.20850346,0.37218 -1.20850346,1.11606 v 4.74209 c 0,0.74388 0.40262678,1.11554 1.20850346,1.11554 H 24.025063 c 0.805873,0 1.209023,-0.37166 1.209023,-1.11554 v -4.74209 c 0,-0.74388 -0.40315,-1.11606 -1.209023,-1.11606 h -7.15962 v -45.74866 -4.50995 l 0.62165,0.74006 0.754082,0.90989 0.754081,0.91767 0.756158,0.92547 0.754082,0.93325 0.756159,0.94312 0.754082,0.95299 0.754601,0.96077 0.75564,0.97065 0.7546,0.98103 0.754082,0.98831 0.756159,1.00025 0.754081,1.01012 0.754082,1.01997 0.756159,1.02986 0.754082,1.0418 0.754082,1.05322 0.75408,1.06308 0.754082,1.07556 0.756159,1.08854 0.754082,1.09892 0.754601,1.1145 0.754082,1.12645 0.75408,1.13995 0.752005,1.15398 0.754083,1.16955 0.752521,1.18513 0.754082,1.20123 0.752005,1.22098 0.752524,1.23654 0.752004,1.25992 0.749926,1.28018 0.750447,1.30561 0.748368,1.33107 0.746291,1.36223 0.746291,1.3965 0.742139,1.4391 0.738499,1.49258 0.732271,1.5575 0.724998,1.65202 0.706821,1.79588 0.624248,1.91584 2.097094,8.19155 h 1.23499 1.859756 5.020978 c 0.805875,0 1.209025,-0.37218 1.209025,-1.11606 V 215.4744 h 7.159619 c 0.743883,0 1.11606,-0.37218 1.11606,-1.11606 v -4.74209 c 0,-0.74388 -0.372177,-1.11606 -1.11606,-1.11606 H 44.296459 c -0.743883,0 -1.116063,0.37218 -1.116063,1.11606 v 4.74209 c 0,0.74388 0.37218,1.11606 1.116063,1.11606 h 7.159619 v 43.04964 l -0.494931,-1.0527 c -0.009,-0.0192 -0.01813,-0.0381 -0.02753,-0.0571 l -0.763951,-1.54193 c -0.008,-0.0151 -0.01542,-0.0302 -0.02338,-0.0452 l -0.76395,-1.48272 c -0.006,-0.0125 -0.01309,-0.025 -0.01973,-0.0374 l -0.763947,-1.43131 c -0.006,-0.0111 -0.01223,-0.0227 -0.01819,-0.0338 l -0.76395,-1.39183 c -0.005,-0.01 -0.01032,-0.0199 -0.01558,-0.0296 l -0.763951,-1.35858 c -0.005,-0.008 -0.0092,-0.0174 -0.01401,-0.0259 l -0.76395,-1.32899 c -0.005,-0.007 -0.0087,-0.0146 -0.01351,-0.0218 l -0.763942,-1.30355 c -0.004,-0.007 -0.0081,-0.0141 -0.01194,-0.0213 l -0.76395,-1.28017 c -0.004,-0.007 -0.0081,-0.0132 -0.01194,-0.0197 l -0.76395,-1.25785 c -0.004,-0.006 -0.0081,-0.0123 -0.01194,-0.0182 l -0.76395,-1.23862 c -0.004,-0.006 -0.0081,-0.0117 -0.01194,-0.0177 l -0.763949,-1.21888 c -0.003,-0.006 -0.0068,-0.0117 -0.0098,-0.0177 l -0.76395,-1.20123 c -0.003,-0.006 -0.0073,-0.0118 -0.0104,-0.0177 l -0.763949,-1.18514 c -0.003,-0.005 -0.0068,-0.0108 -0.0098,-0.0161 l -0.76395,-1.16956 c -0.003,-0.005 -0.0073,-0.0102 -0.0104,-0.0156 l -0.763949,-1.15605 c -0.003,-0.005 -0.0068,-0.009 -0.0098,-0.0135 l -0.763948,-1.14203 c -0.003,-0.005 -0.0073,-0.009 -0.0104,-0.014 l -0.76395,-1.12645 c -0.003,-0.005 -0.0068,-0.009 -0.0098,-0.0135 l -0.76395,-1.1145 c -0.003,-0.005 -0.0073,-0.009 -0.0104,-0.014 l -0.76395,-1.10256 c -0.003,-0.004 -0.0068,-0.008 -0.0098,-0.012 l -0.761871,-1.09061 c -0.003,-0.004 -0.0073,-0.008 -0.0104,-0.012 l -0.76395,-1.07711 c -0.003,-0.005 -0.0068,-0.009 -0.0098,-0.0135 l -0.76395,-1.06517 c -0.003,-0.004 -0.0053,-0.008 -0.0083,-0.012 l -0.763948,-1.0553 c -0.003,-0.004 -0.0068,-0.008 -0.0098,-0.012 l -0.763947,-1.04337 c -0.003,-0.004 -0.0073,-0.008 -0.0104,-0.0119 l -0.76395,-1.03401 c -0.003,-0.004 -0.0048,-0.008 -0.0078,-0.0115 l -0.764468,-1.02206 c -0.003,-0.004 -0.0068,-0.008 -0.0098,-0.012 l -0.763947,-1.01167 c -0.003,-0.004 -0.0053,-0.008 -0.0083,-0.012 l -0.76395,-1.00025 c -0.003,-0.004 -0.0068,-0.008 -0.0098,-0.012 l -0.76395,-0.99247 c -0.003,-0.004 -0.0053,-0.008 -0.0083,-0.0114 l -0.763946,-0.9826 c -0.003,-0.004 -0.0068,-0.008 -0.0098,-0.012 l -0.76395,-0.97272 c -0.003,-0.003 -0.0053,-0.007 -0.0083,-0.0101 l -0.763949,-0.96493 -0.0098,-0.01 -0.763949,-0.95507 c -0.003,-0.004 -0.0053,-0.008 -0.0083,-0.012 l -0.763949,-0.9452 -0.0098,-0.01 -0.763948,-0.9374 c -0.003,-0.004 -0.0053,-0.008 -0.0083,-0.012 l -0.763949,-0.92754 -0.0098,-0.01 -0.76395,-0.91975 c -0.003,-0.004 -0.0053,-0.008 -0.0083,-0.0114 l -0.763949,-0.91196 -0.0098,-0.01 -0.762391,-0.90365 -0.0098,-0.0104 -0.763948,-0.89379 c -0.003,-0.004 -0.0053,-0.008 -0.0083,-0.0119 l -0.763949,-0.88599 -0.0098,-0.01 -0.76395,-0.88028 c -0.003,-0.003 -0.0053,-0.007 -0.0083,-0.0104 l -0.763985,-0.87198 -0.0098,-0.0104 c -0.252294,-0.2875 -0.505452,-0.57531 -0.756679,-0.86314 z"
           id="path4546"
           inkscape:connector-curvature="0"
           sodipodi:nodetypes="ssssccssssssssccccccccccccccccccccccccccccccccccccccccccccccccsscsssssssscccccccccccccccccccccccccccccccccccccccccccccccccccccccccccccccccccccccccccccccccccccccccccs" />
      </g>
      <path
         inkscape:connector-curvature="0"
         id="path4946"
         style="font-style:normal;font-variant:normal;font-weight:normal;font-stretch:normal;font-size:91.44000244px;line-height:1.25;font-family:Sanchez;-inkscape-font-specification:Sanchez;letter-spacing:-4.66989565px;word-spacing:0px;fill:#ff6600;fill-opacity:1;stroke:none;stroke-width:0.26458332"
         d="m 289.26669,275.95541 h -26.37408 q -1.10275,0 -1.10275,-1.10275 v -4.68668 q 0,-1.10275 1.10275,-1.10275 h 7.07597 v -52.19679 h -7.07597 q -1.10275,0 -1.10275,-1.10274 v -4.68669 q 0,-1.10275 1.10275,-1.10275 h 24.81185 q 15.2547,0 24.26048,8.822 9.00578,8.73009 9.00578,24.07668 0,15.34659 -8.5463,24.26048 -8.54631,8.82199 -23.15773,8.82199 z m -11.30318,-6.89218 h 9.09768 q 25.54702,-0.18379 25.54702,-26.0065 0,-12.40592 -6.61649,-19.2981 -6.5246,-6.89219 -19.20621,-6.89219 h -8.822 z" />
      <path
         inkscape:connector-curvature="0"
         id="path4948"
         style="font-style:normal;font-variant:normal;font-weight:normal;font-stretch:normal;font-size:91.44000244px;line-height:1.25;font-family:Sanchez;-inkscape-font-specification:Sanchez;letter-spacing:-4.66989565px;word-spacing:0px;fill:#ff6600;fill-opacity:1;stroke:none;stroke-width:0.26458332"
         d="m 373.63199,275.95541 h -50.26697 q -1.19465,0 -1.19465,-1.10275 v -4.68668 q 0,-1.10275 1.19465,-1.10275 h 6.98408 v -52.19679 h -6.98408 q -1.19465,0 -1.19465,-1.10274 v -4.68669 q 0,-1.10275 1.19465,-1.10275 h 21.96308 q 1.19465,0 1.19465,1.19465 v 4.50289 q 0,1.19464 -1.19465,1.19464 h -6.98407 v 52.19679 h 29.22284 v -9.00578 q 0,-1.10275 1.19465,-1.10275 h 4.96237 q 1.10275,0 1.10275,1.10275 v 14.70332 q 0,1.19464 -1.19465,1.19464 z" />
    </g>
  </g>
</svg>
