<?xml version="1.0" encoding="UTF-8" standalone="no"?>
<!-- Created with Inkscape (http://www.inkscape.org/) -->

<svg
   xmlns:dc="http://purl.org/dc/elements/1.1/"
   xmlns:cc="http://creativecommons.org/ns#"
   xmlns:rdf="http://www.w3.org/1999/02/22-rdf-syntax-ns#"
   xmlns:svg="http://www.w3.org/2000/svg"
   xmlns="http://www.w3.org/2000/svg"
   xmlns:sodipodi="http://sodipodi.sourceforge.net/DTD/sodipodi-0.dtd"
   xmlns:inkscape="http://www.inkscape.org/namespaces/inkscape"
   width="458.88101mm"
   height="90.000443mm"
   viewBox="0 0 458.88101 90.000443"
   version="1.1"
   id="svg8"
   inkscape:version="0.92.3 (2405546, 2018-03-11)"
   sodipodi:docname="full-dark.svg">
  <defs
     id="defs2">
    <clipPath
       id="p594bf549dd">
      <rect
         id="rect409"
         y="79.199997"
         x="54"
         width="334.79999"
         height="613.79999" />
    </clipPath>
    <clipPath
       id="clipPath6004">
      <rect
         id="rect6002"
         y="79.199997"
         x="54"
         width="334.79999"
         height="613.79999" />
    </clipPath>
    <clipPath
       id="clipPath6008">
      <rect
         id="rect6006"
         y="79.199997"
         x="54"
         width="334.79999"
         height="613.79999" />
    </clipPath>
    <clipPath
       id="clipPath6012">
      <rect
         id="rect6010"
         y="79.199997"
         x="54"
         width="334.79999"
         height="613.79999" />
    </clipPath>
    <clipPath
       id="p594bf549dd-7">
      <rect
         height="613.79999"
         width="334.79999"
         x="54"
         y="79.199997"
         id="rect409-5" />
    </clipPath>
    <clipPath
       id="clipPath6004-35">
      <rect
         height="613.79999"
         width="334.79999"
         x="54"
         y="79.199997"
         id="rect6002-62" />
    </clipPath>
    <clipPath
       id="clipPath6008-9">
      <rect
         height="613.79999"
         width="334.79999"
         x="54"
         y="79.199997"
         id="rect6006-1" />
    </clipPath>
    <clipPath
       id="clipPath6012-27">
      <rect
         height="613.79999"
         width="334.79999"
         x="54"
         y="79.199997"
         id="rect6010-0" />
    </clipPath>
    <clipPath
       id="p594bf549dd-3">
      <rect
         id="rect409-6"
         y="79.199997"
         x="54"
         width="334.79999"
         height="613.79999" />
    </clipPath>
    <clipPath
       id="clipPath6004-7">
      <rect
         id="rect6002-5"
         y="79.199997"
         x="54"
         width="334.79999"
         height="613.79999" />
    </clipPath>
    <clipPath
       id="clipPath6008-3">
      <rect
         id="rect6006-5"
         y="79.199997"
         x="54"
         width="334.79999"
         height="613.79999" />
    </clipPath>
    <clipPath
       id="clipPath6012-6">
      <rect
         id="rect6010-2"
         y="79.199997"
         x="54"
         width="334.79999"
         height="613.79999" />
    </clipPath>
    <clipPath
       id="p594bf549dd-0">
      <rect
         height="613.79999"
         width="334.79999"
         x="54"
         y="79.199997"
         id="rect409-9" />
    </clipPath>
    <clipPath
       id="clipPath6004-3">
      <rect
         height="613.79999"
         width="334.79999"
         x="54"
         y="79.199997"
         id="rect6002-6" />
    </clipPath>
    <clipPath
       id="clipPath6008-0">
      <rect
         height="613.79999"
         width="334.79999"
         x="54"
         y="79.199997"
         id="rect6006-6" />
    </clipPath>
    <clipPath
       id="clipPath6012-2">
      <rect
         height="613.79999"
         width="334.79999"
         x="54"
         y="79.199997"
         id="rect6010-6" />
    </clipPath>
    <clipPath
       id="p594bf549dd-753">
      <rect
         height="613.79999"
         width="334.79999"
         x="54"
         y="79.199997"
         id="rect409-56" />
    </clipPath>
    <clipPath
       id="clipPath6004-29">
      <rect
         height="613.79999"
         width="334.79999"
         x="54"
         y="79.199997"
         id="rect6002-1" />
    </clipPath>
    <clipPath
       id="clipPath6008-27">
      <rect
         height="613.79999"
         width="334.79999"
         x="54"
         y="79.199997"
         id="rect6006-0" />
    </clipPath>
    <clipPath
       id="clipPath6012-93">
      <rect
         height="613.79999"
         width="334.79999"
         x="54"
         y="79.199997"
         id="rect6010-60" />
    </clipPath>
    <clipPath
       id="p594bf549dd-3-62">
      <rect
         id="rect409-6-6"
         y="79.199997"
         x="54"
         width="334.79999"
         height="613.79999" />
    </clipPath>
    <clipPath
       id="clipPath6004-7-18">
      <rect
         id="rect6002-5-7"
         y="79.199997"
         x="54"
         width="334.79999"
         height="613.79999" />
    </clipPath>
    <clipPath
       id="clipPath6008-3-9">
      <rect
         id="rect6006-5-2"
         y="79.199997"
         x="54"
         width="334.79999"
         height="613.79999" />
    </clipPath>
    <clipPath
       id="clipPath6012-6-02">
      <rect
         id="rect6010-2-3"
         y="79.199997"
         x="54"
         width="334.79999"
         height="613.79999" />
    </clipPath>
    <clipPath
       id="p594bf549dd-7-7">
      <rect
         id="rect409-5-5"
         y="79.199997"
         x="54"
         width="334.79999"
         height="613.79999" />
    </clipPath>
    <clipPath
       id="clipPath6004-3-9">
      <rect
         id="rect6002-56"
         y="79.199997"
         x="54"
         width="334.79999"
         height="613.79999" />
    </clipPath>
    <clipPath
       id="clipPath6008-2">
      <rect
         id="rect6006-9"
         y="79.199997"
         x="54"
         width="334.79999"
         height="613.79999" />
    </clipPath>
    <clipPath
       id="clipPath6012-1">
      <rect
         id="rect6010-27"
         y="79.199997"
         x="54"
         width="334.79999"
         height="613.79999" />
    </clipPath>
    <clipPath
       id="p594bf549dd-0-2">
      <rect
         id="rect409-2"
         y="79.199997"
         x="54"
         width="334.79999"
         height="613.79999" />
    </clipPath>
    <clipPath
       id="clipPath6004-37">
      <rect
         id="rect6002-59"
         y="79.199997"
         x="54"
         width="334.79999"
         height="613.79999" />
    </clipPath>
    <clipPath
       id="clipPath6008-22">
      <rect
         id="rect6006-8"
         y="79.199997"
         x="54"
         width="334.79999"
         height="613.79999" />
    </clipPath>
    <clipPath
       id="clipPath6012-97">
      <rect
         id="rect6010-36"
         y="79.199997"
         x="54"
         width="334.79999"
         height="613.79999" />
    </clipPath>
    <clipPath
       id="p594bf549dd-3-1">
      <rect
         height="613.79999"
         width="334.79999"
         x="54"
         y="79.199997"
         id="rect409-6-2" />
    </clipPath>
    <clipPath
       id="clipPath6004-7-9">
      <rect
         height="613.79999"
         width="334.79999"
         x="54"
         y="79.199997"
         id="rect6002-5-3" />
    </clipPath>
    <clipPath
       id="clipPath6008-3-1">
      <rect
         height="613.79999"
         width="334.79999"
         x="54"
         y="79.199997"
         id="rect6006-5-9" />
    </clipPath>
    <clipPath
       id="clipPath6012-6-4">
      <rect
         height="613.79999"
         width="334.79999"
         x="54"
         y="79.199997"
         id="rect6010-2-7" />
    </clipPath>
    <clipPath
       id="p594bf549dd-8">
      <rect
         height="613.79999"
         width="334.79999"
         x="54"
         y="79.199997"
         id="rect409-9-2" />
    </clipPath>
    <clipPath
       id="clipPath6004-73">
      <rect
         height="613.79999"
         width="334.79999"
         x="54"
         y="79.199997"
         id="rect6002-6-8" />
    </clipPath>
    <clipPath
       id="clipPath6008-1">
      <rect
         height="613.79999"
         width="334.79999"
         x="54"
         y="79.199997"
         id="rect6006-2" />
    </clipPath>
    <clipPath
       id="clipPath6012-9">
      <rect
         height="613.79999"
         width="334.79999"
         x="54"
         y="79.199997"
         id="rect6010-3" />
    </clipPath>
    <clipPath
       id="p594bf549dd-6">
      <rect
         height="613.79999"
         width="334.79999"
         x="54"
         y="79.199997"
         id="rect409-3" />
    </clipPath>
    <clipPath
       id="clipPath6004-2">
      <rect
         height="613.79999"
         width="334.79999"
         x="54"
         y="79.199997"
         id="rect6002-0" />
    </clipPath>
    <clipPath
       id="clipPath6008-6">
      <rect
         height="613.79999"
         width="334.79999"
         x="54"
         y="79.199997"
         id="rect6006-1-9" />
    </clipPath>
    <clipPath
       id="clipPath6012-5">
      <rect
         height="613.79999"
         width="334.79999"
         x="54"
         y="79.199997"
         id="rect6010-5" />
    </clipPath>
    <clipPath
       id="p594bf549dd-75">
      <rect
         id="rect409-35"
         y="79.199997"
         x="54"
         width="334.79999"
         height="613.79999" />
    </clipPath>
    <clipPath
       id="clipPath6004-6">
      <rect
         id="rect6002-2"
         y="79.199997"
         x="54"
         width="334.79999"
         height="613.79999" />
    </clipPath>
    <clipPath
       id="clipPath6008-91">
      <rect
         id="rect6006-27"
         y="79.199997"
         x="54"
         width="334.79999"
         height="613.79999" />
    </clipPath>
    <clipPath
       id="clipPath6012-0">
      <rect
         id="rect6010-9"
         y="79.199997"
         x="54"
         width="334.79999"
         height="613.79999" />
    </clipPath>
    <clipPath
       id="p594bf549dd-7-3">
      <rect
         height="613.79999"
         width="334.79999"
         x="54"
         y="79.199997"
         id="rect409-5-6" />
    </clipPath>
    <clipPath
       id="clipPath6004-35-7">
      <rect
         height="613.79999"
         width="334.79999"
         x="54"
         y="79.199997"
         id="rect6002-62-3" />
    </clipPath>
    <clipPath
       id="clipPath6008-9-6">
      <rect
         height="613.79999"
         width="334.79999"
         x="54"
         y="79.199997"
         id="rect6006-1-0" />
    </clipPath>
    <clipPath
       id="clipPath6012-27-1">
      <rect
         height="613.79999"
         width="334.79999"
         x="54"
         y="79.199997"
         id="rect6010-0-2" />
    </clipPath>
    <clipPath
       id="p594bf549dd-3-6">
      <rect
         id="rect409-6-26"
         y="79.199997"
         x="54"
         width="334.79999"
         height="613.79999" />
    </clipPath>
    <clipPath
       id="clipPath6004-7-1">
      <rect
         id="rect6002-5-8"
         y="79.199997"
         x="54"
         width="334.79999"
         height="613.79999" />
    </clipPath>
    <clipPath
       id="clipPath6008-3-7">
      <rect
         id="rect6006-5-92"
         y="79.199997"
         x="54"
         width="334.79999"
         height="613.79999" />
    </clipPath>
    <clipPath
       id="clipPath6012-6-0">
      <rect
         id="rect6010-2-2"
         y="79.199997"
         x="54"
         width="334.79999"
         height="613.79999" />
    </clipPath>
    <clipPath
       id="p594bf549dd-0-3">
      <rect
         height="613.79999"
         width="334.79999"
         x="54"
         y="79.199997"
         id="rect409-9-7" />
    </clipPath>
    <clipPath
       id="clipPath6004-3-5">
      <rect
         height="613.79999"
         width="334.79999"
         x="54"
         y="79.199997"
         id="rect6002-6-9" />
    </clipPath>
    <clipPath
       id="clipPath6008-0-9">
      <rect
         height="613.79999"
         width="334.79999"
         x="54"
         y="79.199997"
         id="rect6006-6-3" />
    </clipPath>
    <clipPath
       id="clipPath6012-2-1">
      <rect
         height="613.79999"
         width="334.79999"
         x="54"
         y="79.199997"
         id="rect6010-6-9" />
    </clipPath>
    <clipPath
       id="p594bf549dd-7535">
      <rect
         height="613.79999"
         width="334.79999"
         x="54"
         y="79.199997"
         id="rect409-62" />
    </clipPath>
    <clipPath
       id="clipPath6004-9">
      <rect
         height="613.79999"
         width="334.79999"
         x="54"
         y="79.199997"
         id="rect6002-12" />
    </clipPath>
    <clipPath
       id="clipPath6008-7">
      <rect
         height="613.79999"
         width="334.79999"
         x="54"
         y="79.199997"
         id="rect6006-09" />
    </clipPath>
    <clipPath
       id="clipPath6012-3">
      <rect
         height="613.79999"
         width="334.79999"
         x="54"
         y="79.199997"
         id="rect6010-606" />
    </clipPath>
    <clipPath
       id="p594bf549dd-75-2">
      <rect
         id="rect409-3-6"
         y="79.199997"
         x="54"
         width="334.79999"
         height="613.79999" />
    </clipPath>
    <clipPath
       id="clipPath6004-5">
      <rect
         id="rect6002-6-1"
         y="79.199997"
         x="54"
         width="334.79999"
         height="613.79999" />
    </clipPath>
    <clipPath
       id="clipPath6008-2-8">
      <rect
         id="rect6006-91"
         y="79.199997"
         x="54"
         width="334.79999"
         height="613.79999" />
    </clipPath>
    <clipPath
       id="clipPath6012-2-7">
      <rect
         id="rect6010-70"
         y="79.199997"
         x="54"
         width="334.79999"
         height="613.79999" />
    </clipPath>
    <clipPath
       id="p594bf549dd-7-9">
      <rect
         height="613.79999"
         width="334.79999"
         x="54"
         y="79.199997"
         id="rect409-5-2" />
    </clipPath>
    <clipPath
       id="clipPath6004-3-0">
      <rect
         height="613.79999"
         width="334.79999"
         x="54"
         y="79.199997"
         id="rect6002-5-2" />
    </clipPath>
    <clipPath
       id="clipPath6008-62">
      <rect
         height="613.79999"
         width="334.79999"
         x="54"
         y="79.199997"
         id="rect6006-9-3" />
    </clipPath>
    <clipPath
       id="clipPath6012-1-7">
      <rect
         height="613.79999"
         width="334.79999"
         x="54"
         y="79.199997"
         id="rect6010-2-5" />
    </clipPath>
    <clipPath
       id="p594bf549dd-6-9">
      <rect
         id="rect409-0"
         y="79.199997"
         x="54"
         width="334.79999"
         height="613.79999" />
    </clipPath>
    <clipPath
       id="clipPath6004-6-2">
      <rect
         id="rect6002-2-2"
         y="79.199997"
         x="54"
         width="334.79999"
         height="613.79999" />
    </clipPath>
    <clipPath
       id="clipPath6008-6-8">
      <rect
         id="rect6006-1-97"
         y="79.199997"
         x="54"
         width="334.79999"
         height="613.79999" />
    </clipPath>
    <clipPath
       id="clipPath6012-8">
      <rect
         id="rect6010-7"
         y="79.199997"
         x="54"
         width="334.79999"
         height="613.79999" />
    </clipPath>
    <clipPath
       id="p594bf549dd-75356">
      <rect
         height="613.79999"
         width="334.79999"
         x="54"
         y="79.199997"
         id="rect409-29" />
    </clipPath>
    <clipPath
       id="clipPath6004-1">
      <rect
         height="613.79999"
         width="334.79999"
         x="54"
         y="79.199997"
         id="rect6002-27" />
    </clipPath>
    <clipPath
       id="clipPath6008-09">
      <rect
         height="613.79999"
         width="334.79999"
         x="54"
         y="79.199997"
         id="rect6006-3" />
    </clipPath>
    <clipPath
       id="clipPath6012-60">
      <rect
         height="613.79999"
         width="334.79999"
         x="54"
         y="79.199997"
         id="rect6010-62" />
    </clipPath>
    <clipPath
       id="p594bf549dd-3-61">
      <rect
         id="rect409-6-8"
         y="79.199997"
         x="54"
         width="334.79999"
         height="613.79999" />
    </clipPath>
    <clipPath
       id="clipPath6004-7-7">
      <rect
         id="rect6002-5-9"
         y="79.199997"
         x="54"
         width="334.79999"
         height="613.79999" />
    </clipPath>
    <clipPath
       id="clipPath6008-3-2">
      <rect
         id="rect6006-5-0"
         y="79.199997"
         x="54"
         width="334.79999"
         height="613.79999" />
    </clipPath>
    <clipPath
       id="clipPath6012-6-2">
      <rect
         id="rect6010-2-37"
         y="79.199997"
         x="54"
         width="334.79999"
         height="613.79999" />
    </clipPath>
    <clipPath
       id="p594bf549dd-0-5">
      <rect
         height="613.79999"
         width="334.79999"
         x="54"
         y="79.199997"
         id="rect409-9-9" />
    </clipPath>
    <clipPath
       id="clipPath6004-3-2">
      <rect
         height="613.79999"
         width="334.79999"
         x="54"
         y="79.199997"
         id="rect6002-6-2" />
    </clipPath>
    <clipPath
       id="clipPath6008-0-8">
      <rect
         height="613.79999"
         width="334.79999"
         x="54"
         y="79.199997"
         id="rect6006-6-9" />
    </clipPath>
    <clipPath
       id="clipPath6012-2-73">
      <rect
         height="613.79999"
         width="334.79999"
         x="54"
         y="79.199997"
         id="rect6010-6-6" />
    </clipPath>
    <clipPath
       id="p594bf549dd-7-1">
      <rect
         id="rect409-5-29"
         y="79.199997"
         x="54"
         width="334.79999"
         height="613.79999" />
    </clipPath>
    <clipPath
       id="clipPath6004-35-3">
      <rect
         id="rect6002-62-1"
         y="79.199997"
         x="54"
         width="334.79999"
         height="613.79999" />
    </clipPath>
    <clipPath
       id="clipPath6008-9-9">
      <rect
         id="rect6006-1-4"
         y="79.199997"
         x="54"
         width="334.79999"
         height="613.79999" />
    </clipPath>
    <clipPath
       id="clipPath6012-27-7">
      <rect
         id="rect6010-0-8"
         y="79.199997"
         x="54"
         width="334.79999"
         height="613.79999" />
    </clipPath>
  </defs>
  <sodipodi:namedview
     id="base"
     pagecolor="#ffffff"
     bordercolor="#666666"
     borderopacity="1.0"
     inkscape:pageopacity="0"
     inkscape:pageshadow="2"
     inkscape:zoom="0.35797977"
     inkscape:cx="281.75284"
     inkscape:cy="317.66246"
     inkscape:document-units="mm"
     inkscape:current-layer="layer1"
     showgrid="false"
     width="400mm"
     inkscape:window-width="1916"
     inkscape:window-height="1033"
     inkscape:window-x="1920"
     inkscape:window-y="22"
     inkscape:window-maximized="0"
     fit-margin-top="1"
     fit-margin-left="1"
     fit-margin-right="1"
     fit-margin-bottom="1" />
  <metadata
     id="metadata5">
    <rdf:RDF>
      <cc:Work
         rdf:about="">
        <dc:format>image/svg+xml</dc:format>
        <dc:type
           rdf:resource="http://purl.org/dc/dcmitype/StillImage" />
        <dc:title></dc:title>
      </cc:Work>
    </rdf:RDF>
  </metadata>
  <g
     inkscape:label="Layer 1"
     inkscape:groupmode="layer"
     id="layer1"
     transform="translate(0.5,-207.49959)">
    <g
       id="g1092">
      <path
         d="M 107.05173,253.42367 H 74.109056 q 0.36603,7.6071 4.758387,11.73143 4.483864,4.12432 10.065816,4.12432 5.581954,0 9.516774,-2.38295 4.026327,-2.38294 5.398937,-4.67423 0.73206,-0.91652 1.64714,-0.27496 l 2.4707,2.4746 q 0.54904,0.54991 0.54904,1.00818 0,0.36659 -0.45754,1.00815 -0.36603,0.64157 -1.64713,2.01635 -1.2811,1.37478 -3.6603,3.11615 -2.28768,1.74139 -6.039488,2.93286 -3.660298,1.19147 -7.86964,1.19147 -9.608279,0 -16.105307,-6.32397 -6.40552,-6.32396 -6.40552,-16.95557 0,-10.72325 6.40552,-16.86392 6.40552,-6.23232 15.647771,-6.23232 9.333757,0 14.641184,6.04902 5.30744,5.95736 5.30744,16.1307 0,0.36661 0,0.73322 0,1.19147 -1.28111,1.19147 z m -6.31401,-5.59075 q -0.27452,-5.68241 -3.568791,-9.07353 -3.294268,-3.39111 -8.784713,-3.39111 -5.490446,0 -9.425267,3.11616 -3.934818,3.11616 -4.666877,9.34848 z"
         style="font-style:normal;font-variant:normal;font-weight:normal;font-stretch:normal;font-size:98.77777863px;line-height:6.61458302px;font-family:Sanchez;-inkscape-font-specification:Sanchez;letter-spacing:-5.54831266px;word-spacing:0px;fill:#ffffff;fill-opacity:1;stroke:none;stroke-width:0.24427935px;stroke-linecap:butt;stroke-linejoin:miter;stroke-opacity:1"
         id="path4528"
         inkscape:connector-curvature="0" />
      <path
         d="m 159.02243,275.05348 h -8.6932 q -3.93482,0 -3.93482,-3.84937 V 247.0997 q 0,-5.3158 -2.56221,-8.24865 -2.56221,-2.93286 -7.50361,-2.93286 -7.04607,0 -10.98089,5.77406 -0.45754,0.54991 -1.1896,2.01635 v 25.20421 h 4.8499 q 1.1896,0 1.1896,1.09982 v 3.94103 q 0,1.09982 -1.1896,1.09982 h -17.47792 q -1.1896,0 -1.1896,-1.09982 v -3.94103 q 0,-1.09982 1.1896,-1.09982 h 5.03291 v -32.81132 h -5.03291 q -1.1896,0 -1.1896,-1.09981 v -3.94104 q 0,-1.09981 1.1896,-1.09981 h 10.70637 q 1.1896,0 1.1896,1.09981 l -0.18302,6.23233 h 0.27452 q 4.75839,-7.97371 14.7327,-7.97371 7.32059,0 11.43843,4.30763 4.11783,4.30765 4.20934,11.63979 v 23.64613 h 5.12441 q 1.1896,0 1.1896,1.09982 v 3.94103 q 0,1.09982 -1.1896,1.09982 z"
         style="font-style:normal;font-variant:normal;font-weight:normal;font-stretch:normal;font-size:98.77777863px;line-height:6.61458302px;font-family:Sanchez;-inkscape-font-specification:Sanchez;letter-spacing:-5.54831266px;word-spacing:0px;fill:#ffffff;fill-opacity:1;stroke:none;stroke-width:0.24427935px;stroke-linecap:butt;stroke-linejoin:miter;stroke-opacity:1"
         id="path4530"
         inkscape:connector-curvature="0" />
      <path
         d="m 181.29469,296.49999 q -4.57537,0 -6.95456,-0.64157 -2.28769,-0.64156 -3.75181,-1.19146 -1.37261,-0.45826 -2.37919,-1.00818 -1.00658,-0.45826 -1.92166,-1.00816 -4.02633,-2.65791 -3.01974,-3.84938 l 2.37919,-3.39112 q 0.54904,-0.82486 1.55563,-0.0916 0.0915,0 0.54904,0.36661 0.54904,0.45826 1.00658,0.82486 0.54905,0.36661 1.37261,0.82487 0.91508,0.5499 2.01317,0.91652 1.09809,0.45825 2.37919,0.82486 3.01975,0.82487 6.68004,0.82487 6.58854,0 10.52336,-3.20782 4.02632,-3.11615 4.02632,-9.89838 v -10.44829 q -1.64713,3.84936 -5.49044,6.59892 -3.75181,2.74954 -9.42527,2.74954 -9.33376,0 -15.00721,-6.50726 -5.58196,-6.50727 -5.58196,-16.86392 0,-10.35665 5.67346,-16.68063 5.76497,-6.32397 14.91571,-6.32397 5.67346,0 9.51678,2.65791 3.93482,2.56626 5.67346,6.32397 h 0.18301 l -0.0915,-7.24049 q 0,-1.09982 1.09809,-1.09982 h 10.79787 q 1.0981,0 1.0981,1.09982 v 3.94103 q 0,1.09981 -1.0981,1.09981 h -4.9414 v 40.69338 q 0,9.80674 -6.03949,14.75594 -5.94798,4.94918 -15.73927,4.94918 z m -13.5431,-43.99284 q 0,7.51546 4.02633,12.1897 4.02632,4.58257 10.06581,4.58257 6.0395,0 9.97431,-4.58257 4.02633,-4.5826 4.02633,-12.28135 0,-7.69874 -4.02633,-12.18967 -3.93481,-4.49094 -9.97431,-4.49094 -6.03949,0 -10.06581,4.58258 -4.02633,4.5826 -4.02633,12.18968 z"
         style="font-style:normal;font-variant:normal;font-weight:normal;font-stretch:normal;font-size:98.77777863px;line-height:6.61458302px;font-family:Sanchez;-inkscape-font-specification:Sanchez;letter-spacing:-5.54831266px;word-spacing:0px;fill:#ffffff;fill-opacity:1;stroke:none;stroke-width:0.24427935px;stroke-linecap:butt;stroke-linejoin:miter;stroke-opacity:1"
         id="path4532"
         inkscape:connector-curvature="0" />
      <path
         d="m 248.2483,269.27942 q -6.40551,6.41562 -16.37982,6.41562 -9.97432,0 -16.37983,-6.32397 -6.40553,-6.41562 -6.40553,-16.95557 0,-10.6316 6.49704,-16.86392 6.49702,-6.23232 16.28832,-6.23232 9.8828,0 16.2883,6.32397 6.49705,6.23233 6.49705,16.77227 0,10.4483 -6.40553,16.86392 z M 216.76975,252.4155 q 0,7.51544 4.39235,12.18968 4.39236,4.67424 10.70638,4.67424 6.40552,0 10.79788,-4.67424 4.39235,-4.67424 4.39235,-12.18968 0,-7.51543 -4.48386,-12.09803 -4.39235,-4.58258 -10.61487,-4.58258 -6.22251,0 -10.70637,4.58258 -4.48386,4.5826 -4.48386,12.09803 z"
         style="font-style:normal;font-variant:normal;font-weight:normal;font-stretch:normal;font-size:98.77777863px;line-height:6.61458302px;font-family:Sanchez;-inkscape-font-specification:Sanchez;letter-spacing:-5.54831266px;word-spacing:0px;fill:#ffffff;fill-opacity:1;stroke:none;stroke-width:0.24427935px;stroke-linecap:butt;stroke-linejoin:miter;stroke-opacity:1"
         id="path4534"
         inkscape:connector-curvature="0" />
      <g
         transform="translate(135.20088,117.02241)"
         id="g1052">
        <path
           style="color:#000000;font-style:normal;font-variant:normal;font-weight:normal;font-stretch:normal;font-size:medium;line-height:normal;font-family:sans-serif;text-indent:0;text-align:start;text-decoration:none;text-decoration-line:none;text-decoration-style:solid;text-decoration-color:#000000;letter-spacing:normal;word-spacing:normal;text-transform:none;writing-mode:lr-tb;direction:ltr;baseline-shift:baseline;text-anchor:start;white-space:normal;clip-rule:nonzero;display:inline;overflow:visible;visibility:visible;opacity:1;isolation:auto;mix-blend-mode:normal;color-interpolation:sRGB;color-interpolation-filters:linearRGB;solid-color:#000000;solid-opacity:1;fill:#0a4973;fill-opacity:1;fill-rule:nonzero;stroke:none;stroke-width:6.19988155;stroke-linecap:butt;stroke-linejoin:round;stroke-miterlimit:100;stroke-dasharray:none;stroke-dashoffset:0;stroke-opacity:1;color-rendering:auto;image-rendering:auto;shape-rendering:auto;text-rendering:auto;enable-background:accumulate"
           d="m -99.83976,140.50417 -0.68703,-0.25915 c -0.004,-0.001 -0.008,-0.003 -0.0119,-0.004 l -0.76276,-0.28513 c -0.003,-0.001 -0.007,-0.003 -0.01,-0.004 l -0.76274,-0.28148 c -0.003,-0.001 -0.007,-0.003 -0.0104,-0.004 l -0.76274,-0.27784 c -0.003,-10e-4 -0.005,-0.003 -0.008,-0.004 l -0.76274,-0.27576 c -0.003,-0.001 -0.007,-0.003 -0.0104,-0.004 l -0.76274,-0.27369 c -0.003,-8e-4 -0.005,-0.001 -0.008,-0.002 l -0.76276,-0.27161 c -0.003,-0.001 -0.005,-0.003 -0.008,-0.004 l -0.76274,-0.26797 c -0.002,-0.001 -0.004,-0.003 -0.006,-0.004 l -0.76275,-0.2659 c -0.003,-8.1e-4 -0.005,-10e-4 -0.008,-0.002 l -0.76273,-0.2659 c -0.002,-8e-4 -0.004,-0.001 -0.006,-0.002 l -0.76275,-0.26383 c -0.003,-7.9e-4 -0.005,-0.001 -0.008,-0.002 l -0.76273,-0.25967 c -0.002,-8e-4 -0.004,-10e-4 -0.006,-0.002 l -0.76275,-0.25968 c -0.002,-7.9e-4 -0.004,-0.001 -0.006,-0.002 l -0.76275,-0.25812 -0.004,-0.002 -0.76274,-0.25604 c -0.002,-7.9e-4 -0.004,-0.001 -0.006,-0.002 l -0.76326,-0.25395 c -0.002,-8.1e-4 -0.004,-0.001 -0.006,-0.002 l -0.76274,-0.25188 -0.004,-0.002 -0.76274,-0.2498 c -0.002,-7.9e-4 -0.004,-10e-4 -0.006,-0.002 l -0.76276,-0.25032 -0.004,-0.002 -0.76274,-0.24825 -0.004,-0.002 -0.76274,-0.24617 c -0.002,-7.9e-4 -0.004,-0.001 -0.006,-0.002 l -0.76274,-0.24616 -0.004,-0.002 -0.76275,-0.24409 -0.004,-0.002 -0.76274,-0.24201 -0.004,-0.002 -0.1317,-0.0415 v 6.54209 l 0.52838,0.17138 0.75652,0.24409 0.75911,0.24773 0.75704,0.24824 0.75859,0.25032 0.75704,0.24979 0.75703,0.25188 0.75653,0.25448 0.75704,0.25552 0.75703,0.25811 0.75704,0.25811 0.75445,0.25966 0.75704,0.26383 0.75497,0.26382 0.75496,0.26591 0.75496,0.27005 0.7529,0.26954 0.75496,0.27368 0.75289,0.27577 0.75289,0.27785 0.75134,0.28148 0.75289,0.28356 0.74874,0.28719 0.75133,0.2898 0.748749,0.29342 0.747187,0.29913 0.747186,0.30122 0.745112,0.30693 0.74304,0.31109 0.740966,0.31731 0.739408,0.32303 0.73526,0.32874 0.733187,0.33653 0.729559,0.34483 0.723335,0.3542 0.717629,0.36458 0.711411,0.37392 0.700002,0.39002 0.686,0.40352 0.664744,0.42119 0.636742,0.44299 0.588001,0.4591 0.501408,0.46636 0.07674,0.093 1.991634,4.37127 -2.048672,-5.8384 -0.381631,-0.69696 -0.603557,-0.85689 -0.648668,-0.79927 -0.674075,-0.75823 -0.694298,-0.7224 -0.70778,-0.69487 -0.715557,-0.67359 -0.721261,-0.65592 -0.727482,-0.63774 -0.731632,-0.62425 -0.736817,-0.61229 -0.737334,-0.60088 -0.741483,-0.59256 -0.740966,-0.58062 -0.745113,-0.57491 -0.745113,-0.56711 -0.747186,-0.56141 -0.746668,-0.55309 z"
           id="path4566"
           inkscape:connector-curvature="0" />
        <path
           style="color:#000000;font-style:normal;font-variant:normal;font-weight:normal;font-stretch:normal;font-size:medium;line-height:normal;font-family:sans-serif;text-indent:0;text-align:start;text-decoration:none;text-decoration-line:none;text-decoration-style:solid;text-decoration-color:#000000;letter-spacing:normal;word-spacing:normal;text-transform:none;writing-mode:lr-tb;direction:ltr;baseline-shift:baseline;text-anchor:start;white-space:normal;clip-rule:nonzero;display:inline;overflow:visible;visibility:visible;opacity:1;isolation:auto;mix-blend-mode:normal;color-interpolation:sRGB;color-interpolation-filters:linearRGB;solid-color:#000000;solid-opacity:1;fill:#0e629a;fill-opacity:1;fill-rule:nonzero;stroke:none;stroke-width:6.19988155;stroke-linecap:butt;stroke-linejoin:round;stroke-miterlimit:100;stroke-dasharray:none;stroke-dashoffset:0;stroke-opacity:1;color-rendering:auto;image-rendering:auto;shape-rendering:auto;text-rendering:auto;enable-background:accumulate"
           d="m -102.8254,130.79775 -0.10836,-0.0733 c -0.003,-0.002 -0.005,-0.004 -0.008,-0.006 l -0.76274,-0.51362 c -0.003,-0.002 -0.007,-0.004 -0.0104,-0.006 l -0.76274,-0.50999 c -0.003,-0.002 -0.005,-0.004 -0.008,-0.006 l -0.76275,-0.50375 c -0.003,-0.002 -0.007,-0.004 -0.0103,-0.006 l -0.76275,-0.5022 c -0.003,-0.002 -0.005,-0.004 -0.008,-0.006 l -0.76275,-0.49804 c -0.003,-0.001 -0.005,-0.003 -0.008,-0.004 l -0.76274,-0.49649 c -0.003,-10e-4 -0.005,-0.003 -0.008,-0.004 l -0.76067,-0.49233 c -0.003,-0.002 -0.005,-0.004 -0.008,-0.006 l -0.76275,-0.48817 c -0.003,-0.001 -0.005,-0.003 -0.008,-0.004 l -0.76275,-0.48609 c -0.003,-0.001 -0.005,-0.003 -0.008,-0.004 l -0.76119,-0.48455 c -0.003,-0.001 -0.005,-0.003 -0.008,-0.004 l -0.76274,-0.48039 c -0.003,-10e-4 -0.005,-0.003 -0.008,-0.004 l -0.76066,-0.47675 c -0.003,-10e-4 -0.005,-0.003 -0.008,-0.004 l -0.76274,-0.47416 c -0.002,-10e-4 -0.004,-0.003 -0.006,-0.004 l -0.76274,-0.4726 c -0.002,-0.001 -0.004,-0.003 -0.006,-0.004 l -0.76275,-0.46843 c -0.003,-0.001 -0.005,-0.003 -0.008,-0.004 l -0.76275,-0.46688 c -0.002,-0.001 -0.004,-0.003 -0.006,-0.004 l -0.75912,-0.46118 c -0.002,-0.001 -0.004,-0.003 -0.006,-0.004 l -0.76274,-0.46065 c -0.002,-10e-4 -0.004,-0.003 -0.006,-0.004 l -0.76274,-0.46065 c -0.002,-8e-4 -0.004,-0.001 -0.006,-0.002 l -0.76274,-0.45702 c -0.002,-10e-4 -0.004,-0.003 -0.006,-0.004 l -0.0228,-0.0136 v 7.27593 l 0.62067,0.3791 0.75704,0.46481 0.75496,0.46845 0.75652,0.47051 0.75497,0.4726 0.75704,0.47467 0.75496,0.47831 0.75497,0.48247 0.75496,0.48246 0.75496,0.48818 0.75497,0.49026 0.75496,0.49233 0.75445,0.49649 0.75341,0.50012 0.75496,0.50376 0.75289,0.50634 0.75289,0.51 0.75289,0.51363 0.7529,0.51985 0.75081,0.52194 0.75134,0.52764 0.75082,0.53181 0.75081,0.53751 0.74927,0.54166 0.749255,0.54739 0.746669,0.5531 0.747185,0.5614 0.745113,0.56711 0.745112,0.57491 0.740967,0.58062 0.741483,0.59256 0.737334,0.60088 0.736817,0.6123 0.731631,0.62424 0.727483,0.63774 0.721262,0.65593 0.715556,0.67358 0.70778,0.69487 0.694297,0.7224 0.674075,0.75824 0.648669,0.79926 0.603557,0.8569 0.381631,0.69696 2.044005,5.82592 -2.072005,-6.96536 -0.528889,-1.2625 -0.664742,-1.27186 -0.691706,-1.1737 -0.709854,-1.10463 -0.717631,-1.0553 -0.727485,-1.01582 -0.731111,-0.98674 -0.73526,-0.96077 -0.739411,-0.93949 -0.740965,-0.91922 -0.743037,-0.90417 -0.745115,-0.88755 -0.745113,-0.87664 -0.749259,-0.86055 -0.747187,-0.85067 -0.748745,-0.84029 -0.74926,-0.83094 -0.750816,-0.81951 -0.75081,-0.81328 -0.75135,-0.80341 -0.75081,-0.79511 z"
           id="path4571"
           inkscape:connector-curvature="0" />
        <path
           style="color:#000000;font-style:normal;font-variant:normal;font-weight:normal;font-stretch:normal;font-size:medium;line-height:normal;font-family:sans-serif;text-indent:0;text-align:start;text-decoration:none;text-decoration-line:none;text-decoration-style:solid;text-decoration-color:#000000;letter-spacing:normal;word-spacing:normal;text-transform:none;writing-mode:lr-tb;direction:ltr;baseline-shift:baseline;text-anchor:start;white-space:normal;clip-rule:nonzero;display:inline;overflow:visible;visibility:visible;opacity:1;isolation:auto;mix-blend-mode:normal;color-interpolation:sRGB;color-interpolation-filters:linearRGB;solid-color:#000000;solid-opacity:1;fill:#127bc1;fill-opacity:1;fill-rule:nonzero;stroke:none;stroke-width:6.19988155;stroke-linecap:butt;stroke-linejoin:round;stroke-miterlimit:100;stroke-dasharray:none;stroke-dashoffset:0;stroke-opacity:1;color-rendering:auto;image-rendering:auto;shape-rendering:auto;text-rendering:auto;enable-background:accumulate"
           d="m -118.36128,115.87978 0.17992,0.15944 0.75496,0.67358 0.7529,0.6793 0.75496,0.68292 0.75496,0.68761 0.75497,0.69279 0.75444,0.69695 0.75341,0.70319 0.75497,0.70889 0.75444,0.71253 0.75342,0.71876 0.75496,0.72292 0.75289,0.73019 0.75289,0.73486 0.75496,0.74214 0.7529,0.74629 0.75289,0.75407 0.75289,0.75823 0.75289,0.76758 0.75289,0.77226 0.75133,0.77952 0.75289,0.78784 0.75082,0.7951 0.75134,0.80342 0.75082,0.81328 0.750812,0.81951 0.74926,0.83095 0.748745,0.84028 0.747187,0.85068 0.749259,0.86054 0.745113,0.87665 0.745115,0.88754 0.743037,0.90416 0.740965,0.91924 0.739411,0.93947 0.73526,0.96078 0.731111,0.98674 0.727485,1.01583 0.717631,1.05529 0.709854,1.10464 0.691706,1.17369 0.664742,1.27186 0.528889,1.26251 2.076154,6.97834 -2.093782,-8.19151 -0.623262,-1.91583 -0.705704,-1.79588 -0.723856,-1.65201 -0.731111,-1.55749 -0.737334,-1.49258 -0.740967,-1.43908 -0.745112,-1.3965 -0.745113,-1.36222 -0.747189,-1.33106 -0.749259,-1.30562 -0.748742,-1.28016 -0.750818,-1.25992 -0.751336,-1.23654 -0.750816,-1.22096 -0.75289,-1.20122 -0.751336,-1.18514 -0.752889,-1.16954 -0.75082,-1.15398 -0.75289,-1.13994 -0.75289,-1.12644 -0.0145,-0.0228 -0.54859,-0.54791 c -0.003,-0.003 -0.005,-0.007 -0.008,-0.0101 l -0.76275,-0.75615 -0.01,-0.0105 -0.76274,-0.74993 c -0.003,-0.003 -0.007,-0.005 -0.0104,-0.008 l -0.76067,-0.74421 -0.01,-0.0101 -0.76274,-0.73641 c -0.003,-0.003 -0.005,-0.007 -0.008,-0.0105 l -0.76274,-0.73226 c -0.003,-0.003 -0.007,-0.005 -0.01,-0.008 l -0.76274,-0.72655 -0.008,-0.008 -0.76274,-0.72084 -0.008,-0.008 -0.76274,-0.71669 -0.008,-0.008 -0.76274,-0.71097 c -0.003,-0.003 -0.007,-0.005 -0.0103,-0.008 l -0.76066,-0.70474 c -0.003,-0.003 -0.007,-0.005 -0.0103,-0.008 l -0.76274,-0.69902 -0.008,-0.008 -0.76274,-0.69488 -0.008,-0.008 -0.76274,-0.69123 c -0.003,-0.002 -0.005,-0.004 -0.008,-0.006 l -0.76274,-0.68553 -0.009,-0.008 -0.76274,-0.68137 c -0.003,-0.002 -0.005,-0.004 -0.008,-0.006 l -0.76274,-0.67722 -0.008,-0.008 -0.76119,-0.67098 c -0.003,-0.002 -0.005,-0.004 -0.008,-0.006 l -0.76274,-0.66736 c -0.003,-0.002 -0.005,-0.004 -0.008,-0.006 l -0.76275,-0.66371 -0.008,-0.008 -0.76274,-0.658 c -0.003,-0.002 -0.005,-0.004 -0.008,-0.006 l -0.44955,-0.38638 z"
           id="path4533"
           inkscape:connector-curvature="0" />
        <path
           style="color:#000000;font-style:normal;font-variant:normal;font-weight:normal;font-stretch:normal;font-size:medium;line-height:normal;font-family:sans-serif;text-indent:0;text-align:start;text-decoration:none;text-decoration-line:none;text-decoration-style:solid;text-decoration-color:#000000;letter-spacing:normal;word-spacing:normal;text-transform:none;writing-mode:lr-tb;direction:ltr;baseline-shift:baseline;text-anchor:start;white-space:normal;clip-rule:nonzero;display:inline;overflow:visible;visibility:visible;opacity:1;isolation:auto;mix-blend-mode:normal;color-interpolation:sRGB;color-interpolation-filters:linearRGB;solid-color:#000000;solid-opacity:1;fill:#ffffff;fill-opacity:1;fill-rule:nonzero;stroke:none;stroke-width:6.19988155;stroke-linecap:butt;stroke-linejoin:round;stroke-miterlimit:100;stroke-dasharray:none;stroke-dashoffset:0;stroke-opacity:1;color-rendering:auto;image-rendering:auto;shape-rendering:auto;text-rendering:auto;enable-background:accumulate"
           d="m -133.49429,91.478195 c -0.8046,0 -1.20659,0.372181 -1.20659,1.116057 v 4.742071 c 0,0.743875 0.40199,1.115537 1.20659,1.115537 h 7.05602 v 52.81558 h -7.05602 c -0.8046,0 -1.20659,0.37218 -1.20659,1.11606 v 4.74206 c 0,0.74388 0.40199,1.11554 1.20659,1.11554 h 22.28132 c 0.8046,0 1.20712,-0.37166 1.20712,-1.11554 v -4.74206 c 0,-0.74388 -0.40252,-1.11606 -1.20712,-1.11606 h -7.14831 V 105.519 101.00907 l 0.62066,0.74006 0.7529,0.90988 0.75289,0.91767 0.75496,0.92546 0.75289,0.93324 0.75497,0.94313 0.75289,0.95298 0.75341,0.96077 0.75444,0.97064 0.75341,0.98103 0.75289,0.9883 0.75497,1.00024 0.75289,1.01012 0.75288,1.01997 0.75497,1.02985 0.75289,1.04179 0.7529,1.05322 0.75289,1.06308 0.75289,1.07555 0.75496,1.08853 0.75289,1.09892 0.75341,1.1145 0.75289,1.12644 0.75289,1.13995 0.750818,1.15397 0.752892,1.16954 0.751332,1.18513 0.752891,1.20122 0.750818,1.22097 0.751336,1.23654 0.750816,1.25991 0.748741,1.28018 0.749262,1.30561 0.747187,1.33106 0.745112,1.36222 0.745113,1.3965 0.740966,1.43909 0.737334,1.49257 0.731114,1.55749 0.723852,1.65202 0.705706,1.79586 0.623262,1.91584 2.093782,8.19151 h 1.23304 1.856819 5.013049 c 0.804602,0 1.207115,-0.37218 1.207115,-1.11606 V 98.452378 h 7.148313 c 0.742707,0 1.114297,-0.37218 1.114297,-1.116055 v -4.742071 c 0,-0.743876 -0.37159,-1.116057 -1.114297,-1.116057 h -22.373609 c -0.742707,0 -1.1143,0.372181 -1.1143,1.116057 v 4.742071 c 0,0.743875 0.371593,1.116055 1.1143,1.116055 h 7.148313 v 43.049432 l -0.494149,-1.05269 c -0.009,-0.0192 -0.0181,-0.0381 -0.02748,-0.0571 l -0.762745,-1.54192 c -0.008,-0.0151 -0.01539,-0.0302 -0.02334,-0.0452 l -0.762744,-1.48272 c -0.006,-0.0125 -0.01306,-0.025 -0.0197,-0.0374 l -0.76274,-1.4313 c -0.006,-0.0112 -0.01221,-0.0227 -0.01816,-0.0338 l -0.762744,-1.39183 c -0.005,-0.01 -0.0103,-0.0199 -0.01555,-0.0296 l -0.762744,-1.35858 c -0.005,-0.008 -0.0092,-0.0174 -0.01399,-0.0259 l -0.762743,-1.32899 c -0.005,-0.007 -0.0087,-0.0146 -0.01349,-0.0218 l -0.762735,-1.30353 c -0.004,-0.007 -0.0081,-0.0141 -0.01192,-0.0213 l -0.762744,-1.28016 c -0.004,-0.007 -0.0081,-0.0132 -0.01192,-0.0197 l -0.762743,-1.25784 c -0.004,-0.006 -0.0081,-0.0123 -0.01192,-0.0182 l -0.762743,-1.23862 c -0.004,-0.006 -0.0081,-0.0117 -0.01192,-0.0177 l -0.762744,-1.21888 c -0.003,-0.006 -0.0068,-0.0117 -0.0098,-0.0177 l -0.762743,-1.20123 c -0.003,-0.006 -0.0073,-0.0118 -0.01038,-0.0177 l -0.762744,-1.18514 c -0.003,-0.005 -0.0068,-0.0108 -0.0098,-0.0161 l -0.762743,-1.16955 c -0.003,-0.005 -0.0073,-0.0102 -0.01038,-0.0156 l -0.762744,-1.15605 c -0.003,-0.005 -0.0068,-0.009 -0.0098,-0.0135 l -0.762741,-1.14203 c -0.003,-0.005 -0.0073,-0.009 -0.01038,-0.014 l -0.762744,-1.12644 c -0.003,-0.005 -0.0068,-0.009 -0.0098,-0.0135 l -0.762743,-1.1145 c -0.003,-0.005 -0.0073,-0.009 -0.01038,-0.014 l -0.762744,-1.10255 c -0.003,-0.004 -0.0068,-0.008 -0.0098,-0.012 l -0.760668,-1.0906 c -0.003,-0.004 -0.0073,-0.008 -0.01038,-0.012 l -0.762732,-1.07711 c -0.003,-0.005 -0.007,-0.009 -0.01,-0.0135 l -0.76275,-1.06516 c -0.003,-0.004 -0.005,-0.008 -0.008,-0.012 l -0.76273,-1.0553 c -0.003,-0.004 -0.007,-0.008 -0.01,-0.012 l -0.76275,-1.04336 c -0.003,-0.004 -0.007,-0.008 -0.0104,-0.012 l -0.76274,-1.034 c -0.003,-0.004 -0.005,-0.008 -0.008,-0.0115 l -0.76326,-1.02205 c -0.003,-0.004 -0.007,-0.008 -0.01,-0.012 l -0.76274,-1.01168 c -0.003,-0.004 -0.005,-0.008 -0.008,-0.012 l -0.76274,-1.00024 c -0.003,-0.004 -0.007,-0.008 -0.01,-0.012 l -0.76275,-0.99246 c -0.003,-0.004 -0.005,-0.008 -0.008,-0.0115 l -0.76275,-0.98259 c -0.003,-0.004 -0.007,-0.008 -0.01,-0.012 l -0.76274,-0.97272 c -0.003,-0.003 -0.005,-0.007 -0.008,-0.01 l -0.76274,-0.96493 -0.01,-0.01 -0.76274,-0.95506 c -0.003,-0.004 -0.005,-0.008 -0.008,-0.012 l -0.76275,-0.9452 -0.01,-0.01 -0.76274,-0.937401 c -0.003,-0.004 -0.005,-0.008 -0.008,-0.01196 l -0.76274,-0.927532 -0.01,-0.0098 -0.76274,-0.919747 c -0.003,-0.004 -0.005,-0.0076 -0.008,-0.01143 l -0.76274,-0.911957 -0.01,-0.0098 -0.76119,-0.903648 -0.01,-0.01038 -0.76275,-0.893781 c -0.003,-0.004 -0.005,-0.0081 -0.008,-0.01194 l -0.76274,-0.885989 -0.01,-0.0098 -0.76274,-0.880277 c -0.003,-0.003 -0.005,-0.0073 -0.008,-0.01039 l -0.76278,-0.87197 -0.01,-0.01038 c -0.2519,-0.287497 -0.50466,-0.575315 -0.75549,-0.86314 z"
           id="path4546"
           inkscape:connector-curvature="0"
           sodipodi:nodetypes="ssssccssssssssccccccccccccccccccccccccccccccccccccccccccccccccsscsssssssscccccccccccccccccccccccccccccccccccccccccccccccccccccccccccccccccccccccccccccccccccccccccccs" />
      </g>
      <path
         inkscape:connector-curvature="0"
         id="path4804"
         style="font-style:normal;font-variant:normal;font-weight:normal;font-stretch:normal;font-size:91.44000244px;line-height:1.25;font-family:Sanchez;-inkscape-font-specification:Sanchez;letter-spacing:-4.66989565px;word-spacing:0px;fill:#127bc1;fill-opacity:1;stroke:none;stroke-width:0.26569134"
         d="m 311.57073,276.42534 h -50.1876 q -1.19276,0 -1.19276,-1.10275 v -4.68666 q 0,-1.10274 1.19276,-1.10274 h 6.97305 v -52.19654 h -6.97305 q -1.19276,0 -1.19276,-1.10274 v -4.68666 q 0,-1.10275 1.19276,-1.10275 h 21.9284 q 1.19275,0 1.19275,1.19464 v 4.50287 q 0,1.19464 -1.19275,1.19464 h -6.97305 v 52.19654 h 29.17671 v -9.00574 q 0,-1.10275 1.19276,-1.10275 h 4.95453 q 1.10101,0 1.10101,1.10275 v 14.70325 q 0,1.19464 -1.19276,1.19464 z" />
      <path
         inkscape:connector-curvature="0"
         id="path4806"
         style="font-style:normal;font-variant:normal;font-weight:normal;font-stretch:normal;font-size:91.44000244px;line-height:1.25;font-family:Sanchez;-inkscape-font-specification:Sanchez;letter-spacing:-4.66989565px;word-spacing:0px;fill:#127bc1;fill-opacity:1;stroke:none;stroke-width:0.26569134"
         d="m 355.32213,270.63593 q -6.42254,6.43267 -16.42336,6.43267 -10.00082,0 -16.42336,-6.34077 -6.42256,-6.43267 -6.42256,-17.00064 0,-10.65985 6.51431,-16.90873 6.51429,-6.24888 16.33161,-6.24888 9.90906,0 16.33161,6.34077 6.51429,6.24888 6.51429,16.81684 0,10.47607 -6.42254,16.90874 z m -31.56222,-16.90874 q 0,7.53542 4.40403,12.22208 4.40403,4.68666 10.73483,4.68666 6.42254,0 10.82657,-4.68666 4.40403,-4.68666 4.40403,-12.22208 0,-7.53541 -4.49578,-12.13018 -4.40403,-4.59476 -10.64307,-4.59476 -6.23904,0 -10.73482,4.59476 -4.49579,4.59477 -4.49579,12.13018 z" />
      <path
         inkscape:connector-curvature="0"
         id="path4808"
         style="font-style:normal;font-variant:normal;font-weight:normal;font-stretch:normal;font-size:91.44000244px;line-height:1.25;font-family:Sanchez;-inkscape-font-specification:Sanchez;letter-spacing:-4.66989565px;word-spacing:0px;fill:#127bc1;fill-opacity:1;stroke:none;stroke-width:0.26569134"
         d="m 382.23155,276.42534 h -17.52437 q -1.19276,0 -1.19276,-1.10275 v -3.9515 q 0,-1.10274 1.19276,-1.10274 h 5.04629 v -32.89852 h -5.04629 q -1.19276,0 -1.19276,-1.10274 v -3.9515 q 0,-1.10275 1.19276,-1.10275 h 11.56058 q 1.10101,0 1.10101,1.10275 v 37.95276 h 4.86278 q 1.19276,0 1.19276,1.10274 v 3.9515 q 0,1.10275 -1.19276,1.10275 z m -5.22979,-58.813 q 1.55977,1.56222 1.55977,3.67581 0,2.11359 -1.55977,3.58392 -1.46801,1.47032 -3.57827,1.47032 -2.11026,0 -3.67002,-1.47032 -1.46801,-1.47033 -1.46801,-3.58392 0,-2.11359 1.46801,-3.67581 1.55976,-1.56222 3.67002,-1.56222 2.11026,0 3.57827,1.56222 z" />
      <path
         inkscape:connector-curvature="0"
         id="path4810"
         style="font-style:normal;font-variant:normal;font-weight:normal;font-stretch:normal;font-size:91.44000244px;line-height:1.25;font-family:Sanchez;-inkscape-font-specification:Sanchez;letter-spacing:-4.66989565px;word-spacing:0px;fill:#127bc1;fill-opacity:1;stroke:none;stroke-width:0.26569134"
         d="m 434.52006,276.42534 h -8.71631 q -3.94527,0 -3.94527,-3.85961 v -24.16846 q 0,-5.32993 -2.56902,-8.27058 -2.56902,-2.94065 -7.52355,-2.94065 -3.76178,0 -5.78029,1.19464 -1.92676,1.10274 -2.93602,2.0217 -1.00926,0.82705 -1.65151,1.65411 -1.10101,1.47033 -1.83501,3.03255 v 25.17931 h 4.86278 q 1.19276,0 1.19276,1.10274 v 3.9515 q 0,1.10275 -1.19276,1.10275 h -17.52437 q -1.19276,0 -1.19276,-1.10275 v -3.9515 q 0,-1.10274 1.19276,-1.10274 h 5.04628 v -53.66686 h -5.04628 q -1.19276,0 -1.19276,-1.10274 v -3.9515 q 0,-1.10275 1.19276,-1.10275 h 11.56058 q 1.10101,0 1.10101,1.10275 v 20.49265 q 0,3.03255 -0.36701,5.60562 h 0.18351 q 4.49578,-7.07594 14.31309,-7.07594 7.34005,0 11.46883,4.31908 4.12878,4.31908 4.22053,11.6707 v 23.70899 h 5.13803 q 1.19276,0 1.19276,1.10274 v 3.9515 q 0,1.10275 -1.19276,1.10275 z" />
      <path
         inkscape:connector-curvature="0"
         id="path4812"
         style="font-style:normal;font-variant:normal;font-weight:normal;font-stretch:normal;font-size:91.44000244px;line-height:1.25;font-family:Sanchez;-inkscape-font-specification:Sanchez;letter-spacing:-4.66989565px;word-spacing:0px;fill:#127bc1;fill-opacity:1;stroke:none;stroke-width:0.26569134"
         d="m 456.18824,276.42534 h -17.52437 q -1.19276,0 -1.19276,-1.10275 v -3.9515 q 0,-1.10274 1.19276,-1.10274 h 5.04629 v -32.89852 h -5.04629 q -1.19276,0 -1.19276,-1.10274 v -3.9515 q 0,-1.10275 1.19276,-1.10275 h 11.56058 q 1.10101,0 1.10101,1.10275 v 37.95276 h 4.86278 q 1.19276,0 1.19276,1.10274 v 3.9515 q 0,1.10275 -1.19276,1.10275 z m -5.22978,-58.813 q 1.55976,1.56222 1.55976,3.67581 0,2.11359 -1.55976,3.58392 -1.46801,1.47032 -3.57828,1.47032 -2.11026,0 -3.67002,-1.47032 -1.46801,-1.47033 -1.46801,-3.58392 0,-2.11359 1.46801,-3.67581 1.55976,-1.56222 3.67002,-1.56222 2.11027,0 3.57828,1.56222 z" />
    </g>
  </g>
</svg>
